<?xml version="1.0" encoding="utf-8"?>
<!-- Generator: Adobe Illustrator 20.1.0, SVG Export Plug-In . SVG Version: 6.00 Build 0)  -->
<svg version="1.1" id="Livello_1" xmlns="http://www.w3.org/2000/svg" xmlns:xlink="http://www.w3.org/1999/xlink" x="0px" y="0px"
	 width="395px" height="430px" viewBox="0 0 395 430" enable-background="new 0 0 395 430" xml:space="preserve">
<g>
	<g>
		<path fill="#00969B" d="M362.307,132.989c0-43.243-36.475-78.422-81.307-78.422c-4.139,0-8.347,0.283-12.509,0.884
			c-34.84,4.969-58.154,30.031-71.203,49.249c-13.094-19.218-36.408-44.279-71.237-49.249c-4.163-0.604-8.381-0.884-12.509-0.884
			c-44.856,0-81.321,35.179-81.321,78.422c0,43.248,36.464,78.406,81.286,78.406c4.163,0,8.381-0.259,12.541-0.858
			c34.829-4.996,58.143-30.068,71.237-49.305c13.049,19.237,36.363,44.309,71.203,49.305c4.163,0.598,8.368,0.858,12.541,0.858
			C325.856,211.392,362.307,176.236,362.307,132.989 M122.104,182.999c-2.843,0.411-5.742,0.625-8.595,0.625
			c-29.483,0-53.483-22.737-53.483-50.635c0-27.915,24.001-50.654,53.518-50.654c2.832,0,5.718,0.232,8.571,0.62
			c32.82,4.686,52.92,37.057,59.733,50.016C175.024,145.965,154.937,178.318,122.104,182.999 M212.706,132.989
			c6.813-12.977,26.899-45.345,59.722-50.032c2.843-0.39,5.752-0.62,8.571-0.62c29.504,0,53.508,22.737,53.508,50.654
			c0,27.899-24,50.635-53.473,50.635c-2.843,0-5.742-0.214-8.606-0.625C239.606,178.318,219.495,145.936,212.706,132.989"/>
		<rect x="91.133" y="125.323" fill="#00969B" width="48.827" height="15.734"/>
		<polygon fill="#00969B" points="286.412,141.057 302.913,141.057 302.913,125.323 286.412,125.323 286.412,108.766 
			270.633,108.766 270.633,125.323 254.111,125.323 254.111,141.057 270.633,141.057 270.633,157.617 286.412,157.617 		"/>
		<path fill="#00969B" d="M55.323,234.716l-14.257,45.42h11.505l2.324-9.295h13.06l2.514,9.295h11.943l-14.46-45.42H55.323z
			 M57.046,262.118l4.128-16.637l4.478,16.637H57.046z"/>
		<path fill="#00969B" d="M125.227,249.886c0-8.729-4.737-15.17-17.313-15.17H89.61v45.42h11.245v-14.393h5.661l6.824,14.393h13.287
			l-8.865-16.632C122.713,260.849,125.227,256.125,125.227,249.886 M106.811,256.729h-5.955V243.91h5.731
			c5.245,0,6.677,2.014,6.677,6.041C113.26,254.998,110.701,256.729,106.811,256.729"/>
		<path fill="#00969B" d="M149.196,234.716h-14.876v45.42h14.943c19.274,0,22.547-12.384,22.547-23.122
			C171.81,242.753,166.169,234.716,149.196,234.716 M149.816,270.844h-4.253v-26.939h3.281c10.049,0,10.962,4.732,10.962,13.607
			C159.808,265.188,159.121,270.844,149.816,270.844"/>
		<path fill="#00969B" d="M205.092,262.457c0,6.92-1.894,9.21-7.005,9.21c-4.251,0-6.925-1.737-6.925-9.271v-27.677h-11.235v29.777
			c0,13.749,9.926,16.343,17.684,16.343c8.031,0,18.294-2.853,18.294-16.276v-29.844h-10.815v27.738H205.092z"/>
		<polygon fill="#00969B" points="225.958,244.011 237.701,244.011 237.701,270.844 225.958,270.844 225.958,280.136 
			260.763,280.136 260.763,270.844 248.944,270.844 248.944,244.011 260.763,244.011 260.763,234.716 225.958,234.716 		"/>
		<polygon fill="#00969B" points="297.014,261.984 282.295,234.716 270.034,234.716 270.034,280.136 280.684,280.136 
			280.604,251.073 296.114,280.136 307.493,280.136 307.493,234.716 297.014,234.716 		"/>
		<path fill="#00969B" d="M333.986,234.126c-13.77,0-19.004,10.105-19.004,23.803c0,15.023,6.011,22.908,19.06,22.908
			c14.607,0,19.41-10.257,19.41-23.397C353.452,240.102,346.912,234.126,333.986,234.126 M334.042,271.667
			c-6.484,0-7.128-4.59-7.128-13.738c0-11.099,1.061-14.673,7.072-14.673c6.631,0,7.534,3.091,7.534,14.184
			C341.52,267.91,340.617,271.667,334.042,271.667"/>
		<g>
			<path fill="#00969B" d="M362.093,59.32c-0.462-1.071-1.071-1.99-1.862-2.768c-0.767-0.777-1.681-1.392-2.717-1.86
				c-1.05-0.457-2.177-0.689-3.385-0.689c-1.218,0-2.346,0.232-3.382,0.689c-1.05,0.468-1.964,1.082-2.731,1.86
				c-0.777,0.777-1.397,1.697-1.862,2.768c-0.462,1.061-0.689,2.228-0.689,3.492c0,1.213,0.224,2.362,0.689,3.452
				c0.462,1.093,1.082,2.025,1.862,2.797c0.767,0.783,1.681,1.405,2.731,1.868c1.037,0.462,2.167,0.687,3.382,0.687
				c1.208,0,2.335-0.224,3.385-0.687c1.037-0.462,1.95-1.082,2.717-1.868c0.788-0.772,1.397-1.702,1.862-2.797
				c0.452-1.087,0.687-2.239,0.687-3.452C362.782,61.548,362.544,60.381,362.093,59.32z M360.188,65.478
				c-0.339,0.823-0.823,1.539-1.432,2.153c-0.62,0.62-1.32,1.117-2.097,1.477c-0.777,0.366-1.624,0.548-2.527,0.548
				c-0.914,0-1.771-0.182-2.57-0.548c-0.802-0.361-1.499-0.858-2.097-1.477c-0.588-0.615-1.05-1.331-1.397-2.153
				c-0.339-0.823-0.508-1.715-0.508-2.666c0-0.959,0.168-1.862,0.508-2.707c0.35-0.847,0.812-1.574,1.397-2.188
				c0.598-0.615,1.296-1.101,2.097-1.437c0.802-0.345,1.659-0.518,2.57-0.518c0.903,0,1.747,0.174,2.527,0.518
				c0.777,0.339,1.478,0.823,2.097,1.437c0.609,0.615,1.093,1.341,1.432,2.188c0.339,0.847,0.508,1.747,0.508,2.707
				C360.696,63.766,360.525,64.655,360.188,65.478z"/>
			<path fill="#00969B" d="M356.015,63.664c0.497-0.248,0.868-0.588,1.138-1.021c0.259-0.436,0.395-0.93,0.395-1.456
				c0-0.823-0.294-1.544-0.879-2.148c-0.574-0.604-1.568-0.914-2.976-0.914c-0.529,0-1.005,0.011-1.421,0.04
				c-0.417,0.029-0.812,0.061-1.194,0.112v8.657h2.177v-2.837h0.879l1.523,2.837h2.482L356.015,63.664z M353.837,62.491
				c-0.294,0-0.518-0.016-0.655-0.067v-2.33c0.136-0.045,0.385-0.072,0.721-0.072c0.924,0,1.387,0.406,1.387,1.234
				C355.293,62.085,354.807,62.491,353.837,62.491z"/>
		</g>
	</g>
	<rect x="40.159" y="310.537" fill="#00969B" width="313.294" height="65.46"/>
	<g>
		<path fill="#FFFFFF" d="M84.463,327.086v2.445H65.216v12.422h17.416v2.395H65.216v13.39h19.248v2.445H62.62v-33.097H84.463z"/>
		<path fill="#FFFFFF" d="M92.155,327.086h11.099c11.355,0,14.41,8.349,14.41,16.344c0,9.369-2.901,16.753-14.817,16.753H92.155
			V327.086z M94.751,329.53v28.208h8.555c10.082,0,11.608-6.416,11.608-14.105c0-6.823-2.445-14.102-11.608-14.102H94.751z"/>
		<path fill="#FFFFFF" d="M143.381,327.086h2.596v20.367c0,6.823-1.221,13.239-11.762,13.239c-10.387,0-11.71-5.448-11.71-12.678
			v-20.928h2.596v20.876c0,7.791,2.393,10.439,9.166,10.439c6.974,0,9.114-3.259,9.114-10.948V327.086z"/>
		<path fill="#FFFFFF" d="M177.039,358.962c-2.137,1.119-5.651,1.73-9.163,1.73c-8.811,0-15.431-4.48-15.431-16.751
			c0-11.204,6.416-17.314,15.684-17.314c3.311,0,6.925,0.814,8.401,1.68l-0.916,2.75c-1.579-1.273-4.89-2.038-7.433-2.038
			c-8.759,0-12.986,5.552-12.986,14.817c0,9.776,4.381,14.462,12.782,14.462c3.41,0,7.178-0.916,8.349-1.68L177.039,358.962z"/>
		<path fill="#FFFFFF" d="M182.033,360.183l12.015-33.097h2.547l12.067,33.097h-2.75l-3.41-9.521h-14.564l-3.361,9.521H182.033z
			 M195.219,330.089l-6.465,18.28h12.934L195.219,330.089z"/>
		<path fill="#FFFFFF" d="M239.267,329.53h-12.018v30.652h-2.596V329.53h-12.067v-2.445h26.681V329.53z"/>
		<path fill="#FFFFFF" d="M245.735,357.738h9.419V329.53h-9.419v-2.445h21.896v2.445h-9.878v28.208h9.878v2.445h-21.896V357.738z"/>
		<path fill="#FFFFFF" d="M300.78,343.685c0,9.928-5.143,17.006-13.951,17.006c-9.829,0-13.596-6.771-13.596-17.059
			c0-10.335,4.634-17.006,13.951-17.006C296.96,326.626,300.78,333.196,300.78,343.685z M298.03,343.685
			c0-8.861-2.596-14.666-10.846-14.666c-8.349,0-11.201,5.349-11.201,14.614c0,9.064,2.393,14.666,10.846,14.666
			C294.925,358.299,298.03,351.933,298.03,343.685z"/>
		<path fill="#FFFFFF" d="M308.318,360.183h-2.494v-33.097h2.901l18.128,29.024v-29.024h2.494v33.097h-2.75l-18.28-29.176V360.183z"
			/>
	</g>
</g>
</svg>
