G04 #@! TF.GenerationSoftware,KiCad,Pcbnew,6.0.0-rc1-unknown-59b0f55~66~ubuntu16.04.1*
G04 #@! TF.CreationDate,2018-11-29T09:25:19-07:00
G04 #@! TF.ProjectId,001,3030312e-6b69-4636-9164-5f7063625858,rev?*
G04 #@! TF.SameCoordinates,Original*
G04 #@! TF.FileFunction,Soldermask,Bot*
G04 #@! TF.FilePolarity,Negative*
%FSLAX46Y46*%
G04 Gerber Fmt 4.6, Leading zero omitted, Abs format (unit mm)*
G04 Created by KiCad (PCBNEW 6.0.0-rc1-unknown-59b0f55~66~ubuntu16.04.1) date Thu 29 Nov 2018 09:25:19 AM MST*
%MOMM*%
%LPD*%
G01*
G04 APERTURE LIST*
%ADD10C,0.100000*%
G04 APERTURE END LIST*
D10*
G36*
X147261200Y-97264696D02*
X146108800Y-97264696D01*
X146108800Y-95212296D01*
X147261200Y-95212296D01*
X147261200Y-97264696D01*
X147261200Y-97264696D01*
G37*
G36*
X137101200Y-97264696D02*
X135948800Y-97264696D01*
X135948800Y-95212296D01*
X137101200Y-95212296D01*
X137101200Y-97264696D01*
X137101200Y-97264696D01*
G37*
G36*
X132021200Y-97264696D02*
X130868800Y-97264696D01*
X130868800Y-95212296D01*
X132021200Y-95212296D01*
X132021200Y-97264696D01*
X132021200Y-97264696D01*
G37*
G36*
X126941200Y-97264696D02*
X125788800Y-97264696D01*
X125788800Y-95212296D01*
X126941200Y-95212296D01*
X126941200Y-97264696D01*
X126941200Y-97264696D01*
G37*
G36*
X121861200Y-97264696D02*
X120708800Y-97264696D01*
X120708800Y-95212296D01*
X121861200Y-95212296D01*
X121861200Y-97264696D01*
X121861200Y-97264696D01*
G37*
G36*
X116781200Y-97264696D02*
X115628800Y-97264696D01*
X115628800Y-95212296D01*
X116781200Y-95212296D01*
X116781200Y-97264696D01*
X116781200Y-97264696D01*
G37*
G36*
X142181200Y-97264696D02*
X141028800Y-97264696D01*
X141028800Y-95212296D01*
X142181200Y-95212296D01*
X142181200Y-97264696D01*
X142181200Y-97264696D01*
G37*
G36*
X144721200Y-93964696D02*
X143568800Y-93964696D01*
X143568800Y-91912296D01*
X144721200Y-91912296D01*
X144721200Y-93964696D01*
X144721200Y-93964696D01*
G37*
G36*
X119321200Y-93964696D02*
X118168800Y-93964696D01*
X118168800Y-91912296D01*
X119321200Y-91912296D01*
X119321200Y-93964696D01*
X119321200Y-93964696D01*
G37*
G36*
X124401200Y-93964696D02*
X123248800Y-93964696D01*
X123248800Y-91912296D01*
X124401200Y-91912296D01*
X124401200Y-93964696D01*
X124401200Y-93964696D01*
G37*
G36*
X129481200Y-93964696D02*
X128328800Y-93964696D01*
X128328800Y-91912296D01*
X129481200Y-91912296D01*
X129481200Y-93964696D01*
X129481200Y-93964696D01*
G37*
G36*
X134561200Y-93964696D02*
X133408800Y-93964696D01*
X133408800Y-91912296D01*
X134561200Y-91912296D01*
X134561200Y-93964696D01*
X134561200Y-93964696D01*
G37*
G36*
X149801200Y-93964696D02*
X148648800Y-93964696D01*
X148648800Y-91912296D01*
X149801200Y-91912296D01*
X149801200Y-93964696D01*
X149801200Y-93964696D01*
G37*
G36*
X139641200Y-93964696D02*
X138488800Y-93964696D01*
X138488800Y-91912296D01*
X139641200Y-91912296D01*
X139641200Y-93964696D01*
X139641200Y-93964696D01*
G37*
G36*
X116781200Y-76944696D02*
X115628800Y-76944696D01*
X115628800Y-74892296D01*
X116781200Y-74892296D01*
X116781200Y-76944696D01*
X116781200Y-76944696D01*
G37*
G36*
X147261200Y-76944696D02*
X146108800Y-76944696D01*
X146108800Y-74892296D01*
X147261200Y-74892296D01*
X147261200Y-76944696D01*
X147261200Y-76944696D01*
G37*
G36*
X142181200Y-76944696D02*
X141028800Y-76944696D01*
X141028800Y-74892296D01*
X142181200Y-74892296D01*
X142181200Y-76944696D01*
X142181200Y-76944696D01*
G37*
G36*
X137101200Y-76944696D02*
X135948800Y-76944696D01*
X135948800Y-74892296D01*
X137101200Y-74892296D01*
X137101200Y-76944696D01*
X137101200Y-76944696D01*
G37*
G36*
X132021200Y-76944696D02*
X130868800Y-76944696D01*
X130868800Y-74892296D01*
X132021200Y-74892296D01*
X132021200Y-76944696D01*
X132021200Y-76944696D01*
G37*
G36*
X126941200Y-76944696D02*
X125788800Y-76944696D01*
X125788800Y-74892296D01*
X126941200Y-74892296D01*
X126941200Y-76944696D01*
X126941200Y-76944696D01*
G37*
G36*
X121861200Y-76944696D02*
X120708800Y-76944696D01*
X120708800Y-74892296D01*
X121861200Y-74892296D01*
X121861200Y-76944696D01*
X121861200Y-76944696D01*
G37*
G36*
X129481200Y-73644696D02*
X128328800Y-73644696D01*
X128328800Y-71592296D01*
X129481200Y-71592296D01*
X129481200Y-73644696D01*
X129481200Y-73644696D01*
G37*
G36*
X149801200Y-73644696D02*
X148648800Y-73644696D01*
X148648800Y-71592296D01*
X149801200Y-71592296D01*
X149801200Y-73644696D01*
X149801200Y-73644696D01*
G37*
G36*
X144721200Y-73644696D02*
X143568800Y-73644696D01*
X143568800Y-71592296D01*
X144721200Y-71592296D01*
X144721200Y-73644696D01*
X144721200Y-73644696D01*
G37*
G36*
X119321200Y-73644696D02*
X118168800Y-73644696D01*
X118168800Y-71592296D01*
X119321200Y-71592296D01*
X119321200Y-73644696D01*
X119321200Y-73644696D01*
G37*
G36*
X124401200Y-73644696D02*
X123248800Y-73644696D01*
X123248800Y-71592296D01*
X124401200Y-71592296D01*
X124401200Y-73644696D01*
X124401200Y-73644696D01*
G37*
G36*
X139641200Y-73644696D02*
X138488800Y-73644696D01*
X138488800Y-71592296D01*
X139641200Y-71592296D01*
X139641200Y-73644696D01*
X139641200Y-73644696D01*
G37*
G36*
X134561200Y-73644696D02*
X133408800Y-73644696D01*
X133408800Y-71592296D01*
X134561200Y-71592296D01*
X134561200Y-73644696D01*
X134561200Y-73644696D01*
G37*
M02*
