G04 #@! TF.GenerationSoftware,KiCad,Pcbnew,6.0.0-rc1-unknown-59b0f55~66~ubuntu16.04.1*
G04 #@! TF.CreationDate,2018-11-29T09:25:19-07:00
G04 #@! TF.ProjectId,001,3030312e-6b69-4636-9164-5f7063625858,rev?*
G04 #@! TF.SameCoordinates,Original*
G04 #@! TF.FileFunction,Profile,NP*
%FSLAX46Y46*%
G04 Gerber Fmt 4.6, Leading zero omitted, Abs format (unit mm)*
G04 Created by KiCad (PCBNEW 6.0.0-rc1-unknown-59b0f55~66~ubuntu16.04.1) date Thu 29 Nov 2018 09:25:19 AM MST*
%MOMM*%
%LPD*%
G01*
G04 APERTURE LIST*
G04 #@! TA.AperFunction,NonConductor*
%ADD10C,0.266513*%
G04 #@! TD*
G04 APERTURE END LIST*
D10*
G04 #@! TO.C,svg2mod*
X104180141Y-62144585D02*
X104805594Y-62113205D01*
X103573149Y-62236713D02*
X104180141Y-62144585D01*
X102987642Y-62386569D02*
X103573149Y-62236713D01*
X102426635Y-62591131D02*
X102987642Y-62386569D01*
X101893154Y-62847380D02*
X102426635Y-62591131D01*
X101390214Y-63152294D02*
X101893154Y-62847380D01*
X100920839Y-63502855D02*
X101390214Y-63152294D01*
X100488048Y-63896041D02*
X100920839Y-63502855D01*
X100094862Y-64328831D02*
X100488048Y-63896041D01*
X99744302Y-64798206D02*
X100094862Y-64328831D01*
X99439389Y-65301145D02*
X99744302Y-64798206D01*
X99183140Y-65834627D02*
X99439389Y-65301145D01*
X98978577Y-66395633D02*
X99183140Y-65834627D01*
X98828723Y-66981141D02*
X98978577Y-66395633D01*
X98736594Y-67588132D02*
X98828723Y-66981141D01*
X98705214Y-68213585D02*
X98736594Y-67588132D01*
X98705214Y-70899991D02*
X98705214Y-68213585D01*
X98705214Y-73586396D02*
X98705214Y-70899991D01*
X98705214Y-76272801D02*
X98705214Y-73586396D01*
X98705214Y-78959206D02*
X98705214Y-76272801D01*
X98705214Y-81645611D02*
X98705214Y-78959206D01*
X98705214Y-84332016D02*
X98705214Y-81645611D01*
X98705214Y-87018422D02*
X98705214Y-84332016D01*
X98705214Y-89704827D02*
X98705214Y-87018422D01*
X98705214Y-92391232D02*
X98705214Y-89704827D01*
X98705214Y-95077637D02*
X98705214Y-92391232D01*
X98705214Y-97764042D02*
X98705214Y-95077637D01*
X98705214Y-100450448D02*
X98705214Y-97764042D01*
X98705214Y-103136853D02*
X98705214Y-100450448D01*
X98705214Y-105823258D02*
X98705214Y-103136853D01*
X98705214Y-108509663D02*
X98705214Y-105823258D01*
X98705214Y-111196069D02*
X98705214Y-108509663D01*
X98705214Y-113882474D02*
X98705214Y-111196069D01*
X98705214Y-116568880D02*
X98705214Y-113882474D01*
X98705214Y-119255285D02*
X98705214Y-116568880D01*
X98705214Y-121941688D02*
X98705214Y-119255285D01*
X98705214Y-124628094D02*
X98705214Y-121941688D01*
X98705214Y-127314499D02*
X98705214Y-124628094D01*
X98705214Y-130000905D02*
X98705214Y-127314499D01*
X98705214Y-132687310D02*
X98705214Y-130000905D01*
X98705214Y-135373716D02*
X98705214Y-132687310D01*
X98705214Y-138060121D02*
X98705214Y-135373716D01*
X98705214Y-140746527D02*
X98705214Y-138060121D01*
X98705214Y-143432930D02*
X98705214Y-140746527D01*
X98705214Y-146119335D02*
X98705214Y-143432930D01*
X98705214Y-148805741D02*
X98705214Y-146119335D01*
X98705214Y-151492146D02*
X98705214Y-148805741D01*
X98705214Y-154178552D02*
X98705214Y-151492146D01*
X98736594Y-154804004D02*
X98705214Y-154178552D01*
X98828723Y-155410996D02*
X98736594Y-154804004D01*
X98978577Y-155996503D02*
X98828723Y-155410996D01*
X99183140Y-156557510D02*
X98978577Y-155996503D01*
X99439389Y-157090992D02*
X99183140Y-156557510D01*
X99744302Y-157593929D02*
X99439389Y-157090992D01*
X100094862Y-158063304D02*
X99744302Y-157593929D01*
X100488048Y-158496094D02*
X100094862Y-158063304D01*
X100920839Y-158889281D02*
X100488048Y-158496094D01*
X101390214Y-159239843D02*
X100920839Y-158889281D01*
X101893154Y-159544756D02*
X101390214Y-159239843D01*
X102426635Y-159801005D02*
X101893154Y-159544756D01*
X102987642Y-160005568D02*
X102426635Y-159801005D01*
X103573152Y-160155423D02*
X102987642Y-160005568D01*
X104180141Y-160247551D02*
X103573152Y-160155423D01*
X104805594Y-160278932D02*
X104180141Y-160247551D01*
X106592563Y-160278932D02*
X104805594Y-160278932D01*
X108379529Y-160278932D02*
X106592563Y-160278932D01*
X110166495Y-160278932D02*
X108379529Y-160278932D01*
X111953464Y-160278932D02*
X110166495Y-160278932D01*
X113740430Y-160278932D02*
X111953464Y-160278932D01*
X115527399Y-160278932D02*
X113740430Y-160278932D01*
X117314365Y-160278932D02*
X115527399Y-160278932D01*
X119101334Y-160278932D02*
X117314365Y-160278932D01*
X120888303Y-160278932D02*
X119101334Y-160278932D01*
X122675269Y-160278932D02*
X120888303Y-160278932D01*
X124462238Y-160278932D02*
X122675269Y-160278932D01*
X126249207Y-160278932D02*
X124462238Y-160278932D01*
X128036173Y-160278932D02*
X126249207Y-160278932D01*
X129823142Y-160278932D02*
X128036173Y-160278932D01*
X131610109Y-160278932D02*
X129823142Y-160278932D01*
X133397077Y-160278932D02*
X131610109Y-160278932D01*
X135184046Y-160278932D02*
X133397077Y-160278932D01*
X136971013Y-160278932D02*
X135184046Y-160278932D01*
X138757982Y-160278932D02*
X136971013Y-160278932D01*
X140544948Y-160278932D02*
X138757982Y-160278932D01*
X142331914Y-160278932D02*
X140544948Y-160278932D01*
X144118883Y-160278932D02*
X142331914Y-160278932D01*
X145905849Y-160278932D02*
X144118883Y-160278932D01*
X147692818Y-160278932D02*
X145905849Y-160278932D01*
X149479784Y-160278932D02*
X147692818Y-160278932D01*
X151266753Y-160278932D02*
X149479784Y-160278932D01*
X153053719Y-160278932D02*
X151266753Y-160278932D01*
X154840688Y-160278932D02*
X153053719Y-160278932D01*
X156627654Y-160278932D02*
X154840688Y-160278932D01*
X158414623Y-160278932D02*
X156627654Y-160278932D01*
X160201592Y-160278932D02*
X158414623Y-160278932D01*
X161988558Y-160278932D02*
X160201592Y-160278932D01*
X162614011Y-160247551D02*
X161988558Y-160278932D01*
X163221003Y-160155423D02*
X162614011Y-160247551D01*
X163806513Y-160005568D02*
X163221003Y-160155423D01*
X164367517Y-159801005D02*
X163806513Y-160005568D01*
X164900999Y-159544756D02*
X164367517Y-159801005D01*
X165403935Y-159239840D02*
X164900999Y-159544756D01*
X165873311Y-158889281D02*
X165403935Y-159239840D01*
X166306101Y-158496094D02*
X165873311Y-158889281D01*
X166699287Y-158063304D02*
X166306101Y-158496094D01*
X167049850Y-157593932D02*
X166699287Y-158063304D01*
X167354763Y-157090992D02*
X167049850Y-157593932D01*
X167611012Y-156557510D02*
X167354763Y-157090992D01*
X167815575Y-155996503D02*
X167611012Y-156557510D01*
X167965429Y-155410994D02*
X167815575Y-155996503D01*
X168057558Y-154804004D02*
X167965429Y-155410994D01*
X168088938Y-154178552D02*
X168057558Y-154804004D01*
X168088938Y-151492146D02*
X168088938Y-154178552D01*
X168088938Y-148805741D02*
X168088938Y-151492146D01*
X168088938Y-146119335D02*
X168088938Y-148805741D01*
X168088938Y-143432930D02*
X168088938Y-146119335D01*
X168088938Y-140746527D02*
X168088938Y-143432930D01*
X168088938Y-138060121D02*
X168088938Y-140746527D01*
X168088938Y-135373716D02*
X168088938Y-138060121D01*
X168088938Y-132687310D02*
X168088938Y-135373716D01*
X168088938Y-130000905D02*
X168088938Y-132687310D01*
X168088938Y-127314499D02*
X168088938Y-130000905D01*
X168088938Y-124628094D02*
X168088938Y-127314499D01*
X168088938Y-121941688D02*
X168088938Y-124628094D01*
X168088938Y-119255285D02*
X168088938Y-121941688D01*
X168088938Y-116568880D02*
X168088938Y-119255285D01*
X168088938Y-113882474D02*
X168088938Y-116568880D01*
X168088938Y-111196069D02*
X168088938Y-113882474D01*
X168088938Y-108509663D02*
X168088938Y-111196069D01*
X168088938Y-105823258D02*
X168088938Y-108509663D01*
X168088938Y-103136853D02*
X168088938Y-105823258D01*
X168088938Y-100450448D02*
X168088938Y-103136853D01*
X168088938Y-97764043D02*
X168088938Y-100450448D01*
X168088938Y-95077637D02*
X168088938Y-97764043D01*
X168088938Y-92391232D02*
X168088938Y-95077637D01*
X168088938Y-89704827D02*
X168088938Y-92391232D01*
X168088938Y-87018422D02*
X168088938Y-89704827D01*
X168088938Y-84332016D02*
X168088938Y-87018422D01*
X168088938Y-81645611D02*
X168088938Y-84332016D01*
X168088938Y-78959206D02*
X168088938Y-81645611D01*
X168088938Y-76272801D02*
X168088938Y-78959206D01*
X168088938Y-73586396D02*
X168088938Y-76272801D01*
X168088938Y-70899991D02*
X168088938Y-73586396D01*
X168088938Y-68213585D02*
X168088938Y-70899991D01*
X168057558Y-67588132D02*
X168088938Y-68213585D01*
X167965429Y-66981141D02*
X168057558Y-67588132D01*
X167815575Y-66395633D02*
X167965429Y-66981141D01*
X167611012Y-65834627D02*
X167815575Y-66395633D01*
X167354763Y-65301145D02*
X167611012Y-65834627D01*
X167049847Y-64798207D02*
X167354763Y-65301145D01*
X166699287Y-64328832D02*
X167049847Y-64798207D01*
X166306101Y-63896041D02*
X166699287Y-64328832D01*
X165873311Y-63502855D02*
X166306101Y-63896041D01*
X165403938Y-63152295D02*
X165873311Y-63502855D01*
X164900999Y-62847380D02*
X165403938Y-63152295D01*
X164367517Y-62591131D02*
X164900999Y-62847380D01*
X163806513Y-62386569D02*
X164367517Y-62591131D01*
X163221003Y-62236713D02*
X163806513Y-62386569D01*
X162614011Y-62144585D02*
X163221003Y-62236713D01*
X161988558Y-62113205D02*
X162614011Y-62144585D01*
X160201592Y-62113205D02*
X161988558Y-62113205D01*
X158414623Y-62113205D02*
X160201592Y-62113205D01*
X156627654Y-62113205D02*
X158414623Y-62113205D01*
X154840688Y-62113205D02*
X156627654Y-62113205D01*
X153053719Y-62113205D02*
X154840688Y-62113205D01*
X151266753Y-62113205D02*
X153053719Y-62113205D01*
X149479784Y-62113205D02*
X151266753Y-62113205D01*
X147692818Y-62113205D02*
X149479784Y-62113205D01*
X145905849Y-62113205D02*
X147692818Y-62113205D01*
X144118883Y-62113205D02*
X145905849Y-62113205D01*
X142331914Y-62113205D02*
X144118883Y-62113205D01*
X140544948Y-62113205D02*
X142331914Y-62113205D01*
X138757982Y-62113205D02*
X140544948Y-62113205D01*
X136971013Y-62113205D02*
X138757982Y-62113205D01*
X135184046Y-62113205D02*
X136971013Y-62113205D01*
X133397077Y-62113205D02*
X135184046Y-62113205D01*
X131610109Y-62113205D02*
X133397077Y-62113205D01*
X129823142Y-62113205D02*
X131610109Y-62113205D01*
X128036173Y-62113205D02*
X129823142Y-62113205D01*
X126249207Y-62113205D02*
X128036173Y-62113205D01*
X124462238Y-62113205D02*
X126249207Y-62113205D01*
X122675269Y-62113205D02*
X124462238Y-62113205D01*
X120888303Y-62113205D02*
X122675269Y-62113205D01*
X119101334Y-62113205D02*
X120888303Y-62113205D01*
X117314365Y-62113205D02*
X119101334Y-62113205D01*
X115527399Y-62113205D02*
X117314365Y-62113205D01*
X113740430Y-62113205D02*
X115527399Y-62113205D01*
X111953464Y-62113205D02*
X113740430Y-62113205D01*
X110166495Y-62113205D02*
X111953464Y-62113205D01*
X108379529Y-62113205D02*
X110166495Y-62113205D01*
X106592563Y-62113205D02*
X108379529Y-62113205D01*
X104805594Y-62113205D02*
X106592563Y-62113205D01*
G04 #@! TD*
M02*
