G04 #@! TF.GenerationSoftware,KiCad,Pcbnew,6.0.0-rc1-unknown-59b0f55~66~ubuntu16.04.1*
G04 #@! TF.CreationDate,2018-11-29T09:25:19-07:00
G04 #@! TF.ProjectId,001,3030312e-6b69-4636-9164-5f7063625858,rev?*
G04 #@! TF.SameCoordinates,Original*
G04 #@! TF.FileFunction,Other,Fab,Bot*
%FSLAX46Y46*%
G04 Gerber Fmt 4.6, Leading zero omitted, Abs format (unit mm)*
G04 Created by KiCad (PCBNEW 6.0.0-rc1-unknown-59b0f55~66~ubuntu16.04.1) date Thu 29 Nov 2018 09:25:19 AM MST*
%MOMM*%
%LPD*%
G01*
G04 APERTURE LIST*
%ADD10C,0.100000*%
%ADD11C,0.150000*%
G04 APERTURE END LIST*
D10*
G04 #@! TO.C,REF\002A\002A*
X149525000Y-71998496D02*
X148925000Y-71998496D01*
X149525000Y-72998496D02*
X149525000Y-71998496D01*
X148925000Y-71998496D02*
X148925000Y-72998496D01*
X146985000Y-76538496D02*
X146985000Y-75538496D01*
X146385000Y-76538496D02*
X146985000Y-76538496D01*
X146385000Y-75538496D02*
X146385000Y-76538496D01*
X144445000Y-71998496D02*
X143845000Y-71998496D01*
X144445000Y-72998496D02*
X144445000Y-71998496D01*
X143845000Y-71998496D02*
X143845000Y-72998496D01*
X141905000Y-76538496D02*
X141905000Y-75538496D01*
X141305000Y-76538496D02*
X141905000Y-76538496D01*
X141305000Y-75538496D02*
X141305000Y-76538496D01*
X139365000Y-71998496D02*
X138765000Y-71998496D01*
X139365000Y-72998496D02*
X139365000Y-71998496D01*
X138765000Y-71998496D02*
X138765000Y-72998496D01*
X136825000Y-76538496D02*
X136825000Y-75538496D01*
X136225000Y-76538496D02*
X136825000Y-76538496D01*
X136225000Y-75538496D02*
X136225000Y-76538496D01*
X134285000Y-71998496D02*
X133685000Y-71998496D01*
X134285000Y-72998496D02*
X134285000Y-71998496D01*
X133685000Y-71998496D02*
X133685000Y-72998496D01*
X131745000Y-76538496D02*
X131745000Y-75538496D01*
X131145000Y-76538496D02*
X131745000Y-76538496D01*
X131145000Y-75538496D02*
X131145000Y-76538496D01*
X129205000Y-71998496D02*
X128605000Y-71998496D01*
X129205000Y-72998496D02*
X129205000Y-71998496D01*
X128605000Y-71998496D02*
X128605000Y-72998496D01*
X126665000Y-76538496D02*
X126665000Y-75538496D01*
X126065000Y-76538496D02*
X126665000Y-76538496D01*
X126065000Y-75538496D02*
X126065000Y-76538496D01*
X124125000Y-71998496D02*
X123525000Y-71998496D01*
X124125000Y-72998496D02*
X124125000Y-71998496D01*
X123525000Y-71998496D02*
X123525000Y-72998496D01*
X121585000Y-76538496D02*
X121585000Y-75538496D01*
X120985000Y-76538496D02*
X121585000Y-76538496D01*
X120985000Y-75538496D02*
X120985000Y-76538496D01*
X119045000Y-71998496D02*
X118445000Y-71998496D01*
X119045000Y-72998496D02*
X119045000Y-71998496D01*
X118445000Y-71998496D02*
X118445000Y-72998496D01*
X116505000Y-76538496D02*
X116505000Y-75538496D01*
X115905000Y-76538496D02*
X116505000Y-76538496D01*
X115905000Y-75538496D02*
X115905000Y-76538496D01*
X150595000Y-72998496D02*
X114835000Y-72998496D01*
X150595000Y-75538496D02*
X150595000Y-72998496D01*
X115470000Y-75538496D02*
X150595000Y-75538496D01*
X114835000Y-74903496D02*
X115470000Y-75538496D01*
X114835000Y-72998496D02*
X114835000Y-74903496D01*
X114835000Y-93318496D02*
X114835000Y-95223496D01*
X114835000Y-95223496D02*
X115470000Y-95858496D01*
X115470000Y-95858496D02*
X150595000Y-95858496D01*
X150595000Y-95858496D02*
X150595000Y-93318496D01*
X150595000Y-93318496D02*
X114835000Y-93318496D01*
X115905000Y-95858496D02*
X115905000Y-96858496D01*
X115905000Y-96858496D02*
X116505000Y-96858496D01*
X116505000Y-96858496D02*
X116505000Y-95858496D01*
X118445000Y-92318496D02*
X118445000Y-93318496D01*
X119045000Y-93318496D02*
X119045000Y-92318496D01*
X119045000Y-92318496D02*
X118445000Y-92318496D01*
X120985000Y-95858496D02*
X120985000Y-96858496D01*
X120985000Y-96858496D02*
X121585000Y-96858496D01*
X121585000Y-96858496D02*
X121585000Y-95858496D01*
X123525000Y-92318496D02*
X123525000Y-93318496D01*
X124125000Y-93318496D02*
X124125000Y-92318496D01*
X124125000Y-92318496D02*
X123525000Y-92318496D01*
X126065000Y-95858496D02*
X126065000Y-96858496D01*
X126065000Y-96858496D02*
X126665000Y-96858496D01*
X126665000Y-96858496D02*
X126665000Y-95858496D01*
X128605000Y-92318496D02*
X128605000Y-93318496D01*
X129205000Y-93318496D02*
X129205000Y-92318496D01*
X129205000Y-92318496D02*
X128605000Y-92318496D01*
X131145000Y-95858496D02*
X131145000Y-96858496D01*
X131145000Y-96858496D02*
X131745000Y-96858496D01*
X131745000Y-96858496D02*
X131745000Y-95858496D01*
X133685000Y-92318496D02*
X133685000Y-93318496D01*
X134285000Y-93318496D02*
X134285000Y-92318496D01*
X134285000Y-92318496D02*
X133685000Y-92318496D01*
X136225000Y-95858496D02*
X136225000Y-96858496D01*
X136225000Y-96858496D02*
X136825000Y-96858496D01*
X136825000Y-96858496D02*
X136825000Y-95858496D01*
X138765000Y-92318496D02*
X138765000Y-93318496D01*
X139365000Y-93318496D02*
X139365000Y-92318496D01*
X139365000Y-92318496D02*
X138765000Y-92318496D01*
X141305000Y-95858496D02*
X141305000Y-96858496D01*
X141305000Y-96858496D02*
X141905000Y-96858496D01*
X141905000Y-96858496D02*
X141905000Y-95858496D01*
X143845000Y-92318496D02*
X143845000Y-93318496D01*
X144445000Y-93318496D02*
X144445000Y-92318496D01*
X144445000Y-92318496D02*
X143845000Y-92318496D01*
X146385000Y-95858496D02*
X146385000Y-96858496D01*
X146385000Y-96858496D02*
X146985000Y-96858496D01*
X146985000Y-96858496D02*
X146985000Y-95858496D01*
X148925000Y-92318496D02*
X148925000Y-93318496D01*
X149525000Y-93318496D02*
X149525000Y-92318496D01*
X149525000Y-92318496D02*
X148925000Y-92318496D01*
G04 #@! TD*
G04 #@! TO.C,REF\002A\002A*
D11*
X134048333Y-74720876D02*
X134381666Y-74244686D01*
X134619761Y-74720876D02*
X134619761Y-73720876D01*
X134238809Y-73720876D01*
X134143571Y-73768496D01*
X134095952Y-73816115D01*
X134048333Y-73911353D01*
X134048333Y-74054210D01*
X134095952Y-74149448D01*
X134143571Y-74197067D01*
X134238809Y-74244686D01*
X134619761Y-74244686D01*
X133619761Y-74197067D02*
X133286428Y-74197067D01*
X133143571Y-74720876D02*
X133619761Y-74720876D01*
X133619761Y-73720876D01*
X133143571Y-73720876D01*
X132381666Y-74197067D02*
X132715000Y-74197067D01*
X132715000Y-74720876D02*
X132715000Y-73720876D01*
X132238809Y-73720876D01*
X131715000Y-73720876D02*
X131715000Y-73958972D01*
X131953095Y-73863734D02*
X131715000Y-73958972D01*
X131476904Y-73863734D01*
X131857857Y-74149448D02*
X131715000Y-73958972D01*
X131572142Y-74149448D01*
X130953095Y-73720876D02*
X130953095Y-73958972D01*
X131191190Y-73863734D02*
X130953095Y-73958972D01*
X130715000Y-73863734D01*
X131095952Y-74149448D02*
X130953095Y-73958972D01*
X130810238Y-74149448D01*
X134048333Y-95040876D02*
X134381666Y-94564686D01*
X134619761Y-95040876D02*
X134619761Y-94040876D01*
X134238809Y-94040876D01*
X134143571Y-94088496D01*
X134095952Y-94136115D01*
X134048333Y-94231353D01*
X134048333Y-94374210D01*
X134095952Y-94469448D01*
X134143571Y-94517067D01*
X134238809Y-94564686D01*
X134619761Y-94564686D01*
X133619761Y-94517067D02*
X133286428Y-94517067D01*
X133143571Y-95040876D02*
X133619761Y-95040876D01*
X133619761Y-94040876D01*
X133143571Y-94040876D01*
X132381666Y-94517067D02*
X132715000Y-94517067D01*
X132715000Y-95040876D02*
X132715000Y-94040876D01*
X132238809Y-94040876D01*
X131715000Y-94040876D02*
X131715000Y-94278972D01*
X131953095Y-94183734D02*
X131715000Y-94278972D01*
X131476904Y-94183734D01*
X131857857Y-94469448D02*
X131715000Y-94278972D01*
X131572142Y-94469448D01*
X130953095Y-94040876D02*
X130953095Y-94278972D01*
X131191190Y-94183734D02*
X130953095Y-94278972D01*
X130715000Y-94183734D01*
X131095952Y-94469448D02*
X130953095Y-94278972D01*
X130810238Y-94469448D01*
G04 #@! TD*
M02*
