G04 #@! TF.GenerationSoftware,KiCad,Pcbnew,6.0.0-rc1-unknown-73a0cbf~66~ubuntu16.04.1*
G04 #@! TF.CreationDate,2019-02-06T09:24:36-07:00
G04 #@! TF.ProjectId,001,3030312e-6b69-4636-9164-5f7063625858,rev?*
G04 #@! TF.SameCoordinates,Original*
G04 #@! TF.FileFunction,Soldermask,Bot*
G04 #@! TF.FilePolarity,Negative*
%FSLAX46Y46*%
G04 Gerber Fmt 4.6, Leading zero omitted, Abs format (unit mm)*
G04 Created by KiCad (PCBNEW 6.0.0-rc1-unknown-73a0cbf~66~ubuntu16.04.1) date 2019-02-06 09:24:36*
%MOMM*%
%LPD*%
G04 APERTURE LIST*
%ADD10C,0.009375*%
%ADD11C,0.133125*%
%ADD12C,0.100000*%
%ADD13C,0.750000*%
G04 APERTURE END LIST*
D10*
G36*
X156754745Y-144220357D02*
G01*
X157545777Y-143732480D01*
X157396950Y-143721445D01*
X157245365Y-143696637D01*
X157286705Y-143525760D01*
X157333560Y-143346614D01*
X157350098Y-143374187D01*
X157457585Y-143503724D01*
X157543022Y-143638771D01*
X157576096Y-143688380D01*
X157606412Y-143737989D01*
X157576096Y-143735166D01*
X157545780Y-143732344D01*
X157545777Y-143732480D01*
X156754745Y-144220357D01*
X156804354Y-144316818D01*
X156878770Y-144402258D01*
X156972476Y-144462891D01*
X157082718Y-144490464D01*
X157132327Y-144471160D01*
X157157134Y-144454621D01*
X157173672Y-144446352D01*
X157184707Y-144438083D01*
X157217781Y-144424311D01*
X157206746Y-144388483D01*
X157209568Y-144355409D01*
X157242642Y-144319581D01*
X157259180Y-144303043D01*
X157272953Y-144286504D01*
X157319807Y-144234138D01*
X157245391Y-144214834D01*
X157154442Y-144165225D01*
X157135138Y-144063250D01*
X157228844Y-144060428D01*
X157303258Y-144079732D01*
X157405233Y-144104539D01*
X157515477Y-144112808D01*
X157556817Y-144112808D01*
X157598157Y-144107305D01*
X157625730Y-144101801D01*
X157636765Y-144068731D01*
X157647800Y-144057696D01*
X157678116Y-144021868D01*
X157683620Y-143961235D01*
X157700158Y-143911626D01*
X157724965Y-143980528D01*
X157736000Y-144008101D01*
X157763573Y-144013604D01*
X157771842Y-144027376D01*
X157774665Y-144041149D01*
X157788437Y-144088003D01*
X157799472Y-144099038D01*
X157810507Y-144107307D01*
X157824279Y-144156919D01*
X157840818Y-144203771D01*
X157865625Y-144275430D01*
X157871128Y-144341574D01*
X157882163Y-144371891D01*
X157912482Y-144399464D01*
X157945553Y-144416002D01*
X157962091Y-144427037D01*
X157975864Y-144432540D01*
X157984133Y-144462857D01*
X158017206Y-144468360D01*
X158061304Y-144476629D01*
X158088877Y-144479451D01*
X158116450Y-144476629D01*
X158163304Y-144438044D01*
X158201890Y-144407727D01*
X158229435Y-144358118D01*
X158234938Y-144327799D01*
X158240441Y-144300226D01*
X158248711Y-144283688D01*
X158284541Y-144250617D01*
X158254222Y-144225810D01*
X158251400Y-144178955D01*
X158135644Y-143908860D01*
X158006109Y-143644277D01*
X157964767Y-143556082D01*
X157920670Y-143467888D01*
X157923492Y-143448584D01*
X157917988Y-143423777D01*
X157868379Y-143341094D01*
X157829794Y-143263923D01*
X157785697Y-143172974D01*
X157725061Y-143082022D01*
X157680964Y-143062718D01*
X157661660Y-143057215D01*
X157636853Y-143051712D01*
X157595513Y-143057215D01*
X157460464Y-142957997D01*
X157341953Y-142800901D01*
X157314408Y-142762315D01*
X157278577Y-142784357D01*
X157239992Y-142800895D01*
X157187628Y-142814668D01*
X157093922Y-142839475D01*
X157022263Y-142880815D01*
X157002959Y-142946962D01*
X156994690Y-142991059D01*
X156980918Y-143084766D01*
X156969883Y-143189495D01*
X156947841Y-143283202D01*
X156928537Y-143374153D01*
X156900964Y-143503688D01*
X156865136Y-143619444D01*
X156837563Y-143622266D01*
X156809990Y-143613997D01*
X156774159Y-143608494D01*
X156743842Y-143605672D01*
X156732808Y-143633245D01*
X156705234Y-143660818D01*
X156652871Y-143677356D01*
X156622552Y-143702163D01*
X156600510Y-143718702D01*
X156559167Y-143735240D01*
X156581209Y-143776580D01*
X156661134Y-143873043D01*
X156774133Y-143947457D01*
X156771311Y-143980530D01*
X156763042Y-144010847D01*
X156749270Y-144107307D01*
X156749270Y-144209283D01*
X156754745Y-144220357D01*
X156754745Y-144220357D01*
G37*
X156754745Y-144220357D02*
X157545777Y-143732480D01*
X157396950Y-143721445D01*
X157245365Y-143696637D01*
X157286705Y-143525760D01*
X157333560Y-143346614D01*
X157350098Y-143374187D01*
X157457585Y-143503724D01*
X157543022Y-143638771D01*
X157576096Y-143688380D01*
X157606412Y-143737989D01*
X157576096Y-143735166D01*
X157545780Y-143732344D01*
X157545777Y-143732480D01*
X156754745Y-144220357D01*
X156804354Y-144316818D01*
X156878770Y-144402258D01*
X156972476Y-144462891D01*
X157082718Y-144490464D01*
X157132327Y-144471160D01*
X157157134Y-144454621D01*
X157173672Y-144446352D01*
X157184707Y-144438083D01*
X157217781Y-144424311D01*
X157206746Y-144388483D01*
X157209568Y-144355409D01*
X157242642Y-144319581D01*
X157259180Y-144303043D01*
X157272953Y-144286504D01*
X157319807Y-144234138D01*
X157245391Y-144214834D01*
X157154442Y-144165225D01*
X157135138Y-144063250D01*
X157228844Y-144060428D01*
X157303258Y-144079732D01*
X157405233Y-144104539D01*
X157515477Y-144112808D01*
X157556817Y-144112808D01*
X157598157Y-144107305D01*
X157625730Y-144101801D01*
X157636765Y-144068731D01*
X157647800Y-144057696D01*
X157678116Y-144021868D01*
X157683620Y-143961235D01*
X157700158Y-143911626D01*
X157724965Y-143980528D01*
X157736000Y-144008101D01*
X157763573Y-144013604D01*
X157771842Y-144027376D01*
X157774665Y-144041149D01*
X157788437Y-144088003D01*
X157799472Y-144099038D01*
X157810507Y-144107307D01*
X157824279Y-144156919D01*
X157840818Y-144203771D01*
X157865625Y-144275430D01*
X157871128Y-144341574D01*
X157882163Y-144371891D01*
X157912482Y-144399464D01*
X157945553Y-144416002D01*
X157962091Y-144427037D01*
X157975864Y-144432540D01*
X157984133Y-144462857D01*
X158017206Y-144468360D01*
X158061304Y-144476629D01*
X158088877Y-144479451D01*
X158116450Y-144476629D01*
X158163304Y-144438044D01*
X158201890Y-144407727D01*
X158229435Y-144358118D01*
X158234938Y-144327799D01*
X158240441Y-144300226D01*
X158248711Y-144283688D01*
X158284541Y-144250617D01*
X158254222Y-144225810D01*
X158251400Y-144178955D01*
X158135644Y-143908860D01*
X158006109Y-143644277D01*
X157964767Y-143556082D01*
X157920670Y-143467888D01*
X157923492Y-143448584D01*
X157917988Y-143423777D01*
X157868379Y-143341094D01*
X157829794Y-143263923D01*
X157785697Y-143172974D01*
X157725061Y-143082022D01*
X157680964Y-143062718D01*
X157661660Y-143057215D01*
X157636853Y-143051712D01*
X157595513Y-143057215D01*
X157460464Y-142957997D01*
X157341953Y-142800901D01*
X157314408Y-142762315D01*
X157278577Y-142784357D01*
X157239992Y-142800895D01*
X157187628Y-142814668D01*
X157093922Y-142839475D01*
X157022263Y-142880815D01*
X157002959Y-142946962D01*
X156994690Y-142991059D01*
X156980918Y-143084766D01*
X156969883Y-143189495D01*
X156947841Y-143283202D01*
X156928537Y-143374153D01*
X156900964Y-143503688D01*
X156865136Y-143619444D01*
X156837563Y-143622266D01*
X156809990Y-143613997D01*
X156774159Y-143608494D01*
X156743842Y-143605672D01*
X156732808Y-143633245D01*
X156705234Y-143660818D01*
X156652871Y-143677356D01*
X156622552Y-143702163D01*
X156600510Y-143718702D01*
X156559167Y-143735240D01*
X156581209Y-143776580D01*
X156661134Y-143873043D01*
X156774133Y-143947457D01*
X156771311Y-143980530D01*
X156763042Y-144010847D01*
X156749270Y-144107307D01*
X156749270Y-144209283D01*
X156754745Y-144220357D01*
G36*
X158099711Y-143955774D02*
G01*
X158273343Y-144140429D01*
X158510367Y-144247916D01*
X158783217Y-144322330D01*
X159056069Y-144407770D01*
X159124971Y-144410592D01*
X159180092Y-144418861D01*
X159229701Y-144427130D01*
X159284824Y-144432633D01*
X159298597Y-144438137D01*
X159306866Y-144449172D01*
X159392306Y-144457441D01*
X159452939Y-144457441D01*
X159521840Y-144465710D01*
X159582473Y-144473979D01*
X159907692Y-144327906D01*
X160037226Y-143947570D01*
X160042729Y-143931031D01*
X160053764Y-143922762D01*
X160048261Y-143875908D01*
X160045439Y-143826299D01*
X159882831Y-143545180D01*
X159665099Y-143313668D01*
X159632028Y-143280597D01*
X159607221Y-143247523D01*
X159576902Y-143219950D01*
X159535562Y-143200646D01*
X159397759Y-143079381D01*
X159229636Y-142974648D01*
X159056004Y-142872673D01*
X158896151Y-142756919D01*
X158852054Y-142765188D01*
X158821737Y-142765188D01*
X158769374Y-142823064D01*
X158700469Y-142858895D01*
X158634325Y-142900235D01*
X158587470Y-142966382D01*
X158604009Y-142980154D01*
X158595739Y-143004962D01*
X158592917Y-143029769D01*
X158612221Y-143040804D01*
X158595683Y-143057342D01*
X158579145Y-143071114D01*
X158587414Y-143093156D01*
X158587414Y-143120729D01*
X158711439Y-143189631D01*
X158851997Y-143261290D01*
X159003582Y-143341215D01*
X159155166Y-143437679D01*
X159306750Y-143561701D01*
X159455580Y-143702262D01*
X159590626Y-143856601D01*
X159698114Y-144010943D01*
X159687079Y-144032984D01*
X159673306Y-144052288D01*
X159510698Y-144052288D01*
X159356357Y-144060557D01*
X159345322Y-144044019D01*
X159331549Y-144027481D01*
X159039407Y-143977872D01*
X158763797Y-143903458D01*
X158805140Y-143889686D01*
X158838213Y-143875913D01*
X158838213Y-143853872D01*
X158810640Y-143831830D01*
X158874030Y-143776710D01*
X158901603Y-143688515D01*
X158885065Y-143655441D01*
X158901603Y-143625125D01*
X158915376Y-143625125D01*
X158920879Y-143633394D01*
X158923701Y-143644429D01*
X158937474Y-143641607D01*
X158926439Y-143600267D01*
X158909901Y-143561682D01*
X158719731Y-143434902D01*
X158645317Y-143484511D01*
X158554368Y-143536877D01*
X158455148Y-143589243D01*
X158358687Y-143638852D01*
X158289785Y-143682950D01*
X158231907Y-143740828D01*
X158176786Y-143795949D01*
X158107884Y-143842800D01*
X158105062Y-143900678D01*
X158099559Y-143955802D01*
X158099711Y-143955774D01*
X158099711Y-143955774D01*
G37*
X158099711Y-143955774D02*
X158273343Y-144140429D01*
X158510367Y-144247916D01*
X158783217Y-144322330D01*
X159056069Y-144407770D01*
X159124971Y-144410592D01*
X159180092Y-144418861D01*
X159229701Y-144427130D01*
X159284824Y-144432633D01*
X159298597Y-144438137D01*
X159306866Y-144449172D01*
X159392306Y-144457441D01*
X159452939Y-144457441D01*
X159521840Y-144465710D01*
X159582473Y-144473979D01*
X159907692Y-144327906D01*
X160037226Y-143947570D01*
X160042729Y-143931031D01*
X160053764Y-143922762D01*
X160048261Y-143875908D01*
X160045439Y-143826299D01*
X159882831Y-143545180D01*
X159665099Y-143313668D01*
X159632028Y-143280597D01*
X159607221Y-143247523D01*
X159576902Y-143219950D01*
X159535562Y-143200646D01*
X159397759Y-143079381D01*
X159229636Y-142974648D01*
X159056004Y-142872673D01*
X158896151Y-142756919D01*
X158852054Y-142765188D01*
X158821737Y-142765188D01*
X158769374Y-142823064D01*
X158700469Y-142858895D01*
X158634325Y-142900235D01*
X158587470Y-142966382D01*
X158604009Y-142980154D01*
X158595739Y-143004962D01*
X158592917Y-143029769D01*
X158612221Y-143040804D01*
X158595683Y-143057342D01*
X158579145Y-143071114D01*
X158587414Y-143093156D01*
X158587414Y-143120729D01*
X158711439Y-143189631D01*
X158851997Y-143261290D01*
X159003582Y-143341215D01*
X159155166Y-143437679D01*
X159306750Y-143561701D01*
X159455580Y-143702262D01*
X159590626Y-143856601D01*
X159698114Y-144010943D01*
X159687079Y-144032984D01*
X159673306Y-144052288D01*
X159510698Y-144052288D01*
X159356357Y-144060557D01*
X159345322Y-144044019D01*
X159331549Y-144027481D01*
X159039407Y-143977872D01*
X158763797Y-143903458D01*
X158805140Y-143889686D01*
X158838213Y-143875913D01*
X158838213Y-143853872D01*
X158810640Y-143831830D01*
X158874030Y-143776710D01*
X158901603Y-143688515D01*
X158885065Y-143655441D01*
X158901603Y-143625125D01*
X158915376Y-143625125D01*
X158920879Y-143633394D01*
X158923701Y-143644429D01*
X158937474Y-143641607D01*
X158926439Y-143600267D01*
X158909901Y-143561682D01*
X158719731Y-143434902D01*
X158645317Y-143484511D01*
X158554368Y-143536877D01*
X158455148Y-143589243D01*
X158358687Y-143638852D01*
X158289785Y-143682950D01*
X158231907Y-143740828D01*
X158176786Y-143795949D01*
X158107884Y-143842800D01*
X158105062Y-143900678D01*
X158099559Y-143955802D01*
X158099711Y-143955774D01*
G36*
X160238425Y-144220357D02*
G01*
X161029457Y-143732480D01*
X160880630Y-143721445D01*
X160729046Y-143696637D01*
X160770386Y-143525760D01*
X160817240Y-143346614D01*
X160833779Y-143374187D01*
X160941266Y-143503724D01*
X161026703Y-143638771D01*
X161059776Y-143688380D01*
X161090093Y-143737989D01*
X161059776Y-143735166D01*
X161029460Y-143732344D01*
X161029457Y-143732480D01*
X160238425Y-144220357D01*
X160288034Y-144316818D01*
X160362451Y-144402258D01*
X160456157Y-144462891D01*
X160566398Y-144490464D01*
X160616007Y-144471160D01*
X160640815Y-144454621D01*
X160657353Y-144446352D01*
X160668388Y-144438083D01*
X160701461Y-144424311D01*
X160690427Y-144388483D01*
X160693249Y-144355409D01*
X160726322Y-144319581D01*
X160742861Y-144303043D01*
X160756633Y-144286504D01*
X160803488Y-144234138D01*
X160729071Y-144214834D01*
X160638122Y-144165225D01*
X160618818Y-144063250D01*
X160712525Y-144060428D01*
X160786938Y-144079732D01*
X160888913Y-144104539D01*
X160999158Y-144112808D01*
X161040498Y-144112808D01*
X161081838Y-144107305D01*
X161109411Y-144101801D01*
X161120446Y-144068731D01*
X161131481Y-144057696D01*
X161161797Y-144021868D01*
X161167300Y-143961235D01*
X161183839Y-143911626D01*
X161208646Y-143980528D01*
X161219681Y-144008101D01*
X161247254Y-144013604D01*
X161255523Y-144027376D01*
X161258345Y-144041149D01*
X161272118Y-144088003D01*
X161283153Y-144099038D01*
X161294187Y-144107307D01*
X161307960Y-144156919D01*
X161324498Y-144203771D01*
X161349305Y-144275430D01*
X161354809Y-144341574D01*
X161365844Y-144371891D01*
X161396163Y-144399464D01*
X161429234Y-144416002D01*
X161445772Y-144427037D01*
X161459544Y-144432540D01*
X161467813Y-144462857D01*
X161500887Y-144468360D01*
X161544984Y-144476629D01*
X161572557Y-144479451D01*
X161600130Y-144476629D01*
X161646985Y-144438044D01*
X161685570Y-144407727D01*
X161713115Y-144358118D01*
X161718619Y-144327799D01*
X161724122Y-144300226D01*
X161732391Y-144283688D01*
X161768222Y-144250617D01*
X161737903Y-144225810D01*
X161735081Y-144178955D01*
X161619324Y-143908860D01*
X161489790Y-143644277D01*
X161448447Y-143556082D01*
X161404350Y-143467888D01*
X161407172Y-143448584D01*
X161401669Y-143423777D01*
X161352060Y-143341094D01*
X161313474Y-143263923D01*
X161269377Y-143172974D01*
X161208742Y-143082022D01*
X161164645Y-143062718D01*
X161145341Y-143057215D01*
X161120533Y-143051712D01*
X161079193Y-143057215D01*
X160944144Y-142957997D01*
X160825634Y-142800901D01*
X160798089Y-142762315D01*
X160762258Y-142784357D01*
X160723672Y-142800895D01*
X160671309Y-142814668D01*
X160577603Y-142839475D01*
X160505944Y-142880815D01*
X160486640Y-142946962D01*
X160478370Y-142991059D01*
X160464598Y-143084766D01*
X160453563Y-143189495D01*
X160431522Y-143283202D01*
X160412218Y-143374153D01*
X160384644Y-143503688D01*
X160348816Y-143619444D01*
X160321243Y-143622266D01*
X160293670Y-143613997D01*
X160257839Y-143608494D01*
X160227523Y-143605672D01*
X160216488Y-143633245D01*
X160188915Y-143660818D01*
X160136551Y-143677356D01*
X160106232Y-143702163D01*
X160084191Y-143718702D01*
X160042848Y-143735240D01*
X160064890Y-143776580D01*
X160144815Y-143873043D01*
X160257814Y-143947457D01*
X160254992Y-143980530D01*
X160246722Y-144010847D01*
X160232950Y-144107307D01*
X160232950Y-144209283D01*
X160238425Y-144220357D01*
X160238425Y-144220357D01*
G37*
X160238425Y-144220357D02*
X161029457Y-143732480D01*
X160880630Y-143721445D01*
X160729046Y-143696637D01*
X160770386Y-143525760D01*
X160817240Y-143346614D01*
X160833779Y-143374187D01*
X160941266Y-143503724D01*
X161026703Y-143638771D01*
X161059776Y-143688380D01*
X161090093Y-143737989D01*
X161059776Y-143735166D01*
X161029460Y-143732344D01*
X161029457Y-143732480D01*
X160238425Y-144220357D01*
X160288034Y-144316818D01*
X160362451Y-144402258D01*
X160456157Y-144462891D01*
X160566398Y-144490464D01*
X160616007Y-144471160D01*
X160640815Y-144454621D01*
X160657353Y-144446352D01*
X160668388Y-144438083D01*
X160701461Y-144424311D01*
X160690427Y-144388483D01*
X160693249Y-144355409D01*
X160726322Y-144319581D01*
X160742861Y-144303043D01*
X160756633Y-144286504D01*
X160803488Y-144234138D01*
X160729071Y-144214834D01*
X160638122Y-144165225D01*
X160618818Y-144063250D01*
X160712525Y-144060428D01*
X160786938Y-144079732D01*
X160888913Y-144104539D01*
X160999158Y-144112808D01*
X161040498Y-144112808D01*
X161081838Y-144107305D01*
X161109411Y-144101801D01*
X161120446Y-144068731D01*
X161131481Y-144057696D01*
X161161797Y-144021868D01*
X161167300Y-143961235D01*
X161183839Y-143911626D01*
X161208646Y-143980528D01*
X161219681Y-144008101D01*
X161247254Y-144013604D01*
X161255523Y-144027376D01*
X161258345Y-144041149D01*
X161272118Y-144088003D01*
X161283153Y-144099038D01*
X161294187Y-144107307D01*
X161307960Y-144156919D01*
X161324498Y-144203771D01*
X161349305Y-144275430D01*
X161354809Y-144341574D01*
X161365844Y-144371891D01*
X161396163Y-144399464D01*
X161429234Y-144416002D01*
X161445772Y-144427037D01*
X161459544Y-144432540D01*
X161467813Y-144462857D01*
X161500887Y-144468360D01*
X161544984Y-144476629D01*
X161572557Y-144479451D01*
X161600130Y-144476629D01*
X161646985Y-144438044D01*
X161685570Y-144407727D01*
X161713115Y-144358118D01*
X161718619Y-144327799D01*
X161724122Y-144300226D01*
X161732391Y-144283688D01*
X161768222Y-144250617D01*
X161737903Y-144225810D01*
X161735081Y-144178955D01*
X161619324Y-143908860D01*
X161489790Y-143644277D01*
X161448447Y-143556082D01*
X161404350Y-143467888D01*
X161407172Y-143448584D01*
X161401669Y-143423777D01*
X161352060Y-143341094D01*
X161313474Y-143263923D01*
X161269377Y-143172974D01*
X161208742Y-143082022D01*
X161164645Y-143062718D01*
X161145341Y-143057215D01*
X161120533Y-143051712D01*
X161079193Y-143057215D01*
X160944144Y-142957997D01*
X160825634Y-142800901D01*
X160798089Y-142762315D01*
X160762258Y-142784357D01*
X160723672Y-142800895D01*
X160671309Y-142814668D01*
X160577603Y-142839475D01*
X160505944Y-142880815D01*
X160486640Y-142946962D01*
X160478370Y-142991059D01*
X160464598Y-143084766D01*
X160453563Y-143189495D01*
X160431522Y-143283202D01*
X160412218Y-143374153D01*
X160384644Y-143503688D01*
X160348816Y-143619444D01*
X160321243Y-143622266D01*
X160293670Y-143613997D01*
X160257839Y-143608494D01*
X160227523Y-143605672D01*
X160216488Y-143633245D01*
X160188915Y-143660818D01*
X160136551Y-143677356D01*
X160106232Y-143702163D01*
X160084191Y-143718702D01*
X160042848Y-143735240D01*
X160064890Y-143776580D01*
X160144815Y-143873043D01*
X160257814Y-143947457D01*
X160254992Y-143980530D01*
X160246722Y-144010847D01*
X160232950Y-144107307D01*
X160232950Y-144209283D01*
X160238425Y-144220357D01*
G36*
X162724408Y-143950259D02*
G01*
X162760236Y-143980578D01*
X162782277Y-144027430D01*
X162801581Y-144074285D01*
X162829155Y-144093589D01*
X162845693Y-144132174D01*
X162867734Y-144168002D01*
X162884273Y-144206588D01*
X162878769Y-144253439D01*
X162906342Y-144300294D01*
X162920115Y-144358172D01*
X162942156Y-144405024D01*
X163002792Y-144421562D01*
X163005614Y-144435334D01*
X162997345Y-144454638D01*
X163044199Y-144457461D01*
X163080028Y-144471233D01*
X163168222Y-144413355D01*
X163228857Y-144322403D01*
X163275709Y-144217673D01*
X163314295Y-144126722D01*
X163311472Y-144068846D01*
X163330776Y-144019234D01*
X163035877Y-143407388D01*
X162732708Y-142765222D01*
X162608685Y-142823098D01*
X162495686Y-142894757D01*
X162407492Y-142991220D01*
X162360637Y-143109731D01*
X162374410Y-143123503D01*
X162385445Y-143126326D01*
X162374410Y-143145630D01*
X162374410Y-143156664D01*
X162374410Y-143173203D01*
X162366141Y-143198010D01*
X162382679Y-143200832D01*
X162399217Y-143200832D01*
X162393714Y-143250444D01*
X162404749Y-143286272D01*
X162418521Y-143319346D01*
X162415699Y-143363443D01*
X162429471Y-143368946D01*
X162434975Y-143377215D01*
X162443244Y-143385485D01*
X162454279Y-143385485D01*
X162448775Y-143506753D01*
X162454279Y-143630775D01*
X162451457Y-143760312D01*
X162432153Y-143898116D01*
X162275056Y-143749286D01*
X162178593Y-143545338D01*
X162120718Y-143302802D01*
X162079375Y-143038219D01*
X162040789Y-142977586D01*
X162015982Y-142903172D01*
X161993940Y-142823244D01*
X161966367Y-142748831D01*
X161897466Y-142776404D01*
X161842345Y-142820501D01*
X161789978Y-142864598D01*
X161721077Y-142889406D01*
X161660444Y-142980355D01*
X161624613Y-143074064D01*
X161646655Y-143123673D01*
X161660427Y-143178794D01*
X161682469Y-143231160D01*
X161721054Y-143269742D01*
X161743096Y-143402034D01*
X161767903Y-143517790D01*
X161787207Y-143639058D01*
X161792710Y-143774105D01*
X161839562Y-143909154D01*
X161878148Y-144038688D01*
X161947049Y-144124128D01*
X161999416Y-144223346D01*
X162013188Y-144228849D01*
X162032492Y-144220580D01*
X162032492Y-144237118D01*
X162040761Y-144248153D01*
X162046264Y-144259188D01*
X162040761Y-144281230D01*
X162109663Y-144328081D01*
X162175810Y-144383205D01*
X162258493Y-144416276D01*
X162382515Y-144397000D01*
X162583709Y-144206830D01*
X162724269Y-143950513D01*
X162724408Y-143950259D01*
X162724408Y-143950259D01*
G37*
X162724408Y-143950259D02*
X162760236Y-143980578D01*
X162782277Y-144027430D01*
X162801581Y-144074285D01*
X162829155Y-144093589D01*
X162845693Y-144132174D01*
X162867734Y-144168002D01*
X162884273Y-144206588D01*
X162878769Y-144253439D01*
X162906342Y-144300294D01*
X162920115Y-144358172D01*
X162942156Y-144405024D01*
X163002792Y-144421562D01*
X163005614Y-144435334D01*
X162997345Y-144454638D01*
X163044199Y-144457461D01*
X163080028Y-144471233D01*
X163168222Y-144413355D01*
X163228857Y-144322403D01*
X163275709Y-144217673D01*
X163314295Y-144126722D01*
X163311472Y-144068846D01*
X163330776Y-144019234D01*
X163035877Y-143407388D01*
X162732708Y-142765222D01*
X162608685Y-142823098D01*
X162495686Y-142894757D01*
X162407492Y-142991220D01*
X162360637Y-143109731D01*
X162374410Y-143123503D01*
X162385445Y-143126326D01*
X162374410Y-143145630D01*
X162374410Y-143156664D01*
X162374410Y-143173203D01*
X162366141Y-143198010D01*
X162382679Y-143200832D01*
X162399217Y-143200832D01*
X162393714Y-143250444D01*
X162404749Y-143286272D01*
X162418521Y-143319346D01*
X162415699Y-143363443D01*
X162429471Y-143368946D01*
X162434975Y-143377215D01*
X162443244Y-143385485D01*
X162454279Y-143385485D01*
X162448775Y-143506753D01*
X162454279Y-143630775D01*
X162451457Y-143760312D01*
X162432153Y-143898116D01*
X162275056Y-143749286D01*
X162178593Y-143545338D01*
X162120718Y-143302802D01*
X162079375Y-143038219D01*
X162040789Y-142977586D01*
X162015982Y-142903172D01*
X161993940Y-142823244D01*
X161966367Y-142748831D01*
X161897466Y-142776404D01*
X161842345Y-142820501D01*
X161789978Y-142864598D01*
X161721077Y-142889406D01*
X161660444Y-142980355D01*
X161624613Y-143074064D01*
X161646655Y-143123673D01*
X161660427Y-143178794D01*
X161682469Y-143231160D01*
X161721054Y-143269742D01*
X161743096Y-143402034D01*
X161767903Y-143517790D01*
X161787207Y-143639058D01*
X161792710Y-143774105D01*
X161839562Y-143909154D01*
X161878148Y-144038688D01*
X161947049Y-144124128D01*
X161999416Y-144223346D01*
X162013188Y-144228849D01*
X162032492Y-144220580D01*
X162032492Y-144237118D01*
X162040761Y-144248153D01*
X162046264Y-144259188D01*
X162040761Y-144281230D01*
X162109663Y-144328081D01*
X162175810Y-144383205D01*
X162258493Y-144416276D01*
X162382515Y-144397000D01*
X162583709Y-144206830D01*
X162724269Y-143950513D01*
X162724408Y-143950259D01*
G36*
X163537450Y-143729773D02*
G01*
X163570521Y-143771116D01*
X163598094Y-143817968D01*
X163628411Y-143875846D01*
X163669753Y-143925455D01*
X163697327Y-143991602D01*
X163741424Y-144043968D01*
X163870961Y-144283744D01*
X163887499Y-144333356D01*
X163912306Y-144377453D01*
X163923341Y-144396757D01*
X163931610Y-144410530D01*
X163937114Y-144438103D01*
X163967430Y-144476688D01*
X163997749Y-144507005D01*
X164017053Y-144529046D01*
X164058393Y-144545584D01*
X164303684Y-144330610D01*
X164300862Y-144303037D01*
X164292592Y-144275464D01*
X164281558Y-144242390D01*
X164256750Y-144165219D01*
X164209899Y-144096318D01*
X164185091Y-144035685D01*
X164118944Y-143906148D01*
X164058311Y-143801418D01*
X164022483Y-143740785D01*
X164088628Y-143660857D01*
X164152018Y-143528566D01*
X164190603Y-143415567D01*
X164198872Y-143354934D01*
X164209907Y-143302568D01*
X164223679Y-143241935D01*
X164229183Y-143178545D01*
X164245721Y-143139960D01*
X164240218Y-143112387D01*
X164237395Y-143062778D01*
X164251168Y-142996633D01*
X164264940Y-142935998D01*
X164267763Y-142869853D01*
X164251224Y-142809221D01*
X164198861Y-142756854D01*
X164152006Y-142754032D01*
X164105155Y-142781605D01*
X164058300Y-142806413D01*
X164000422Y-142833986D01*
X163942544Y-142869814D01*
X163923240Y-142908399D01*
X163887412Y-142938716D01*
X163887412Y-142969032D01*
X163884589Y-142999348D01*
X163873555Y-143043445D01*
X163862520Y-143076519D01*
X163854251Y-143150933D01*
X163837712Y-143214322D01*
X163821174Y-143277712D01*
X163818352Y-143349371D01*
X163790779Y-143330067D01*
X163779744Y-143321798D01*
X163768709Y-143313529D01*
X163606101Y-143093043D01*
X163611604Y-143065470D01*
X163553726Y-143010349D01*
X163512386Y-142969006D01*
X163476555Y-142927667D01*
X163446239Y-142905625D01*
X163195437Y-142734748D01*
X163156851Y-142729245D01*
X163145816Y-142765075D01*
X163101719Y-142820196D01*
X163027306Y-142867048D01*
X163002498Y-142883586D01*
X162988726Y-142924926D01*
X162991548Y-142949733D01*
X162980513Y-142977307D01*
X163035634Y-143073770D01*
X163096269Y-143128891D01*
X163143121Y-143170231D01*
X163173437Y-143214328D01*
X163192741Y-143236370D01*
X163267158Y-143324564D01*
X163275427Y-143357635D01*
X163308501Y-143357635D01*
X163322273Y-143368670D01*
X163349818Y-143415522D01*
X163377391Y-143451352D01*
X163391163Y-143465125D01*
X163399433Y-143487166D01*
X163407702Y-143509208D01*
X163451799Y-143564332D01*
X163471103Y-143602917D01*
X163493144Y-143647014D01*
X163523461Y-143688354D01*
X163537450Y-143729773D01*
X163537450Y-143729773D01*
G37*
X163537450Y-143729773D02*
X163570521Y-143771116D01*
X163598094Y-143817968D01*
X163628411Y-143875846D01*
X163669753Y-143925455D01*
X163697327Y-143991602D01*
X163741424Y-144043968D01*
X163870961Y-144283744D01*
X163887499Y-144333356D01*
X163912306Y-144377453D01*
X163923341Y-144396757D01*
X163931610Y-144410530D01*
X163937114Y-144438103D01*
X163967430Y-144476688D01*
X163997749Y-144507005D01*
X164017053Y-144529046D01*
X164058393Y-144545584D01*
X164303684Y-144330610D01*
X164300862Y-144303037D01*
X164292592Y-144275464D01*
X164281558Y-144242390D01*
X164256750Y-144165219D01*
X164209899Y-144096318D01*
X164185091Y-144035685D01*
X164118944Y-143906148D01*
X164058311Y-143801418D01*
X164022483Y-143740785D01*
X164088628Y-143660857D01*
X164152018Y-143528566D01*
X164190603Y-143415567D01*
X164198872Y-143354934D01*
X164209907Y-143302568D01*
X164223679Y-143241935D01*
X164229183Y-143178545D01*
X164245721Y-143139960D01*
X164240218Y-143112387D01*
X164237395Y-143062778D01*
X164251168Y-142996633D01*
X164264940Y-142935998D01*
X164267763Y-142869853D01*
X164251224Y-142809221D01*
X164198861Y-142756854D01*
X164152006Y-142754032D01*
X164105155Y-142781605D01*
X164058300Y-142806413D01*
X164000422Y-142833986D01*
X163942544Y-142869814D01*
X163923240Y-142908399D01*
X163887412Y-142938716D01*
X163887412Y-142969032D01*
X163884589Y-142999348D01*
X163873555Y-143043445D01*
X163862520Y-143076519D01*
X163854251Y-143150933D01*
X163837712Y-143214322D01*
X163821174Y-143277712D01*
X163818352Y-143349371D01*
X163790779Y-143330067D01*
X163779744Y-143321798D01*
X163768709Y-143313529D01*
X163606101Y-143093043D01*
X163611604Y-143065470D01*
X163553726Y-143010349D01*
X163512386Y-142969006D01*
X163476555Y-142927667D01*
X163446239Y-142905625D01*
X163195437Y-142734748D01*
X163156851Y-142729245D01*
X163145816Y-142765075D01*
X163101719Y-142820196D01*
X163027306Y-142867048D01*
X163002498Y-142883586D01*
X162988726Y-142924926D01*
X162991548Y-142949733D01*
X162980513Y-142977307D01*
X163035634Y-143073770D01*
X163096269Y-143128891D01*
X163143121Y-143170231D01*
X163173437Y-143214328D01*
X163192741Y-143236370D01*
X163267158Y-143324564D01*
X163275427Y-143357635D01*
X163308501Y-143357635D01*
X163322273Y-143368670D01*
X163349818Y-143415522D01*
X163377391Y-143451352D01*
X163391163Y-143465125D01*
X163399433Y-143487166D01*
X163407702Y-143509208D01*
X163451799Y-143564332D01*
X163471103Y-143602917D01*
X163493144Y-143647014D01*
X163523461Y-143688354D01*
X163537450Y-143729773D01*
G36*
X164353248Y-142900195D02*
G01*
X164353248Y-142930511D01*
X164356070Y-142947050D01*
X164356070Y-142966354D01*
X164350567Y-142993927D01*
X164485613Y-143123464D01*
X164648221Y-143173073D01*
X164830121Y-143203389D01*
X165012025Y-143275048D01*
X165078169Y-143275048D01*
X165160852Y-143283317D01*
X165202192Y-143308125D01*
X165251804Y-143321897D01*
X165243535Y-143374263D01*
X165235265Y-143415603D01*
X165023048Y-143412781D01*
X164791539Y-143399009D01*
X164794361Y-143418313D01*
X164797183Y-143432085D01*
X164758598Y-143467913D01*
X164720012Y-143506499D01*
X164681427Y-143539572D01*
X164631818Y-143547841D01*
X164618045Y-143597450D01*
X164623549Y-143649817D01*
X164711743Y-143713207D01*
X164805450Y-143768328D01*
X164907425Y-143809670D01*
X165025936Y-143820705D01*
X165047977Y-143820705D01*
X165064515Y-143812436D01*
X165127905Y-143820705D01*
X165188541Y-143828974D01*
X165262954Y-143817939D01*
X165337368Y-143806904D01*
X165417293Y-143930927D01*
X165480683Y-144071488D01*
X165326344Y-144082523D01*
X165207833Y-144074254D01*
X165094832Y-144060481D01*
X164948762Y-144054978D01*
X164819225Y-144016392D01*
X164678667Y-143983319D01*
X164640081Y-144013635D01*
X164609762Y-144052221D01*
X164576691Y-144082537D01*
X164535349Y-144093572D01*
X164521576Y-144121117D01*
X164513307Y-144148690D01*
X164505038Y-144173497D01*
X164480231Y-144179000D01*
X164576694Y-144319561D01*
X164697960Y-144391217D01*
X164852301Y-144429803D01*
X165036959Y-144462876D01*
X165078299Y-144460054D01*
X165116885Y-144454551D01*
X165268469Y-144479358D01*
X165447612Y-144487627D01*
X165621247Y-144462820D01*
X165756293Y-144391161D01*
X165786612Y-144347064D01*
X165822440Y-144305724D01*
X165833475Y-144225798D01*
X165850013Y-144134847D01*
X165863786Y-144038383D01*
X165858282Y-143952946D01*
X165825212Y-143878532D01*
X165805908Y-143806873D01*
X165789369Y-143793101D01*
X165767328Y-143782066D01*
X165731497Y-143688360D01*
X165692914Y-143602923D01*
X165651571Y-143520240D01*
X165610232Y-143423777D01*
X165668107Y-143346606D01*
X165692914Y-143261169D01*
X165706687Y-143172974D01*
X165725991Y-143079268D01*
X165659846Y-143013121D01*
X165571652Y-142969023D01*
X165469676Y-142941450D01*
X165353920Y-142916643D01*
X165158239Y-142861522D01*
X164987364Y-142831206D01*
X164810975Y-142806398D01*
X164604267Y-142773325D01*
X164557416Y-142798132D01*
X164532608Y-142784360D01*
X164518836Y-142767822D01*
X164449934Y-142847747D01*
X164353471Y-142900113D01*
X164353248Y-142900195D01*
X164353248Y-142900195D01*
G37*
X164353248Y-142900195D02*
X164353248Y-142930511D01*
X164356070Y-142947050D01*
X164356070Y-142966354D01*
X164350567Y-142993927D01*
X164485613Y-143123464D01*
X164648221Y-143173073D01*
X164830121Y-143203389D01*
X165012025Y-143275048D01*
X165078169Y-143275048D01*
X165160852Y-143283317D01*
X165202192Y-143308125D01*
X165251804Y-143321897D01*
X165243535Y-143374263D01*
X165235265Y-143415603D01*
X165023048Y-143412781D01*
X164791539Y-143399009D01*
X164794361Y-143418313D01*
X164797183Y-143432085D01*
X164758598Y-143467913D01*
X164720012Y-143506499D01*
X164681427Y-143539572D01*
X164631818Y-143547841D01*
X164618045Y-143597450D01*
X164623549Y-143649817D01*
X164711743Y-143713207D01*
X164805450Y-143768328D01*
X164907425Y-143809670D01*
X165025936Y-143820705D01*
X165047977Y-143820705D01*
X165064515Y-143812436D01*
X165127905Y-143820705D01*
X165188541Y-143828974D01*
X165262954Y-143817939D01*
X165337368Y-143806904D01*
X165417293Y-143930927D01*
X165480683Y-144071488D01*
X165326344Y-144082523D01*
X165207833Y-144074254D01*
X165094832Y-144060481D01*
X164948762Y-144054978D01*
X164819225Y-144016392D01*
X164678667Y-143983319D01*
X164640081Y-144013635D01*
X164609762Y-144052221D01*
X164576691Y-144082537D01*
X164535349Y-144093572D01*
X164521576Y-144121117D01*
X164513307Y-144148690D01*
X164505038Y-144173497D01*
X164480231Y-144179000D01*
X164576694Y-144319561D01*
X164697960Y-144391217D01*
X164852301Y-144429803D01*
X165036959Y-144462876D01*
X165078299Y-144460054D01*
X165116885Y-144454551D01*
X165268469Y-144479358D01*
X165447612Y-144487627D01*
X165621247Y-144462820D01*
X165756293Y-144391161D01*
X165786612Y-144347064D01*
X165822440Y-144305724D01*
X165833475Y-144225798D01*
X165850013Y-144134847D01*
X165863786Y-144038383D01*
X165858282Y-143952946D01*
X165825212Y-143878532D01*
X165805908Y-143806873D01*
X165789369Y-143793101D01*
X165767328Y-143782066D01*
X165731497Y-143688360D01*
X165692914Y-143602923D01*
X165651571Y-143520240D01*
X165610232Y-143423777D01*
X165668107Y-143346606D01*
X165692914Y-143261169D01*
X165706687Y-143172974D01*
X165725991Y-143079268D01*
X165659846Y-143013121D01*
X165571652Y-142969023D01*
X165469676Y-142941450D01*
X165353920Y-142916643D01*
X165158239Y-142861522D01*
X164987364Y-142831206D01*
X164810975Y-142806398D01*
X164604267Y-142773325D01*
X164557416Y-142798132D01*
X164532608Y-142784360D01*
X164518836Y-142767822D01*
X164449934Y-142847747D01*
X164353471Y-142900113D01*
X164353248Y-142900195D01*
G36*
X167638492Y-144214843D02*
G01*
X166960385Y-143239319D01*
X167007240Y-143366099D01*
X166764704Y-143302709D01*
X166524925Y-143203491D01*
X166596584Y-143040883D01*
X166717852Y-142955443D01*
X166797777Y-143051906D01*
X166885972Y-143140101D01*
X166960385Y-143239319D01*
X167638492Y-144214843D01*
X167663299Y-144195539D01*
X167688107Y-144148687D01*
X167657790Y-144148687D01*
X167668825Y-144038442D01*
X167644018Y-143939224D01*
X167621976Y-143845518D01*
X167630246Y-143749055D01*
X167610942Y-143743551D01*
X167599907Y-143704966D01*
X167597084Y-143655357D01*
X167599907Y-143611260D01*
X167544786Y-143434871D01*
X167506200Y-143255727D01*
X167470369Y-143082093D01*
X167415249Y-142922242D01*
X167335323Y-142933277D01*
X167277445Y-142969105D01*
X167125861Y-142809255D01*
X166993569Y-142627351D01*
X166839230Y-142467500D01*
X166627010Y-142384818D01*
X166478183Y-142486793D01*
X166343134Y-142619085D01*
X166301795Y-142649401D01*
X166257697Y-142676974D01*
X166257697Y-142718314D01*
X166194307Y-142803751D01*
X166147453Y-142905727D01*
X166106113Y-143013214D01*
X166062016Y-143115189D01*
X166067519Y-143145505D01*
X166062016Y-143170313D01*
X166053747Y-143197886D01*
X166050924Y-143233714D01*
X166147385Y-143470738D01*
X166351336Y-143616808D01*
X166604896Y-143713272D01*
X166850186Y-143798709D01*
X166839151Y-143809744D01*
X166830882Y-143826282D01*
X166704102Y-143906207D01*
X166618665Y-143958574D01*
X166530471Y-143991647D01*
X166395422Y-144024721D01*
X166263130Y-144057792D01*
X166174936Y-144077096D01*
X166092253Y-144088130D01*
X165973742Y-144101903D01*
X165924133Y-144173562D01*
X165896560Y-144256245D01*
X165893738Y-144336170D01*
X165915779Y-144394048D01*
X165902007Y-144405083D01*
X165874434Y-144405083D01*
X165907505Y-144438157D01*
X165935078Y-144476742D01*
X165968151Y-144512570D01*
X166012249Y-144531874D01*
X166265808Y-144534696D01*
X166659926Y-144407916D01*
X166852850Y-144327988D01*
X166982388Y-144259087D01*
X167084363Y-144184673D01*
X167191850Y-144088212D01*
X167202885Y-144099247D01*
X167211154Y-144110282D01*
X167255251Y-144289428D01*
X167337934Y-144429986D01*
X167398569Y-144438255D01*
X167434397Y-144468572D01*
X167475737Y-144465749D01*
X167500545Y-144451977D01*
X167525352Y-144435439D01*
X167569449Y-144429935D01*
X167585987Y-144383084D01*
X167630085Y-144361042D01*
X167624581Y-144319702D01*
X167632850Y-144286629D01*
X167643885Y-144253555D01*
X167638382Y-144214970D01*
X167638492Y-144214843D01*
X167638492Y-144214843D01*
G37*
X167638492Y-144214843D02*
X166960385Y-143239319D01*
X167007240Y-143366099D01*
X166764704Y-143302709D01*
X166524925Y-143203491D01*
X166596584Y-143040883D01*
X166717852Y-142955443D01*
X166797777Y-143051906D01*
X166885972Y-143140101D01*
X166960385Y-143239319D01*
X167638492Y-144214843D01*
X167663299Y-144195539D01*
X167688107Y-144148687D01*
X167657790Y-144148687D01*
X167668825Y-144038442D01*
X167644018Y-143939224D01*
X167621976Y-143845518D01*
X167630246Y-143749055D01*
X167610942Y-143743551D01*
X167599907Y-143704966D01*
X167597084Y-143655357D01*
X167599907Y-143611260D01*
X167544786Y-143434871D01*
X167506200Y-143255727D01*
X167470369Y-143082093D01*
X167415249Y-142922242D01*
X167335323Y-142933277D01*
X167277445Y-142969105D01*
X167125861Y-142809255D01*
X166993569Y-142627351D01*
X166839230Y-142467500D01*
X166627010Y-142384818D01*
X166478183Y-142486793D01*
X166343134Y-142619085D01*
X166301795Y-142649401D01*
X166257697Y-142676974D01*
X166257697Y-142718314D01*
X166194307Y-142803751D01*
X166147453Y-142905727D01*
X166106113Y-143013214D01*
X166062016Y-143115189D01*
X166067519Y-143145505D01*
X166062016Y-143170313D01*
X166053747Y-143197886D01*
X166050924Y-143233714D01*
X166147385Y-143470738D01*
X166351336Y-143616808D01*
X166604896Y-143713272D01*
X166850186Y-143798709D01*
X166839151Y-143809744D01*
X166830882Y-143826282D01*
X166704102Y-143906207D01*
X166618665Y-143958574D01*
X166530471Y-143991647D01*
X166395422Y-144024721D01*
X166263130Y-144057792D01*
X166174936Y-144077096D01*
X166092253Y-144088130D01*
X165973742Y-144101903D01*
X165924133Y-144173562D01*
X165896560Y-144256245D01*
X165893738Y-144336170D01*
X165915779Y-144394048D01*
X165902007Y-144405083D01*
X165874434Y-144405083D01*
X165907505Y-144438157D01*
X165935078Y-144476742D01*
X165968151Y-144512570D01*
X166012249Y-144531874D01*
X166265808Y-144534696D01*
X166659926Y-144407916D01*
X166852850Y-144327988D01*
X166982388Y-144259087D01*
X167084363Y-144184673D01*
X167191850Y-144088212D01*
X167202885Y-144099247D01*
X167211154Y-144110282D01*
X167255251Y-144289428D01*
X167337934Y-144429986D01*
X167398569Y-144438255D01*
X167434397Y-144468572D01*
X167475737Y-144465749D01*
X167500545Y-144451977D01*
X167525352Y-144435439D01*
X167569449Y-144429935D01*
X167585987Y-144383084D01*
X167630085Y-144361042D01*
X167624581Y-144319702D01*
X167632850Y-144286629D01*
X167643885Y-144253555D01*
X167638382Y-144214970D01*
X167638492Y-144214843D01*
G36*
X169942571Y-143798675D02*
G01*
X169934302Y-143743554D01*
X169931480Y-143680164D01*
X169738553Y-143343925D01*
X169476727Y-143068315D01*
X169438141Y-143029732D01*
X169407825Y-142988389D01*
X169371994Y-142955316D01*
X169322385Y-142933274D01*
X169157023Y-142787202D01*
X168955829Y-142660422D01*
X168746367Y-142536399D01*
X168553440Y-142398596D01*
X168506588Y-142412368D01*
X168468002Y-142409546D01*
X168404613Y-142483960D01*
X168321930Y-142525302D01*
X168242005Y-142574911D01*
X168184126Y-142652079D01*
X168203430Y-142665852D01*
X168195161Y-142696168D01*
X168189658Y-142726487D01*
X168214465Y-142740260D01*
X168195161Y-142759564D01*
X168175857Y-142778868D01*
X168184126Y-142806441D01*
X168184126Y-142836757D01*
X168332953Y-142922197D01*
X168503831Y-143004877D01*
X168685731Y-143101340D01*
X168867635Y-143217097D01*
X169052290Y-143363169D01*
X169228679Y-143534044D01*
X169388532Y-143718702D01*
X169515312Y-143903360D01*
X169501540Y-143928167D01*
X169485002Y-143952974D01*
X169289320Y-143952974D01*
X169107416Y-143964009D01*
X169093644Y-143941968D01*
X169077106Y-143922664D01*
X168727085Y-143862028D01*
X168396355Y-143773834D01*
X168484549Y-143743517D01*
X168484549Y-143715944D01*
X168454233Y-143688371D01*
X168528646Y-143622224D01*
X168561720Y-143514740D01*
X168542416Y-143476154D01*
X168561720Y-143440323D01*
X168578258Y-143440323D01*
X168583762Y-143451358D01*
X168589265Y-143462393D01*
X168603037Y-143462393D01*
X168589265Y-143412784D01*
X168572727Y-143365929D01*
X168343974Y-143214345D01*
X168255780Y-143272223D01*
X168145535Y-143332856D01*
X168027025Y-143396246D01*
X167914026Y-143456881D01*
X167828586Y-143512002D01*
X167759684Y-143578146D01*
X167693540Y-143644294D01*
X167613614Y-143699415D01*
X167608111Y-143771074D01*
X167602608Y-143837218D01*
X167729387Y-143997071D01*
X167897510Y-144107313D01*
X168093189Y-144187241D01*
X168308163Y-144247874D01*
X168531406Y-144308509D01*
X168749135Y-144380166D01*
X168829063Y-144382988D01*
X168892453Y-144391257D01*
X168953086Y-144402292D01*
X169019230Y-144410561D01*
X169038534Y-144416064D01*
X169049569Y-144429837D01*
X169148787Y-144438106D01*
X169223201Y-144438106D01*
X169303126Y-144449141D01*
X169380297Y-144457410D01*
X169768903Y-144281021D01*
X169923245Y-143826268D01*
X169928748Y-143809730D01*
X169942520Y-143798695D01*
X169942571Y-143798675D01*
X169942571Y-143798675D01*
G37*
X169942571Y-143798675D02*
X169934302Y-143743554D01*
X169931480Y-143680164D01*
X169738553Y-143343925D01*
X169476727Y-143068315D01*
X169438141Y-143029732D01*
X169407825Y-142988389D01*
X169371994Y-142955316D01*
X169322385Y-142933274D01*
X169157023Y-142787202D01*
X168955829Y-142660422D01*
X168746367Y-142536399D01*
X168553440Y-142398596D01*
X168506588Y-142412368D01*
X168468002Y-142409546D01*
X168404613Y-142483960D01*
X168321930Y-142525302D01*
X168242005Y-142574911D01*
X168184126Y-142652079D01*
X168203430Y-142665852D01*
X168195161Y-142696168D01*
X168189658Y-142726487D01*
X168214465Y-142740260D01*
X168195161Y-142759564D01*
X168175857Y-142778868D01*
X168184126Y-142806441D01*
X168184126Y-142836757D01*
X168332953Y-142922197D01*
X168503831Y-143004877D01*
X168685731Y-143101340D01*
X168867635Y-143217097D01*
X169052290Y-143363169D01*
X169228679Y-143534044D01*
X169388532Y-143718702D01*
X169515312Y-143903360D01*
X169501540Y-143928167D01*
X169485002Y-143952974D01*
X169289320Y-143952974D01*
X169107416Y-143964009D01*
X169093644Y-143941968D01*
X169077106Y-143922664D01*
X168727085Y-143862028D01*
X168396355Y-143773834D01*
X168484549Y-143743517D01*
X168484549Y-143715944D01*
X168454233Y-143688371D01*
X168528646Y-143622224D01*
X168561720Y-143514740D01*
X168542416Y-143476154D01*
X168561720Y-143440323D01*
X168578258Y-143440323D01*
X168583762Y-143451358D01*
X168589265Y-143462393D01*
X168603037Y-143462393D01*
X168589265Y-143412784D01*
X168572727Y-143365929D01*
X168343974Y-143214345D01*
X168255780Y-143272223D01*
X168145535Y-143332856D01*
X168027025Y-143396246D01*
X167914026Y-143456881D01*
X167828586Y-143512002D01*
X167759684Y-143578146D01*
X167693540Y-143644294D01*
X167613614Y-143699415D01*
X167608111Y-143771074D01*
X167602608Y-143837218D01*
X167729387Y-143997071D01*
X167897510Y-144107313D01*
X168093189Y-144187241D01*
X168308163Y-144247874D01*
X168531406Y-144308509D01*
X168749135Y-144380166D01*
X168829063Y-144382988D01*
X168892453Y-144391257D01*
X168953086Y-144402292D01*
X169019230Y-144410561D01*
X169038534Y-144416064D01*
X169049569Y-144429837D01*
X169148787Y-144438106D01*
X169223201Y-144438106D01*
X169303126Y-144449141D01*
X169380297Y-144457410D01*
X169768903Y-144281021D01*
X169923245Y-143826268D01*
X169928748Y-143809730D01*
X169942520Y-143798695D01*
X169942571Y-143798675D01*
D11*
G36*
X128186291Y-72385212D02*
G01*
X128114326Y-72399803D01*
X128042786Y-72415297D01*
X127971677Y-72431694D01*
X127901003Y-72448966D01*
X127830769Y-72467113D01*
X127760981Y-72486134D01*
X127691642Y-72506003D01*
X127622757Y-72526718D01*
X127554332Y-72548280D01*
X127486371Y-72570688D01*
X127418879Y-72593915D01*
X127351860Y-72617960D01*
X127285320Y-72642824D01*
X127219262Y-72668506D01*
X127153693Y-72694979D01*
X127088617Y-72722242D01*
X127024038Y-72750294D01*
X126959961Y-72779123D01*
X126896391Y-72808717D01*
X126833333Y-72839073D01*
X126770792Y-72870182D01*
X126708772Y-72902037D01*
X126647278Y-72934628D01*
X126586315Y-72967950D01*
X126525887Y-73001994D01*
X126466000Y-73036756D01*
X126406659Y-73072223D01*
X126347867Y-73108392D01*
X126289631Y-73145250D01*
X126231953Y-73182797D01*
X126174841Y-73221019D01*
X126118297Y-73259909D01*
X126062327Y-73299462D01*
X126006936Y-73339668D01*
X125952128Y-73380522D01*
X125897908Y-73422014D01*
X125844282Y-73464139D01*
X125791254Y-73506887D01*
X125738827Y-73550251D01*
X125687009Y-73594224D01*
X125635802Y-73638798D01*
X125585212Y-73683962D01*
X125535244Y-73729716D01*
X125485902Y-73776045D01*
X125437192Y-73822945D01*
X125389117Y-73870406D01*
X125341683Y-73918426D01*
X125294894Y-73966991D01*
X125248756Y-74016098D01*
X125203273Y-74065735D01*
X125158450Y-74115900D01*
X125114291Y-74166579D01*
X125070803Y-74217768D01*
X125027988Y-74269460D01*
X124985852Y-74321646D01*
X124944400Y-74374320D01*
X124903636Y-74427471D01*
X124863566Y-74481096D01*
X124824194Y-74535181D01*
X124785525Y-74589726D01*
X124747563Y-74644717D01*
X124710313Y-74700151D01*
X124673781Y-74756020D01*
X124637971Y-74812312D01*
X124602888Y-74869021D01*
X124568536Y-74926143D01*
X124534920Y-74983666D01*
X124502045Y-75041586D01*
X124469916Y-75099893D01*
X124438537Y-75158581D01*
X124407914Y-75217639D01*
X124378052Y-75277064D01*
X124348954Y-75336844D01*
X124320626Y-75396977D01*
X124293072Y-75457449D01*
X124266298Y-75518257D01*
X124240308Y-75579392D01*
X124215105Y-75640846D01*
X124190699Y-75702613D01*
X124167088Y-75764682D01*
X124144282Y-75827047D01*
X124122283Y-75889703D01*
X124101096Y-75952639D01*
X124080728Y-76015848D01*
X124061181Y-76079323D01*
X124042462Y-76143057D01*
X124024574Y-76207040D01*
X124007523Y-76271268D01*
X123991312Y-76335730D01*
X123975948Y-76400421D01*
X123961436Y-76465332D01*
X123947779Y-76530458D01*
X123934983Y-76595787D01*
X123923051Y-76661313D01*
X123911990Y-76727029D01*
X123901805Y-76792927D01*
X123892497Y-76858998D01*
X123884076Y-76925239D01*
X123876543Y-76991637D01*
X123869903Y-77058188D01*
X123864162Y-77124883D01*
X123859325Y-77191716D01*
X123855396Y-77258676D01*
X123852379Y-77325757D01*
X123850291Y-77392952D01*
X123849106Y-77460253D01*
X123848857Y-77527653D01*
X123849534Y-77595144D01*
X123851143Y-77662719D01*
X123853711Y-77730368D01*
X123857219Y-77798084D01*
X123861678Y-77865863D01*
X123867094Y-77933692D01*
X123873469Y-78001570D01*
X123880810Y-78069483D01*
X123889121Y-78137426D01*
X123898409Y-78205390D01*
X123908676Y-78273372D01*
X123919929Y-78341359D01*
X123932169Y-78409347D01*
X123945405Y-78477326D01*
X123959640Y-78545288D01*
X123974877Y-78613230D01*
X123991122Y-78681138D01*
X124008383Y-78749010D01*
X124026659Y-78816833D01*
X124045961Y-78884603D01*
X124066289Y-78952311D01*
X124083146Y-79006094D01*
X124100489Y-79059556D01*
X124118314Y-79112695D01*
X124136622Y-79165513D01*
X124155409Y-79218007D01*
X124174674Y-79270173D01*
X124194412Y-79322011D01*
X124214622Y-79373519D01*
X124235301Y-79424698D01*
X124256448Y-79475540D01*
X124278060Y-79526049D01*
X124300136Y-79576226D01*
X124322671Y-79626060D01*
X124345667Y-79675557D01*
X124369116Y-79724714D01*
X124393021Y-79773527D01*
X124417376Y-79821999D01*
X124442181Y-79870123D01*
X124467434Y-79917898D01*
X124493130Y-79965328D01*
X124519270Y-80012406D01*
X124545850Y-80059130D01*
X124572867Y-80105502D01*
X124600318Y-80151519D01*
X124628202Y-80197179D01*
X124656518Y-80242479D01*
X124685262Y-80287420D01*
X124714432Y-80332000D01*
X124744027Y-80376216D01*
X124774043Y-80420064D01*
X124804479Y-80463549D01*
X124835331Y-80506664D01*
X124866598Y-80549410D01*
X124898278Y-80591785D01*
X124930368Y-80633786D01*
X124962866Y-80675413D01*
X124995770Y-80716663D01*
X125029077Y-80757537D01*
X125062785Y-80798030D01*
X125096892Y-80838143D01*
X125131395Y-80877874D01*
X125166293Y-80917219D01*
X125201582Y-80956179D01*
X125237260Y-80994751D01*
X125273326Y-81032935D01*
X125309777Y-81070728D01*
X125346611Y-81108128D01*
X125383825Y-81145133D01*
X125421417Y-81181743D01*
X125459385Y-81217957D01*
X125497727Y-81253771D01*
X125536439Y-81289187D01*
X125575521Y-81324200D01*
X125614970Y-81358809D01*
X125654782Y-81393014D01*
X125694957Y-81426810D01*
X125735492Y-81460200D01*
X125776384Y-81493178D01*
X125817631Y-81525743D01*
X125859231Y-81557897D01*
X125901182Y-81589636D01*
X125943481Y-81620959D01*
X125986126Y-81651863D01*
X126029115Y-81682348D01*
X126072446Y-81712414D01*
X126116115Y-81742053D01*
X126160121Y-81771271D01*
X126204462Y-81800060D01*
X126249135Y-81828424D01*
X126294138Y-81856364D01*
X126339469Y-81883852D01*
X126385125Y-81910917D01*
X126431104Y-81937559D01*
X126477405Y-81963749D01*
X126524023Y-81989516D01*
X126570958Y-82014832D01*
X126618207Y-82039724D01*
X126665767Y-82064164D01*
X126713637Y-82088153D01*
X126761813Y-82111690D01*
X126810295Y-82134804D01*
X126859079Y-82157467D01*
X126908163Y-82179678D01*
X126957545Y-82201437D01*
X127007222Y-82222745D01*
X127057193Y-82243601D01*
X127107455Y-82264006D01*
X127158006Y-82283930D01*
X127208843Y-82303404D01*
X127259964Y-82322426D01*
X127311367Y-82340968D01*
X127363049Y-82359058D01*
X127415009Y-82376669D01*
X127467244Y-82393828D01*
X127519751Y-82410507D01*
X127572529Y-82426707D01*
X127625575Y-82442455D01*
X127678887Y-82457714D01*
X127732462Y-82472500D01*
X127786298Y-82486806D01*
X127840394Y-82500635D01*
X127894746Y-82513981D01*
X127949352Y-82526845D01*
X128004210Y-82539226D01*
X128059318Y-82551122D01*
X128114674Y-82562529D01*
X128170274Y-82573448D01*
X128226118Y-82583876D01*
X128282202Y-82593813D01*
X128338524Y-82603256D01*
X128395082Y-82612206D01*
X128451874Y-82620658D01*
X128508898Y-82628611D01*
X128566150Y-82636065D01*
X128623630Y-82643016D01*
X128681334Y-82649465D01*
X128739260Y-82655408D01*
X128797406Y-82660844D01*
X128855769Y-82665772D01*
X128914348Y-82670191D01*
X128973141Y-82674100D01*
X129032143Y-82677495D01*
X129091355Y-82680377D01*
X129150772Y-82682747D01*
X129210394Y-82684582D01*
X129270217Y-82685908D01*
X129330239Y-82686727D01*
X129390459Y-82687009D01*
X129447304Y-82686785D01*
X129504022Y-82686080D01*
X129560613Y-82684894D01*
X129617076Y-82683201D01*
X129673412Y-82681028D01*
X129729622Y-82678375D01*
X129785707Y-82675223D01*
X129841666Y-82671582D01*
X129897501Y-82667450D01*
X129953211Y-82662830D01*
X130008797Y-82657719D01*
X130064260Y-82652117D01*
X130119600Y-82646027D01*
X130174818Y-82639445D01*
X130229914Y-82632373D01*
X130284888Y-82624806D01*
X130339741Y-82616749D01*
X130394475Y-82608200D01*
X130449088Y-82599158D01*
X130503579Y-82589625D01*
X130557952Y-82579597D01*
X130612209Y-82569076D01*
X130666345Y-82558061D01*
X130720365Y-82546552D01*
X130774267Y-82534549D01*
X130828053Y-82522052D01*
X130881720Y-82509059D01*
X130935275Y-82495571D01*
X130988714Y-82481587D01*
X131042037Y-82467109D01*
X131095244Y-82452134D01*
X131148338Y-82436669D01*
X131201320Y-82420695D01*
X131254189Y-82404241D01*
X131306942Y-82387280D01*
X131359587Y-82369810D01*
X131412117Y-82351861D01*
X131464540Y-82333403D01*
X131516850Y-82314438D01*
X131569050Y-82294993D01*
X131621140Y-82275040D01*
X131673119Y-82254579D01*
X131724992Y-82233638D01*
X131776757Y-82212189D01*
X131828412Y-82190232D01*
X131879960Y-82167767D01*
X131931403Y-82144823D01*
X131982737Y-82121370D01*
X132033966Y-82097409D01*
X132085090Y-82072941D01*
X132136108Y-82047992D01*
X132187023Y-82022536D01*
X132237835Y-81996571D01*
X132288542Y-81970099D01*
X132339144Y-81943118D01*
X132389645Y-81915630D01*
X132440044Y-81887662D01*
X132490339Y-81859177D01*
X132540535Y-81830190D01*
X132590632Y-81800695D01*
X132640625Y-81770698D01*
X132690522Y-81740195D01*
X132740317Y-81709187D01*
X132790014Y-81677671D01*
X132839612Y-81645651D01*
X132889113Y-81613122D01*
X132938516Y-81580085D01*
X132987821Y-81546543D01*
X133037029Y-81512492D01*
X133086141Y-81477934D01*
X133135157Y-81442868D01*
X133184081Y-81407294D01*
X133232908Y-81371209D01*
X133281642Y-81334616D01*
X133330283Y-81297515D01*
X133378831Y-81259904D01*
X133427283Y-81221781D01*
X133475644Y-81183150D01*
X133523916Y-81144006D01*
X133572094Y-81104354D01*
X133620182Y-81064191D01*
X133668176Y-81023514D01*
X133716084Y-80982327D01*
X133763903Y-80940628D01*
X133811630Y-80898416D01*
X133859269Y-80855694D01*
X133906821Y-80812454D01*
X133954285Y-80768704D01*
X134001661Y-80724440D01*
X134048953Y-80679660D01*
X134096158Y-80634369D01*
X134143275Y-80588562D01*
X134190310Y-80542241D01*
X134237258Y-80495403D01*
X134284124Y-80448052D01*
X134330905Y-80400184D01*
X134377601Y-80351800D01*
X134424216Y-80302902D01*
X134470749Y-80253485D01*
X134517197Y-80203551D01*
X134563566Y-80153099D01*
X134609853Y-80102132D01*
X134656059Y-80050646D01*
X134702185Y-79998641D01*
X134748232Y-79946120D01*
X134794201Y-79893076D01*
X134840090Y-79839516D01*
X134885900Y-79785439D01*
X134931634Y-79730840D01*
X134977292Y-79675720D01*
X135022871Y-79620082D01*
X135068374Y-79563923D01*
X135113800Y-79507241D01*
X135159154Y-79450041D01*
X135204430Y-79392318D01*
X135249634Y-79334073D01*
X135294761Y-79275306D01*
X135339818Y-79216016D01*
X135384799Y-79156205D01*
X135429709Y-79095872D01*
X135474545Y-79035013D01*
X135519311Y-78973633D01*
X135564007Y-78911727D01*
X135608632Y-78849300D01*
X135653186Y-78786347D01*
X135697670Y-78722870D01*
X135742086Y-78658867D01*
X135786432Y-78594337D01*
X135831105Y-78529017D01*
X135875778Y-78463699D01*
X135920451Y-78398379D01*
X135965127Y-78333062D01*
X136009800Y-78267741D01*
X136054473Y-78202424D01*
X136099145Y-78137103D01*
X136143818Y-78071786D01*
X136188491Y-78006465D01*
X136233164Y-77941145D01*
X136277837Y-77875828D01*
X136322513Y-77810507D01*
X136367186Y-77745190D01*
X136411859Y-77679869D01*
X136456532Y-77614552D01*
X136501205Y-77549232D01*
X136482183Y-77517538D01*
X136463161Y-77485842D01*
X136444140Y-77454148D01*
X136425118Y-77422452D01*
X136406096Y-77390758D01*
X136387074Y-77359062D01*
X136368052Y-77327368D01*
X136349031Y-77295675D01*
X136330009Y-77263978D01*
X136310987Y-77232285D01*
X136291965Y-77200588D01*
X136272944Y-77168895D01*
X136253922Y-77137198D01*
X136234900Y-77105505D01*
X136215878Y-77073809D01*
X136196856Y-77042115D01*
X136126239Y-76925789D01*
X136054605Y-76810492D01*
X135981961Y-76696254D01*
X135908332Y-76583086D01*
X135833738Y-76471004D01*
X135758201Y-76360026D01*
X135681739Y-76250166D01*
X135604373Y-76141439D01*
X135565359Y-76087507D01*
X135526124Y-76033865D01*
X135486672Y-75980516D01*
X135447009Y-75927459D01*
X135407134Y-75874700D01*
X135367053Y-75822240D01*
X135326763Y-75770080D01*
X135286272Y-75718222D01*
X135245578Y-75666668D01*
X135204690Y-75615422D01*
X135163601Y-75564484D01*
X135122324Y-75513856D01*
X135080854Y-75463542D01*
X135039195Y-75413540D01*
X134997350Y-75363858D01*
X134955324Y-75314492D01*
X134913118Y-75265447D01*
X134870734Y-75216727D01*
X134828172Y-75168332D01*
X134785438Y-75120263D01*
X134742534Y-75072523D01*
X134699464Y-75025115D01*
X134656228Y-74978040D01*
X134612828Y-74931302D01*
X134569267Y-74884899D01*
X134525551Y-74838837D01*
X134481679Y-74793114D01*
X134437652Y-74747736D01*
X134393476Y-74702704D01*
X134349153Y-74658020D01*
X134304686Y-74613686D01*
X134260075Y-74569702D01*
X134215326Y-74526073D01*
X134170436Y-74482800D01*
X134125413Y-74439885D01*
X134080258Y-74397329D01*
X134034972Y-74355136D01*
X133989560Y-74313308D01*
X133944023Y-74271844D01*
X133898365Y-74230750D01*
X133852586Y-74190025D01*
X133806688Y-74149673D01*
X133760678Y-74109693D01*
X133714554Y-74070092D01*
X133668320Y-74030872D01*
X133621982Y-73992029D01*
X133575537Y-73953568D01*
X133528990Y-73915494D01*
X133482344Y-73877806D01*
X133435600Y-73840504D01*
X133388762Y-73803598D01*
X133341834Y-73767081D01*
X133294816Y-73730960D01*
X133247710Y-73695236D01*
X133200520Y-73659913D01*
X133153248Y-73624988D01*
X133105897Y-73590467D01*
X133058469Y-73556352D01*
X133010968Y-73522646D01*
X132963394Y-73489346D01*
X132915749Y-73456462D01*
X132868040Y-73423987D01*
X132820268Y-73391929D01*
X132772431Y-73360289D01*
X132724538Y-73329070D01*
X132676586Y-73298271D01*
X132628583Y-73267895D01*
X132580526Y-73237946D01*
X132532421Y-73208425D01*
X132484268Y-73179334D01*
X132436076Y-73150674D01*
X132387839Y-73122449D01*
X132339565Y-73094650D01*
X132291251Y-73067303D01*
X132242906Y-73040379D01*
X132194531Y-73013906D01*
X132146124Y-72987886D01*
X132097692Y-72962316D01*
X132049237Y-72937198D01*
X132000762Y-72912532D01*
X131952268Y-72888318D01*
X131903757Y-72864554D01*
X131855235Y-72841243D01*
X131806698Y-72818383D01*
X131758156Y-72795974D01*
X131709608Y-72774046D01*
X131661054Y-72752569D01*
X131612501Y-72731571D01*
X131563950Y-72711054D01*
X131515402Y-72690988D01*
X131466863Y-72671402D01*
X131418332Y-72652295D01*
X131369812Y-72633668D01*
X131321307Y-72615522D01*
X131272818Y-72597854D01*
X131224349Y-72580667D01*
X131175903Y-72563960D01*
X131127479Y-72547732D01*
X131079084Y-72532012D01*
X131030719Y-72516772D01*
X130982386Y-72502040D01*
X130934087Y-72487788D01*
X130885824Y-72474044D01*
X130837600Y-72460779D01*
X130789419Y-72448023D01*
X130741286Y-72435774D01*
X130693196Y-72424034D01*
X130645159Y-72412801D01*
X130597173Y-72402077D01*
X130549240Y-72391860D01*
X130501367Y-72382180D01*
X130453552Y-72373008D01*
X130433091Y-72369198D01*
X130412771Y-72365473D01*
X130392592Y-72361804D01*
X130372526Y-72358191D01*
X130352602Y-72354635D01*
X130332790Y-72351136D01*
X130313099Y-72347721D01*
X130293527Y-72344362D01*
X130274070Y-72341060D01*
X130254730Y-72337815D01*
X130235502Y-72334626D01*
X130216384Y-72331493D01*
X130197377Y-72328417D01*
X130178476Y-72325397D01*
X130159677Y-72322462D01*
X130140983Y-72319583D01*
X130122384Y-72316761D01*
X130103885Y-72313939D01*
X130085481Y-72311117D01*
X130067173Y-72308577D01*
X130048956Y-72306037D01*
X130030829Y-72303497D01*
X130012789Y-72300957D01*
X129994834Y-72298417D01*
X129976961Y-72296159D01*
X129959170Y-72293901D01*
X129941457Y-72291643D01*
X129923821Y-72289386D01*
X129906262Y-72287410D01*
X129888772Y-72285434D01*
X129871356Y-72283459D01*
X129854008Y-72281483D01*
X129836725Y-72279508D01*
X129819506Y-72277814D01*
X129802350Y-72276121D01*
X129785253Y-72274428D01*
X129768215Y-72272734D01*
X129751231Y-72271323D01*
X129734304Y-72269912D01*
X129717427Y-72268501D01*
X129700598Y-72267090D01*
X129683817Y-72265679D01*
X129667081Y-72264550D01*
X129650388Y-72263421D01*
X129633736Y-72262292D01*
X129617125Y-72261163D01*
X129600550Y-72260317D01*
X129584009Y-72259470D01*
X129567502Y-72258623D01*
X129551023Y-72257777D01*
X129534572Y-72256930D01*
X129518147Y-72256366D01*
X129501747Y-72255801D01*
X129485367Y-72255237D01*
X129469009Y-72254672D01*
X129452668Y-72254108D01*
X129436342Y-72253826D01*
X129420032Y-72253543D01*
X129403731Y-72253309D01*
X129387441Y-72253140D01*
X129371160Y-72253032D01*
X129354881Y-72252990D01*
X129338605Y-72253007D01*
X129322332Y-72253083D01*
X129306057Y-72253216D01*
X129289778Y-72253402D01*
X129273494Y-72253639D01*
X129257201Y-72253921D01*
X129240900Y-72254204D01*
X129224588Y-72254486D01*
X129208261Y-72255050D01*
X129191918Y-72255615D01*
X129175557Y-72256179D01*
X129159177Y-72256744D01*
X129142774Y-72257590D01*
X129126346Y-72258437D01*
X129109893Y-72259284D01*
X129093411Y-72260130D01*
X129076898Y-72261259D01*
X129060351Y-72262388D01*
X129043771Y-72263517D01*
X129027153Y-72264646D01*
X129010497Y-72265775D01*
X128993798Y-72267186D01*
X128977056Y-72268597D01*
X128960267Y-72270008D01*
X128943432Y-72271419D01*
X128926547Y-72272830D01*
X128909611Y-72274524D01*
X128892621Y-72276217D01*
X128875575Y-72277910D01*
X128858469Y-72279604D01*
X128841304Y-72281579D01*
X128824078Y-72283555D01*
X128806786Y-72285530D01*
X128789426Y-72287506D01*
X128771999Y-72289481D01*
X128754501Y-72291739D01*
X128736930Y-72293997D01*
X128719283Y-72296255D01*
X128701559Y-72298513D01*
X128683757Y-72301053D01*
X128665872Y-72303593D01*
X128647903Y-72306133D01*
X128629849Y-72308673D01*
X128611708Y-72311213D01*
X128593477Y-72314035D01*
X128575155Y-72316857D01*
X128556737Y-72319679D01*
X128538223Y-72322586D01*
X128519613Y-72325549D01*
X128500902Y-72328569D01*
X128482089Y-72331645D01*
X128463172Y-72334806D01*
X128444147Y-72338024D01*
X128425013Y-72341297D01*
X128405768Y-72344628D01*
X128386410Y-72348014D01*
X128366937Y-72351486D01*
X128347348Y-72355013D01*
X128327637Y-72358598D01*
X128307806Y-72362238D01*
X128287850Y-72365935D01*
X128267770Y-72369717D01*
X128247563Y-72373555D01*
X128227226Y-72377450D01*
X128206756Y-72381401D01*
X128186154Y-72385437D01*
X128186154Y-72385440D01*
X128186154Y-72385443D01*
X128186154Y-72385445D01*
X128186154Y-72385448D01*
X128186170Y-72385443D01*
X128186186Y-72385437D01*
X128186202Y-72385431D01*
X128186219Y-72385426D01*
X128186235Y-72385417D01*
X128186251Y-72385412D01*
X128186267Y-72385406D01*
X128186291Y-72385212D01*
X128186291Y-72385212D01*
G37*
X128186291Y-72385212D02*
X128114326Y-72399803D01*
X128042786Y-72415297D01*
X127971677Y-72431694D01*
X127901003Y-72448966D01*
X127830769Y-72467113D01*
X127760981Y-72486134D01*
X127691642Y-72506003D01*
X127622757Y-72526718D01*
X127554332Y-72548280D01*
X127486371Y-72570688D01*
X127418879Y-72593915D01*
X127351860Y-72617960D01*
X127285320Y-72642824D01*
X127219262Y-72668506D01*
X127153693Y-72694979D01*
X127088617Y-72722242D01*
X127024038Y-72750294D01*
X126959961Y-72779123D01*
X126896391Y-72808717D01*
X126833333Y-72839073D01*
X126770792Y-72870182D01*
X126708772Y-72902037D01*
X126647278Y-72934628D01*
X126586315Y-72967950D01*
X126525887Y-73001994D01*
X126466000Y-73036756D01*
X126406659Y-73072223D01*
X126347867Y-73108392D01*
X126289631Y-73145250D01*
X126231953Y-73182797D01*
X126174841Y-73221019D01*
X126118297Y-73259909D01*
X126062327Y-73299462D01*
X126006936Y-73339668D01*
X125952128Y-73380522D01*
X125897908Y-73422014D01*
X125844282Y-73464139D01*
X125791254Y-73506887D01*
X125738827Y-73550251D01*
X125687009Y-73594224D01*
X125635802Y-73638798D01*
X125585212Y-73683962D01*
X125535244Y-73729716D01*
X125485902Y-73776045D01*
X125437192Y-73822945D01*
X125389117Y-73870406D01*
X125341683Y-73918426D01*
X125294894Y-73966991D01*
X125248756Y-74016098D01*
X125203273Y-74065735D01*
X125158450Y-74115900D01*
X125114291Y-74166579D01*
X125070803Y-74217768D01*
X125027988Y-74269460D01*
X124985852Y-74321646D01*
X124944400Y-74374320D01*
X124903636Y-74427471D01*
X124863566Y-74481096D01*
X124824194Y-74535181D01*
X124785525Y-74589726D01*
X124747563Y-74644717D01*
X124710313Y-74700151D01*
X124673781Y-74756020D01*
X124637971Y-74812312D01*
X124602888Y-74869021D01*
X124568536Y-74926143D01*
X124534920Y-74983666D01*
X124502045Y-75041586D01*
X124469916Y-75099893D01*
X124438537Y-75158581D01*
X124407914Y-75217639D01*
X124378052Y-75277064D01*
X124348954Y-75336844D01*
X124320626Y-75396977D01*
X124293072Y-75457449D01*
X124266298Y-75518257D01*
X124240308Y-75579392D01*
X124215105Y-75640846D01*
X124190699Y-75702613D01*
X124167088Y-75764682D01*
X124144282Y-75827047D01*
X124122283Y-75889703D01*
X124101096Y-75952639D01*
X124080728Y-76015848D01*
X124061181Y-76079323D01*
X124042462Y-76143057D01*
X124024574Y-76207040D01*
X124007523Y-76271268D01*
X123991312Y-76335730D01*
X123975948Y-76400421D01*
X123961436Y-76465332D01*
X123947779Y-76530458D01*
X123934983Y-76595787D01*
X123923051Y-76661313D01*
X123911990Y-76727029D01*
X123901805Y-76792927D01*
X123892497Y-76858998D01*
X123884076Y-76925239D01*
X123876543Y-76991637D01*
X123869903Y-77058188D01*
X123864162Y-77124883D01*
X123859325Y-77191716D01*
X123855396Y-77258676D01*
X123852379Y-77325757D01*
X123850291Y-77392952D01*
X123849106Y-77460253D01*
X123848857Y-77527653D01*
X123849534Y-77595144D01*
X123851143Y-77662719D01*
X123853711Y-77730368D01*
X123857219Y-77798084D01*
X123861678Y-77865863D01*
X123867094Y-77933692D01*
X123873469Y-78001570D01*
X123880810Y-78069483D01*
X123889121Y-78137426D01*
X123898409Y-78205390D01*
X123908676Y-78273372D01*
X123919929Y-78341359D01*
X123932169Y-78409347D01*
X123945405Y-78477326D01*
X123959640Y-78545288D01*
X123974877Y-78613230D01*
X123991122Y-78681138D01*
X124008383Y-78749010D01*
X124026659Y-78816833D01*
X124045961Y-78884603D01*
X124066289Y-78952311D01*
X124083146Y-79006094D01*
X124100489Y-79059556D01*
X124118314Y-79112695D01*
X124136622Y-79165513D01*
X124155409Y-79218007D01*
X124174674Y-79270173D01*
X124194412Y-79322011D01*
X124214622Y-79373519D01*
X124235301Y-79424698D01*
X124256448Y-79475540D01*
X124278060Y-79526049D01*
X124300136Y-79576226D01*
X124322671Y-79626060D01*
X124345667Y-79675557D01*
X124369116Y-79724714D01*
X124393021Y-79773527D01*
X124417376Y-79821999D01*
X124442181Y-79870123D01*
X124467434Y-79917898D01*
X124493130Y-79965328D01*
X124519270Y-80012406D01*
X124545850Y-80059130D01*
X124572867Y-80105502D01*
X124600318Y-80151519D01*
X124628202Y-80197179D01*
X124656518Y-80242479D01*
X124685262Y-80287420D01*
X124714432Y-80332000D01*
X124744027Y-80376216D01*
X124774043Y-80420064D01*
X124804479Y-80463549D01*
X124835331Y-80506664D01*
X124866598Y-80549410D01*
X124898278Y-80591785D01*
X124930368Y-80633786D01*
X124962866Y-80675413D01*
X124995770Y-80716663D01*
X125029077Y-80757537D01*
X125062785Y-80798030D01*
X125096892Y-80838143D01*
X125131395Y-80877874D01*
X125166293Y-80917219D01*
X125201582Y-80956179D01*
X125237260Y-80994751D01*
X125273326Y-81032935D01*
X125309777Y-81070728D01*
X125346611Y-81108128D01*
X125383825Y-81145133D01*
X125421417Y-81181743D01*
X125459385Y-81217957D01*
X125497727Y-81253771D01*
X125536439Y-81289187D01*
X125575521Y-81324200D01*
X125614970Y-81358809D01*
X125654782Y-81393014D01*
X125694957Y-81426810D01*
X125735492Y-81460200D01*
X125776384Y-81493178D01*
X125817631Y-81525743D01*
X125859231Y-81557897D01*
X125901182Y-81589636D01*
X125943481Y-81620959D01*
X125986126Y-81651863D01*
X126029115Y-81682348D01*
X126072446Y-81712414D01*
X126116115Y-81742053D01*
X126160121Y-81771271D01*
X126204462Y-81800060D01*
X126249135Y-81828424D01*
X126294138Y-81856364D01*
X126339469Y-81883852D01*
X126385125Y-81910917D01*
X126431104Y-81937559D01*
X126477405Y-81963749D01*
X126524023Y-81989516D01*
X126570958Y-82014832D01*
X126618207Y-82039724D01*
X126665767Y-82064164D01*
X126713637Y-82088153D01*
X126761813Y-82111690D01*
X126810295Y-82134804D01*
X126859079Y-82157467D01*
X126908163Y-82179678D01*
X126957545Y-82201437D01*
X127007222Y-82222745D01*
X127057193Y-82243601D01*
X127107455Y-82264006D01*
X127158006Y-82283930D01*
X127208843Y-82303404D01*
X127259964Y-82322426D01*
X127311367Y-82340968D01*
X127363049Y-82359058D01*
X127415009Y-82376669D01*
X127467244Y-82393828D01*
X127519751Y-82410507D01*
X127572529Y-82426707D01*
X127625575Y-82442455D01*
X127678887Y-82457714D01*
X127732462Y-82472500D01*
X127786298Y-82486806D01*
X127840394Y-82500635D01*
X127894746Y-82513981D01*
X127949352Y-82526845D01*
X128004210Y-82539226D01*
X128059318Y-82551122D01*
X128114674Y-82562529D01*
X128170274Y-82573448D01*
X128226118Y-82583876D01*
X128282202Y-82593813D01*
X128338524Y-82603256D01*
X128395082Y-82612206D01*
X128451874Y-82620658D01*
X128508898Y-82628611D01*
X128566150Y-82636065D01*
X128623630Y-82643016D01*
X128681334Y-82649465D01*
X128739260Y-82655408D01*
X128797406Y-82660844D01*
X128855769Y-82665772D01*
X128914348Y-82670191D01*
X128973141Y-82674100D01*
X129032143Y-82677495D01*
X129091355Y-82680377D01*
X129150772Y-82682747D01*
X129210394Y-82684582D01*
X129270217Y-82685908D01*
X129330239Y-82686727D01*
X129390459Y-82687009D01*
X129447304Y-82686785D01*
X129504022Y-82686080D01*
X129560613Y-82684894D01*
X129617076Y-82683201D01*
X129673412Y-82681028D01*
X129729622Y-82678375D01*
X129785707Y-82675223D01*
X129841666Y-82671582D01*
X129897501Y-82667450D01*
X129953211Y-82662830D01*
X130008797Y-82657719D01*
X130064260Y-82652117D01*
X130119600Y-82646027D01*
X130174818Y-82639445D01*
X130229914Y-82632373D01*
X130284888Y-82624806D01*
X130339741Y-82616749D01*
X130394475Y-82608200D01*
X130449088Y-82599158D01*
X130503579Y-82589625D01*
X130557952Y-82579597D01*
X130612209Y-82569076D01*
X130666345Y-82558061D01*
X130720365Y-82546552D01*
X130774267Y-82534549D01*
X130828053Y-82522052D01*
X130881720Y-82509059D01*
X130935275Y-82495571D01*
X130988714Y-82481587D01*
X131042037Y-82467109D01*
X131095244Y-82452134D01*
X131148338Y-82436669D01*
X131201320Y-82420695D01*
X131254189Y-82404241D01*
X131306942Y-82387280D01*
X131359587Y-82369810D01*
X131412117Y-82351861D01*
X131464540Y-82333403D01*
X131516850Y-82314438D01*
X131569050Y-82294993D01*
X131621140Y-82275040D01*
X131673119Y-82254579D01*
X131724992Y-82233638D01*
X131776757Y-82212189D01*
X131828412Y-82190232D01*
X131879960Y-82167767D01*
X131931403Y-82144823D01*
X131982737Y-82121370D01*
X132033966Y-82097409D01*
X132085090Y-82072941D01*
X132136108Y-82047992D01*
X132187023Y-82022536D01*
X132237835Y-81996571D01*
X132288542Y-81970099D01*
X132339144Y-81943118D01*
X132389645Y-81915630D01*
X132440044Y-81887662D01*
X132490339Y-81859177D01*
X132540535Y-81830190D01*
X132590632Y-81800695D01*
X132640625Y-81770698D01*
X132690522Y-81740195D01*
X132740317Y-81709187D01*
X132790014Y-81677671D01*
X132839612Y-81645651D01*
X132889113Y-81613122D01*
X132938516Y-81580085D01*
X132987821Y-81546543D01*
X133037029Y-81512492D01*
X133086141Y-81477934D01*
X133135157Y-81442868D01*
X133184081Y-81407294D01*
X133232908Y-81371209D01*
X133281642Y-81334616D01*
X133330283Y-81297515D01*
X133378831Y-81259904D01*
X133427283Y-81221781D01*
X133475644Y-81183150D01*
X133523916Y-81144006D01*
X133572094Y-81104354D01*
X133620182Y-81064191D01*
X133668176Y-81023514D01*
X133716084Y-80982327D01*
X133763903Y-80940628D01*
X133811630Y-80898416D01*
X133859269Y-80855694D01*
X133906821Y-80812454D01*
X133954285Y-80768704D01*
X134001661Y-80724440D01*
X134048953Y-80679660D01*
X134096158Y-80634369D01*
X134143275Y-80588562D01*
X134190310Y-80542241D01*
X134237258Y-80495403D01*
X134284124Y-80448052D01*
X134330905Y-80400184D01*
X134377601Y-80351800D01*
X134424216Y-80302902D01*
X134470749Y-80253485D01*
X134517197Y-80203551D01*
X134563566Y-80153099D01*
X134609853Y-80102132D01*
X134656059Y-80050646D01*
X134702185Y-79998641D01*
X134748232Y-79946120D01*
X134794201Y-79893076D01*
X134840090Y-79839516D01*
X134885900Y-79785439D01*
X134931634Y-79730840D01*
X134977292Y-79675720D01*
X135022871Y-79620082D01*
X135068374Y-79563923D01*
X135113800Y-79507241D01*
X135159154Y-79450041D01*
X135204430Y-79392318D01*
X135249634Y-79334073D01*
X135294761Y-79275306D01*
X135339818Y-79216016D01*
X135384799Y-79156205D01*
X135429709Y-79095872D01*
X135474545Y-79035013D01*
X135519311Y-78973633D01*
X135564007Y-78911727D01*
X135608632Y-78849300D01*
X135653186Y-78786347D01*
X135697670Y-78722870D01*
X135742086Y-78658867D01*
X135786432Y-78594337D01*
X135831105Y-78529017D01*
X135875778Y-78463699D01*
X135920451Y-78398379D01*
X135965127Y-78333062D01*
X136009800Y-78267741D01*
X136054473Y-78202424D01*
X136099145Y-78137103D01*
X136143818Y-78071786D01*
X136188491Y-78006465D01*
X136233164Y-77941145D01*
X136277837Y-77875828D01*
X136322513Y-77810507D01*
X136367186Y-77745190D01*
X136411859Y-77679869D01*
X136456532Y-77614552D01*
X136501205Y-77549232D01*
X136482183Y-77517538D01*
X136463161Y-77485842D01*
X136444140Y-77454148D01*
X136425118Y-77422452D01*
X136406096Y-77390758D01*
X136387074Y-77359062D01*
X136368052Y-77327368D01*
X136349031Y-77295675D01*
X136330009Y-77263978D01*
X136310987Y-77232285D01*
X136291965Y-77200588D01*
X136272944Y-77168895D01*
X136253922Y-77137198D01*
X136234900Y-77105505D01*
X136215878Y-77073809D01*
X136196856Y-77042115D01*
X136126239Y-76925789D01*
X136054605Y-76810492D01*
X135981961Y-76696254D01*
X135908332Y-76583086D01*
X135833738Y-76471004D01*
X135758201Y-76360026D01*
X135681739Y-76250166D01*
X135604373Y-76141439D01*
X135565359Y-76087507D01*
X135526124Y-76033865D01*
X135486672Y-75980516D01*
X135447009Y-75927459D01*
X135407134Y-75874700D01*
X135367053Y-75822240D01*
X135326763Y-75770080D01*
X135286272Y-75718222D01*
X135245578Y-75666668D01*
X135204690Y-75615422D01*
X135163601Y-75564484D01*
X135122324Y-75513856D01*
X135080854Y-75463542D01*
X135039195Y-75413540D01*
X134997350Y-75363858D01*
X134955324Y-75314492D01*
X134913118Y-75265447D01*
X134870734Y-75216727D01*
X134828172Y-75168332D01*
X134785438Y-75120263D01*
X134742534Y-75072523D01*
X134699464Y-75025115D01*
X134656228Y-74978040D01*
X134612828Y-74931302D01*
X134569267Y-74884899D01*
X134525551Y-74838837D01*
X134481679Y-74793114D01*
X134437652Y-74747736D01*
X134393476Y-74702704D01*
X134349153Y-74658020D01*
X134304686Y-74613686D01*
X134260075Y-74569702D01*
X134215326Y-74526073D01*
X134170436Y-74482800D01*
X134125413Y-74439885D01*
X134080258Y-74397329D01*
X134034972Y-74355136D01*
X133989560Y-74313308D01*
X133944023Y-74271844D01*
X133898365Y-74230750D01*
X133852586Y-74190025D01*
X133806688Y-74149673D01*
X133760678Y-74109693D01*
X133714554Y-74070092D01*
X133668320Y-74030872D01*
X133621982Y-73992029D01*
X133575537Y-73953568D01*
X133528990Y-73915494D01*
X133482344Y-73877806D01*
X133435600Y-73840504D01*
X133388762Y-73803598D01*
X133341834Y-73767081D01*
X133294816Y-73730960D01*
X133247710Y-73695236D01*
X133200520Y-73659913D01*
X133153248Y-73624988D01*
X133105897Y-73590467D01*
X133058469Y-73556352D01*
X133010968Y-73522646D01*
X132963394Y-73489346D01*
X132915749Y-73456462D01*
X132868040Y-73423987D01*
X132820268Y-73391929D01*
X132772431Y-73360289D01*
X132724538Y-73329070D01*
X132676586Y-73298271D01*
X132628583Y-73267895D01*
X132580526Y-73237946D01*
X132532421Y-73208425D01*
X132484268Y-73179334D01*
X132436076Y-73150674D01*
X132387839Y-73122449D01*
X132339565Y-73094650D01*
X132291251Y-73067303D01*
X132242906Y-73040379D01*
X132194531Y-73013906D01*
X132146124Y-72987886D01*
X132097692Y-72962316D01*
X132049237Y-72937198D01*
X132000762Y-72912532D01*
X131952268Y-72888318D01*
X131903757Y-72864554D01*
X131855235Y-72841243D01*
X131806698Y-72818383D01*
X131758156Y-72795974D01*
X131709608Y-72774046D01*
X131661054Y-72752569D01*
X131612501Y-72731571D01*
X131563950Y-72711054D01*
X131515402Y-72690988D01*
X131466863Y-72671402D01*
X131418332Y-72652295D01*
X131369812Y-72633668D01*
X131321307Y-72615522D01*
X131272818Y-72597854D01*
X131224349Y-72580667D01*
X131175903Y-72563960D01*
X131127479Y-72547732D01*
X131079084Y-72532012D01*
X131030719Y-72516772D01*
X130982386Y-72502040D01*
X130934087Y-72487788D01*
X130885824Y-72474044D01*
X130837600Y-72460779D01*
X130789419Y-72448023D01*
X130741286Y-72435774D01*
X130693196Y-72424034D01*
X130645159Y-72412801D01*
X130597173Y-72402077D01*
X130549240Y-72391860D01*
X130501367Y-72382180D01*
X130453552Y-72373008D01*
X130433091Y-72369198D01*
X130412771Y-72365473D01*
X130392592Y-72361804D01*
X130372526Y-72358191D01*
X130352602Y-72354635D01*
X130332790Y-72351136D01*
X130313099Y-72347721D01*
X130293527Y-72344362D01*
X130274070Y-72341060D01*
X130254730Y-72337815D01*
X130235502Y-72334626D01*
X130216384Y-72331493D01*
X130197377Y-72328417D01*
X130178476Y-72325397D01*
X130159677Y-72322462D01*
X130140983Y-72319583D01*
X130122384Y-72316761D01*
X130103885Y-72313939D01*
X130085481Y-72311117D01*
X130067173Y-72308577D01*
X130048956Y-72306037D01*
X130030829Y-72303497D01*
X130012789Y-72300957D01*
X129994834Y-72298417D01*
X129976961Y-72296159D01*
X129959170Y-72293901D01*
X129941457Y-72291643D01*
X129923821Y-72289386D01*
X129906262Y-72287410D01*
X129888772Y-72285434D01*
X129871356Y-72283459D01*
X129854008Y-72281483D01*
X129836725Y-72279508D01*
X129819506Y-72277814D01*
X129802350Y-72276121D01*
X129785253Y-72274428D01*
X129768215Y-72272734D01*
X129751231Y-72271323D01*
X129734304Y-72269912D01*
X129717427Y-72268501D01*
X129700598Y-72267090D01*
X129683817Y-72265679D01*
X129667081Y-72264550D01*
X129650388Y-72263421D01*
X129633736Y-72262292D01*
X129617125Y-72261163D01*
X129600550Y-72260317D01*
X129584009Y-72259470D01*
X129567502Y-72258623D01*
X129551023Y-72257777D01*
X129534572Y-72256930D01*
X129518147Y-72256366D01*
X129501747Y-72255801D01*
X129485367Y-72255237D01*
X129469009Y-72254672D01*
X129452668Y-72254108D01*
X129436342Y-72253826D01*
X129420032Y-72253543D01*
X129403731Y-72253309D01*
X129387441Y-72253140D01*
X129371160Y-72253032D01*
X129354881Y-72252990D01*
X129338605Y-72253007D01*
X129322332Y-72253083D01*
X129306057Y-72253216D01*
X129289778Y-72253402D01*
X129273494Y-72253639D01*
X129257201Y-72253921D01*
X129240900Y-72254204D01*
X129224588Y-72254486D01*
X129208261Y-72255050D01*
X129191918Y-72255615D01*
X129175557Y-72256179D01*
X129159177Y-72256744D01*
X129142774Y-72257590D01*
X129126346Y-72258437D01*
X129109893Y-72259284D01*
X129093411Y-72260130D01*
X129076898Y-72261259D01*
X129060351Y-72262388D01*
X129043771Y-72263517D01*
X129027153Y-72264646D01*
X129010497Y-72265775D01*
X128993798Y-72267186D01*
X128977056Y-72268597D01*
X128960267Y-72270008D01*
X128943432Y-72271419D01*
X128926547Y-72272830D01*
X128909611Y-72274524D01*
X128892621Y-72276217D01*
X128875575Y-72277910D01*
X128858469Y-72279604D01*
X128841304Y-72281579D01*
X128824078Y-72283555D01*
X128806786Y-72285530D01*
X128789426Y-72287506D01*
X128771999Y-72289481D01*
X128754501Y-72291739D01*
X128736930Y-72293997D01*
X128719283Y-72296255D01*
X128701559Y-72298513D01*
X128683757Y-72301053D01*
X128665872Y-72303593D01*
X128647903Y-72306133D01*
X128629849Y-72308673D01*
X128611708Y-72311213D01*
X128593477Y-72314035D01*
X128575155Y-72316857D01*
X128556737Y-72319679D01*
X128538223Y-72322586D01*
X128519613Y-72325549D01*
X128500902Y-72328569D01*
X128482089Y-72331645D01*
X128463172Y-72334806D01*
X128444147Y-72338024D01*
X128425013Y-72341297D01*
X128405768Y-72344628D01*
X128386410Y-72348014D01*
X128366937Y-72351486D01*
X128347348Y-72355013D01*
X128327637Y-72358598D01*
X128307806Y-72362238D01*
X128287850Y-72365935D01*
X128267770Y-72369717D01*
X128247563Y-72373555D01*
X128227226Y-72377450D01*
X128206756Y-72381401D01*
X128186154Y-72385437D01*
X128186154Y-72385440D01*
X128186154Y-72385443D01*
X128186154Y-72385445D01*
X128186154Y-72385448D01*
X128186170Y-72385443D01*
X128186186Y-72385437D01*
X128186202Y-72385431D01*
X128186219Y-72385426D01*
X128186235Y-72385417D01*
X128186251Y-72385412D01*
X128186267Y-72385406D01*
X128186291Y-72385212D01*
G36*
X146135247Y-72426984D02*
G01*
X145916485Y-72484015D01*
X145700672Y-72548317D01*
X145487572Y-72620024D01*
X145276947Y-72699266D01*
X145068562Y-72786182D01*
X144862182Y-72880905D01*
X144657573Y-72983563D01*
X144454498Y-73094296D01*
X144252720Y-73213235D01*
X144052009Y-73340515D01*
X143852123Y-73476266D01*
X143652828Y-73620626D01*
X143453890Y-73773726D01*
X143255073Y-73935704D01*
X143056140Y-74106689D01*
X142856857Y-74286811D01*
X142676467Y-74460638D01*
X142486057Y-74656571D01*
X142288614Y-74870633D01*
X142087127Y-75098855D01*
X141884585Y-75337265D01*
X141683979Y-75581890D01*
X141488291Y-75828761D01*
X141300518Y-76073907D01*
X141123640Y-76313356D01*
X140960651Y-76543133D01*
X140814539Y-76759270D01*
X140688290Y-76957796D01*
X140584895Y-77134738D01*
X140507341Y-77286125D01*
X140441713Y-77496350D01*
X140501369Y-77688856D01*
X140572034Y-77828658D01*
X140666452Y-77992773D01*
X140782019Y-78177665D01*
X140916134Y-78379799D01*
X141066191Y-78595631D01*
X141229587Y-78821632D01*
X141403721Y-79054259D01*
X141585985Y-79289974D01*
X141773779Y-79525240D01*
X141964496Y-79756521D01*
X142155535Y-79980278D01*
X142344294Y-80192975D01*
X142528167Y-80391072D01*
X142704551Y-80571034D01*
X143013361Y-80862519D01*
X143328070Y-81132608D01*
X143648573Y-81381269D01*
X143974768Y-81608460D01*
X144306557Y-81814147D01*
X144643838Y-81998291D01*
X144986509Y-82160854D01*
X145334472Y-82301801D01*
X145687622Y-82421091D01*
X146045861Y-82518690D01*
X146409090Y-82594559D01*
X146777203Y-82648659D01*
X147150104Y-82680954D01*
X147527686Y-82691408D01*
X147909854Y-82679980D01*
X148296504Y-82646636D01*
X148629741Y-82596689D01*
X148960048Y-82523656D01*
X149286131Y-82428467D01*
X149606693Y-82312053D01*
X149920436Y-82175341D01*
X150226063Y-82019258D01*
X150522278Y-81844738D01*
X150807785Y-81652711D01*
X151081287Y-81444104D01*
X151341487Y-81219844D01*
X151587086Y-80980867D01*
X151816792Y-80728095D01*
X152029302Y-80462461D01*
X152223325Y-80184896D01*
X152397560Y-79896326D01*
X152550714Y-79597684D01*
X152661460Y-79351437D01*
X152748715Y-79129100D01*
X152815139Y-78915505D01*
X152863396Y-78695485D01*
X152896142Y-78453866D01*
X152916039Y-78175485D01*
X152925747Y-77845166D01*
X152928005Y-77447747D01*
X152924788Y-77042995D01*
X152914543Y-76711869D01*
X152894139Y-76437981D01*
X152860484Y-76204944D01*
X152810465Y-75996379D01*
X152740974Y-75795894D01*
X152648899Y-75587103D01*
X152531133Y-75353627D01*
X152376992Y-75075279D01*
X152213148Y-74810230D01*
X152039479Y-74558389D01*
X151855866Y-74319655D01*
X151662188Y-74093936D01*
X151458322Y-73881141D01*
X151244149Y-73681169D01*
X151019554Y-73493929D01*
X150784409Y-73319324D01*
X150538596Y-73157260D01*
X150281994Y-73007643D01*
X150014484Y-72870382D01*
X149735945Y-72745374D01*
X149446258Y-72632528D01*
X149145302Y-72531752D01*
X148832952Y-72442945D01*
X148652816Y-72398213D01*
X148477852Y-72359331D01*
X148307282Y-72326299D01*
X148140325Y-72299121D01*
X147976205Y-72277785D01*
X147814141Y-72262263D01*
X147653357Y-72252583D01*
X147493071Y-72248717D01*
X147332507Y-72250692D01*
X147170884Y-72258481D01*
X147007426Y-72272085D01*
X146841347Y-72291445D01*
X146671875Y-72316647D01*
X146498232Y-72347638D01*
X146319634Y-72384423D01*
X146135309Y-72426999D01*
X146135309Y-72427002D01*
X146135309Y-72427005D01*
X146135309Y-72427008D01*
X146135309Y-72427010D01*
X146135278Y-72427013D01*
X146135247Y-72426984D01*
X146135247Y-72426984D01*
G37*
X146135247Y-72426984D02*
X145916485Y-72484015D01*
X145700672Y-72548317D01*
X145487572Y-72620024D01*
X145276947Y-72699266D01*
X145068562Y-72786182D01*
X144862182Y-72880905D01*
X144657573Y-72983563D01*
X144454498Y-73094296D01*
X144252720Y-73213235D01*
X144052009Y-73340515D01*
X143852123Y-73476266D01*
X143652828Y-73620626D01*
X143453890Y-73773726D01*
X143255073Y-73935704D01*
X143056140Y-74106689D01*
X142856857Y-74286811D01*
X142676467Y-74460638D01*
X142486057Y-74656571D01*
X142288614Y-74870633D01*
X142087127Y-75098855D01*
X141884585Y-75337265D01*
X141683979Y-75581890D01*
X141488291Y-75828761D01*
X141300518Y-76073907D01*
X141123640Y-76313356D01*
X140960651Y-76543133D01*
X140814539Y-76759270D01*
X140688290Y-76957796D01*
X140584895Y-77134738D01*
X140507341Y-77286125D01*
X140441713Y-77496350D01*
X140501369Y-77688856D01*
X140572034Y-77828658D01*
X140666452Y-77992773D01*
X140782019Y-78177665D01*
X140916134Y-78379799D01*
X141066191Y-78595631D01*
X141229587Y-78821632D01*
X141403721Y-79054259D01*
X141585985Y-79289974D01*
X141773779Y-79525240D01*
X141964496Y-79756521D01*
X142155535Y-79980278D01*
X142344294Y-80192975D01*
X142528167Y-80391072D01*
X142704551Y-80571034D01*
X143013361Y-80862519D01*
X143328070Y-81132608D01*
X143648573Y-81381269D01*
X143974768Y-81608460D01*
X144306557Y-81814147D01*
X144643838Y-81998291D01*
X144986509Y-82160854D01*
X145334472Y-82301801D01*
X145687622Y-82421091D01*
X146045861Y-82518690D01*
X146409090Y-82594559D01*
X146777203Y-82648659D01*
X147150104Y-82680954D01*
X147527686Y-82691408D01*
X147909854Y-82679980D01*
X148296504Y-82646636D01*
X148629741Y-82596689D01*
X148960048Y-82523656D01*
X149286131Y-82428467D01*
X149606693Y-82312053D01*
X149920436Y-82175341D01*
X150226063Y-82019258D01*
X150522278Y-81844738D01*
X150807785Y-81652711D01*
X151081287Y-81444104D01*
X151341487Y-81219844D01*
X151587086Y-80980867D01*
X151816792Y-80728095D01*
X152029302Y-80462461D01*
X152223325Y-80184896D01*
X152397560Y-79896326D01*
X152550714Y-79597684D01*
X152661460Y-79351437D01*
X152748715Y-79129100D01*
X152815139Y-78915505D01*
X152863396Y-78695485D01*
X152896142Y-78453866D01*
X152916039Y-78175485D01*
X152925747Y-77845166D01*
X152928005Y-77447747D01*
X152924788Y-77042995D01*
X152914543Y-76711869D01*
X152894139Y-76437981D01*
X152860484Y-76204944D01*
X152810465Y-75996379D01*
X152740974Y-75795894D01*
X152648899Y-75587103D01*
X152531133Y-75353627D01*
X152376992Y-75075279D01*
X152213148Y-74810230D01*
X152039479Y-74558389D01*
X151855866Y-74319655D01*
X151662188Y-74093936D01*
X151458322Y-73881141D01*
X151244149Y-73681169D01*
X151019554Y-73493929D01*
X150784409Y-73319324D01*
X150538596Y-73157260D01*
X150281994Y-73007643D01*
X150014484Y-72870382D01*
X149735945Y-72745374D01*
X149446258Y-72632528D01*
X149145302Y-72531752D01*
X148832952Y-72442945D01*
X148652816Y-72398213D01*
X148477852Y-72359331D01*
X148307282Y-72326299D01*
X148140325Y-72299121D01*
X147976205Y-72277785D01*
X147814141Y-72262263D01*
X147653357Y-72252583D01*
X147493071Y-72248717D01*
X147332507Y-72250692D01*
X147170884Y-72258481D01*
X147007426Y-72272085D01*
X146841347Y-72291445D01*
X146671875Y-72316647D01*
X146498232Y-72347638D01*
X146319634Y-72384423D01*
X146135309Y-72426999D01*
X146135309Y-72427002D01*
X146135309Y-72427005D01*
X146135309Y-72427008D01*
X146135309Y-72427010D01*
X146135278Y-72427013D01*
X146135247Y-72426984D01*
D12*
G36*
X123066436Y-57556905D02*
G01*
X123094822Y-57496039D01*
X123110542Y-57439569D01*
X123112518Y-57384217D01*
X123099451Y-57326701D01*
X123070289Y-57263744D01*
X123023863Y-57192065D01*
X122959025Y-57108384D01*
X122874633Y-57009422D01*
X122582343Y-56569545D01*
X122492035Y-56339895D01*
X122437171Y-56107903D01*
X122416400Y-55876665D01*
X122428422Y-55649281D01*
X122471865Y-55428849D01*
X122545403Y-55218466D01*
X122647700Y-55021230D01*
X122777421Y-54840242D01*
X122933230Y-54678597D01*
X123113788Y-54539395D01*
X123317761Y-54425733D01*
X123543810Y-54340711D01*
X123790602Y-54287425D01*
X124056797Y-54268976D01*
X124305739Y-54287357D01*
X124538110Y-54340358D01*
X124752466Y-54424761D01*
X124947363Y-54537348D01*
X125121361Y-54674903D01*
X125273019Y-54834208D01*
X125400891Y-55012045D01*
X125503538Y-55205199D01*
X125579512Y-55410450D01*
X125627377Y-55624583D01*
X125645693Y-55844380D01*
X125632993Y-56066624D01*
X125587869Y-56288097D01*
X125508861Y-56505582D01*
X125394530Y-56715863D01*
X125243434Y-56915721D01*
X125161073Y-57013091D01*
X125095973Y-57099008D01*
X125047035Y-57176338D01*
X125013166Y-57247948D01*
X124993269Y-57316703D01*
X124986242Y-57385471D01*
X124990983Y-57457116D01*
X125006392Y-57534507D01*
X125027503Y-57620634D01*
X125040767Y-57683626D01*
X125044916Y-57724521D01*
X125038679Y-57744356D01*
X125020786Y-57744170D01*
X124989976Y-57725001D01*
X124944961Y-57687886D01*
X124884470Y-57633862D01*
X124741919Y-57556821D01*
X124525164Y-57500275D01*
X124261585Y-57464585D01*
X123978567Y-57450112D01*
X123703488Y-57457219D01*
X123463729Y-57486266D01*
X123286677Y-57537614D01*
X123199710Y-57611626D01*
X123186276Y-57641692D01*
X123170105Y-57669742D01*
X123151789Y-57695159D01*
X123131949Y-57717333D01*
X123111205Y-57735646D01*
X123090152Y-57749486D01*
X123069436Y-57758241D01*
X123049653Y-57761295D01*
X123033086Y-57757174D01*
X123021995Y-57745343D01*
X123016294Y-57726595D01*
X123016012Y-57701726D01*
X123020894Y-57671528D01*
X123030998Y-57636795D01*
X123046238Y-57598322D01*
X123066530Y-57556903D01*
X123066436Y-57556905D01*
X123066436Y-57556905D01*
G37*
G36*
X161878513Y-53745127D02*
G01*
X161879642Y-53197716D01*
X161883847Y-52772106D01*
X161893104Y-52450408D01*
X161909191Y-52214732D01*
X161933942Y-52047189D01*
X161969146Y-51929889D01*
X162016627Y-51844942D01*
X162078194Y-51774459D01*
X162150260Y-51712097D01*
X162241073Y-51664243D01*
X162373336Y-51628989D01*
X162569743Y-51604425D01*
X162852987Y-51588643D01*
X163245770Y-51579735D01*
X163770785Y-51575789D01*
X164450729Y-51574897D01*
X165064368Y-51576280D01*
X165560574Y-51581022D01*
X165953170Y-51590021D01*
X166255966Y-51604172D01*
X166482780Y-51624373D01*
X166647423Y-51651518D01*
X166763712Y-51686504D01*
X166845464Y-51730227D01*
X166916821Y-51785908D01*
X166970962Y-51853883D01*
X167010264Y-51955241D01*
X167037104Y-52111072D01*
X167053840Y-52342464D01*
X167062871Y-52670505D01*
X167066540Y-53116286D01*
X167067104Y-53700895D01*
X167067104Y-53927812D01*
X167067104Y-54154729D01*
X167067104Y-54381647D01*
X167067104Y-54608564D01*
X167067104Y-54835481D01*
X167067104Y-55062399D01*
X167067104Y-55289316D01*
X167067104Y-55516233D01*
X166742817Y-55516233D01*
X166418529Y-55516233D01*
X166094242Y-55516233D01*
X165769954Y-55516233D01*
X165445670Y-55516233D01*
X165121382Y-55516233D01*
X164797095Y-55516233D01*
X164472807Y-55516233D01*
X164148520Y-55516233D01*
X163824232Y-55516233D01*
X163499948Y-55516233D01*
X163175660Y-55516233D01*
X162851373Y-55516233D01*
X162527085Y-55516233D01*
X162202801Y-55516233D01*
X161878513Y-55516233D01*
X161878513Y-55294845D01*
X161878513Y-55073457D01*
X161878513Y-54852068D01*
X161878511Y-54630680D01*
X161878511Y-54409292D01*
X161878511Y-54187904D01*
X161878511Y-53966515D01*
X161878513Y-53745127D01*
X161878513Y-53745127D01*
G37*
G36*
X108146649Y-82437908D02*
G01*
X108052068Y-82412367D01*
X107969024Y-82385274D01*
X107896766Y-82353137D01*
X107834548Y-82312494D01*
X107781617Y-82259868D01*
X107737223Y-82191791D01*
X107700619Y-82104785D01*
X107671051Y-81995381D01*
X107647767Y-81860109D01*
X107630016Y-81695492D01*
X107617062Y-81498060D01*
X107608143Y-81264338D01*
X107602527Y-80990859D01*
X107599423Y-80674144D01*
X107598012Y-80310726D01*
X107597744Y-79897129D01*
X107597744Y-79624666D01*
X107597744Y-79352203D01*
X107597744Y-79079738D01*
X107597744Y-78807275D01*
X107597744Y-78534812D01*
X107597744Y-78262346D01*
X107597744Y-77989883D01*
X107597744Y-77717420D01*
X107647635Y-77717420D01*
X107697523Y-77717420D01*
X107747414Y-77717420D01*
X107797303Y-77717420D01*
X107847194Y-77717420D01*
X107897085Y-77717420D01*
X107946974Y-77717420D01*
X107996865Y-77717420D01*
X108046756Y-77717420D01*
X108096648Y-77717420D01*
X108146536Y-77717420D01*
X108196427Y-77717420D01*
X108246318Y-77717420D01*
X108296207Y-77717420D01*
X108346098Y-77717420D01*
X108395989Y-77717420D01*
X108395989Y-77611403D01*
X108395989Y-77505386D01*
X108395989Y-77399370D01*
X108395989Y-77293353D01*
X108395989Y-77187336D01*
X108395989Y-77081320D01*
X108395989Y-76975303D01*
X108395989Y-76869286D01*
X108395989Y-76763269D01*
X108395989Y-76657252D01*
X108395989Y-76551235D01*
X108395989Y-76445218D01*
X108395989Y-76339202D01*
X108395989Y-76233184D01*
X108395989Y-76127167D01*
X108395989Y-76021151D01*
X108346098Y-76021151D01*
X108296207Y-76021151D01*
X108246318Y-76021151D01*
X108196427Y-76021151D01*
X108146536Y-76021151D01*
X108096648Y-76021151D01*
X108046756Y-76021151D01*
X107996865Y-76021151D01*
X107877496Y-76019598D01*
X107784304Y-76013683D01*
X107714124Y-76001477D01*
X107663795Y-75981064D01*
X107630154Y-75950521D01*
X107610032Y-75907932D01*
X107600295Y-75851377D01*
X107597755Y-75778937D01*
X107602694Y-75723641D01*
X107617031Y-75665676D01*
X107640060Y-75606257D01*
X107671071Y-75546602D01*
X107709346Y-75487925D01*
X107754177Y-75431443D01*
X107804852Y-75378370D01*
X107860656Y-75329924D01*
X107954904Y-75264046D01*
X108070232Y-75213867D01*
X108239407Y-75177257D01*
X108495213Y-75152083D01*
X108870416Y-75136214D01*
X109397796Y-75127518D01*
X110110125Y-75123863D01*
X111040180Y-75123130D01*
X111970235Y-75123863D01*
X112682564Y-75127518D01*
X113209944Y-75136214D01*
X113585147Y-75152083D01*
X113840953Y-75177257D01*
X114010129Y-75213868D01*
X114125456Y-75264046D01*
X114219704Y-75329925D01*
X114275508Y-75378371D01*
X114326184Y-75431444D01*
X114371015Y-75487926D01*
X114409290Y-75546603D01*
X114440300Y-75606258D01*
X114463330Y-75665677D01*
X114477666Y-75723642D01*
X114482605Y-75778938D01*
X114480065Y-75851377D01*
X114470329Y-75907932D01*
X114450206Y-75950521D01*
X114416565Y-75981064D01*
X114366237Y-76001480D01*
X114296056Y-76013686D01*
X114202864Y-76019602D01*
X114083495Y-76021154D01*
X114033604Y-76021154D01*
X113983713Y-76021154D01*
X113933824Y-76021154D01*
X113883933Y-76021154D01*
X113834042Y-76021154D01*
X113784153Y-76021154D01*
X113734262Y-76021154D01*
X113684371Y-76021154D01*
X113684371Y-76127171D01*
X113684371Y-76233188D01*
X113684371Y-76339205D01*
X113684371Y-76445221D01*
X113684371Y-76551238D01*
X113684371Y-76657255D01*
X113684371Y-76763272D01*
X113684371Y-76869289D01*
X113684371Y-76975306D01*
X113684371Y-77081323D01*
X113684371Y-77187339D01*
X113684371Y-77293356D01*
X113684371Y-77399372D01*
X113684371Y-77505389D01*
X113684371Y-77611406D01*
X113684371Y-77717423D01*
X113734262Y-77717423D01*
X113784153Y-77717423D01*
X113834042Y-77717423D01*
X113883933Y-77717423D01*
X113933824Y-77717423D01*
X113983713Y-77717423D01*
X114033604Y-77717423D01*
X114083495Y-77717423D01*
X114133384Y-77717423D01*
X114183275Y-77717423D01*
X114233166Y-77717423D01*
X114283054Y-77717423D01*
X114332946Y-77717423D01*
X114382837Y-77717423D01*
X114432725Y-77717423D01*
X114482617Y-77717423D01*
X114482617Y-77989886D01*
X114482617Y-78262349D01*
X114482617Y-78534815D01*
X114482617Y-78807278D01*
X114482617Y-79079740D01*
X114482617Y-79352206D01*
X114482617Y-79624669D01*
X114482617Y-79897132D01*
X114482470Y-80265935D01*
X114481905Y-80591145D01*
X114480494Y-80875797D01*
X114478237Y-81122928D01*
X114474568Y-81335571D01*
X114469347Y-81516766D01*
X114462319Y-81669547D01*
X114453203Y-81796951D01*
X114441745Y-81902014D01*
X114427634Y-81987772D01*
X114410644Y-82057258D01*
X114390494Y-82113514D01*
X114366900Y-82159572D01*
X114339609Y-82198468D01*
X114308353Y-82233241D01*
X114272855Y-82266924D01*
X114235441Y-82298206D01*
X114194011Y-82325920D01*
X114145014Y-82350304D01*
X114084901Y-82371612D01*
X114010126Y-82390069D01*
X113917136Y-82405902D01*
X113802385Y-82419364D01*
X113662321Y-82430681D01*
X113493394Y-82440107D01*
X113292054Y-82447896D01*
X113054753Y-82454246D01*
X112777944Y-82459439D01*
X112458073Y-82463672D01*
X112091590Y-82467200D01*
X111674951Y-82470276D01*
X111204603Y-82473127D01*
X110912390Y-82474538D01*
X110626338Y-82475385D01*
X110348019Y-82475658D01*
X110078996Y-82475407D01*
X109820839Y-82474561D01*
X109575117Y-82473432D01*
X109343392Y-82471738D01*
X109127241Y-82469481D01*
X108928227Y-82466941D01*
X108747915Y-82463921D01*
X108587878Y-82460506D01*
X108449679Y-82456696D01*
X108334888Y-82452519D01*
X108245077Y-82448003D01*
X108181805Y-82443149D01*
X108146649Y-82437985D01*
X108146649Y-82437908D01*
X108146649Y-82437908D01*
G37*
G36*
X116677891Y-132593437D02*
G01*
X116663017Y-132376640D01*
X116608074Y-132198806D01*
X116497553Y-132027192D01*
X116416609Y-131933486D01*
X116393354Y-131908537D01*
X116368857Y-131882855D01*
X116343062Y-131856383D01*
X116315941Y-131829035D01*
X116268053Y-131780056D01*
X116221766Y-131730475D01*
X116177070Y-131680285D01*
X116133961Y-131629470D01*
X116092435Y-131578024D01*
X116052486Y-131525929D01*
X116014112Y-131473179D01*
X115977305Y-131419754D01*
X115942064Y-131365649D01*
X115908381Y-131310847D01*
X115876250Y-131255343D01*
X115845668Y-131199115D01*
X115816630Y-131142157D01*
X115789142Y-131084457D01*
X115763177Y-131026000D01*
X115738737Y-130966779D01*
X115715820Y-130906775D01*
X115694428Y-130845982D01*
X115674560Y-130784384D01*
X115656215Y-130721971D01*
X115639366Y-130658730D01*
X115624014Y-130594649D01*
X115610156Y-130529718D01*
X115597795Y-130463921D01*
X115586930Y-130397249D01*
X115577532Y-130329687D01*
X115569629Y-130261226D01*
X115563195Y-130191853D01*
X115558199Y-130121554D01*
X115554672Y-130050321D01*
X115552696Y-129978137D01*
X115552132Y-129904994D01*
X115552978Y-129828114D01*
X115555518Y-129752518D01*
X115559667Y-129678163D01*
X115565481Y-129605009D01*
X115572960Y-129533008D01*
X115582104Y-129462122D01*
X115592969Y-129392306D01*
X115605556Y-129323520D01*
X115619865Y-129255719D01*
X115635952Y-129188863D01*
X115653816Y-129122905D01*
X115673487Y-129057808D01*
X115694964Y-128993526D01*
X115718276Y-128930020D01*
X115743450Y-128867243D01*
X115770487Y-128805157D01*
X115799432Y-128743714D01*
X115830293Y-128682876D01*
X115863087Y-128622599D01*
X115897834Y-128562841D01*
X115934557Y-128503557D01*
X115973269Y-128444708D01*
X116013991Y-128386252D01*
X116056745Y-128328142D01*
X116101548Y-128270337D01*
X116148422Y-128212798D01*
X116197382Y-128155479D01*
X116248450Y-128098337D01*
X116301646Y-128041331D01*
X116356987Y-127984421D01*
X116414493Y-127927562D01*
X116474185Y-127870711D01*
X116573793Y-127781607D01*
X116675955Y-127698149D01*
X116780507Y-127620332D01*
X116887291Y-127548165D01*
X116996138Y-127481648D01*
X117106891Y-127420781D01*
X117219385Y-127365564D01*
X117333453Y-127316003D01*
X117448936Y-127272098D01*
X117565669Y-127233854D01*
X117683491Y-127201271D01*
X117802236Y-127174347D01*
X117921743Y-127153096D01*
X118041848Y-127137489D01*
X118162388Y-127127555D01*
X118283202Y-127123293D01*
X118404123Y-127124704D01*
X118524990Y-127131788D01*
X118645643Y-127144544D01*
X118765912Y-127163002D01*
X118885639Y-127187132D01*
X119004660Y-127216940D01*
X119122813Y-127252430D01*
X119239932Y-127293606D01*
X119355858Y-127340469D01*
X119470423Y-127393021D01*
X119583467Y-127451264D01*
X119694826Y-127515201D01*
X119804337Y-127584831D01*
X119911835Y-127660159D01*
X120017164Y-127741188D01*
X120120152Y-127827914D01*
X120231796Y-127931541D01*
X120336555Y-128039615D01*
X120434412Y-128151844D01*
X120525367Y-128267936D01*
X120609407Y-128387598D01*
X120686524Y-128510537D01*
X120756713Y-128636461D01*
X120819962Y-128765076D01*
X120876265Y-128896089D01*
X120925612Y-129029210D01*
X120967996Y-129164144D01*
X121003409Y-129300598D01*
X121031843Y-129438280D01*
X121053292Y-129576896D01*
X121067741Y-129716156D01*
X121075192Y-129855763D01*
X121075757Y-129995429D01*
X121069181Y-130134858D01*
X121055549Y-130273757D01*
X121034891Y-130411837D01*
X121007177Y-130548799D01*
X120972421Y-130684356D01*
X120930604Y-130818211D01*
X120881718Y-130950077D01*
X120825750Y-131079654D01*
X120762696Y-131206654D01*
X120692544Y-131330781D01*
X120615291Y-131451744D01*
X120530927Y-131569250D01*
X120439441Y-131683008D01*
X120340827Y-131792725D01*
X120235076Y-131898104D01*
X120134989Y-131996215D01*
X120054112Y-132084875D01*
X119942756Y-132248147D01*
X119886543Y-132416535D01*
X119871021Y-132618659D01*
X119871021Y-132712950D01*
X119871021Y-132807240D01*
X119871021Y-132901533D01*
X119871021Y-132995824D01*
X119746295Y-132995824D01*
X119621570Y-132995824D01*
X119496845Y-132995824D01*
X119372119Y-132995824D01*
X119097720Y-132989587D01*
X118948049Y-132958407D01*
X118885687Y-132883570D01*
X118873213Y-132746371D01*
X118860428Y-132607898D01*
X118793389Y-132533202D01*
X118629062Y-132502731D01*
X118324420Y-132496917D01*
X118019778Y-132502731D01*
X117855452Y-132533202D01*
X117788410Y-132607895D01*
X117775625Y-132746371D01*
X117762840Y-132884843D01*
X117695801Y-132959539D01*
X117531475Y-132990010D01*
X117226833Y-132995824D01*
X117089633Y-132995824D01*
X116952436Y-132995824D01*
X116815237Y-132995824D01*
X116678040Y-132995824D01*
X116678040Y-132895212D01*
X116678040Y-132794599D01*
X116678040Y-132693987D01*
X116677891Y-132593437D01*
X116677891Y-132593437D01*
G37*
G36*
X167969766Y-120791558D02*
G01*
X167936910Y-120754985D01*
X167905411Y-120717314D01*
X167875371Y-120678560D01*
X167846898Y-120638746D01*
X167820087Y-120597892D01*
X167795054Y-120556021D01*
X167771912Y-120513152D01*
X167750745Y-120469306D01*
X167731695Y-120424503D01*
X167714846Y-120378763D01*
X167700284Y-120332112D01*
X167688148Y-120284563D01*
X167678524Y-120236142D01*
X167671525Y-120186869D01*
X167667235Y-120136763D01*
X167665824Y-120085848D01*
X167670763Y-120000557D01*
X167685128Y-119914499D01*
X167708242Y-119828503D01*
X167739411Y-119743394D01*
X167777948Y-119660003D01*
X167823163Y-119579149D01*
X167874375Y-119501665D01*
X167930890Y-119428374D01*
X167992025Y-119360108D01*
X168057094Y-119297686D01*
X168125406Y-119241941D01*
X168196278Y-119193695D01*
X168269018Y-119153781D01*
X168342943Y-119123018D01*
X168417365Y-119102247D01*
X168491598Y-119092284D01*
X168525561Y-119090309D01*
X168557951Y-119088051D01*
X168588685Y-119085229D01*
X168617681Y-119081899D01*
X168644831Y-119077891D01*
X168670089Y-119073037D01*
X168693345Y-119067223D01*
X168714511Y-119060280D01*
X168733505Y-119052096D01*
X168750241Y-119042500D01*
X168764634Y-119031381D01*
X168776628Y-119018568D01*
X168786111Y-119003949D01*
X168792969Y-118987354D01*
X168797146Y-118968671D01*
X168798557Y-118947730D01*
X168799686Y-118927946D01*
X168802960Y-118904494D01*
X168808378Y-118877767D01*
X168815857Y-118848165D01*
X168825396Y-118816062D01*
X168836911Y-118781843D01*
X168850373Y-118745888D01*
X168865754Y-118708584D01*
X168882998Y-118670311D01*
X168902048Y-118631458D01*
X168922876Y-118592404D01*
X168945425Y-118553533D01*
X168969668Y-118515230D01*
X168995548Y-118477878D01*
X169023008Y-118441861D01*
X169052015Y-118407560D01*
X169095331Y-118360127D01*
X169136589Y-118317305D01*
X169176283Y-118278869D01*
X169214911Y-118244593D01*
X169252963Y-118214243D01*
X169290942Y-118187601D01*
X169329335Y-118164431D01*
X169368643Y-118144506D01*
X169409359Y-118127601D01*
X169451980Y-118113490D01*
X169497001Y-118101919D01*
X169544913Y-118092690D01*
X169596219Y-118085578D01*
X169651407Y-118080329D01*
X169710979Y-118076716D01*
X169775424Y-118074458D01*
X169798341Y-118074554D01*
X169822188Y-118075683D01*
X169846855Y-118077659D01*
X169872226Y-118080481D01*
X169898219Y-118083783D01*
X169924720Y-118087367D01*
X169951615Y-118091036D01*
X169978822Y-118094564D01*
X170006225Y-118097753D01*
X170033742Y-118100293D01*
X170061231Y-118102269D01*
X170088606Y-118103115D01*
X170115784Y-118102836D01*
X170142652Y-118101143D01*
X170169096Y-118097897D01*
X170195004Y-118092845D01*
X170220319Y-118085846D01*
X170245014Y-118077069D01*
X170269115Y-118066740D01*
X170292596Y-118055112D01*
X170315485Y-118042384D01*
X170337780Y-118028809D01*
X170359483Y-118014613D01*
X170380621Y-118000022D01*
X170401167Y-117985262D01*
X170421149Y-117970587D01*
X170440565Y-117956193D01*
X170459446Y-117942336D01*
X170477791Y-117929241D01*
X170495571Y-117917134D01*
X170512814Y-117906240D01*
X170529550Y-117896814D01*
X170612357Y-117857607D01*
X170700235Y-117823870D01*
X170792344Y-117795592D01*
X170887842Y-117772760D01*
X170985892Y-117755347D01*
X171085646Y-117743352D01*
X171186270Y-117736777D01*
X171286919Y-117735648D01*
X171386752Y-117739853D01*
X171484932Y-117749420D01*
X171580616Y-117764350D01*
X171672965Y-117784613D01*
X171761134Y-117810211D01*
X171844285Y-117841117D01*
X171921577Y-117877332D01*
X171992170Y-117918838D01*
X172054343Y-117962659D01*
X172115961Y-118011543D01*
X172176548Y-118064815D01*
X172235631Y-118121807D01*
X172292736Y-118181850D01*
X172347383Y-118244274D01*
X172399097Y-118308407D01*
X172447405Y-118373583D01*
X172491833Y-118439126D01*
X172531903Y-118504368D01*
X172567138Y-118568641D01*
X172597065Y-118631274D01*
X172621223Y-118691597D01*
X172639116Y-118748938D01*
X172650264Y-118802628D01*
X172654215Y-118851998D01*
X172655344Y-118870201D01*
X172658194Y-118888686D01*
X172662682Y-118907228D01*
X172668665Y-118925629D01*
X172675946Y-118943720D01*
X172684356Y-118961274D01*
X172693698Y-118978094D01*
X172703801Y-118994012D01*
X172714498Y-119008800D01*
X172725617Y-119022262D01*
X172736991Y-119034200D01*
X172748421Y-119044417D01*
X172759738Y-119052714D01*
X172770773Y-119058866D01*
X172781356Y-119062705D01*
X172791290Y-119064116D01*
X172802099Y-119065527D01*
X172815307Y-119069450D01*
X172830830Y-119075913D01*
X172848553Y-119084859D01*
X172868393Y-119096233D01*
X172890237Y-119109949D01*
X172914000Y-119125951D01*
X172939570Y-119144182D01*
X172966832Y-119164587D01*
X172995687Y-119187108D01*
X173026040Y-119211662D01*
X173057781Y-119238190D01*
X173090815Y-119266633D01*
X173125035Y-119296929D01*
X173160344Y-119329018D01*
X173196632Y-119362831D01*
X173281871Y-119448584D01*
X173353694Y-119532004D01*
X173412972Y-119613295D01*
X173460575Y-119692667D01*
X173497374Y-119770323D01*
X173524241Y-119846478D01*
X173542049Y-119921335D01*
X173551673Y-119995099D01*
X173553931Y-120067983D01*
X173549782Y-120140190D01*
X173540046Y-120211928D01*
X173525596Y-120283409D01*
X173507308Y-120354834D01*
X173486056Y-120426414D01*
X173462717Y-120498358D01*
X173438163Y-120570869D01*
X173419932Y-120615415D01*
X173396169Y-120659541D01*
X173367582Y-120702946D01*
X173334847Y-120745333D01*
X173298652Y-120786405D01*
X173259680Y-120825863D01*
X173218620Y-120863407D01*
X173176157Y-120898741D01*
X173132974Y-120931566D01*
X173089757Y-120961583D01*
X173047195Y-120988507D01*
X173005968Y-121012016D01*
X172966768Y-121031828D01*
X172930276Y-121047633D01*
X172897180Y-121059147D01*
X172868165Y-121066062D01*
X172725140Y-121086551D01*
X172566125Y-121103061D01*
X172394593Y-121115959D01*
X172214030Y-121125639D01*
X172027910Y-121132441D01*
X171839722Y-121136730D01*
X171652936Y-121138988D01*
X171471041Y-121139270D01*
X171297508Y-121138141D01*
X171135825Y-121136166D01*
X170989468Y-121133344D01*
X170861918Y-121130267D01*
X170756654Y-121127248D01*
X170677155Y-121124708D01*
X170626905Y-121123014D01*
X170609379Y-121122450D01*
X170477463Y-121122727D01*
X170345544Y-121123000D01*
X170213628Y-121123277D01*
X170081709Y-121123553D01*
X169949792Y-121123827D01*
X169817876Y-121124104D01*
X169685957Y-121124380D01*
X169554041Y-121124654D01*
X169422121Y-121124931D01*
X169290205Y-121125207D01*
X169158289Y-121125481D01*
X169026370Y-121125758D01*
X168894453Y-121126034D01*
X168762534Y-121126308D01*
X168630618Y-121126584D01*
X168498702Y-121126861D01*
X168467530Y-121112694D01*
X168435924Y-121098554D01*
X168403926Y-121084217D01*
X168371572Y-121069514D01*
X168338902Y-121054245D01*
X168305952Y-121038187D01*
X168272769Y-121021169D01*
X168239385Y-121002994D01*
X168205840Y-120983436D01*
X168172173Y-120962326D01*
X168138428Y-120939466D01*
X168104638Y-120914658D01*
X168070844Y-120887706D01*
X168037088Y-120858406D01*
X168003404Y-120826565D01*
X167969837Y-120791985D01*
X167969766Y-120791558D01*
X167969766Y-120791558D01*
G37*
G36*
X134738185Y-99319928D02*
G01*
X134738185Y-99192084D01*
X134738185Y-99064240D01*
X134738185Y-98936397D01*
X134738185Y-98808556D01*
X134738185Y-98680712D01*
X134738185Y-98552868D01*
X134738185Y-98425024D01*
X134738185Y-98297180D01*
X134738185Y-98169336D01*
X134738185Y-98041490D01*
X134738185Y-97913646D01*
X134738185Y-97785802D01*
X134738185Y-97657958D01*
X134738185Y-97530114D01*
X134738185Y-97402268D01*
X134738185Y-97274424D01*
X135268269Y-97274424D01*
X135798356Y-97274424D01*
X136328439Y-97274424D01*
X136858526Y-97274424D01*
X137388610Y-97274424D01*
X137918694Y-97274424D01*
X138448781Y-97274424D01*
X138978864Y-97274424D01*
X139508948Y-97274424D01*
X140039035Y-97274424D01*
X140569119Y-97274424D01*
X141099203Y-97274424D01*
X141629287Y-97274424D01*
X142159373Y-97274424D01*
X142689457Y-97274424D01*
X143219541Y-97274424D01*
X143749625Y-97274424D01*
X144279706Y-97274424D01*
X144809790Y-97274424D01*
X145339874Y-97274424D01*
X145869958Y-97274424D01*
X146400039Y-97274424D01*
X146930123Y-97274424D01*
X147460207Y-97274424D01*
X147990290Y-97274424D01*
X148520377Y-97274424D01*
X149050461Y-97274424D01*
X149580548Y-97274424D01*
X150110632Y-97274424D01*
X150640718Y-97274424D01*
X151170804Y-97274424D01*
X151700889Y-97274424D01*
X151700889Y-97402268D01*
X151700889Y-97530114D01*
X151700889Y-97657958D01*
X151700889Y-97785802D01*
X151700889Y-97913646D01*
X151700889Y-98041490D01*
X151700889Y-98169336D01*
X151700889Y-98297180D01*
X151700889Y-98425024D01*
X151700889Y-98552868D01*
X151700889Y-98680712D01*
X151700889Y-98808556D01*
X151700889Y-98936397D01*
X151700889Y-99064240D01*
X151700889Y-99192084D01*
X151700889Y-99319928D01*
X151700889Y-99447772D01*
X151700889Y-99575616D01*
X151700889Y-99703460D01*
X151700889Y-99831303D01*
X151700889Y-99959144D01*
X151700889Y-100086988D01*
X151700889Y-100214832D01*
X151700889Y-100342676D01*
X151700889Y-100470520D01*
X151700889Y-100598364D01*
X151700889Y-100726208D01*
X151700889Y-100854054D01*
X151700889Y-100981898D01*
X151700889Y-101109742D01*
X151700889Y-101237586D01*
X151700889Y-101365430D01*
X151170804Y-101365430D01*
X150640718Y-101365430D01*
X150110632Y-101365430D01*
X149580548Y-101365430D01*
X149050461Y-101365430D01*
X148520377Y-101365430D01*
X147990290Y-101365430D01*
X147460207Y-101365430D01*
X146930123Y-101365430D01*
X146400042Y-101365430D01*
X145869958Y-101365430D01*
X145339874Y-101365430D01*
X144809790Y-101365430D01*
X144279706Y-101365430D01*
X143749625Y-101365430D01*
X143219541Y-101365430D01*
X142689457Y-101365430D01*
X142159373Y-101365430D01*
X141629287Y-101365430D01*
X141099203Y-101365430D01*
X140569119Y-101365430D01*
X140039035Y-101365430D01*
X139508948Y-101365430D01*
X138978864Y-101365430D01*
X138448781Y-101365430D01*
X137918694Y-101365430D01*
X137388610Y-101365430D01*
X136858526Y-101365430D01*
X136328439Y-101365430D01*
X135798356Y-101365430D01*
X135268269Y-101365430D01*
X134738185Y-101365430D01*
X134738185Y-101237586D01*
X134738185Y-101109742D01*
X134738185Y-100981898D01*
X134738185Y-100854054D01*
X134738185Y-100726208D01*
X134738185Y-100598364D01*
X134738185Y-100470520D01*
X134738185Y-100342676D01*
X134738185Y-100214832D01*
X134738185Y-100086988D01*
X134738185Y-99959144D01*
X134738185Y-99831303D01*
X134738185Y-99703460D01*
X134738185Y-99575616D01*
X134738185Y-99447772D01*
X134738185Y-99319928D01*
X134738185Y-99319928D01*
G37*
G36*
X142464221Y-136508003D02*
G01*
X142328529Y-136408260D01*
X142194233Y-136307894D01*
X142061363Y-136206926D01*
X141929944Y-136105388D01*
X141799994Y-136003297D01*
X141671549Y-135900678D01*
X141544628Y-135797560D01*
X141419260Y-135693964D01*
X141295466Y-135589915D01*
X141173272Y-135485439D01*
X141052707Y-135380559D01*
X140933795Y-135275296D01*
X140816560Y-135169680D01*
X140701030Y-135063731D01*
X140587226Y-134957477D01*
X140475178Y-134850941D01*
X140364909Y-134744145D01*
X140256442Y-134637118D01*
X140149810Y-134529882D01*
X140045029Y-134422460D01*
X139942131Y-134314880D01*
X139841141Y-134207161D01*
X139742081Y-134099330D01*
X139644979Y-133991414D01*
X139549859Y-133883433D01*
X139456748Y-133775412D01*
X139365670Y-133667380D01*
X139276651Y-133559357D01*
X139232921Y-133505356D01*
X139189715Y-133451370D01*
X139104888Y-133343440D01*
X139022197Y-133235591D01*
X138941668Y-133127853D01*
X138904073Y-133076751D01*
X138867751Y-133027066D01*
X138798666Y-132931539D01*
X138733921Y-132840472D01*
X138673020Y-132753059D01*
X138615475Y-132668500D01*
X138560786Y-132585992D01*
X138508468Y-132504735D01*
X138458021Y-132423920D01*
X138408956Y-132342748D01*
X138360778Y-132260418D01*
X138312995Y-132176126D01*
X138265116Y-132089072D01*
X138216644Y-131998448D01*
X138167089Y-131903457D01*
X138115956Y-131803294D01*
X138062754Y-131697156D01*
X137990322Y-131547934D01*
X137922320Y-131400458D01*
X137858744Y-131254716D01*
X137799593Y-131110695D01*
X137744868Y-130968382D01*
X137694570Y-130827767D01*
X137648695Y-130688838D01*
X137607248Y-130551585D01*
X137570223Y-130415991D01*
X137537623Y-130282048D01*
X137509458Y-130149745D01*
X137485694Y-130019068D01*
X137466362Y-129890005D01*
X137451461Y-129762545D01*
X137440990Y-129636677D01*
X137434923Y-129512389D01*
X137433229Y-129389665D01*
X137436052Y-129268498D01*
X137443276Y-129148875D01*
X137454876Y-129030782D01*
X137470906Y-128914210D01*
X137491367Y-128799148D01*
X137516259Y-128685579D01*
X137545559Y-128573498D01*
X137579276Y-128462889D01*
X137617416Y-128353737D01*
X137659969Y-128246038D01*
X137706943Y-128139773D01*
X137758332Y-128034933D01*
X137814139Y-127931507D01*
X137874360Y-127829484D01*
X137939000Y-127728849D01*
X138038159Y-127589191D01*
X138143506Y-127457134D01*
X138254694Y-127332719D01*
X138371370Y-127215986D01*
X138493180Y-127106975D01*
X138619776Y-127005722D01*
X138750803Y-126912270D01*
X138885909Y-126826661D01*
X139024742Y-126748925D01*
X139166951Y-126679109D01*
X139312186Y-126617252D01*
X139460090Y-126563390D01*
X139610314Y-126517562D01*
X139762508Y-126479812D01*
X139916314Y-126450176D01*
X140071386Y-126428699D01*
X140227370Y-126415406D01*
X140383911Y-126410355D01*
X140540660Y-126413572D01*
X140697268Y-126425087D01*
X140853379Y-126444955D01*
X141008640Y-126473228D01*
X141162700Y-126509923D01*
X141315210Y-126555092D01*
X141465815Y-126608765D01*
X141614165Y-126670984D01*
X141759905Y-126741791D01*
X141902687Y-126821225D01*
X142042155Y-126909323D01*
X142177961Y-127006126D01*
X142309750Y-127111671D01*
X142437170Y-127226002D01*
X142441714Y-127230320D01*
X142446258Y-127234638D01*
X142450802Y-127238956D01*
X142455374Y-127243274D01*
X142459917Y-127247592D01*
X142464461Y-127251910D01*
X142473577Y-127260546D01*
X142482665Y-127269182D01*
X142491780Y-127277818D01*
X142500868Y-127286454D01*
X142509955Y-127295090D01*
X142519043Y-127303726D01*
X142528131Y-127312362D01*
X142537246Y-127320998D01*
X142546334Y-127329634D01*
X142555450Y-127338270D01*
X142583277Y-127362993D01*
X142615738Y-127385881D01*
X142652289Y-127406596D01*
X142692370Y-127424771D01*
X142735426Y-127440068D01*
X142780906Y-127452090D01*
X142828251Y-127460501D01*
X142876909Y-127464960D01*
X142926321Y-127465070D01*
X142975935Y-127460498D01*
X143025194Y-127450846D01*
X143073542Y-127435803D01*
X143120425Y-127414975D01*
X143165290Y-127388023D01*
X143207578Y-127354566D01*
X143246733Y-127314256D01*
X143259236Y-127303052D01*
X143271738Y-127291847D01*
X143284241Y-127280643D01*
X143296743Y-127269439D01*
X143309245Y-127258235D01*
X143321748Y-127247031D01*
X143334250Y-127235826D01*
X143346753Y-127224622D01*
X143352990Y-127219034D01*
X143359227Y-127213418D01*
X143365492Y-127207802D01*
X143371729Y-127202214D01*
X143377967Y-127196597D01*
X143384204Y-127191009D01*
X143390469Y-127185393D01*
X143396706Y-127179777D01*
X143503519Y-127088351D01*
X143613173Y-127002677D01*
X143725487Y-126922752D01*
X143840272Y-126848578D01*
X143957346Y-126780164D01*
X144076526Y-126717506D01*
X144197627Y-126660610D01*
X144320465Y-126609482D01*
X144444854Y-126564121D01*
X144570609Y-126524530D01*
X144697550Y-126490715D01*
X144825490Y-126462662D01*
X144954243Y-126440394D01*
X145083627Y-126423913D01*
X145213458Y-126413216D01*
X145343551Y-126408306D01*
X145473721Y-126409152D01*
X145603785Y-126415841D01*
X145733554Y-126428343D01*
X145862854Y-126446603D01*
X145991491Y-126470677D01*
X146119284Y-126500550D01*
X146246050Y-126536237D01*
X146371605Y-126577735D01*
X146495760Y-126625044D01*
X146618335Y-126678169D01*
X146739146Y-126737114D01*
X146858006Y-126801881D01*
X146974733Y-126872474D01*
X147089141Y-126948894D01*
X147201047Y-127031145D01*
X147310267Y-127119226D01*
X147375534Y-127176235D01*
X147439116Y-127235618D01*
X147500968Y-127297275D01*
X147561050Y-127361105D01*
X147619323Y-127427012D01*
X147675740Y-127494901D01*
X147730265Y-127564666D01*
X147782860Y-127636209D01*
X147833476Y-127709432D01*
X147882075Y-127784241D01*
X147928616Y-127860528D01*
X147973055Y-127938201D01*
X148015355Y-128017159D01*
X148055472Y-128097301D01*
X148093366Y-128178533D01*
X148128997Y-128260750D01*
X148162322Y-128343856D01*
X148193296Y-128427752D01*
X148221882Y-128512340D01*
X148248044Y-128597518D01*
X148271722Y-128683189D01*
X148292889Y-128769255D01*
X148311516Y-128855618D01*
X148327546Y-128942176D01*
X148340923Y-129028829D01*
X148351619Y-129115480D01*
X148359606Y-129202032D01*
X148364856Y-129288383D01*
X148367396Y-129374433D01*
X148366831Y-129460090D01*
X148363529Y-129545248D01*
X148357320Y-129629810D01*
X148347076Y-129729745D01*
X148334545Y-129830123D01*
X148319757Y-129930930D01*
X148302739Y-130032155D01*
X148283463Y-130133777D01*
X148261986Y-130235789D01*
X148238279Y-130338174D01*
X148212371Y-130440917D01*
X148184262Y-130544004D01*
X148153962Y-130647427D01*
X148121481Y-130751169D01*
X148086833Y-130855213D01*
X148050026Y-130959548D01*
X148011070Y-131064157D01*
X147969976Y-131169028D01*
X147926751Y-131274153D01*
X147881409Y-131379509D01*
X147833959Y-131485086D01*
X147784412Y-131590871D01*
X147732774Y-131696848D01*
X147679059Y-131803006D01*
X147623272Y-131909328D01*
X147565427Y-132015799D01*
X147505534Y-132122411D01*
X147443603Y-132229147D01*
X147379641Y-132335991D01*
X147313660Y-132442934D01*
X147245670Y-132549955D01*
X147175681Y-132657047D01*
X147103703Y-132764193D01*
X147029747Y-132871378D01*
X146953821Y-132978591D01*
X146875936Y-133085819D01*
X146796101Y-133193044D01*
X146714327Y-133300254D01*
X146630620Y-133407434D01*
X146544997Y-133514571D01*
X146457463Y-133621655D01*
X146368029Y-133728665D01*
X146276705Y-133835590D01*
X146183501Y-133942417D01*
X146088429Y-134049134D01*
X145991497Y-134155726D01*
X145892716Y-134262178D01*
X145792095Y-134368474D01*
X145689643Y-134474603D01*
X145585370Y-134580552D01*
X145479286Y-134686304D01*
X145371404Y-134791847D01*
X145261729Y-134897166D01*
X145150274Y-135002249D01*
X145037052Y-135107083D01*
X144922069Y-135211652D01*
X144805334Y-135315939D01*
X144686860Y-135419938D01*
X144566653Y-135523626D01*
X144444727Y-135626996D01*
X144321091Y-135730032D01*
X144195753Y-135832722D01*
X144068725Y-135935050D01*
X143940018Y-136037000D01*
X143809637Y-136138560D01*
X143677596Y-136239720D01*
X143543905Y-136340459D01*
X143477811Y-136390074D01*
X143416560Y-136436398D01*
X143307493Y-136519343D01*
X143214495Y-136589639D01*
X143135366Y-136647624D01*
X143067892Y-136693643D01*
X143009873Y-136728041D01*
X142959101Y-136751155D01*
X142913367Y-136763318D01*
X142870469Y-136765012D01*
X142828198Y-136756348D01*
X142784349Y-136737777D01*
X142736713Y-136709640D01*
X142683087Y-136672265D01*
X142621261Y-136626009D01*
X142549035Y-136571210D01*
X142508333Y-136540718D01*
X142464196Y-136508215D01*
X142464193Y-136508215D01*
X142464190Y-136508215D01*
X142464187Y-136508215D01*
X142464171Y-136508082D01*
X142464221Y-136508003D01*
X142464221Y-136508003D01*
G37*
D13*
X145530531Y-52145518D02*
X144868780Y-52145518D01*
X144868780Y-52145518D02*
X144207025Y-52145518D01*
X144207025Y-52145518D02*
X143545273Y-52145518D01*
X143545273Y-52145518D02*
X142883524Y-52145518D01*
X142883524Y-52145518D02*
X142221843Y-52145518D01*
X142221843Y-52145518D02*
X141560153Y-52145518D01*
X141560153Y-52145518D02*
X140898475Y-52145518D01*
X140898475Y-52145518D02*
X140236790Y-52145518D01*
X140236790Y-52145518D02*
X139575036Y-52145518D01*
X139575036Y-52145518D02*
X138913287Y-52145518D01*
X138913287Y-52145518D02*
X138251532Y-52145518D01*
X138251532Y-52145518D02*
X137589786Y-52145518D01*
X137589786Y-52145518D02*
X136928003Y-52145518D01*
X136928003Y-52145518D02*
X136266226Y-52145518D01*
X136266226Y-52145518D02*
X135604449Y-52145518D01*
X135604449Y-52145518D02*
X134942669Y-52145518D01*
X134942669Y-52145518D02*
X134519197Y-52189971D01*
X134519197Y-52189971D02*
X134125243Y-52317530D01*
X134125243Y-52317530D02*
X133769129Y-52519502D01*
X133769129Y-52519502D02*
X133459148Y-52787185D01*
X133459148Y-52787185D02*
X133203596Y-53111878D01*
X133203596Y-53111878D02*
X133010773Y-53484894D01*
X133010773Y-53484894D02*
X132888997Y-53897537D01*
X132888997Y-53897537D02*
X132846559Y-54341106D01*
X132846559Y-54341106D02*
X132846559Y-54791462D01*
X132846559Y-54791462D02*
X132846559Y-55241824D01*
X132846559Y-55241824D02*
X132846559Y-55692177D01*
X132846559Y-55692177D02*
X132846559Y-56142533D01*
X132846559Y-56142533D02*
X132888997Y-56586104D01*
X132888997Y-56586104D02*
X133010773Y-56998747D01*
X133010773Y-56998747D02*
X133203596Y-57371760D01*
X133203596Y-57371760D02*
X133459148Y-57696457D01*
X133459148Y-57696457D02*
X133769129Y-57964139D01*
X133769129Y-57964139D02*
X134125243Y-58166106D01*
X134125243Y-58166106D02*
X134519197Y-58293670D01*
X134519197Y-58293670D02*
X134942669Y-58338120D01*
X134942669Y-58338120D02*
X135604420Y-58338120D01*
X135604420Y-58338120D02*
X136266172Y-58338120D01*
X136266172Y-58338120D02*
X136927924Y-58338120D01*
X136927924Y-58338120D02*
X137589676Y-58338120D01*
X137589676Y-58338120D02*
X138251354Y-58338120D01*
X138251354Y-58338120D02*
X138913041Y-58338120D01*
X138913041Y-58338120D02*
X139574723Y-58338120D01*
X139574723Y-58338120D02*
X140236409Y-58338120D01*
X140236409Y-58338120D02*
X140898161Y-58338120D01*
X140898161Y-58338120D02*
X141559907Y-58338120D01*
X141559907Y-58338120D02*
X142221659Y-58338120D01*
X142221659Y-58338120D02*
X142883411Y-58338120D01*
X142883411Y-58338120D02*
X143545188Y-58338120D01*
X143545188Y-58338120D02*
X144206971Y-58338120D01*
X144206971Y-58338120D02*
X144868749Y-58338120D01*
X144868749Y-58338120D02*
X145530531Y-58338120D01*
X145530531Y-58338120D02*
X145954000Y-58293670D01*
X145954000Y-58293670D02*
X146347951Y-58166106D01*
X146347951Y-58166106D02*
X146704065Y-57964139D01*
X146704065Y-57964139D02*
X147014052Y-57696457D01*
X147014052Y-57696457D02*
X147269607Y-57371760D01*
X147269607Y-57371760D02*
X147462419Y-56998747D01*
X147462419Y-56998747D02*
X147584200Y-56586104D01*
X147584200Y-56586104D02*
X147626641Y-56142533D01*
X147626641Y-56142533D02*
X147626641Y-55692177D01*
X147626641Y-55692177D02*
X147626641Y-55241824D01*
X147626641Y-55241824D02*
X147626641Y-54791462D01*
X147626641Y-54791462D02*
X147626641Y-54341106D01*
X147626641Y-54341106D02*
X147584200Y-53897537D01*
X147584200Y-53897537D02*
X147462419Y-53484894D01*
X147462419Y-53484894D02*
X147269607Y-53111878D01*
X147269607Y-53111878D02*
X147014052Y-52787185D01*
X147014052Y-52787185D02*
X146704065Y-52519502D01*
X146704065Y-52519502D02*
X146347951Y-52317530D01*
X146347951Y-52317530D02*
X145954000Y-52189971D01*
X145954000Y-52189971D02*
X145530531Y-52145518D01*
D12*
G36*
X144300400Y-134793400D02*
G01*
X141348000Y-134793400D01*
X141348000Y-132941000D01*
X144300400Y-132941000D01*
X144300400Y-134793400D01*
X144300400Y-134793400D01*
G37*
G36*
X119713200Y-133421800D02*
G01*
X116760800Y-133421800D01*
X116760800Y-131569400D01*
X119713200Y-131569400D01*
X119713200Y-133421800D01*
X119713200Y-133421800D01*
G37*
G36*
X144300400Y-129593400D02*
G01*
X141348000Y-129593400D01*
X141348000Y-127741000D01*
X144300400Y-127741000D01*
X144300400Y-129593400D01*
X144300400Y-129593400D01*
G37*
G36*
X119713200Y-128221800D02*
G01*
X116760800Y-128221800D01*
X116760800Y-126369400D01*
X119713200Y-126369400D01*
X119713200Y-128221800D01*
X119713200Y-128221800D01*
G37*
G36*
X172138800Y-123007800D02*
G01*
X169186400Y-123007800D01*
X169186400Y-121155400D01*
X172138800Y-121155400D01*
X172138800Y-123007800D01*
X172138800Y-123007800D01*
G37*
G36*
X172138800Y-117807800D02*
G01*
X169186400Y-117807800D01*
X169186400Y-115955400D01*
X172138800Y-115955400D01*
X172138800Y-117807800D01*
X172138800Y-117807800D01*
G37*
G36*
X148796200Y-102891000D02*
G01*
X145843800Y-102891000D01*
X145843800Y-101038600D01*
X148796200Y-101038600D01*
X148796200Y-102891000D01*
X148796200Y-102891000D01*
G37*
G36*
X139906200Y-102891000D02*
G01*
X136953800Y-102891000D01*
X136953800Y-101038600D01*
X139906200Y-101038600D01*
X139906200Y-102891000D01*
X139906200Y-102891000D01*
G37*
G36*
X148796200Y-97691000D02*
G01*
X145843800Y-97691000D01*
X145843800Y-95838600D01*
X148796200Y-95838600D01*
X148796200Y-97691000D01*
X148796200Y-97691000D01*
G37*
G36*
X139906200Y-97691000D02*
G01*
X136953800Y-97691000D01*
X136953800Y-95838600D01*
X139906200Y-95838600D01*
X139906200Y-97691000D01*
X139906200Y-97691000D01*
G37*
G36*
X141952600Y-89873296D02*
G01*
X140800200Y-89873296D01*
X140800200Y-87820896D01*
X141952600Y-87820896D01*
X141952600Y-89873296D01*
X141952600Y-89873296D01*
G37*
G36*
X126712600Y-89873296D02*
G01*
X125560200Y-89873296D01*
X125560200Y-87820896D01*
X126712600Y-87820896D01*
X126712600Y-89873296D01*
X126712600Y-89873296D01*
G37*
G36*
X152112600Y-89873296D02*
G01*
X150960200Y-89873296D01*
X150960200Y-87820896D01*
X152112600Y-87820896D01*
X152112600Y-89873296D01*
X152112600Y-89873296D01*
G37*
G36*
X147032600Y-89873296D02*
G01*
X145880200Y-89873296D01*
X145880200Y-87820896D01*
X147032600Y-87820896D01*
X147032600Y-89873296D01*
X147032600Y-89873296D01*
G37*
G36*
X136872600Y-89873296D02*
G01*
X135720200Y-89873296D01*
X135720200Y-87820896D01*
X136872600Y-87820896D01*
X136872600Y-89873296D01*
X136872600Y-89873296D01*
G37*
G36*
X121632600Y-89873296D02*
G01*
X120480200Y-89873296D01*
X120480200Y-87820896D01*
X121632600Y-87820896D01*
X121632600Y-89873296D01*
X121632600Y-89873296D01*
G37*
G36*
X131792600Y-89873296D02*
G01*
X130640200Y-89873296D01*
X130640200Y-87820896D01*
X131792600Y-87820896D01*
X131792600Y-89873296D01*
X131792600Y-89873296D01*
G37*
G36*
X124172600Y-86573296D02*
G01*
X123020200Y-86573296D01*
X123020200Y-84520896D01*
X124172600Y-84520896D01*
X124172600Y-86573296D01*
X124172600Y-86573296D01*
G37*
G36*
X129252600Y-86573296D02*
G01*
X128100200Y-86573296D01*
X128100200Y-84520896D01*
X129252600Y-84520896D01*
X129252600Y-86573296D01*
X129252600Y-86573296D01*
G37*
G36*
X134332600Y-86573296D02*
G01*
X133180200Y-86573296D01*
X133180200Y-84520896D01*
X134332600Y-84520896D01*
X134332600Y-86573296D01*
X134332600Y-86573296D01*
G37*
G36*
X139412600Y-86573296D02*
G01*
X138260200Y-86573296D01*
X138260200Y-84520896D01*
X139412600Y-84520896D01*
X139412600Y-86573296D01*
X139412600Y-86573296D01*
G37*
G36*
X144492600Y-86573296D02*
G01*
X143340200Y-86573296D01*
X143340200Y-84520896D01*
X144492600Y-84520896D01*
X144492600Y-86573296D01*
X144492600Y-86573296D01*
G37*
G36*
X149572600Y-86573296D02*
G01*
X148420200Y-86573296D01*
X148420200Y-84520896D01*
X149572600Y-84520896D01*
X149572600Y-86573296D01*
X149572600Y-86573296D01*
G37*
G36*
X154652600Y-86573296D02*
G01*
X153500200Y-86573296D01*
X153500200Y-84520896D01*
X154652600Y-84520896D01*
X154652600Y-86573296D01*
X154652600Y-86573296D01*
G37*
G36*
X112601200Y-82342400D02*
G01*
X109648800Y-82342400D01*
X109648800Y-80490000D01*
X112601200Y-80490000D01*
X112601200Y-82342400D01*
X112601200Y-82342400D01*
G37*
G36*
X148796200Y-81047000D02*
G01*
X145843800Y-81047000D01*
X145843800Y-79194600D01*
X148796200Y-79194600D01*
X148796200Y-81047000D01*
X148796200Y-81047000D01*
G37*
G36*
X130813000Y-80970800D02*
G01*
X127860600Y-80970800D01*
X127860600Y-79118400D01*
X130813000Y-79118400D01*
X130813000Y-80970800D01*
X130813000Y-80970800D01*
G37*
G36*
X112601200Y-77142400D02*
G01*
X109648800Y-77142400D01*
X109648800Y-75290000D01*
X112601200Y-75290000D01*
X112601200Y-77142400D01*
X112601200Y-77142400D01*
G37*
G36*
X148796200Y-75847000D02*
G01*
X145843800Y-75847000D01*
X145843800Y-73994600D01*
X148796200Y-73994600D01*
X148796200Y-75847000D01*
X148796200Y-75847000D01*
G37*
G36*
X130813000Y-75770800D02*
G01*
X127860600Y-75770800D01*
X127860600Y-73918400D01*
X130813000Y-73918400D01*
X130813000Y-75770800D01*
X130813000Y-75770800D01*
G37*
G36*
X136872600Y-69553296D02*
G01*
X135720200Y-69553296D01*
X135720200Y-67500896D01*
X136872600Y-67500896D01*
X136872600Y-69553296D01*
X136872600Y-69553296D01*
G37*
G36*
X141952600Y-69553296D02*
G01*
X140800200Y-69553296D01*
X140800200Y-67500896D01*
X141952600Y-67500896D01*
X141952600Y-69553296D01*
X141952600Y-69553296D01*
G37*
G36*
X147032600Y-69553296D02*
G01*
X145880200Y-69553296D01*
X145880200Y-67500896D01*
X147032600Y-67500896D01*
X147032600Y-69553296D01*
X147032600Y-69553296D01*
G37*
G36*
X121632600Y-69553296D02*
G01*
X120480200Y-69553296D01*
X120480200Y-67500896D01*
X121632600Y-67500896D01*
X121632600Y-69553296D01*
X121632600Y-69553296D01*
G37*
G36*
X126712600Y-69553296D02*
G01*
X125560200Y-69553296D01*
X125560200Y-67500896D01*
X126712600Y-67500896D01*
X126712600Y-69553296D01*
X126712600Y-69553296D01*
G37*
G36*
X131792600Y-69553296D02*
G01*
X130640200Y-69553296D01*
X130640200Y-67500896D01*
X131792600Y-67500896D01*
X131792600Y-69553296D01*
X131792600Y-69553296D01*
G37*
G36*
X152112600Y-69553296D02*
G01*
X150960200Y-69553296D01*
X150960200Y-67500896D01*
X152112600Y-67500896D01*
X152112600Y-69553296D01*
X152112600Y-69553296D01*
G37*
G36*
X144492600Y-66253296D02*
G01*
X143340200Y-66253296D01*
X143340200Y-64200896D01*
X144492600Y-64200896D01*
X144492600Y-66253296D01*
X144492600Y-66253296D01*
G37*
G36*
X154652600Y-66253296D02*
G01*
X153500200Y-66253296D01*
X153500200Y-64200896D01*
X154652600Y-64200896D01*
X154652600Y-66253296D01*
X154652600Y-66253296D01*
G37*
G36*
X149572600Y-66253296D02*
G01*
X148420200Y-66253296D01*
X148420200Y-64200896D01*
X149572600Y-64200896D01*
X149572600Y-66253296D01*
X149572600Y-66253296D01*
G37*
G36*
X139412600Y-66253296D02*
G01*
X138260200Y-66253296D01*
X138260200Y-64200896D01*
X139412600Y-64200896D01*
X139412600Y-66253296D01*
X139412600Y-66253296D01*
G37*
G36*
X134332600Y-66253296D02*
G01*
X133180200Y-66253296D01*
X133180200Y-64200896D01*
X134332600Y-64200896D01*
X134332600Y-66253296D01*
X134332600Y-66253296D01*
G37*
G36*
X129252600Y-66253296D02*
G01*
X128100200Y-66253296D01*
X128100200Y-64200896D01*
X129252600Y-64200896D01*
X129252600Y-66253296D01*
X129252600Y-66253296D01*
G37*
G36*
X124172600Y-66253296D02*
G01*
X123020200Y-66253296D01*
X123020200Y-64200896D01*
X124172600Y-64200896D01*
X124172600Y-66253296D01*
X124172600Y-66253296D01*
G37*
G36*
X122329000Y-57356200D02*
G01*
X120476600Y-57356200D01*
X120476600Y-54403800D01*
X122329000Y-54403800D01*
X122329000Y-57356200D01*
X122329000Y-57356200D01*
G37*
G36*
X127529000Y-57356200D02*
G01*
X125676600Y-57356200D01*
X125676600Y-54403800D01*
X127529000Y-54403800D01*
X127529000Y-57356200D01*
X127529000Y-57356200D01*
G37*
G36*
X162791200Y-54816200D02*
G01*
X160938800Y-54816200D01*
X160938800Y-51863800D01*
X162791200Y-51863800D01*
X162791200Y-54816200D01*
X162791200Y-54816200D01*
G37*
G36*
X167991200Y-54816200D02*
G01*
X166138800Y-54816200D01*
X166138800Y-51863800D01*
X167991200Y-51863800D01*
X167991200Y-54816200D01*
X167991200Y-54816200D01*
G37*
M02*
