G04 #@! TF.GenerationSoftware,KiCad,Pcbnew,6.0.0-rc1-unknown-73a0cbf~66~ubuntu16.04.1*
G04 #@! TF.CreationDate,2019-02-06T09:24:36-07:00
G04 #@! TF.ProjectId,001,3030312e-6b69-4636-9164-5f7063625858,rev?*
G04 #@! TF.SameCoordinates,Original*
G04 #@! TF.FileFunction,Paste,Bot*
G04 #@! TF.FilePolarity,Positive*
%FSLAX46Y46*%
G04 Gerber Fmt 4.6, Leading zero omitted, Abs format (unit mm)*
G04 Created by KiCad (PCBNEW 6.0.0-rc1-unknown-73a0cbf~66~ubuntu16.04.1) date 2019-02-06 09:24:36*
%MOMM*%
%LPD*%
G04 APERTURE LIST*
%ADD10R,2.647600X1.547600*%
%ADD11R,1.547600X2.647600*%
%ADD12R,0.847600X1.747600*%
G04 APERTURE END LIST*
D10*
X142824200Y-128667200D03*
X142824200Y-133867200D03*
X118237000Y-127295600D03*
X118237000Y-132495600D03*
X147320000Y-101964800D03*
X147320000Y-96764800D03*
X138430000Y-96764800D03*
X138430000Y-101964800D03*
X111125000Y-76216200D03*
X111125000Y-81416200D03*
X147320000Y-74920800D03*
X147320000Y-80120800D03*
X129336800Y-74844600D03*
X129336800Y-80044600D03*
D11*
X126602800Y-55880000D03*
X121402800Y-55880000D03*
D10*
X170662600Y-122081600D03*
X170662600Y-116881600D03*
D11*
X167065000Y-53340000D03*
X161865000Y-53340000D03*
D12*
X123596400Y-65227096D03*
X128676400Y-65227096D03*
X133756400Y-65227096D03*
X138836400Y-65227096D03*
X143916400Y-65227096D03*
X148996400Y-65227096D03*
X154076400Y-65227096D03*
X121056400Y-68527096D03*
X126136400Y-68527096D03*
X131216400Y-68527096D03*
X136296400Y-68527096D03*
X141376400Y-68527096D03*
X146456400Y-68527096D03*
X151536400Y-68527096D03*
X151536400Y-88847096D03*
X146456400Y-88847096D03*
X141376400Y-88847096D03*
X136296400Y-88847096D03*
X131216400Y-88847096D03*
X126136400Y-88847096D03*
X121056400Y-88847096D03*
X154076400Y-85547096D03*
X148996400Y-85547096D03*
X143916400Y-85547096D03*
X138836400Y-85547096D03*
X133756400Y-85547096D03*
X128676400Y-85547096D03*
X123596400Y-85547096D03*
M02*
