G04 #@! TF.GenerationSoftware,KiCad,Pcbnew,(5.0.0)*
G04 #@! TF.CreationDate,2019-03-05T23:07:52-06:00*
G04 #@! TF.ProjectId,001,3030312E6B696361645F706362000000,rev?*
G04 #@! TF.SameCoordinates,Original*
G04 #@! TF.FileFunction,Soldermask,Bot*
G04 #@! TF.FilePolarity,Negative*
%FSLAX46Y46*%
G04 Gerber Fmt 4.6, Leading zero omitted, Abs format (unit mm)*
G04 Created by KiCad (PCBNEW (5.0.0)) date 03/05/19 23:07:52*
%MOMM*%
%LPD*%
G01*
G04 APERTURE LIST*
%ADD10C,0.750000*%
%ADD11C,0.133125*%
%ADD12C,0.100000*%
%ADD13C,0.005883*%
%ADD14C,0.011767*%
%ADD15C,0.008320*%
G04 APERTURE END LIST*
D10*
G04 #@! TO.C,U9*
X143701731Y-53948918D02*
X143039980Y-53948918D01*
X143039980Y-53948918D02*
X142378225Y-53948918D01*
X142378225Y-53948918D02*
X141716473Y-53948918D01*
X141716473Y-53948918D02*
X141054724Y-53948918D01*
X141054724Y-53948918D02*
X140393043Y-53948918D01*
X140393043Y-53948918D02*
X139731353Y-53948918D01*
X139731353Y-53948918D02*
X139069675Y-53948918D01*
X139069675Y-53948918D02*
X138407990Y-53948918D01*
X138407990Y-53948918D02*
X137746236Y-53948918D01*
X137746236Y-53948918D02*
X137084487Y-53948918D01*
X137084487Y-53948918D02*
X136422732Y-53948918D01*
X136422732Y-53948918D02*
X135760986Y-53948918D01*
X135760986Y-53948918D02*
X135099203Y-53948918D01*
X135099203Y-53948918D02*
X134437426Y-53948918D01*
X134437426Y-53948918D02*
X133775649Y-53948918D01*
X133775649Y-53948918D02*
X133113869Y-53948918D01*
X133113869Y-53948918D02*
X132690397Y-53993371D01*
X132690397Y-53993371D02*
X132296443Y-54120930D01*
X132296443Y-54120930D02*
X131940329Y-54322902D01*
X131940329Y-54322902D02*
X131630348Y-54590585D01*
X131630348Y-54590585D02*
X131374796Y-54915278D01*
X131374796Y-54915278D02*
X131181973Y-55288294D01*
X131181973Y-55288294D02*
X131060197Y-55700937D01*
X131060197Y-55700937D02*
X131017759Y-56144506D01*
X131017759Y-56144506D02*
X131017759Y-56594862D01*
X131017759Y-56594862D02*
X131017759Y-57045224D01*
X131017759Y-57045224D02*
X131017759Y-57495577D01*
X131017759Y-57495577D02*
X131017759Y-57945933D01*
X131017759Y-57945933D02*
X131060197Y-58389504D01*
X131060197Y-58389504D02*
X131181973Y-58802147D01*
X131181973Y-58802147D02*
X131374796Y-59175160D01*
X131374796Y-59175160D02*
X131630348Y-59499857D01*
X131630348Y-59499857D02*
X131940329Y-59767539D01*
X131940329Y-59767539D02*
X132296443Y-59969506D01*
X132296443Y-59969506D02*
X132690397Y-60097070D01*
X132690397Y-60097070D02*
X133113869Y-60141520D01*
X133113869Y-60141520D02*
X133775620Y-60141520D01*
X133775620Y-60141520D02*
X134437372Y-60141520D01*
X134437372Y-60141520D02*
X135099124Y-60141520D01*
X135099124Y-60141520D02*
X135760876Y-60141520D01*
X135760876Y-60141520D02*
X136422554Y-60141520D01*
X136422554Y-60141520D02*
X137084241Y-60141520D01*
X137084241Y-60141520D02*
X137745923Y-60141520D01*
X137745923Y-60141520D02*
X138407609Y-60141520D01*
X138407609Y-60141520D02*
X139069361Y-60141520D01*
X139069361Y-60141520D02*
X139731107Y-60141520D01*
X139731107Y-60141520D02*
X140392859Y-60141520D01*
X140392859Y-60141520D02*
X141054611Y-60141520D01*
X141054611Y-60141520D02*
X141716388Y-60141520D01*
X141716388Y-60141520D02*
X142378171Y-60141520D01*
X142378171Y-60141520D02*
X143039949Y-60141520D01*
X143039949Y-60141520D02*
X143701731Y-60141520D01*
X143701731Y-60141520D02*
X144125200Y-60097070D01*
X144125200Y-60097070D02*
X144519151Y-59969506D01*
X144519151Y-59969506D02*
X144875265Y-59767539D01*
X144875265Y-59767539D02*
X145185252Y-59499857D01*
X145185252Y-59499857D02*
X145440807Y-59175160D01*
X145440807Y-59175160D02*
X145633619Y-58802147D01*
X145633619Y-58802147D02*
X145755400Y-58389504D01*
X145755400Y-58389504D02*
X145797841Y-57945933D01*
X145797841Y-57945933D02*
X145797841Y-57495577D01*
X145797841Y-57495577D02*
X145797841Y-57045224D01*
X145797841Y-57045224D02*
X145797841Y-56594862D01*
X145797841Y-56594862D02*
X145797841Y-56144506D01*
X145797841Y-56144506D02*
X145755400Y-55700937D01*
X145755400Y-55700937D02*
X145633619Y-55288294D01*
X145633619Y-55288294D02*
X145440807Y-54915278D01*
X145440807Y-54915278D02*
X145185252Y-54590585D01*
X145185252Y-54590585D02*
X144875265Y-54322902D01*
X144875265Y-54322902D02*
X144519151Y-54120930D01*
X144519151Y-54120930D02*
X144125200Y-53993371D01*
X144125200Y-53993371D02*
X143701731Y-53948918D01*
D11*
G04 #@! TO.C,U11*
G36*
X146263047Y-75597384D02*
X146044285Y-75654415D01*
X145828472Y-75718717D01*
X145615372Y-75790424D01*
X145404747Y-75869666D01*
X145196362Y-75956582D01*
X144989982Y-76051305D01*
X144785373Y-76153963D01*
X144582298Y-76264696D01*
X144380520Y-76383635D01*
X144179809Y-76510915D01*
X143979923Y-76646666D01*
X143780628Y-76791026D01*
X143581690Y-76944126D01*
X143382873Y-77106104D01*
X143183940Y-77277089D01*
X142984657Y-77457211D01*
X142804267Y-77631038D01*
X142613857Y-77826971D01*
X142416414Y-78041033D01*
X142214927Y-78269255D01*
X142012385Y-78507665D01*
X141811779Y-78752290D01*
X141616091Y-78999161D01*
X141428318Y-79244307D01*
X141251440Y-79483756D01*
X141088451Y-79713533D01*
X140942339Y-79929670D01*
X140816090Y-80128196D01*
X140712695Y-80305138D01*
X140635141Y-80456525D01*
X140569513Y-80666750D01*
X140629169Y-80859256D01*
X140699834Y-80999058D01*
X140794252Y-81163173D01*
X140909819Y-81348065D01*
X141043934Y-81550199D01*
X141193991Y-81766031D01*
X141357387Y-81992032D01*
X141531521Y-82224659D01*
X141713785Y-82460374D01*
X141901579Y-82695640D01*
X142092296Y-82926921D01*
X142283335Y-83150678D01*
X142472094Y-83363375D01*
X142655967Y-83561472D01*
X142832351Y-83741434D01*
X143141161Y-84032919D01*
X143455870Y-84303008D01*
X143776373Y-84551669D01*
X144102568Y-84778860D01*
X144434357Y-84984547D01*
X144771638Y-85168691D01*
X145114309Y-85331254D01*
X145462272Y-85472201D01*
X145815422Y-85591491D01*
X146173661Y-85689090D01*
X146536890Y-85764959D01*
X146905003Y-85819059D01*
X147277904Y-85851354D01*
X147655486Y-85861808D01*
X148037654Y-85850380D01*
X148424304Y-85817036D01*
X148757541Y-85767089D01*
X149087848Y-85694056D01*
X149413931Y-85598867D01*
X149734493Y-85482453D01*
X150048236Y-85345741D01*
X150353863Y-85189658D01*
X150650078Y-85015138D01*
X150935585Y-84823111D01*
X151209087Y-84614504D01*
X151469287Y-84390244D01*
X151714886Y-84151267D01*
X151944592Y-83898495D01*
X152157102Y-83632861D01*
X152351125Y-83355296D01*
X152525360Y-83066726D01*
X152678514Y-82768084D01*
X152789260Y-82521837D01*
X152876515Y-82299500D01*
X152942939Y-82085905D01*
X152991196Y-81865885D01*
X153023942Y-81624266D01*
X153043839Y-81345885D01*
X153053547Y-81015566D01*
X153055805Y-80618147D01*
X153052588Y-80213395D01*
X153042343Y-79882269D01*
X153021939Y-79608381D01*
X152988284Y-79375344D01*
X152938265Y-79166779D01*
X152868774Y-78966294D01*
X152776699Y-78757503D01*
X152658933Y-78524027D01*
X152504792Y-78245679D01*
X152340948Y-77980630D01*
X152167279Y-77728789D01*
X151983666Y-77490055D01*
X151789988Y-77264336D01*
X151586122Y-77051541D01*
X151371949Y-76851569D01*
X151147354Y-76664329D01*
X150912209Y-76489724D01*
X150666396Y-76327660D01*
X150409794Y-76178043D01*
X150142284Y-76040782D01*
X149863745Y-75915774D01*
X149574058Y-75802928D01*
X149273102Y-75702152D01*
X148960752Y-75613345D01*
X148780616Y-75568613D01*
X148605652Y-75529731D01*
X148435082Y-75496699D01*
X148268125Y-75469521D01*
X148104005Y-75448185D01*
X147941941Y-75432663D01*
X147781157Y-75422983D01*
X147620871Y-75419117D01*
X147460307Y-75421092D01*
X147298684Y-75428881D01*
X147135226Y-75442485D01*
X146969147Y-75461845D01*
X146799675Y-75487047D01*
X146626032Y-75518038D01*
X146447434Y-75554823D01*
X146263109Y-75597399D01*
X146263109Y-75597402D01*
X146263109Y-75597405D01*
X146263109Y-75597408D01*
X146263109Y-75597410D01*
X146263078Y-75597413D01*
X146263047Y-75597384D01*
X146263047Y-75597384D01*
G37*
X146263047Y-75597384D02*
X146044285Y-75654415D01*
X145828472Y-75718717D01*
X145615372Y-75790424D01*
X145404747Y-75869666D01*
X145196362Y-75956582D01*
X144989982Y-76051305D01*
X144785373Y-76153963D01*
X144582298Y-76264696D01*
X144380520Y-76383635D01*
X144179809Y-76510915D01*
X143979923Y-76646666D01*
X143780628Y-76791026D01*
X143581690Y-76944126D01*
X143382873Y-77106104D01*
X143183940Y-77277089D01*
X142984657Y-77457211D01*
X142804267Y-77631038D01*
X142613857Y-77826971D01*
X142416414Y-78041033D01*
X142214927Y-78269255D01*
X142012385Y-78507665D01*
X141811779Y-78752290D01*
X141616091Y-78999161D01*
X141428318Y-79244307D01*
X141251440Y-79483756D01*
X141088451Y-79713533D01*
X140942339Y-79929670D01*
X140816090Y-80128196D01*
X140712695Y-80305138D01*
X140635141Y-80456525D01*
X140569513Y-80666750D01*
X140629169Y-80859256D01*
X140699834Y-80999058D01*
X140794252Y-81163173D01*
X140909819Y-81348065D01*
X141043934Y-81550199D01*
X141193991Y-81766031D01*
X141357387Y-81992032D01*
X141531521Y-82224659D01*
X141713785Y-82460374D01*
X141901579Y-82695640D01*
X142092296Y-82926921D01*
X142283335Y-83150678D01*
X142472094Y-83363375D01*
X142655967Y-83561472D01*
X142832351Y-83741434D01*
X143141161Y-84032919D01*
X143455870Y-84303008D01*
X143776373Y-84551669D01*
X144102568Y-84778860D01*
X144434357Y-84984547D01*
X144771638Y-85168691D01*
X145114309Y-85331254D01*
X145462272Y-85472201D01*
X145815422Y-85591491D01*
X146173661Y-85689090D01*
X146536890Y-85764959D01*
X146905003Y-85819059D01*
X147277904Y-85851354D01*
X147655486Y-85861808D01*
X148037654Y-85850380D01*
X148424304Y-85817036D01*
X148757541Y-85767089D01*
X149087848Y-85694056D01*
X149413931Y-85598867D01*
X149734493Y-85482453D01*
X150048236Y-85345741D01*
X150353863Y-85189658D01*
X150650078Y-85015138D01*
X150935585Y-84823111D01*
X151209087Y-84614504D01*
X151469287Y-84390244D01*
X151714886Y-84151267D01*
X151944592Y-83898495D01*
X152157102Y-83632861D01*
X152351125Y-83355296D01*
X152525360Y-83066726D01*
X152678514Y-82768084D01*
X152789260Y-82521837D01*
X152876515Y-82299500D01*
X152942939Y-82085905D01*
X152991196Y-81865885D01*
X153023942Y-81624266D01*
X153043839Y-81345885D01*
X153053547Y-81015566D01*
X153055805Y-80618147D01*
X153052588Y-80213395D01*
X153042343Y-79882269D01*
X153021939Y-79608381D01*
X152988284Y-79375344D01*
X152938265Y-79166779D01*
X152868774Y-78966294D01*
X152776699Y-78757503D01*
X152658933Y-78524027D01*
X152504792Y-78245679D01*
X152340948Y-77980630D01*
X152167279Y-77728789D01*
X151983666Y-77490055D01*
X151789988Y-77264336D01*
X151586122Y-77051541D01*
X151371949Y-76851569D01*
X151147354Y-76664329D01*
X150912209Y-76489724D01*
X150666396Y-76327660D01*
X150409794Y-76178043D01*
X150142284Y-76040782D01*
X149863745Y-75915774D01*
X149574058Y-75802928D01*
X149273102Y-75702152D01*
X148960752Y-75613345D01*
X148780616Y-75568613D01*
X148605652Y-75529731D01*
X148435082Y-75496699D01*
X148268125Y-75469521D01*
X148104005Y-75448185D01*
X147941941Y-75432663D01*
X147781157Y-75422983D01*
X147620871Y-75419117D01*
X147460307Y-75421092D01*
X147298684Y-75428881D01*
X147135226Y-75442485D01*
X146969147Y-75461845D01*
X146799675Y-75487047D01*
X146626032Y-75518038D01*
X146447434Y-75554823D01*
X146263109Y-75597399D01*
X146263109Y-75597402D01*
X146263109Y-75597405D01*
X146263109Y-75597408D01*
X146263109Y-75597410D01*
X146263078Y-75597413D01*
X146263047Y-75597384D01*
G04 #@! TO.C,U12*
G36*
X128034691Y-75504812D02*
X127962726Y-75519403D01*
X127891186Y-75534897D01*
X127820077Y-75551294D01*
X127749403Y-75568566D01*
X127679169Y-75586713D01*
X127609381Y-75605734D01*
X127540042Y-75625603D01*
X127471157Y-75646318D01*
X127402732Y-75667880D01*
X127334771Y-75690288D01*
X127267279Y-75713515D01*
X127200260Y-75737560D01*
X127133720Y-75762424D01*
X127067662Y-75788106D01*
X127002093Y-75814579D01*
X126937017Y-75841842D01*
X126872438Y-75869894D01*
X126808361Y-75898723D01*
X126744791Y-75928317D01*
X126681733Y-75958673D01*
X126619192Y-75989782D01*
X126557172Y-76021637D01*
X126495678Y-76054228D01*
X126434715Y-76087550D01*
X126374287Y-76121594D01*
X126314400Y-76156356D01*
X126255059Y-76191823D01*
X126196267Y-76227992D01*
X126138031Y-76264850D01*
X126080353Y-76302397D01*
X126023241Y-76340619D01*
X125966697Y-76379509D01*
X125910727Y-76419062D01*
X125855336Y-76459268D01*
X125800528Y-76500122D01*
X125746308Y-76541614D01*
X125692682Y-76583739D01*
X125639654Y-76626487D01*
X125587227Y-76669851D01*
X125535409Y-76713824D01*
X125484202Y-76758398D01*
X125433612Y-76803562D01*
X125383644Y-76849316D01*
X125334302Y-76895645D01*
X125285592Y-76942545D01*
X125237517Y-76990006D01*
X125190083Y-77038026D01*
X125143294Y-77086591D01*
X125097156Y-77135698D01*
X125051673Y-77185335D01*
X125006850Y-77235500D01*
X124962691Y-77286179D01*
X124919203Y-77337368D01*
X124876388Y-77389060D01*
X124834252Y-77441246D01*
X124792800Y-77493920D01*
X124752036Y-77547071D01*
X124711966Y-77600696D01*
X124672594Y-77654781D01*
X124633925Y-77709326D01*
X124595963Y-77764317D01*
X124558713Y-77819751D01*
X124522181Y-77875620D01*
X124486371Y-77931912D01*
X124451288Y-77988621D01*
X124416936Y-78045743D01*
X124383320Y-78103266D01*
X124350445Y-78161186D01*
X124318316Y-78219493D01*
X124286937Y-78278181D01*
X124256314Y-78337239D01*
X124226452Y-78396664D01*
X124197354Y-78456444D01*
X124169026Y-78516577D01*
X124141472Y-78577049D01*
X124114698Y-78637857D01*
X124088708Y-78698992D01*
X124063505Y-78760446D01*
X124039099Y-78822213D01*
X124015488Y-78884282D01*
X123992682Y-78946647D01*
X123970683Y-79009303D01*
X123949496Y-79072239D01*
X123929128Y-79135448D01*
X123909581Y-79198923D01*
X123890862Y-79262657D01*
X123872974Y-79326640D01*
X123855923Y-79390868D01*
X123839712Y-79455330D01*
X123824348Y-79520021D01*
X123809836Y-79584932D01*
X123796179Y-79650058D01*
X123783383Y-79715387D01*
X123771451Y-79780913D01*
X123760390Y-79846629D01*
X123750205Y-79912527D01*
X123740897Y-79978598D01*
X123732476Y-80044839D01*
X123724943Y-80111237D01*
X123718303Y-80177788D01*
X123712562Y-80244483D01*
X123707725Y-80311316D01*
X123703796Y-80378276D01*
X123700779Y-80445357D01*
X123698691Y-80512552D01*
X123697506Y-80579853D01*
X123697257Y-80647253D01*
X123697934Y-80714744D01*
X123699543Y-80782319D01*
X123702111Y-80849968D01*
X123705619Y-80917684D01*
X123710078Y-80985463D01*
X123715494Y-81053292D01*
X123721869Y-81121170D01*
X123729210Y-81189083D01*
X123737521Y-81257026D01*
X123746809Y-81324990D01*
X123757076Y-81392972D01*
X123768329Y-81460959D01*
X123780569Y-81528947D01*
X123793805Y-81596926D01*
X123808040Y-81664888D01*
X123823277Y-81732830D01*
X123839522Y-81800738D01*
X123856783Y-81868610D01*
X123875059Y-81936433D01*
X123894361Y-82004203D01*
X123914689Y-82071911D01*
X123931546Y-82125694D01*
X123948889Y-82179156D01*
X123966714Y-82232295D01*
X123985022Y-82285113D01*
X124003809Y-82337607D01*
X124023074Y-82389773D01*
X124042812Y-82441611D01*
X124063022Y-82493119D01*
X124083701Y-82544298D01*
X124104848Y-82595140D01*
X124126460Y-82645649D01*
X124148536Y-82695826D01*
X124171071Y-82745660D01*
X124194067Y-82795157D01*
X124217516Y-82844314D01*
X124241421Y-82893127D01*
X124265776Y-82941599D01*
X124290581Y-82989723D01*
X124315834Y-83037498D01*
X124341530Y-83084928D01*
X124367670Y-83132006D01*
X124394250Y-83178730D01*
X124421267Y-83225102D01*
X124448718Y-83271119D01*
X124476602Y-83316779D01*
X124504918Y-83362079D01*
X124533662Y-83407020D01*
X124562832Y-83451600D01*
X124592427Y-83495816D01*
X124622443Y-83539664D01*
X124652879Y-83583149D01*
X124683731Y-83626264D01*
X124714998Y-83669010D01*
X124746678Y-83711385D01*
X124778768Y-83753386D01*
X124811266Y-83795013D01*
X124844170Y-83836263D01*
X124877477Y-83877137D01*
X124911185Y-83917630D01*
X124945292Y-83957743D01*
X124979795Y-83997474D01*
X125014693Y-84036819D01*
X125049982Y-84075779D01*
X125085660Y-84114351D01*
X125121726Y-84152535D01*
X125158177Y-84190328D01*
X125195011Y-84227728D01*
X125232225Y-84264733D01*
X125269817Y-84301343D01*
X125307785Y-84337557D01*
X125346127Y-84373371D01*
X125384839Y-84408787D01*
X125423921Y-84443800D01*
X125463370Y-84478409D01*
X125503182Y-84512614D01*
X125543357Y-84546410D01*
X125583892Y-84579800D01*
X125624784Y-84612778D01*
X125666031Y-84645343D01*
X125707631Y-84677497D01*
X125749582Y-84709236D01*
X125791881Y-84740559D01*
X125834526Y-84771463D01*
X125877515Y-84801948D01*
X125920846Y-84832014D01*
X125964515Y-84861653D01*
X126008521Y-84890871D01*
X126052862Y-84919660D01*
X126097535Y-84948024D01*
X126142538Y-84975964D01*
X126187869Y-85003452D01*
X126233525Y-85030517D01*
X126279504Y-85057159D01*
X126325805Y-85083349D01*
X126372423Y-85109116D01*
X126419358Y-85134432D01*
X126466607Y-85159324D01*
X126514167Y-85183764D01*
X126562037Y-85207753D01*
X126610213Y-85231290D01*
X126658695Y-85254404D01*
X126707479Y-85277067D01*
X126756563Y-85299278D01*
X126805945Y-85321037D01*
X126855622Y-85342345D01*
X126905593Y-85363201D01*
X126955855Y-85383606D01*
X127006406Y-85403530D01*
X127057243Y-85423004D01*
X127108364Y-85442026D01*
X127159767Y-85460568D01*
X127211449Y-85478658D01*
X127263409Y-85496269D01*
X127315644Y-85513428D01*
X127368151Y-85530107D01*
X127420929Y-85546307D01*
X127473975Y-85562055D01*
X127527287Y-85577314D01*
X127580862Y-85592100D01*
X127634698Y-85606406D01*
X127688794Y-85620235D01*
X127743146Y-85633581D01*
X127797752Y-85646445D01*
X127852610Y-85658826D01*
X127907718Y-85670722D01*
X127963074Y-85682129D01*
X128018674Y-85693048D01*
X128074518Y-85703476D01*
X128130602Y-85713413D01*
X128186924Y-85722856D01*
X128243482Y-85731806D01*
X128300274Y-85740258D01*
X128357298Y-85748211D01*
X128414550Y-85755665D01*
X128472030Y-85762616D01*
X128529734Y-85769065D01*
X128587660Y-85775008D01*
X128645806Y-85780444D01*
X128704169Y-85785372D01*
X128762748Y-85789791D01*
X128821541Y-85793700D01*
X128880543Y-85797095D01*
X128939755Y-85799977D01*
X128999172Y-85802347D01*
X129058794Y-85804182D01*
X129118617Y-85805508D01*
X129178639Y-85806327D01*
X129238859Y-85806609D01*
X129295704Y-85806385D01*
X129352422Y-85805680D01*
X129409013Y-85804494D01*
X129465476Y-85802801D01*
X129521812Y-85800628D01*
X129578022Y-85797975D01*
X129634107Y-85794823D01*
X129690066Y-85791182D01*
X129745901Y-85787050D01*
X129801611Y-85782430D01*
X129857197Y-85777319D01*
X129912660Y-85771717D01*
X129968000Y-85765627D01*
X130023218Y-85759045D01*
X130078314Y-85751973D01*
X130133288Y-85744406D01*
X130188141Y-85736349D01*
X130242875Y-85727800D01*
X130297488Y-85718758D01*
X130351979Y-85709225D01*
X130406352Y-85699197D01*
X130460609Y-85688676D01*
X130514745Y-85677661D01*
X130568765Y-85666152D01*
X130622667Y-85654149D01*
X130676453Y-85641652D01*
X130730120Y-85628659D01*
X130783675Y-85615171D01*
X130837114Y-85601187D01*
X130890437Y-85586709D01*
X130943644Y-85571734D01*
X130996738Y-85556269D01*
X131049720Y-85540295D01*
X131102589Y-85523841D01*
X131155342Y-85506880D01*
X131207987Y-85489410D01*
X131260517Y-85471461D01*
X131312940Y-85453003D01*
X131365250Y-85434038D01*
X131417450Y-85414593D01*
X131469540Y-85394640D01*
X131521519Y-85374179D01*
X131573392Y-85353238D01*
X131625157Y-85331789D01*
X131676812Y-85309832D01*
X131728360Y-85287367D01*
X131779803Y-85264423D01*
X131831137Y-85240970D01*
X131882366Y-85217009D01*
X131933490Y-85192541D01*
X131984508Y-85167592D01*
X132035423Y-85142136D01*
X132086235Y-85116171D01*
X132136942Y-85089699D01*
X132187544Y-85062718D01*
X132238045Y-85035230D01*
X132288444Y-85007262D01*
X132338739Y-84978777D01*
X132388935Y-84949790D01*
X132439032Y-84920295D01*
X132489025Y-84890298D01*
X132538922Y-84859795D01*
X132588717Y-84828787D01*
X132638414Y-84797271D01*
X132688012Y-84765251D01*
X132737513Y-84732722D01*
X132786916Y-84699685D01*
X132836221Y-84666143D01*
X132885429Y-84632092D01*
X132934541Y-84597534D01*
X132983557Y-84562468D01*
X133032481Y-84526894D01*
X133081308Y-84490809D01*
X133130042Y-84454216D01*
X133178683Y-84417115D01*
X133227231Y-84379504D01*
X133275683Y-84341381D01*
X133324044Y-84302750D01*
X133372316Y-84263606D01*
X133420494Y-84223954D01*
X133468582Y-84183791D01*
X133516576Y-84143114D01*
X133564484Y-84101927D01*
X133612303Y-84060228D01*
X133660030Y-84018016D01*
X133707669Y-83975294D01*
X133755221Y-83932054D01*
X133802685Y-83888304D01*
X133850061Y-83844040D01*
X133897353Y-83799260D01*
X133944558Y-83753969D01*
X133991675Y-83708162D01*
X134038710Y-83661841D01*
X134085658Y-83615003D01*
X134132524Y-83567652D01*
X134179305Y-83519784D01*
X134226001Y-83471400D01*
X134272616Y-83422502D01*
X134319149Y-83373085D01*
X134365597Y-83323151D01*
X134411966Y-83272699D01*
X134458253Y-83221732D01*
X134504459Y-83170246D01*
X134550585Y-83118241D01*
X134596632Y-83065720D01*
X134642601Y-83012676D01*
X134688490Y-82959116D01*
X134734300Y-82905039D01*
X134780034Y-82850440D01*
X134825692Y-82795320D01*
X134871271Y-82739682D01*
X134916774Y-82683523D01*
X134962200Y-82626841D01*
X135007554Y-82569641D01*
X135052830Y-82511918D01*
X135098034Y-82453673D01*
X135143161Y-82394906D01*
X135188218Y-82335616D01*
X135233199Y-82275805D01*
X135278109Y-82215472D01*
X135322945Y-82154613D01*
X135367711Y-82093233D01*
X135412407Y-82031327D01*
X135457032Y-81968900D01*
X135501586Y-81905947D01*
X135546070Y-81842470D01*
X135590486Y-81778467D01*
X135634832Y-81713937D01*
X135679505Y-81648617D01*
X135724178Y-81583299D01*
X135768851Y-81517979D01*
X135813527Y-81452662D01*
X135858200Y-81387341D01*
X135902873Y-81322024D01*
X135947545Y-81256703D01*
X135992218Y-81191386D01*
X136036891Y-81126065D01*
X136081564Y-81060745D01*
X136126237Y-80995428D01*
X136170913Y-80930107D01*
X136215586Y-80864790D01*
X136260259Y-80799469D01*
X136304932Y-80734152D01*
X136349605Y-80668832D01*
X136330583Y-80637138D01*
X136311561Y-80605442D01*
X136292540Y-80573748D01*
X136273518Y-80542052D01*
X136254496Y-80510358D01*
X136235474Y-80478662D01*
X136216452Y-80446968D01*
X136197431Y-80415275D01*
X136178409Y-80383578D01*
X136159387Y-80351885D01*
X136140365Y-80320188D01*
X136121344Y-80288495D01*
X136102322Y-80256798D01*
X136083300Y-80225105D01*
X136064278Y-80193409D01*
X136045256Y-80161715D01*
X135974639Y-80045389D01*
X135903005Y-79930092D01*
X135830361Y-79815854D01*
X135756732Y-79702686D01*
X135682138Y-79590604D01*
X135606601Y-79479626D01*
X135530139Y-79369766D01*
X135452773Y-79261039D01*
X135413759Y-79207107D01*
X135374524Y-79153465D01*
X135335072Y-79100116D01*
X135295409Y-79047059D01*
X135255534Y-78994300D01*
X135215453Y-78941840D01*
X135175163Y-78889680D01*
X135134672Y-78837822D01*
X135093978Y-78786268D01*
X135053090Y-78735022D01*
X135012001Y-78684084D01*
X134970724Y-78633456D01*
X134929254Y-78583142D01*
X134887595Y-78533140D01*
X134845750Y-78483458D01*
X134803724Y-78434092D01*
X134761518Y-78385047D01*
X134719134Y-78336327D01*
X134676572Y-78287932D01*
X134633838Y-78239863D01*
X134590934Y-78192123D01*
X134547864Y-78144715D01*
X134504628Y-78097640D01*
X134461228Y-78050902D01*
X134417667Y-78004499D01*
X134373951Y-77958437D01*
X134330079Y-77912714D01*
X134286052Y-77867336D01*
X134241876Y-77822304D01*
X134197553Y-77777620D01*
X134153086Y-77733286D01*
X134108475Y-77689302D01*
X134063726Y-77645673D01*
X134018836Y-77602400D01*
X133973813Y-77559485D01*
X133928658Y-77516929D01*
X133883372Y-77474736D01*
X133837960Y-77432908D01*
X133792423Y-77391444D01*
X133746765Y-77350350D01*
X133700986Y-77309625D01*
X133655088Y-77269273D01*
X133609078Y-77229293D01*
X133562954Y-77189692D01*
X133516720Y-77150472D01*
X133470382Y-77111629D01*
X133423937Y-77073168D01*
X133377390Y-77035094D01*
X133330744Y-76997406D01*
X133284000Y-76960104D01*
X133237162Y-76923198D01*
X133190234Y-76886681D01*
X133143216Y-76850560D01*
X133096110Y-76814836D01*
X133048920Y-76779513D01*
X133001648Y-76744588D01*
X132954297Y-76710067D01*
X132906869Y-76675952D01*
X132859368Y-76642246D01*
X132811794Y-76608946D01*
X132764149Y-76576062D01*
X132716440Y-76543587D01*
X132668668Y-76511529D01*
X132620831Y-76479889D01*
X132572938Y-76448670D01*
X132524986Y-76417871D01*
X132476983Y-76387495D01*
X132428926Y-76357546D01*
X132380821Y-76328025D01*
X132332668Y-76298934D01*
X132284476Y-76270274D01*
X132236239Y-76242049D01*
X132187965Y-76214250D01*
X132139651Y-76186903D01*
X132091306Y-76159979D01*
X132042931Y-76133506D01*
X131994524Y-76107486D01*
X131946092Y-76081916D01*
X131897637Y-76056798D01*
X131849162Y-76032132D01*
X131800668Y-76007918D01*
X131752157Y-75984154D01*
X131703635Y-75960843D01*
X131655098Y-75937983D01*
X131606556Y-75915574D01*
X131558008Y-75893646D01*
X131509454Y-75872169D01*
X131460901Y-75851171D01*
X131412350Y-75830654D01*
X131363802Y-75810588D01*
X131315263Y-75791002D01*
X131266732Y-75771895D01*
X131218212Y-75753268D01*
X131169707Y-75735122D01*
X131121218Y-75717454D01*
X131072749Y-75700267D01*
X131024303Y-75683560D01*
X130975879Y-75667332D01*
X130927484Y-75651612D01*
X130879119Y-75636372D01*
X130830786Y-75621640D01*
X130782487Y-75607388D01*
X130734224Y-75593644D01*
X130686000Y-75580379D01*
X130637819Y-75567623D01*
X130589686Y-75555374D01*
X130541596Y-75543634D01*
X130493559Y-75532401D01*
X130445573Y-75521677D01*
X130397640Y-75511460D01*
X130349767Y-75501780D01*
X130301952Y-75492608D01*
X130281491Y-75488798D01*
X130261171Y-75485073D01*
X130240992Y-75481404D01*
X130220926Y-75477791D01*
X130201002Y-75474235D01*
X130181190Y-75470736D01*
X130161499Y-75467321D01*
X130141927Y-75463962D01*
X130122470Y-75460660D01*
X130103130Y-75457415D01*
X130083902Y-75454226D01*
X130064784Y-75451093D01*
X130045777Y-75448017D01*
X130026876Y-75444997D01*
X130008077Y-75442062D01*
X129989383Y-75439183D01*
X129970784Y-75436361D01*
X129952285Y-75433539D01*
X129933881Y-75430717D01*
X129915573Y-75428177D01*
X129897356Y-75425637D01*
X129879229Y-75423097D01*
X129861189Y-75420557D01*
X129843234Y-75418017D01*
X129825361Y-75415759D01*
X129807570Y-75413501D01*
X129789857Y-75411243D01*
X129772221Y-75408986D01*
X129754662Y-75407010D01*
X129737172Y-75405034D01*
X129719756Y-75403059D01*
X129702408Y-75401083D01*
X129685125Y-75399108D01*
X129667906Y-75397414D01*
X129650750Y-75395721D01*
X129633653Y-75394028D01*
X129616615Y-75392334D01*
X129599631Y-75390923D01*
X129582704Y-75389512D01*
X129565827Y-75388101D01*
X129548998Y-75386690D01*
X129532217Y-75385279D01*
X129515481Y-75384150D01*
X129498788Y-75383021D01*
X129482136Y-75381892D01*
X129465525Y-75380763D01*
X129448950Y-75379917D01*
X129432409Y-75379070D01*
X129415902Y-75378223D01*
X129399423Y-75377377D01*
X129382972Y-75376530D01*
X129366547Y-75375966D01*
X129350147Y-75375401D01*
X129333767Y-75374837D01*
X129317409Y-75374272D01*
X129301068Y-75373708D01*
X129284742Y-75373426D01*
X129268432Y-75373143D01*
X129252131Y-75372909D01*
X129235841Y-75372740D01*
X129219560Y-75372632D01*
X129203281Y-75372590D01*
X129187005Y-75372607D01*
X129170732Y-75372683D01*
X129154457Y-75372816D01*
X129138178Y-75373002D01*
X129121894Y-75373239D01*
X129105601Y-75373521D01*
X129089300Y-75373804D01*
X129072988Y-75374086D01*
X129056661Y-75374650D01*
X129040318Y-75375215D01*
X129023957Y-75375779D01*
X129007577Y-75376344D01*
X128991174Y-75377190D01*
X128974746Y-75378037D01*
X128958293Y-75378884D01*
X128941811Y-75379730D01*
X128925298Y-75380859D01*
X128908751Y-75381988D01*
X128892171Y-75383117D01*
X128875553Y-75384246D01*
X128858897Y-75385375D01*
X128842198Y-75386786D01*
X128825456Y-75388197D01*
X128808667Y-75389608D01*
X128791832Y-75391019D01*
X128774947Y-75392430D01*
X128758011Y-75394124D01*
X128741021Y-75395817D01*
X128723975Y-75397510D01*
X128706869Y-75399204D01*
X128689704Y-75401179D01*
X128672478Y-75403155D01*
X128655186Y-75405130D01*
X128637826Y-75407106D01*
X128620399Y-75409081D01*
X128602901Y-75411339D01*
X128585330Y-75413597D01*
X128567683Y-75415855D01*
X128549959Y-75418113D01*
X128532157Y-75420653D01*
X128514272Y-75423193D01*
X128496303Y-75425733D01*
X128478249Y-75428273D01*
X128460108Y-75430813D01*
X128441877Y-75433635D01*
X128423555Y-75436457D01*
X128405137Y-75439279D01*
X128386623Y-75442186D01*
X128368013Y-75445149D01*
X128349302Y-75448169D01*
X128330489Y-75451245D01*
X128311572Y-75454406D01*
X128292547Y-75457624D01*
X128273413Y-75460897D01*
X128254168Y-75464228D01*
X128234810Y-75467614D01*
X128215337Y-75471086D01*
X128195748Y-75474613D01*
X128176037Y-75478198D01*
X128156206Y-75481838D01*
X128136250Y-75485535D01*
X128116170Y-75489317D01*
X128095963Y-75493155D01*
X128075626Y-75497050D01*
X128055156Y-75501001D01*
X128034554Y-75505037D01*
X128034554Y-75505040D01*
X128034554Y-75505043D01*
X128034554Y-75505045D01*
X128034554Y-75505048D01*
X128034570Y-75505043D01*
X128034586Y-75505037D01*
X128034602Y-75505031D01*
X128034619Y-75505026D01*
X128034635Y-75505017D01*
X128034651Y-75505012D01*
X128034667Y-75505006D01*
X128034691Y-75504812D01*
X128034691Y-75504812D01*
G37*
X128034691Y-75504812D02*
X127962726Y-75519403D01*
X127891186Y-75534897D01*
X127820077Y-75551294D01*
X127749403Y-75568566D01*
X127679169Y-75586713D01*
X127609381Y-75605734D01*
X127540042Y-75625603D01*
X127471157Y-75646318D01*
X127402732Y-75667880D01*
X127334771Y-75690288D01*
X127267279Y-75713515D01*
X127200260Y-75737560D01*
X127133720Y-75762424D01*
X127067662Y-75788106D01*
X127002093Y-75814579D01*
X126937017Y-75841842D01*
X126872438Y-75869894D01*
X126808361Y-75898723D01*
X126744791Y-75928317D01*
X126681733Y-75958673D01*
X126619192Y-75989782D01*
X126557172Y-76021637D01*
X126495678Y-76054228D01*
X126434715Y-76087550D01*
X126374287Y-76121594D01*
X126314400Y-76156356D01*
X126255059Y-76191823D01*
X126196267Y-76227992D01*
X126138031Y-76264850D01*
X126080353Y-76302397D01*
X126023241Y-76340619D01*
X125966697Y-76379509D01*
X125910727Y-76419062D01*
X125855336Y-76459268D01*
X125800528Y-76500122D01*
X125746308Y-76541614D01*
X125692682Y-76583739D01*
X125639654Y-76626487D01*
X125587227Y-76669851D01*
X125535409Y-76713824D01*
X125484202Y-76758398D01*
X125433612Y-76803562D01*
X125383644Y-76849316D01*
X125334302Y-76895645D01*
X125285592Y-76942545D01*
X125237517Y-76990006D01*
X125190083Y-77038026D01*
X125143294Y-77086591D01*
X125097156Y-77135698D01*
X125051673Y-77185335D01*
X125006850Y-77235500D01*
X124962691Y-77286179D01*
X124919203Y-77337368D01*
X124876388Y-77389060D01*
X124834252Y-77441246D01*
X124792800Y-77493920D01*
X124752036Y-77547071D01*
X124711966Y-77600696D01*
X124672594Y-77654781D01*
X124633925Y-77709326D01*
X124595963Y-77764317D01*
X124558713Y-77819751D01*
X124522181Y-77875620D01*
X124486371Y-77931912D01*
X124451288Y-77988621D01*
X124416936Y-78045743D01*
X124383320Y-78103266D01*
X124350445Y-78161186D01*
X124318316Y-78219493D01*
X124286937Y-78278181D01*
X124256314Y-78337239D01*
X124226452Y-78396664D01*
X124197354Y-78456444D01*
X124169026Y-78516577D01*
X124141472Y-78577049D01*
X124114698Y-78637857D01*
X124088708Y-78698992D01*
X124063505Y-78760446D01*
X124039099Y-78822213D01*
X124015488Y-78884282D01*
X123992682Y-78946647D01*
X123970683Y-79009303D01*
X123949496Y-79072239D01*
X123929128Y-79135448D01*
X123909581Y-79198923D01*
X123890862Y-79262657D01*
X123872974Y-79326640D01*
X123855923Y-79390868D01*
X123839712Y-79455330D01*
X123824348Y-79520021D01*
X123809836Y-79584932D01*
X123796179Y-79650058D01*
X123783383Y-79715387D01*
X123771451Y-79780913D01*
X123760390Y-79846629D01*
X123750205Y-79912527D01*
X123740897Y-79978598D01*
X123732476Y-80044839D01*
X123724943Y-80111237D01*
X123718303Y-80177788D01*
X123712562Y-80244483D01*
X123707725Y-80311316D01*
X123703796Y-80378276D01*
X123700779Y-80445357D01*
X123698691Y-80512552D01*
X123697506Y-80579853D01*
X123697257Y-80647253D01*
X123697934Y-80714744D01*
X123699543Y-80782319D01*
X123702111Y-80849968D01*
X123705619Y-80917684D01*
X123710078Y-80985463D01*
X123715494Y-81053292D01*
X123721869Y-81121170D01*
X123729210Y-81189083D01*
X123737521Y-81257026D01*
X123746809Y-81324990D01*
X123757076Y-81392972D01*
X123768329Y-81460959D01*
X123780569Y-81528947D01*
X123793805Y-81596926D01*
X123808040Y-81664888D01*
X123823277Y-81732830D01*
X123839522Y-81800738D01*
X123856783Y-81868610D01*
X123875059Y-81936433D01*
X123894361Y-82004203D01*
X123914689Y-82071911D01*
X123931546Y-82125694D01*
X123948889Y-82179156D01*
X123966714Y-82232295D01*
X123985022Y-82285113D01*
X124003809Y-82337607D01*
X124023074Y-82389773D01*
X124042812Y-82441611D01*
X124063022Y-82493119D01*
X124083701Y-82544298D01*
X124104848Y-82595140D01*
X124126460Y-82645649D01*
X124148536Y-82695826D01*
X124171071Y-82745660D01*
X124194067Y-82795157D01*
X124217516Y-82844314D01*
X124241421Y-82893127D01*
X124265776Y-82941599D01*
X124290581Y-82989723D01*
X124315834Y-83037498D01*
X124341530Y-83084928D01*
X124367670Y-83132006D01*
X124394250Y-83178730D01*
X124421267Y-83225102D01*
X124448718Y-83271119D01*
X124476602Y-83316779D01*
X124504918Y-83362079D01*
X124533662Y-83407020D01*
X124562832Y-83451600D01*
X124592427Y-83495816D01*
X124622443Y-83539664D01*
X124652879Y-83583149D01*
X124683731Y-83626264D01*
X124714998Y-83669010D01*
X124746678Y-83711385D01*
X124778768Y-83753386D01*
X124811266Y-83795013D01*
X124844170Y-83836263D01*
X124877477Y-83877137D01*
X124911185Y-83917630D01*
X124945292Y-83957743D01*
X124979795Y-83997474D01*
X125014693Y-84036819D01*
X125049982Y-84075779D01*
X125085660Y-84114351D01*
X125121726Y-84152535D01*
X125158177Y-84190328D01*
X125195011Y-84227728D01*
X125232225Y-84264733D01*
X125269817Y-84301343D01*
X125307785Y-84337557D01*
X125346127Y-84373371D01*
X125384839Y-84408787D01*
X125423921Y-84443800D01*
X125463370Y-84478409D01*
X125503182Y-84512614D01*
X125543357Y-84546410D01*
X125583892Y-84579800D01*
X125624784Y-84612778D01*
X125666031Y-84645343D01*
X125707631Y-84677497D01*
X125749582Y-84709236D01*
X125791881Y-84740559D01*
X125834526Y-84771463D01*
X125877515Y-84801948D01*
X125920846Y-84832014D01*
X125964515Y-84861653D01*
X126008521Y-84890871D01*
X126052862Y-84919660D01*
X126097535Y-84948024D01*
X126142538Y-84975964D01*
X126187869Y-85003452D01*
X126233525Y-85030517D01*
X126279504Y-85057159D01*
X126325805Y-85083349D01*
X126372423Y-85109116D01*
X126419358Y-85134432D01*
X126466607Y-85159324D01*
X126514167Y-85183764D01*
X126562037Y-85207753D01*
X126610213Y-85231290D01*
X126658695Y-85254404D01*
X126707479Y-85277067D01*
X126756563Y-85299278D01*
X126805945Y-85321037D01*
X126855622Y-85342345D01*
X126905593Y-85363201D01*
X126955855Y-85383606D01*
X127006406Y-85403530D01*
X127057243Y-85423004D01*
X127108364Y-85442026D01*
X127159767Y-85460568D01*
X127211449Y-85478658D01*
X127263409Y-85496269D01*
X127315644Y-85513428D01*
X127368151Y-85530107D01*
X127420929Y-85546307D01*
X127473975Y-85562055D01*
X127527287Y-85577314D01*
X127580862Y-85592100D01*
X127634698Y-85606406D01*
X127688794Y-85620235D01*
X127743146Y-85633581D01*
X127797752Y-85646445D01*
X127852610Y-85658826D01*
X127907718Y-85670722D01*
X127963074Y-85682129D01*
X128018674Y-85693048D01*
X128074518Y-85703476D01*
X128130602Y-85713413D01*
X128186924Y-85722856D01*
X128243482Y-85731806D01*
X128300274Y-85740258D01*
X128357298Y-85748211D01*
X128414550Y-85755665D01*
X128472030Y-85762616D01*
X128529734Y-85769065D01*
X128587660Y-85775008D01*
X128645806Y-85780444D01*
X128704169Y-85785372D01*
X128762748Y-85789791D01*
X128821541Y-85793700D01*
X128880543Y-85797095D01*
X128939755Y-85799977D01*
X128999172Y-85802347D01*
X129058794Y-85804182D01*
X129118617Y-85805508D01*
X129178639Y-85806327D01*
X129238859Y-85806609D01*
X129295704Y-85806385D01*
X129352422Y-85805680D01*
X129409013Y-85804494D01*
X129465476Y-85802801D01*
X129521812Y-85800628D01*
X129578022Y-85797975D01*
X129634107Y-85794823D01*
X129690066Y-85791182D01*
X129745901Y-85787050D01*
X129801611Y-85782430D01*
X129857197Y-85777319D01*
X129912660Y-85771717D01*
X129968000Y-85765627D01*
X130023218Y-85759045D01*
X130078314Y-85751973D01*
X130133288Y-85744406D01*
X130188141Y-85736349D01*
X130242875Y-85727800D01*
X130297488Y-85718758D01*
X130351979Y-85709225D01*
X130406352Y-85699197D01*
X130460609Y-85688676D01*
X130514745Y-85677661D01*
X130568765Y-85666152D01*
X130622667Y-85654149D01*
X130676453Y-85641652D01*
X130730120Y-85628659D01*
X130783675Y-85615171D01*
X130837114Y-85601187D01*
X130890437Y-85586709D01*
X130943644Y-85571734D01*
X130996738Y-85556269D01*
X131049720Y-85540295D01*
X131102589Y-85523841D01*
X131155342Y-85506880D01*
X131207987Y-85489410D01*
X131260517Y-85471461D01*
X131312940Y-85453003D01*
X131365250Y-85434038D01*
X131417450Y-85414593D01*
X131469540Y-85394640D01*
X131521519Y-85374179D01*
X131573392Y-85353238D01*
X131625157Y-85331789D01*
X131676812Y-85309832D01*
X131728360Y-85287367D01*
X131779803Y-85264423D01*
X131831137Y-85240970D01*
X131882366Y-85217009D01*
X131933490Y-85192541D01*
X131984508Y-85167592D01*
X132035423Y-85142136D01*
X132086235Y-85116171D01*
X132136942Y-85089699D01*
X132187544Y-85062718D01*
X132238045Y-85035230D01*
X132288444Y-85007262D01*
X132338739Y-84978777D01*
X132388935Y-84949790D01*
X132439032Y-84920295D01*
X132489025Y-84890298D01*
X132538922Y-84859795D01*
X132588717Y-84828787D01*
X132638414Y-84797271D01*
X132688012Y-84765251D01*
X132737513Y-84732722D01*
X132786916Y-84699685D01*
X132836221Y-84666143D01*
X132885429Y-84632092D01*
X132934541Y-84597534D01*
X132983557Y-84562468D01*
X133032481Y-84526894D01*
X133081308Y-84490809D01*
X133130042Y-84454216D01*
X133178683Y-84417115D01*
X133227231Y-84379504D01*
X133275683Y-84341381D01*
X133324044Y-84302750D01*
X133372316Y-84263606D01*
X133420494Y-84223954D01*
X133468582Y-84183791D01*
X133516576Y-84143114D01*
X133564484Y-84101927D01*
X133612303Y-84060228D01*
X133660030Y-84018016D01*
X133707669Y-83975294D01*
X133755221Y-83932054D01*
X133802685Y-83888304D01*
X133850061Y-83844040D01*
X133897353Y-83799260D01*
X133944558Y-83753969D01*
X133991675Y-83708162D01*
X134038710Y-83661841D01*
X134085658Y-83615003D01*
X134132524Y-83567652D01*
X134179305Y-83519784D01*
X134226001Y-83471400D01*
X134272616Y-83422502D01*
X134319149Y-83373085D01*
X134365597Y-83323151D01*
X134411966Y-83272699D01*
X134458253Y-83221732D01*
X134504459Y-83170246D01*
X134550585Y-83118241D01*
X134596632Y-83065720D01*
X134642601Y-83012676D01*
X134688490Y-82959116D01*
X134734300Y-82905039D01*
X134780034Y-82850440D01*
X134825692Y-82795320D01*
X134871271Y-82739682D01*
X134916774Y-82683523D01*
X134962200Y-82626841D01*
X135007554Y-82569641D01*
X135052830Y-82511918D01*
X135098034Y-82453673D01*
X135143161Y-82394906D01*
X135188218Y-82335616D01*
X135233199Y-82275805D01*
X135278109Y-82215472D01*
X135322945Y-82154613D01*
X135367711Y-82093233D01*
X135412407Y-82031327D01*
X135457032Y-81968900D01*
X135501586Y-81905947D01*
X135546070Y-81842470D01*
X135590486Y-81778467D01*
X135634832Y-81713937D01*
X135679505Y-81648617D01*
X135724178Y-81583299D01*
X135768851Y-81517979D01*
X135813527Y-81452662D01*
X135858200Y-81387341D01*
X135902873Y-81322024D01*
X135947545Y-81256703D01*
X135992218Y-81191386D01*
X136036891Y-81126065D01*
X136081564Y-81060745D01*
X136126237Y-80995428D01*
X136170913Y-80930107D01*
X136215586Y-80864790D01*
X136260259Y-80799469D01*
X136304932Y-80734152D01*
X136349605Y-80668832D01*
X136330583Y-80637138D01*
X136311561Y-80605442D01*
X136292540Y-80573748D01*
X136273518Y-80542052D01*
X136254496Y-80510358D01*
X136235474Y-80478662D01*
X136216452Y-80446968D01*
X136197431Y-80415275D01*
X136178409Y-80383578D01*
X136159387Y-80351885D01*
X136140365Y-80320188D01*
X136121344Y-80288495D01*
X136102322Y-80256798D01*
X136083300Y-80225105D01*
X136064278Y-80193409D01*
X136045256Y-80161715D01*
X135974639Y-80045389D01*
X135903005Y-79930092D01*
X135830361Y-79815854D01*
X135756732Y-79702686D01*
X135682138Y-79590604D01*
X135606601Y-79479626D01*
X135530139Y-79369766D01*
X135452773Y-79261039D01*
X135413759Y-79207107D01*
X135374524Y-79153465D01*
X135335072Y-79100116D01*
X135295409Y-79047059D01*
X135255534Y-78994300D01*
X135215453Y-78941840D01*
X135175163Y-78889680D01*
X135134672Y-78837822D01*
X135093978Y-78786268D01*
X135053090Y-78735022D01*
X135012001Y-78684084D01*
X134970724Y-78633456D01*
X134929254Y-78583142D01*
X134887595Y-78533140D01*
X134845750Y-78483458D01*
X134803724Y-78434092D01*
X134761518Y-78385047D01*
X134719134Y-78336327D01*
X134676572Y-78287932D01*
X134633838Y-78239863D01*
X134590934Y-78192123D01*
X134547864Y-78144715D01*
X134504628Y-78097640D01*
X134461228Y-78050902D01*
X134417667Y-78004499D01*
X134373951Y-77958437D01*
X134330079Y-77912714D01*
X134286052Y-77867336D01*
X134241876Y-77822304D01*
X134197553Y-77777620D01*
X134153086Y-77733286D01*
X134108475Y-77689302D01*
X134063726Y-77645673D01*
X134018836Y-77602400D01*
X133973813Y-77559485D01*
X133928658Y-77516929D01*
X133883372Y-77474736D01*
X133837960Y-77432908D01*
X133792423Y-77391444D01*
X133746765Y-77350350D01*
X133700986Y-77309625D01*
X133655088Y-77269273D01*
X133609078Y-77229293D01*
X133562954Y-77189692D01*
X133516720Y-77150472D01*
X133470382Y-77111629D01*
X133423937Y-77073168D01*
X133377390Y-77035094D01*
X133330744Y-76997406D01*
X133284000Y-76960104D01*
X133237162Y-76923198D01*
X133190234Y-76886681D01*
X133143216Y-76850560D01*
X133096110Y-76814836D01*
X133048920Y-76779513D01*
X133001648Y-76744588D01*
X132954297Y-76710067D01*
X132906869Y-76675952D01*
X132859368Y-76642246D01*
X132811794Y-76608946D01*
X132764149Y-76576062D01*
X132716440Y-76543587D01*
X132668668Y-76511529D01*
X132620831Y-76479889D01*
X132572938Y-76448670D01*
X132524986Y-76417871D01*
X132476983Y-76387495D01*
X132428926Y-76357546D01*
X132380821Y-76328025D01*
X132332668Y-76298934D01*
X132284476Y-76270274D01*
X132236239Y-76242049D01*
X132187965Y-76214250D01*
X132139651Y-76186903D01*
X132091306Y-76159979D01*
X132042931Y-76133506D01*
X131994524Y-76107486D01*
X131946092Y-76081916D01*
X131897637Y-76056798D01*
X131849162Y-76032132D01*
X131800668Y-76007918D01*
X131752157Y-75984154D01*
X131703635Y-75960843D01*
X131655098Y-75937983D01*
X131606556Y-75915574D01*
X131558008Y-75893646D01*
X131509454Y-75872169D01*
X131460901Y-75851171D01*
X131412350Y-75830654D01*
X131363802Y-75810588D01*
X131315263Y-75791002D01*
X131266732Y-75771895D01*
X131218212Y-75753268D01*
X131169707Y-75735122D01*
X131121218Y-75717454D01*
X131072749Y-75700267D01*
X131024303Y-75683560D01*
X130975879Y-75667332D01*
X130927484Y-75651612D01*
X130879119Y-75636372D01*
X130830786Y-75621640D01*
X130782487Y-75607388D01*
X130734224Y-75593644D01*
X130686000Y-75580379D01*
X130637819Y-75567623D01*
X130589686Y-75555374D01*
X130541596Y-75543634D01*
X130493559Y-75532401D01*
X130445573Y-75521677D01*
X130397640Y-75511460D01*
X130349767Y-75501780D01*
X130301952Y-75492608D01*
X130281491Y-75488798D01*
X130261171Y-75485073D01*
X130240992Y-75481404D01*
X130220926Y-75477791D01*
X130201002Y-75474235D01*
X130181190Y-75470736D01*
X130161499Y-75467321D01*
X130141927Y-75463962D01*
X130122470Y-75460660D01*
X130103130Y-75457415D01*
X130083902Y-75454226D01*
X130064784Y-75451093D01*
X130045777Y-75448017D01*
X130026876Y-75444997D01*
X130008077Y-75442062D01*
X129989383Y-75439183D01*
X129970784Y-75436361D01*
X129952285Y-75433539D01*
X129933881Y-75430717D01*
X129915573Y-75428177D01*
X129897356Y-75425637D01*
X129879229Y-75423097D01*
X129861189Y-75420557D01*
X129843234Y-75418017D01*
X129825361Y-75415759D01*
X129807570Y-75413501D01*
X129789857Y-75411243D01*
X129772221Y-75408986D01*
X129754662Y-75407010D01*
X129737172Y-75405034D01*
X129719756Y-75403059D01*
X129702408Y-75401083D01*
X129685125Y-75399108D01*
X129667906Y-75397414D01*
X129650750Y-75395721D01*
X129633653Y-75394028D01*
X129616615Y-75392334D01*
X129599631Y-75390923D01*
X129582704Y-75389512D01*
X129565827Y-75388101D01*
X129548998Y-75386690D01*
X129532217Y-75385279D01*
X129515481Y-75384150D01*
X129498788Y-75383021D01*
X129482136Y-75381892D01*
X129465525Y-75380763D01*
X129448950Y-75379917D01*
X129432409Y-75379070D01*
X129415902Y-75378223D01*
X129399423Y-75377377D01*
X129382972Y-75376530D01*
X129366547Y-75375966D01*
X129350147Y-75375401D01*
X129333767Y-75374837D01*
X129317409Y-75374272D01*
X129301068Y-75373708D01*
X129284742Y-75373426D01*
X129268432Y-75373143D01*
X129252131Y-75372909D01*
X129235841Y-75372740D01*
X129219560Y-75372632D01*
X129203281Y-75372590D01*
X129187005Y-75372607D01*
X129170732Y-75372683D01*
X129154457Y-75372816D01*
X129138178Y-75373002D01*
X129121894Y-75373239D01*
X129105601Y-75373521D01*
X129089300Y-75373804D01*
X129072988Y-75374086D01*
X129056661Y-75374650D01*
X129040318Y-75375215D01*
X129023957Y-75375779D01*
X129007577Y-75376344D01*
X128991174Y-75377190D01*
X128974746Y-75378037D01*
X128958293Y-75378884D01*
X128941811Y-75379730D01*
X128925298Y-75380859D01*
X128908751Y-75381988D01*
X128892171Y-75383117D01*
X128875553Y-75384246D01*
X128858897Y-75385375D01*
X128842198Y-75386786D01*
X128825456Y-75388197D01*
X128808667Y-75389608D01*
X128791832Y-75391019D01*
X128774947Y-75392430D01*
X128758011Y-75394124D01*
X128741021Y-75395817D01*
X128723975Y-75397510D01*
X128706869Y-75399204D01*
X128689704Y-75401179D01*
X128672478Y-75403155D01*
X128655186Y-75405130D01*
X128637826Y-75407106D01*
X128620399Y-75409081D01*
X128602901Y-75411339D01*
X128585330Y-75413597D01*
X128567683Y-75415855D01*
X128549959Y-75418113D01*
X128532157Y-75420653D01*
X128514272Y-75423193D01*
X128496303Y-75425733D01*
X128478249Y-75428273D01*
X128460108Y-75430813D01*
X128441877Y-75433635D01*
X128423555Y-75436457D01*
X128405137Y-75439279D01*
X128386623Y-75442186D01*
X128368013Y-75445149D01*
X128349302Y-75448169D01*
X128330489Y-75451245D01*
X128311572Y-75454406D01*
X128292547Y-75457624D01*
X128273413Y-75460897D01*
X128254168Y-75464228D01*
X128234810Y-75467614D01*
X128215337Y-75471086D01*
X128195748Y-75474613D01*
X128176037Y-75478198D01*
X128156206Y-75481838D01*
X128136250Y-75485535D01*
X128116170Y-75489317D01*
X128095963Y-75493155D01*
X128075626Y-75497050D01*
X128055156Y-75501001D01*
X128034554Y-75505037D01*
X128034554Y-75505040D01*
X128034554Y-75505043D01*
X128034554Y-75505045D01*
X128034554Y-75505048D01*
X128034570Y-75505043D01*
X128034586Y-75505037D01*
X128034602Y-75505031D01*
X128034619Y-75505026D01*
X128034635Y-75505017D01*
X128034651Y-75505012D01*
X128034667Y-75505006D01*
X128034691Y-75504812D01*
D12*
G04 #@! TO.C,U1*
G36*
X140649452Y-138286047D02*
X140513759Y-138186304D01*
X140379464Y-138085937D01*
X140246594Y-137984970D01*
X140115174Y-137883432D01*
X139985225Y-137781341D01*
X139856780Y-137678722D01*
X139729859Y-137575603D01*
X139604490Y-137472008D01*
X139480696Y-137367958D01*
X139358503Y-137263483D01*
X139237937Y-137158600D01*
X139119026Y-137053340D01*
X139001791Y-136947724D01*
X138886260Y-136841775D01*
X138772457Y-136735521D01*
X138660409Y-136628985D01*
X138550139Y-136522189D01*
X138441673Y-136415162D01*
X138335041Y-136307926D01*
X138230260Y-136200504D01*
X138127362Y-136092924D01*
X138026371Y-135985205D01*
X137927311Y-135877373D01*
X137830210Y-135769457D01*
X137735090Y-135661476D01*
X137641979Y-135553456D01*
X137550900Y-135445424D01*
X137461882Y-135337401D01*
X137374946Y-135229411D01*
X137290119Y-135121484D01*
X137207427Y-135013635D01*
X137126898Y-134905897D01*
X137052981Y-134805110D01*
X136983896Y-134709583D01*
X136919152Y-134618516D01*
X136858251Y-134531103D01*
X136800706Y-134446543D01*
X136746017Y-134364036D01*
X136693698Y-134282778D01*
X136643251Y-134201964D01*
X136594187Y-134120791D01*
X136546009Y-134038461D01*
X136498226Y-133954170D01*
X136450347Y-133867116D01*
X136401875Y-133776491D01*
X136352320Y-133681501D01*
X136301186Y-133581338D01*
X136247985Y-133475200D01*
X136175555Y-133325977D01*
X136107551Y-133178502D01*
X136043975Y-133032760D01*
X135984824Y-132888739D01*
X135930098Y-132746426D01*
X135879800Y-132605811D01*
X135833925Y-132466882D01*
X135792478Y-132329628D01*
X135755453Y-132194035D01*
X135722854Y-132060092D01*
X135694688Y-131927789D01*
X135670925Y-131797112D01*
X135651593Y-131668049D01*
X135636691Y-131540589D01*
X135626221Y-131414720D01*
X135620153Y-131290433D01*
X135618460Y-131167708D01*
X135621282Y-131046542D01*
X135628507Y-130926919D01*
X135640106Y-130808826D01*
X135656137Y-130692254D01*
X135676598Y-130577192D01*
X135701490Y-130463623D01*
X135730790Y-130351541D01*
X135764507Y-130240933D01*
X135802647Y-130131781D01*
X135845200Y-130024082D01*
X135892173Y-129917817D01*
X135943563Y-129812977D01*
X135999370Y-129709551D01*
X136059590Y-129607527D01*
X136124230Y-129506893D01*
X136223389Y-129367235D01*
X136328737Y-129235177D01*
X136439924Y-129110763D01*
X136556600Y-128994030D01*
X136678413Y-128885019D01*
X136805007Y-128783766D01*
X136936034Y-128690314D01*
X137071139Y-128604704D01*
X137209973Y-128526969D01*
X137352182Y-128457153D01*
X137497416Y-128395295D01*
X137645321Y-128341433D01*
X137795545Y-128295606D01*
X137947739Y-128257856D01*
X138101544Y-128228220D01*
X138256617Y-128206743D01*
X138412601Y-128193450D01*
X138569141Y-128188398D01*
X138725890Y-128191616D01*
X138882498Y-128203130D01*
X139038609Y-128222999D01*
X139193871Y-128251272D01*
X139347931Y-128287966D01*
X139500441Y-128333136D01*
X139651046Y-128386809D01*
X139799396Y-128449028D01*
X139945135Y-128519834D01*
X140087917Y-128599269D01*
X140227386Y-128687367D01*
X140363191Y-128784169D01*
X140494980Y-128889715D01*
X140622401Y-129004046D01*
X140626945Y-129008364D01*
X140631488Y-129012682D01*
X140636032Y-129017000D01*
X140640604Y-129021318D01*
X140645148Y-129025636D01*
X140649692Y-129029954D01*
X140654264Y-129034272D01*
X140658836Y-129038590D01*
X140667923Y-129047226D01*
X140677039Y-129055862D01*
X140686127Y-129064498D01*
X140695214Y-129073134D01*
X140704302Y-129081770D01*
X140713389Y-129090406D01*
X140722505Y-129099042D01*
X140731593Y-129107678D01*
X140740708Y-129116314D01*
X140749796Y-129124950D01*
X140758912Y-129133586D01*
X140767999Y-129142222D01*
X140785356Y-129162627D01*
X140803446Y-129181507D01*
X140822186Y-129198864D01*
X140841546Y-129214725D01*
X140861443Y-129229118D01*
X140881820Y-129242072D01*
X140902619Y-129253587D01*
X140923786Y-129263690D01*
X140945263Y-129272411D01*
X140966966Y-129279777D01*
X140988866Y-129285788D01*
X141010880Y-129290473D01*
X141032950Y-129293860D01*
X141055019Y-129295836D01*
X141077004Y-129296682D01*
X141098877Y-129296400D01*
X141120551Y-129294707D01*
X141141972Y-129291856D01*
X141163110Y-129287820D01*
X141183854Y-129282628D01*
X141204174Y-129276306D01*
X141224014Y-129268855D01*
X141243290Y-129260304D01*
X141261973Y-129250652D01*
X141279979Y-129239956D01*
X141297251Y-129228215D01*
X141313732Y-129215459D01*
X141329339Y-129201686D01*
X141344043Y-129186954D01*
X141357759Y-129171263D01*
X141370431Y-129154612D01*
X141382030Y-129137057D01*
X141394533Y-129125853D01*
X141407035Y-129114649D01*
X141419538Y-129103445D01*
X141432040Y-129092240D01*
X141444542Y-129081036D01*
X141457045Y-129069832D01*
X141469547Y-129058628D01*
X141482050Y-129047424D01*
X141494552Y-129036219D01*
X141500818Y-129030603D01*
X141507083Y-129025015D01*
X141513320Y-129019399D01*
X141519585Y-129013783D01*
X141525822Y-129008195D01*
X141532088Y-129002578D01*
X141538353Y-128996962D01*
X141544590Y-128991374D01*
X141550856Y-128985758D01*
X141557121Y-128980142D01*
X141563358Y-128974554D01*
X141569623Y-128968938D01*
X141575860Y-128963321D01*
X141582126Y-128957733D01*
X141688938Y-128866307D01*
X141798593Y-128780633D01*
X141910906Y-128700708D01*
X142025692Y-128626534D01*
X142142766Y-128558121D01*
X142261945Y-128495462D01*
X142383047Y-128438566D01*
X142505884Y-128387438D01*
X142630274Y-128342077D01*
X142756029Y-128302487D01*
X142882970Y-128268671D01*
X143010910Y-128240618D01*
X143139662Y-128218351D01*
X143269047Y-128201869D01*
X143398878Y-128191173D01*
X143528971Y-128186262D01*
X143659140Y-128187109D01*
X143789205Y-128193825D01*
X143918974Y-128206300D01*
X144048274Y-128224559D01*
X144176911Y-128248633D01*
X144304704Y-128278506D01*
X144431470Y-128314193D01*
X144557025Y-128355691D01*
X144681180Y-128403000D01*
X144803754Y-128456126D01*
X144924565Y-128515071D01*
X145043426Y-128579838D01*
X145160153Y-128650430D01*
X145274560Y-128726850D01*
X145386467Y-128809101D01*
X145495687Y-128897183D01*
X145624536Y-129013574D01*
X145746470Y-129139061D01*
X145861159Y-129272857D01*
X145968280Y-129414166D01*
X146067495Y-129562197D01*
X146158475Y-129716158D01*
X146240892Y-129875258D01*
X146314417Y-130038707D01*
X146378715Y-130205709D01*
X146433461Y-130375474D01*
X146478320Y-130547212D01*
X146512966Y-130720132D01*
X146537067Y-130893436D01*
X146550304Y-131066340D01*
X146552279Y-131238047D01*
X146542768Y-131407767D01*
X146520021Y-131608079D01*
X146488218Y-131810111D01*
X146447467Y-132013746D01*
X146397842Y-132218873D01*
X146339427Y-132425384D01*
X146272298Y-132633170D01*
X146196535Y-132842113D01*
X146112216Y-133052109D01*
X146019424Y-133263042D01*
X145918239Y-133474804D01*
X145808737Y-133687284D01*
X145690999Y-133900367D01*
X145565105Y-134113947D01*
X145431134Y-134327911D01*
X145289168Y-134542149D01*
X145139286Y-134756548D01*
X144981566Y-134971000D01*
X144816085Y-135185390D01*
X144642927Y-135399611D01*
X144462170Y-135613546D01*
X144273894Y-135827090D01*
X144078181Y-136040134D01*
X143875108Y-136252560D01*
X143664751Y-136464260D01*
X143447194Y-136675123D01*
X143222517Y-136885039D01*
X142990798Y-137093895D01*
X142752118Y-137301583D01*
X142506556Y-137507989D01*
X142254190Y-137713006D01*
X141995102Y-137916517D01*
X141729370Y-138118415D01*
X141602025Y-138214354D01*
X141492958Y-138297299D01*
X141399960Y-138367595D01*
X141320830Y-138425580D01*
X141253357Y-138471600D01*
X141195337Y-138505997D01*
X141144566Y-138529111D01*
X141098832Y-138541275D01*
X141055934Y-138542968D01*
X141013663Y-138534304D01*
X140969814Y-138515734D01*
X140922177Y-138487596D01*
X140868552Y-138450221D01*
X140806726Y-138403965D01*
X140734500Y-138349166D01*
X140649661Y-138286171D01*
X140649658Y-138286171D01*
X140649655Y-138286171D01*
X140649652Y-138286171D01*
X140649630Y-138286027D01*
X140649452Y-138286047D01*
X140649452Y-138286047D01*
G37*
D13*
G36*
X121181783Y-59539939D02*
X121167791Y-59521651D01*
X121170189Y-59495243D01*
X121192053Y-59451961D01*
X121236423Y-59383047D01*
X121264326Y-59340822D01*
X121289320Y-59302056D01*
X121308669Y-59271044D01*
X121319644Y-59252084D01*
X121342123Y-59193274D01*
X121349749Y-59134166D01*
X121342521Y-59075251D01*
X121320437Y-59017020D01*
X121316718Y-59010027D01*
X121312786Y-59003219D01*
X121308595Y-58996545D01*
X121304097Y-58989952D01*
X121293976Y-58976803D01*
X121282036Y-58963358D01*
X121267885Y-58949208D01*
X121251132Y-58933937D01*
X121231385Y-58917130D01*
X121208254Y-58898377D01*
X121107306Y-58810207D01*
X121013929Y-58712790D01*
X120928726Y-58607100D01*
X120852300Y-58494113D01*
X120785253Y-58374806D01*
X120728189Y-58250155D01*
X120681711Y-58121135D01*
X120646420Y-57988723D01*
X120634564Y-57926185D01*
X120625084Y-57857979D01*
X120618065Y-57786082D01*
X120613592Y-57712470D01*
X120611758Y-57639120D01*
X120612633Y-57568011D01*
X120616310Y-57501117D01*
X120622874Y-57440417D01*
X120642322Y-57328309D01*
X120668566Y-57219481D01*
X120701602Y-57113946D01*
X120741422Y-57011719D01*
X120788022Y-56912812D01*
X120841395Y-56817238D01*
X120901536Y-56725013D01*
X120968438Y-56636148D01*
X120995771Y-56603876D01*
X121028228Y-56568241D01*
X121064300Y-56530712D01*
X121102476Y-56492758D01*
X121141246Y-56455848D01*
X121179101Y-56421452D01*
X121214531Y-56391039D01*
X121246025Y-56366077D01*
X121314360Y-56317641D01*
X121385668Y-56272411D01*
X121459423Y-56230634D01*
X121535099Y-56192560D01*
X121612171Y-56158437D01*
X121690114Y-56128512D01*
X121768401Y-56103036D01*
X121846508Y-56082253D01*
X121894741Y-56071323D01*
X121938179Y-56062605D01*
X121979066Y-56055871D01*
X122019648Y-56050895D01*
X122062167Y-56047447D01*
X122108870Y-56045302D01*
X122162000Y-56044229D01*
X122223803Y-56044004D01*
X122284578Y-56044512D01*
X122337709Y-56045923D01*
X122385068Y-56048435D01*
X122428524Y-56052254D01*
X122469948Y-56057582D01*
X122511210Y-56064618D01*
X122554182Y-56073564D01*
X122600733Y-56084622D01*
X122657984Y-56100432D01*
X122718450Y-56120007D01*
X122780646Y-56142714D01*
X122843092Y-56167931D01*
X122904303Y-56195027D01*
X122962797Y-56223377D01*
X123017091Y-56252353D01*
X123065702Y-56281328D01*
X123137795Y-56329854D01*
X123207386Y-56382182D01*
X123274228Y-56438073D01*
X123338076Y-56497285D01*
X123398683Y-56559579D01*
X123455804Y-56624715D01*
X123509193Y-56692451D01*
X123558603Y-56762549D01*
X123607695Y-56840841D01*
X123651625Y-56920397D01*
X123690544Y-57001621D01*
X123724602Y-57084916D01*
X123753952Y-57170685D01*
X123778745Y-57259333D01*
X123799130Y-57351261D01*
X123815262Y-57446874D01*
X123818773Y-57482363D01*
X123821256Y-57530249D01*
X123822724Y-57586446D01*
X123823204Y-57646870D01*
X123822667Y-57707434D01*
X123821115Y-57764053D01*
X123818547Y-57812642D01*
X123814991Y-57849115D01*
X123786501Y-58003352D01*
X123745060Y-58151476D01*
X123690843Y-58293166D01*
X123624030Y-58428102D01*
X123544798Y-58555966D01*
X123453324Y-58676436D01*
X123349787Y-58789195D01*
X123234363Y-58893922D01*
X123198670Y-58924220D01*
X123169760Y-58950605D01*
X123146784Y-58974252D01*
X123128897Y-58996339D01*
X123104990Y-59040549D01*
X123091251Y-59092658D01*
X123087887Y-59130797D01*
X123091000Y-59170739D01*
X123100229Y-59210155D01*
X123115206Y-59246716D01*
X123127669Y-59268515D01*
X123148257Y-59302017D01*
X123174112Y-59342656D01*
X123202371Y-59385867D01*
X123232649Y-59432581D01*
X123254242Y-59468355D01*
X123267176Y-59493236D01*
X123271483Y-59507274D01*
X123262768Y-59532250D01*
X123241635Y-59547544D01*
X123215600Y-59550282D01*
X123192182Y-59537590D01*
X123181395Y-59523352D01*
X123161541Y-59494962D01*
X123135452Y-59456535D01*
X123105955Y-59412183D01*
X123039252Y-59317577D01*
X122981953Y-59254049D01*
X122925504Y-59213796D01*
X122861350Y-59189014D01*
X122815027Y-59179695D01*
X122766902Y-59178143D01*
X122711380Y-59184620D01*
X122642867Y-59199394D01*
X122553491Y-59219861D01*
X122471903Y-59234853D01*
X122393436Y-59245106D01*
X122313419Y-59251354D01*
X122184188Y-59253866D01*
X122058939Y-59246697D01*
X121934299Y-59229533D01*
X121806897Y-59202044D01*
X121713417Y-59182695D01*
X121638856Y-59178340D01*
X121574361Y-59189403D01*
X121511082Y-59216313D01*
X121468959Y-59242772D01*
X121430432Y-59278425D01*
X121387242Y-59332324D01*
X121331133Y-59413516D01*
X121298607Y-59461704D01*
X121270506Y-59502336D01*
X121249833Y-59531138D01*
X121239591Y-59543832D01*
X121226891Y-59549903D01*
X121211564Y-59551173D01*
X121195796Y-59547809D01*
X121181772Y-59539946D01*
X121181783Y-59539939D01*
X121181783Y-59539939D01*
G37*
X121181783Y-59539939D02*
X121167791Y-59521651D01*
X121170189Y-59495243D01*
X121192053Y-59451961D01*
X121236423Y-59383047D01*
X121264326Y-59340822D01*
X121289320Y-59302056D01*
X121308669Y-59271044D01*
X121319644Y-59252084D01*
X121342123Y-59193274D01*
X121349749Y-59134166D01*
X121342521Y-59075251D01*
X121320437Y-59017020D01*
X121316718Y-59010027D01*
X121312786Y-59003219D01*
X121308595Y-58996545D01*
X121304097Y-58989952D01*
X121293976Y-58976803D01*
X121282036Y-58963358D01*
X121267885Y-58949208D01*
X121251132Y-58933937D01*
X121231385Y-58917130D01*
X121208254Y-58898377D01*
X121107306Y-58810207D01*
X121013929Y-58712790D01*
X120928726Y-58607100D01*
X120852300Y-58494113D01*
X120785253Y-58374806D01*
X120728189Y-58250155D01*
X120681711Y-58121135D01*
X120646420Y-57988723D01*
X120634564Y-57926185D01*
X120625084Y-57857979D01*
X120618065Y-57786082D01*
X120613592Y-57712470D01*
X120611758Y-57639120D01*
X120612633Y-57568011D01*
X120616310Y-57501117D01*
X120622874Y-57440417D01*
X120642322Y-57328309D01*
X120668566Y-57219481D01*
X120701602Y-57113946D01*
X120741422Y-57011719D01*
X120788022Y-56912812D01*
X120841395Y-56817238D01*
X120901536Y-56725013D01*
X120968438Y-56636148D01*
X120995771Y-56603876D01*
X121028228Y-56568241D01*
X121064300Y-56530712D01*
X121102476Y-56492758D01*
X121141246Y-56455848D01*
X121179101Y-56421452D01*
X121214531Y-56391039D01*
X121246025Y-56366077D01*
X121314360Y-56317641D01*
X121385668Y-56272411D01*
X121459423Y-56230634D01*
X121535099Y-56192560D01*
X121612171Y-56158437D01*
X121690114Y-56128512D01*
X121768401Y-56103036D01*
X121846508Y-56082253D01*
X121894741Y-56071323D01*
X121938179Y-56062605D01*
X121979066Y-56055871D01*
X122019648Y-56050895D01*
X122062167Y-56047447D01*
X122108870Y-56045302D01*
X122162000Y-56044229D01*
X122223803Y-56044004D01*
X122284578Y-56044512D01*
X122337709Y-56045923D01*
X122385068Y-56048435D01*
X122428524Y-56052254D01*
X122469948Y-56057582D01*
X122511210Y-56064618D01*
X122554182Y-56073564D01*
X122600733Y-56084622D01*
X122657984Y-56100432D01*
X122718450Y-56120007D01*
X122780646Y-56142714D01*
X122843092Y-56167931D01*
X122904303Y-56195027D01*
X122962797Y-56223377D01*
X123017091Y-56252353D01*
X123065702Y-56281328D01*
X123137795Y-56329854D01*
X123207386Y-56382182D01*
X123274228Y-56438073D01*
X123338076Y-56497285D01*
X123398683Y-56559579D01*
X123455804Y-56624715D01*
X123509193Y-56692451D01*
X123558603Y-56762549D01*
X123607695Y-56840841D01*
X123651625Y-56920397D01*
X123690544Y-57001621D01*
X123724602Y-57084916D01*
X123753952Y-57170685D01*
X123778745Y-57259333D01*
X123799130Y-57351261D01*
X123815262Y-57446874D01*
X123818773Y-57482363D01*
X123821256Y-57530249D01*
X123822724Y-57586446D01*
X123823204Y-57646870D01*
X123822667Y-57707434D01*
X123821115Y-57764053D01*
X123818547Y-57812642D01*
X123814991Y-57849115D01*
X123786501Y-58003352D01*
X123745060Y-58151476D01*
X123690843Y-58293166D01*
X123624030Y-58428102D01*
X123544798Y-58555966D01*
X123453324Y-58676436D01*
X123349787Y-58789195D01*
X123234363Y-58893922D01*
X123198670Y-58924220D01*
X123169760Y-58950605D01*
X123146784Y-58974252D01*
X123128897Y-58996339D01*
X123104990Y-59040549D01*
X123091251Y-59092658D01*
X123087887Y-59130797D01*
X123091000Y-59170739D01*
X123100229Y-59210155D01*
X123115206Y-59246716D01*
X123127669Y-59268515D01*
X123148257Y-59302017D01*
X123174112Y-59342656D01*
X123202371Y-59385867D01*
X123232649Y-59432581D01*
X123254242Y-59468355D01*
X123267176Y-59493236D01*
X123271483Y-59507274D01*
X123262768Y-59532250D01*
X123241635Y-59547544D01*
X123215600Y-59550282D01*
X123192182Y-59537590D01*
X123181395Y-59523352D01*
X123161541Y-59494962D01*
X123135452Y-59456535D01*
X123105955Y-59412183D01*
X123039252Y-59317577D01*
X122981953Y-59254049D01*
X122925504Y-59213796D01*
X122861350Y-59189014D01*
X122815027Y-59179695D01*
X122766902Y-59178143D01*
X122711380Y-59184620D01*
X122642867Y-59199394D01*
X122553491Y-59219861D01*
X122471903Y-59234853D01*
X122393436Y-59245106D01*
X122313419Y-59251354D01*
X122184188Y-59253866D01*
X122058939Y-59246697D01*
X121934299Y-59229533D01*
X121806897Y-59202044D01*
X121713417Y-59182695D01*
X121638856Y-59178340D01*
X121574361Y-59189403D01*
X121511082Y-59216313D01*
X121468959Y-59242772D01*
X121430432Y-59278425D01*
X121387242Y-59332324D01*
X121331133Y-59413516D01*
X121298607Y-59461704D01*
X121270506Y-59502336D01*
X121249833Y-59531138D01*
X121239591Y-59543832D01*
X121226891Y-59549903D01*
X121211564Y-59551173D01*
X121195796Y-59547809D01*
X121181772Y-59539946D01*
X121181783Y-59539939D01*
D14*
G36*
X160117838Y-55551248D02*
X160118046Y-55445036D01*
X160118252Y-55338825D01*
X160118461Y-55232613D01*
X160118670Y-55126401D01*
X160118879Y-55020189D01*
X160119085Y-54913978D01*
X160119294Y-54807766D01*
X160119503Y-54701554D01*
X160119712Y-54595342D01*
X160119918Y-54489130D01*
X160120126Y-54382919D01*
X160120335Y-54276707D01*
X160120544Y-54170495D01*
X160120750Y-54064283D01*
X160120959Y-53958071D01*
X160121168Y-53851860D01*
X160124075Y-53845764D01*
X160126982Y-53839665D01*
X160129888Y-53833569D01*
X160132795Y-53827473D01*
X160135702Y-53821374D01*
X160138609Y-53815278D01*
X160141516Y-53809179D01*
X160144423Y-53803083D01*
X160147330Y-53796987D01*
X160150237Y-53790891D01*
X160153144Y-53784792D01*
X160156050Y-53778696D01*
X160158957Y-53772597D01*
X160161864Y-53766501D01*
X160164771Y-53760405D01*
X160167678Y-53754307D01*
X160201807Y-53692423D01*
X160242272Y-53635983D01*
X160288551Y-53585384D01*
X160340121Y-53541026D01*
X160396459Y-53503308D01*
X160457035Y-53472627D01*
X160521328Y-53449384D01*
X160588816Y-53433976D01*
X160638611Y-53430806D01*
X160685449Y-53429437D01*
X160747210Y-53428209D01*
X160824121Y-53427123D01*
X160916408Y-53426177D01*
X161024290Y-53425370D01*
X161147994Y-53424701D01*
X161287745Y-53424171D01*
X161443766Y-53423776D01*
X161616277Y-53423515D01*
X161805509Y-53423389D01*
X162011684Y-53423397D01*
X162235023Y-53423536D01*
X162475753Y-53423806D01*
X162734100Y-53424207D01*
X162863112Y-53424431D01*
X162992127Y-53424656D01*
X163121139Y-53424880D01*
X163250151Y-53425105D01*
X163379166Y-53425329D01*
X163508179Y-53425554D01*
X163637191Y-53425778D01*
X163766206Y-53426002D01*
X163895218Y-53426227D01*
X164024230Y-53426451D01*
X164153243Y-53426676D01*
X164282258Y-53426900D01*
X164411270Y-53427125D01*
X164540282Y-53427349D01*
X164669297Y-53427574D01*
X164798310Y-53427798D01*
X164802740Y-53429472D01*
X164807143Y-53431145D01*
X164811574Y-53432819D01*
X164815977Y-53434492D01*
X164820408Y-53436166D01*
X164824838Y-53437840D01*
X164833672Y-53441184D01*
X164842506Y-53444529D01*
X164851339Y-53447874D01*
X164860173Y-53451219D01*
X164869006Y-53454564D01*
X164916733Y-53475069D01*
X164962619Y-53499641D01*
X165006302Y-53527976D01*
X165047416Y-53559766D01*
X165085595Y-53594706D01*
X165120480Y-53632490D01*
X165151708Y-53672811D01*
X165178914Y-53715364D01*
X165204568Y-53759982D01*
X165223562Y-53808674D01*
X165236883Y-53886471D01*
X165241737Y-53944107D01*
X165245547Y-54018407D01*
X165247240Y-54062783D01*
X165248652Y-54112499D01*
X165249780Y-54167946D01*
X165250627Y-54229514D01*
X165251474Y-54297594D01*
X165252038Y-54372578D01*
X165252603Y-54454858D01*
X165252885Y-54544823D01*
X165253167Y-54642866D01*
X165253365Y-54749377D01*
X165253489Y-54864747D01*
X165253554Y-54989368D01*
X165253579Y-55123631D01*
X165253576Y-55267927D01*
X165253565Y-55422646D01*
X165253557Y-55588181D01*
X165253557Y-55692086D01*
X165253557Y-55795990D01*
X165253557Y-55899894D01*
X165253557Y-56003798D01*
X165253557Y-56107703D01*
X165253557Y-56211607D01*
X165253557Y-56315511D01*
X165253557Y-56419416D01*
X165253557Y-56523320D01*
X165253557Y-56627224D01*
X165253557Y-56731129D01*
X165253557Y-56835033D01*
X165253557Y-56938937D01*
X165253557Y-57042841D01*
X165253557Y-57146746D01*
X165253557Y-57250650D01*
X165092958Y-57250650D01*
X164932359Y-57250650D01*
X164771764Y-57250650D01*
X164611165Y-57250650D01*
X164450567Y-57250650D01*
X164289968Y-57250650D01*
X164129370Y-57250650D01*
X163968774Y-57250650D01*
X163808175Y-57250650D01*
X163647577Y-57250650D01*
X163486978Y-57250650D01*
X163326380Y-57250650D01*
X163165781Y-57250650D01*
X163005185Y-57250650D01*
X162844587Y-57250650D01*
X162683988Y-57250650D01*
X162523390Y-57250650D01*
X162362791Y-57250650D01*
X162202195Y-57250650D01*
X162041597Y-57250650D01*
X161880998Y-57250650D01*
X161720400Y-57250650D01*
X161559801Y-57250650D01*
X161399205Y-57250650D01*
X161238607Y-57250650D01*
X161078008Y-57250650D01*
X160917410Y-57250650D01*
X160756811Y-57250650D01*
X160596213Y-57250650D01*
X160435617Y-57250650D01*
X160275018Y-57250650D01*
X160114420Y-57250650D01*
X160114629Y-57144438D01*
X160114838Y-57038226D01*
X160115044Y-56932015D01*
X160115252Y-56825803D01*
X160115461Y-56719591D01*
X160115670Y-56613379D01*
X160115876Y-56507167D01*
X160116085Y-56400956D01*
X160116294Y-56294744D01*
X160116503Y-56188532D01*
X160116709Y-56082320D01*
X160116918Y-55976108D01*
X160117126Y-55869897D01*
X160117335Y-55763685D01*
X160117541Y-55657473D01*
X160117750Y-55551261D01*
X160117753Y-55551261D01*
X160117756Y-55551261D01*
X160117759Y-55551261D01*
X160117761Y-55551261D01*
X160117838Y-55551248D01*
X160117838Y-55551248D01*
G37*
X160117838Y-55551248D02*
X160118046Y-55445036D01*
X160118252Y-55338825D01*
X160118461Y-55232613D01*
X160118670Y-55126401D01*
X160118879Y-55020189D01*
X160119085Y-54913978D01*
X160119294Y-54807766D01*
X160119503Y-54701554D01*
X160119712Y-54595342D01*
X160119918Y-54489130D01*
X160120126Y-54382919D01*
X160120335Y-54276707D01*
X160120544Y-54170495D01*
X160120750Y-54064283D01*
X160120959Y-53958071D01*
X160121168Y-53851860D01*
X160124075Y-53845764D01*
X160126982Y-53839665D01*
X160129888Y-53833569D01*
X160132795Y-53827473D01*
X160135702Y-53821374D01*
X160138609Y-53815278D01*
X160141516Y-53809179D01*
X160144423Y-53803083D01*
X160147330Y-53796987D01*
X160150237Y-53790891D01*
X160153144Y-53784792D01*
X160156050Y-53778696D01*
X160158957Y-53772597D01*
X160161864Y-53766501D01*
X160164771Y-53760405D01*
X160167678Y-53754307D01*
X160201807Y-53692423D01*
X160242272Y-53635983D01*
X160288551Y-53585384D01*
X160340121Y-53541026D01*
X160396459Y-53503308D01*
X160457035Y-53472627D01*
X160521328Y-53449384D01*
X160588816Y-53433976D01*
X160638611Y-53430806D01*
X160685449Y-53429437D01*
X160747210Y-53428209D01*
X160824121Y-53427123D01*
X160916408Y-53426177D01*
X161024290Y-53425370D01*
X161147994Y-53424701D01*
X161287745Y-53424171D01*
X161443766Y-53423776D01*
X161616277Y-53423515D01*
X161805509Y-53423389D01*
X162011684Y-53423397D01*
X162235023Y-53423536D01*
X162475753Y-53423806D01*
X162734100Y-53424207D01*
X162863112Y-53424431D01*
X162992127Y-53424656D01*
X163121139Y-53424880D01*
X163250151Y-53425105D01*
X163379166Y-53425329D01*
X163508179Y-53425554D01*
X163637191Y-53425778D01*
X163766206Y-53426002D01*
X163895218Y-53426227D01*
X164024230Y-53426451D01*
X164153243Y-53426676D01*
X164282258Y-53426900D01*
X164411270Y-53427125D01*
X164540282Y-53427349D01*
X164669297Y-53427574D01*
X164798310Y-53427798D01*
X164802740Y-53429472D01*
X164807143Y-53431145D01*
X164811574Y-53432819D01*
X164815977Y-53434492D01*
X164820408Y-53436166D01*
X164824838Y-53437840D01*
X164833672Y-53441184D01*
X164842506Y-53444529D01*
X164851339Y-53447874D01*
X164860173Y-53451219D01*
X164869006Y-53454564D01*
X164916733Y-53475069D01*
X164962619Y-53499641D01*
X165006302Y-53527976D01*
X165047416Y-53559766D01*
X165085595Y-53594706D01*
X165120480Y-53632490D01*
X165151708Y-53672811D01*
X165178914Y-53715364D01*
X165204568Y-53759982D01*
X165223562Y-53808674D01*
X165236883Y-53886471D01*
X165241737Y-53944107D01*
X165245547Y-54018407D01*
X165247240Y-54062783D01*
X165248652Y-54112499D01*
X165249780Y-54167946D01*
X165250627Y-54229514D01*
X165251474Y-54297594D01*
X165252038Y-54372578D01*
X165252603Y-54454858D01*
X165252885Y-54544823D01*
X165253167Y-54642866D01*
X165253365Y-54749377D01*
X165253489Y-54864747D01*
X165253554Y-54989368D01*
X165253579Y-55123631D01*
X165253576Y-55267927D01*
X165253565Y-55422646D01*
X165253557Y-55588181D01*
X165253557Y-55692086D01*
X165253557Y-55795990D01*
X165253557Y-55899894D01*
X165253557Y-56003798D01*
X165253557Y-56107703D01*
X165253557Y-56211607D01*
X165253557Y-56315511D01*
X165253557Y-56419416D01*
X165253557Y-56523320D01*
X165253557Y-56627224D01*
X165253557Y-56731129D01*
X165253557Y-56835033D01*
X165253557Y-56938937D01*
X165253557Y-57042841D01*
X165253557Y-57146746D01*
X165253557Y-57250650D01*
X165092958Y-57250650D01*
X164932359Y-57250650D01*
X164771764Y-57250650D01*
X164611165Y-57250650D01*
X164450567Y-57250650D01*
X164289968Y-57250650D01*
X164129370Y-57250650D01*
X163968774Y-57250650D01*
X163808175Y-57250650D01*
X163647577Y-57250650D01*
X163486978Y-57250650D01*
X163326380Y-57250650D01*
X163165781Y-57250650D01*
X163005185Y-57250650D01*
X162844587Y-57250650D01*
X162683988Y-57250650D01*
X162523390Y-57250650D01*
X162362791Y-57250650D01*
X162202195Y-57250650D01*
X162041597Y-57250650D01*
X161880998Y-57250650D01*
X161720400Y-57250650D01*
X161559801Y-57250650D01*
X161399205Y-57250650D01*
X161238607Y-57250650D01*
X161078008Y-57250650D01*
X160917410Y-57250650D01*
X160756811Y-57250650D01*
X160596213Y-57250650D01*
X160435617Y-57250650D01*
X160275018Y-57250650D01*
X160114420Y-57250650D01*
X160114629Y-57144438D01*
X160114838Y-57038226D01*
X160115044Y-56932015D01*
X160115252Y-56825803D01*
X160115461Y-56719591D01*
X160115670Y-56613379D01*
X160115876Y-56507167D01*
X160116085Y-56400956D01*
X160116294Y-56294744D01*
X160116503Y-56188532D01*
X160116709Y-56082320D01*
X160116918Y-55976108D01*
X160117126Y-55869897D01*
X160117335Y-55763685D01*
X160117541Y-55657473D01*
X160117750Y-55551261D01*
X160117753Y-55551261D01*
X160117756Y-55551261D01*
X160117759Y-55551261D01*
X160117761Y-55551261D01*
X160117838Y-55551248D01*
G36*
X106639638Y-84237726D02*
X106639638Y-84227227D01*
X106639638Y-84216728D01*
X106639638Y-84206230D01*
X106639638Y-84195731D01*
X106599882Y-84194038D01*
X106560125Y-84192344D01*
X106520369Y-84190651D01*
X106480613Y-84188958D01*
X106402211Y-84184498D01*
X106340318Y-84177923D01*
X106290107Y-84168581D01*
X106246752Y-84155768D01*
X106107762Y-84086502D01*
X105989931Y-83987341D01*
X105897909Y-83863231D01*
X105836346Y-83719117D01*
X105825701Y-83620822D01*
X105823810Y-83570744D01*
X105822201Y-83506132D01*
X105820847Y-83424810D01*
X105819718Y-83324612D01*
X105818786Y-83203370D01*
X105818053Y-83058912D01*
X105817488Y-82889070D01*
X105817065Y-82691676D01*
X105816783Y-82464560D01*
X105816600Y-82205553D01*
X105816504Y-81912485D01*
X105816477Y-81583188D01*
X105816477Y-81453928D01*
X105816477Y-81324664D01*
X105816477Y-81195404D01*
X105816477Y-81066143D01*
X105816477Y-80936880D01*
X105816477Y-80807619D01*
X105816477Y-80678359D01*
X105816477Y-80549098D01*
X105816477Y-80419835D01*
X105816477Y-80290574D01*
X105816477Y-80161313D01*
X105816477Y-80032050D01*
X105816477Y-79902789D01*
X105816477Y-79773529D01*
X105816477Y-79644265D01*
X105816477Y-79515005D01*
X105922494Y-79515005D01*
X106028511Y-79515005D01*
X106134528Y-79515005D01*
X106240545Y-79515005D01*
X106346561Y-79515005D01*
X106452578Y-79515005D01*
X106558595Y-79515005D01*
X106664612Y-79515005D01*
X106664612Y-79460048D01*
X106664612Y-79405090D01*
X106664612Y-79350133D01*
X106664612Y-79295176D01*
X106664612Y-79240219D01*
X106664612Y-79185262D01*
X106664612Y-79130302D01*
X106664612Y-79075345D01*
X106664612Y-79020388D01*
X106664612Y-78965431D01*
X106664612Y-78910474D01*
X106664612Y-78855517D01*
X106664612Y-78800559D01*
X106664612Y-78745602D01*
X106664612Y-78690645D01*
X106664612Y-78635687D01*
X106664612Y-78580730D01*
X106664612Y-78525773D01*
X106664612Y-78470815D01*
X106664612Y-78415858D01*
X106664612Y-78360901D01*
X106664612Y-78305944D01*
X106664612Y-78250986D01*
X106664612Y-78196029D01*
X106664612Y-78141072D01*
X106664612Y-78086114D01*
X106664612Y-78031157D01*
X106664612Y-77976200D01*
X106664612Y-77921243D01*
X106664612Y-77866285D01*
X106664612Y-77811328D01*
X106664612Y-77756371D01*
X106558595Y-77756371D01*
X106452578Y-77756371D01*
X106346561Y-77756371D01*
X106240545Y-77756371D01*
X106134528Y-77756371D01*
X106028511Y-77756371D01*
X105922494Y-77756371D01*
X105816477Y-77756371D01*
X105816477Y-77725844D01*
X105816477Y-77695318D01*
X105816477Y-77664791D01*
X105816477Y-77634265D01*
X105825900Y-77493339D01*
X105856417Y-77373745D01*
X105911389Y-77266562D01*
X105994180Y-77162867D01*
X106059843Y-77102685D01*
X106135632Y-77050955D01*
X106217877Y-77009833D01*
X106302906Y-76981476D01*
X106319046Y-76978936D01*
X106347465Y-76976650D01*
X106390305Y-76974618D01*
X106449707Y-76972812D01*
X106527813Y-76971203D01*
X106626766Y-76969820D01*
X106748705Y-76968607D01*
X106895774Y-76967591D01*
X107070113Y-76966744D01*
X107273865Y-76966039D01*
X107509171Y-76965474D01*
X107778171Y-76965051D01*
X108083010Y-76964740D01*
X108425827Y-76964533D01*
X108808764Y-76964418D01*
X109233963Y-76964382D01*
X109412866Y-76964382D01*
X109591770Y-76964382D01*
X109770674Y-76964382D01*
X109949577Y-76964382D01*
X110128481Y-76964382D01*
X110307384Y-76964382D01*
X110486288Y-76964382D01*
X110665191Y-76964382D01*
X110844095Y-76964382D01*
X111022998Y-76964382D01*
X111201902Y-76964382D01*
X111380805Y-76964382D01*
X111559709Y-76964382D01*
X111738613Y-76964382D01*
X111917516Y-76964382D01*
X112096419Y-76964382D01*
X112101909Y-76966104D01*
X112107398Y-76967826D01*
X112112887Y-76969547D01*
X112118376Y-76971269D01*
X112123866Y-76972990D01*
X112129355Y-76974712D01*
X112134844Y-76976433D01*
X112140333Y-76978155D01*
X112162290Y-76985064D01*
X112184247Y-76991973D01*
X112291483Y-77036458D01*
X112388963Y-77098496D01*
X112473783Y-77175865D01*
X112543040Y-77266344D01*
X112582583Y-77339574D01*
X112610026Y-77416708D01*
X112627200Y-77504524D01*
X112635937Y-77609796D01*
X112637546Y-77646434D01*
X112639155Y-77683072D01*
X112640763Y-77719710D01*
X112642372Y-77756349D01*
X112535927Y-77756349D01*
X112429482Y-77756349D01*
X112323037Y-77756349D01*
X112216592Y-77756349D01*
X112110147Y-77756349D01*
X112003702Y-77756349D01*
X111897257Y-77756349D01*
X111790812Y-77756349D01*
X111790812Y-77811306D01*
X111790812Y-77866263D01*
X111790812Y-77921221D01*
X111790812Y-77976178D01*
X111790812Y-78031135D01*
X111790812Y-78086092D01*
X111790812Y-78141050D01*
X111790812Y-78196007D01*
X111790812Y-78250964D01*
X111790812Y-78305922D01*
X111790812Y-78360879D01*
X111790812Y-78415836D01*
X111790812Y-78470794D01*
X111790812Y-78525751D01*
X111790812Y-78580708D01*
X111790812Y-78635666D01*
X111790812Y-78690623D01*
X111790812Y-78745580D01*
X111790812Y-78800537D01*
X111790812Y-78855495D01*
X111790812Y-78910452D01*
X111790812Y-78965409D01*
X111790812Y-79020365D01*
X111790812Y-79075322D01*
X111790812Y-79130282D01*
X111790812Y-79185239D01*
X111790812Y-79240197D01*
X111790812Y-79295154D01*
X111790812Y-79350111D01*
X111790812Y-79405068D01*
X111790812Y-79460025D01*
X111790812Y-79514982D01*
X111896829Y-79514982D01*
X112002846Y-79514982D01*
X112108863Y-79514982D01*
X112214880Y-79514982D01*
X112320897Y-79514982D01*
X112426914Y-79514982D01*
X112532931Y-79514982D01*
X112638948Y-79514982D01*
X112638948Y-79643176D01*
X112638948Y-79771373D01*
X112638948Y-79899566D01*
X112638948Y-80027763D01*
X112638948Y-80155957D01*
X112638948Y-80284153D01*
X112638948Y-80412347D01*
X112638948Y-80540544D01*
X112638948Y-80668738D01*
X112638948Y-80796934D01*
X112638948Y-80925128D01*
X112638948Y-81053325D01*
X112638948Y-81181519D01*
X112638948Y-81309715D01*
X112638948Y-81437909D01*
X112638948Y-81566106D01*
X112638900Y-81828200D01*
X112638755Y-82071261D01*
X112638510Y-82295656D01*
X112638172Y-82501760D01*
X112637720Y-82689943D01*
X112637156Y-82860574D01*
X112636478Y-83014030D01*
X112635688Y-83150676D01*
X112634785Y-83270886D01*
X112633769Y-83375031D01*
X112632640Y-83463483D01*
X112631398Y-83536609D01*
X112625136Y-83683325D01*
X112600311Y-83769369D01*
X112562628Y-83850116D01*
X112511600Y-83926423D01*
X112446744Y-83999146D01*
X112339642Y-84087840D01*
X112223436Y-84147510D01*
X112089972Y-84181208D01*
X111931099Y-84191989D01*
X111902256Y-84192042D01*
X111873413Y-84192096D01*
X111844571Y-84192152D01*
X111815728Y-84192206D01*
X111815728Y-84203128D01*
X111815728Y-84214050D01*
X111815728Y-84224972D01*
X111815728Y-84235894D01*
X111815728Y-84246816D01*
X111815728Y-84257738D01*
X111815728Y-84268660D01*
X111815728Y-84279582D01*
X111691002Y-84279582D01*
X111566276Y-84279582D01*
X111441550Y-84279582D01*
X111316825Y-84279582D01*
X111102062Y-84278735D01*
X110945765Y-84276477D01*
X110850272Y-84272555D01*
X110817922Y-84267192D01*
X110782453Y-84261802D01*
X110677605Y-84257907D01*
X110505717Y-84255649D01*
X110269128Y-84254803D01*
X110032539Y-84255649D01*
X109860651Y-84257907D01*
X109755804Y-84261802D01*
X109720335Y-84267192D01*
X109687984Y-84272555D01*
X109592491Y-84276477D01*
X109436194Y-84278735D01*
X109221432Y-84279582D01*
X109006669Y-84278735D01*
X108850372Y-84276477D01*
X108754879Y-84272555D01*
X108722529Y-84267192D01*
X108687449Y-84261802D01*
X108583771Y-84257907D01*
X108413832Y-84255649D01*
X108179971Y-84254803D01*
X107946110Y-84255649D01*
X107776172Y-84257907D01*
X107672493Y-84261802D01*
X107637414Y-84267192D01*
X107605063Y-84272555D01*
X107509570Y-84276477D01*
X107353274Y-84278735D01*
X107138511Y-84279582D01*
X107013785Y-84279582D01*
X106889060Y-84279582D01*
X106764334Y-84279582D01*
X106639608Y-84279582D01*
X106639608Y-84269083D01*
X106639608Y-84258585D01*
X106639608Y-84248086D01*
X106639608Y-84237587D01*
X106639609Y-84237590D01*
X106639610Y-84237593D01*
X106639638Y-84237726D01*
X106639638Y-84237726D01*
G37*
X106639638Y-84237726D02*
X106639638Y-84227227D01*
X106639638Y-84216728D01*
X106639638Y-84206230D01*
X106639638Y-84195731D01*
X106599882Y-84194038D01*
X106560125Y-84192344D01*
X106520369Y-84190651D01*
X106480613Y-84188958D01*
X106402211Y-84184498D01*
X106340318Y-84177923D01*
X106290107Y-84168581D01*
X106246752Y-84155768D01*
X106107762Y-84086502D01*
X105989931Y-83987341D01*
X105897909Y-83863231D01*
X105836346Y-83719117D01*
X105825701Y-83620822D01*
X105823810Y-83570744D01*
X105822201Y-83506132D01*
X105820847Y-83424810D01*
X105819718Y-83324612D01*
X105818786Y-83203370D01*
X105818053Y-83058912D01*
X105817488Y-82889070D01*
X105817065Y-82691676D01*
X105816783Y-82464560D01*
X105816600Y-82205553D01*
X105816504Y-81912485D01*
X105816477Y-81583188D01*
X105816477Y-81453928D01*
X105816477Y-81324664D01*
X105816477Y-81195404D01*
X105816477Y-81066143D01*
X105816477Y-80936880D01*
X105816477Y-80807619D01*
X105816477Y-80678359D01*
X105816477Y-80549098D01*
X105816477Y-80419835D01*
X105816477Y-80290574D01*
X105816477Y-80161313D01*
X105816477Y-80032050D01*
X105816477Y-79902789D01*
X105816477Y-79773529D01*
X105816477Y-79644265D01*
X105816477Y-79515005D01*
X105922494Y-79515005D01*
X106028511Y-79515005D01*
X106134528Y-79515005D01*
X106240545Y-79515005D01*
X106346561Y-79515005D01*
X106452578Y-79515005D01*
X106558595Y-79515005D01*
X106664612Y-79515005D01*
X106664612Y-79460048D01*
X106664612Y-79405090D01*
X106664612Y-79350133D01*
X106664612Y-79295176D01*
X106664612Y-79240219D01*
X106664612Y-79185262D01*
X106664612Y-79130302D01*
X106664612Y-79075345D01*
X106664612Y-79020388D01*
X106664612Y-78965431D01*
X106664612Y-78910474D01*
X106664612Y-78855517D01*
X106664612Y-78800559D01*
X106664612Y-78745602D01*
X106664612Y-78690645D01*
X106664612Y-78635687D01*
X106664612Y-78580730D01*
X106664612Y-78525773D01*
X106664612Y-78470815D01*
X106664612Y-78415858D01*
X106664612Y-78360901D01*
X106664612Y-78305944D01*
X106664612Y-78250986D01*
X106664612Y-78196029D01*
X106664612Y-78141072D01*
X106664612Y-78086114D01*
X106664612Y-78031157D01*
X106664612Y-77976200D01*
X106664612Y-77921243D01*
X106664612Y-77866285D01*
X106664612Y-77811328D01*
X106664612Y-77756371D01*
X106558595Y-77756371D01*
X106452578Y-77756371D01*
X106346561Y-77756371D01*
X106240545Y-77756371D01*
X106134528Y-77756371D01*
X106028511Y-77756371D01*
X105922494Y-77756371D01*
X105816477Y-77756371D01*
X105816477Y-77725844D01*
X105816477Y-77695318D01*
X105816477Y-77664791D01*
X105816477Y-77634265D01*
X105825900Y-77493339D01*
X105856417Y-77373745D01*
X105911389Y-77266562D01*
X105994180Y-77162867D01*
X106059843Y-77102685D01*
X106135632Y-77050955D01*
X106217877Y-77009833D01*
X106302906Y-76981476D01*
X106319046Y-76978936D01*
X106347465Y-76976650D01*
X106390305Y-76974618D01*
X106449707Y-76972812D01*
X106527813Y-76971203D01*
X106626766Y-76969820D01*
X106748705Y-76968607D01*
X106895774Y-76967591D01*
X107070113Y-76966744D01*
X107273865Y-76966039D01*
X107509171Y-76965474D01*
X107778171Y-76965051D01*
X108083010Y-76964740D01*
X108425827Y-76964533D01*
X108808764Y-76964418D01*
X109233963Y-76964382D01*
X109412866Y-76964382D01*
X109591770Y-76964382D01*
X109770674Y-76964382D01*
X109949577Y-76964382D01*
X110128481Y-76964382D01*
X110307384Y-76964382D01*
X110486288Y-76964382D01*
X110665191Y-76964382D01*
X110844095Y-76964382D01*
X111022998Y-76964382D01*
X111201902Y-76964382D01*
X111380805Y-76964382D01*
X111559709Y-76964382D01*
X111738613Y-76964382D01*
X111917516Y-76964382D01*
X112096419Y-76964382D01*
X112101909Y-76966104D01*
X112107398Y-76967826D01*
X112112887Y-76969547D01*
X112118376Y-76971269D01*
X112123866Y-76972990D01*
X112129355Y-76974712D01*
X112134844Y-76976433D01*
X112140333Y-76978155D01*
X112162290Y-76985064D01*
X112184247Y-76991973D01*
X112291483Y-77036458D01*
X112388963Y-77098496D01*
X112473783Y-77175865D01*
X112543040Y-77266344D01*
X112582583Y-77339574D01*
X112610026Y-77416708D01*
X112627200Y-77504524D01*
X112635937Y-77609796D01*
X112637546Y-77646434D01*
X112639155Y-77683072D01*
X112640763Y-77719710D01*
X112642372Y-77756349D01*
X112535927Y-77756349D01*
X112429482Y-77756349D01*
X112323037Y-77756349D01*
X112216592Y-77756349D01*
X112110147Y-77756349D01*
X112003702Y-77756349D01*
X111897257Y-77756349D01*
X111790812Y-77756349D01*
X111790812Y-77811306D01*
X111790812Y-77866263D01*
X111790812Y-77921221D01*
X111790812Y-77976178D01*
X111790812Y-78031135D01*
X111790812Y-78086092D01*
X111790812Y-78141050D01*
X111790812Y-78196007D01*
X111790812Y-78250964D01*
X111790812Y-78305922D01*
X111790812Y-78360879D01*
X111790812Y-78415836D01*
X111790812Y-78470794D01*
X111790812Y-78525751D01*
X111790812Y-78580708D01*
X111790812Y-78635666D01*
X111790812Y-78690623D01*
X111790812Y-78745580D01*
X111790812Y-78800537D01*
X111790812Y-78855495D01*
X111790812Y-78910452D01*
X111790812Y-78965409D01*
X111790812Y-79020365D01*
X111790812Y-79075322D01*
X111790812Y-79130282D01*
X111790812Y-79185239D01*
X111790812Y-79240197D01*
X111790812Y-79295154D01*
X111790812Y-79350111D01*
X111790812Y-79405068D01*
X111790812Y-79460025D01*
X111790812Y-79514982D01*
X111896829Y-79514982D01*
X112002846Y-79514982D01*
X112108863Y-79514982D01*
X112214880Y-79514982D01*
X112320897Y-79514982D01*
X112426914Y-79514982D01*
X112532931Y-79514982D01*
X112638948Y-79514982D01*
X112638948Y-79643176D01*
X112638948Y-79771373D01*
X112638948Y-79899566D01*
X112638948Y-80027763D01*
X112638948Y-80155957D01*
X112638948Y-80284153D01*
X112638948Y-80412347D01*
X112638948Y-80540544D01*
X112638948Y-80668738D01*
X112638948Y-80796934D01*
X112638948Y-80925128D01*
X112638948Y-81053325D01*
X112638948Y-81181519D01*
X112638948Y-81309715D01*
X112638948Y-81437909D01*
X112638948Y-81566106D01*
X112638900Y-81828200D01*
X112638755Y-82071261D01*
X112638510Y-82295656D01*
X112638172Y-82501760D01*
X112637720Y-82689943D01*
X112637156Y-82860574D01*
X112636478Y-83014030D01*
X112635688Y-83150676D01*
X112634785Y-83270886D01*
X112633769Y-83375031D01*
X112632640Y-83463483D01*
X112631398Y-83536609D01*
X112625136Y-83683325D01*
X112600311Y-83769369D01*
X112562628Y-83850116D01*
X112511600Y-83926423D01*
X112446744Y-83999146D01*
X112339642Y-84087840D01*
X112223436Y-84147510D01*
X112089972Y-84181208D01*
X111931099Y-84191989D01*
X111902256Y-84192042D01*
X111873413Y-84192096D01*
X111844571Y-84192152D01*
X111815728Y-84192206D01*
X111815728Y-84203128D01*
X111815728Y-84214050D01*
X111815728Y-84224972D01*
X111815728Y-84235894D01*
X111815728Y-84246816D01*
X111815728Y-84257738D01*
X111815728Y-84268660D01*
X111815728Y-84279582D01*
X111691002Y-84279582D01*
X111566276Y-84279582D01*
X111441550Y-84279582D01*
X111316825Y-84279582D01*
X111102062Y-84278735D01*
X110945765Y-84276477D01*
X110850272Y-84272555D01*
X110817922Y-84267192D01*
X110782453Y-84261802D01*
X110677605Y-84257907D01*
X110505717Y-84255649D01*
X110269128Y-84254803D01*
X110032539Y-84255649D01*
X109860651Y-84257907D01*
X109755804Y-84261802D01*
X109720335Y-84267192D01*
X109687984Y-84272555D01*
X109592491Y-84276477D01*
X109436194Y-84278735D01*
X109221432Y-84279582D01*
X109006669Y-84278735D01*
X108850372Y-84276477D01*
X108754879Y-84272555D01*
X108722529Y-84267192D01*
X108687449Y-84261802D01*
X108583771Y-84257907D01*
X108413832Y-84255649D01*
X108179971Y-84254803D01*
X107946110Y-84255649D01*
X107776172Y-84257907D01*
X107672493Y-84261802D01*
X107637414Y-84267192D01*
X107605063Y-84272555D01*
X107509570Y-84276477D01*
X107353274Y-84278735D01*
X107138511Y-84279582D01*
X107013785Y-84279582D01*
X106889060Y-84279582D01*
X106764334Y-84279582D01*
X106639608Y-84279582D01*
X106639608Y-84269083D01*
X106639608Y-84258585D01*
X106639608Y-84248086D01*
X106639608Y-84237587D01*
X106639609Y-84237590D01*
X106639610Y-84237593D01*
X106639638Y-84237726D01*
G36*
X114996120Y-134319958D02*
X114996120Y-134222442D01*
X114996120Y-134124923D01*
X114996120Y-134027407D01*
X114996120Y-133929891D01*
X114970395Y-133910869D01*
X114944671Y-133891847D01*
X114918946Y-133872825D01*
X114906082Y-133863314D01*
X114893222Y-133853803D01*
X114812987Y-133792090D01*
X114735515Y-133727659D01*
X114660844Y-133660614D01*
X114589009Y-133591055D01*
X114520049Y-133519091D01*
X114454000Y-133444818D01*
X114390900Y-133368345D01*
X114330786Y-133289774D01*
X114273694Y-133209205D01*
X114219662Y-133126743D01*
X114168728Y-133042488D01*
X114120928Y-132956548D01*
X114076299Y-132869026D01*
X114034878Y-132780018D01*
X113996704Y-132689637D01*
X113961812Y-132597977D01*
X113902024Y-132411244D01*
X113855813Y-132220648D01*
X113823475Y-132027013D01*
X113805308Y-131831162D01*
X113801608Y-131633920D01*
X113812671Y-131436110D01*
X113838797Y-131238560D01*
X113880279Y-131042088D01*
X113962329Y-130773895D01*
X114068759Y-130520542D01*
X114197921Y-130283007D01*
X114348168Y-130062264D01*
X114517851Y-129859289D01*
X114705322Y-129675060D01*
X114908933Y-129510553D01*
X115127038Y-129366741D01*
X115357986Y-129244604D01*
X115600131Y-129145115D01*
X115851825Y-129069251D01*
X116111419Y-129017991D01*
X116377265Y-128992308D01*
X116647716Y-128993155D01*
X116921124Y-129021555D01*
X117195840Y-129078457D01*
X117364775Y-129128774D01*
X117530474Y-129190869D01*
X117692278Y-129264354D01*
X117849529Y-129348848D01*
X118001569Y-129443968D01*
X118147741Y-129549336D01*
X118287385Y-129664567D01*
X118419845Y-129789281D01*
X118571053Y-129954201D01*
X118706818Y-130129289D01*
X118826948Y-130314150D01*
X118931254Y-130508398D01*
X119019546Y-130711632D01*
X119091632Y-130923465D01*
X119147323Y-131143505D01*
X119186429Y-131371354D01*
X119192547Y-131434826D01*
X119196617Y-131514122D01*
X119198677Y-131604329D01*
X119198781Y-131700524D01*
X119196974Y-131797784D01*
X119193286Y-131891193D01*
X119187765Y-131975829D01*
X119180459Y-132046771D01*
X119156879Y-132192516D01*
X119124488Y-132338346D01*
X119083629Y-132483335D01*
X119034647Y-132626563D01*
X118913690Y-132904033D01*
X118764372Y-133163367D01*
X118699854Y-133256585D01*
X118628806Y-133349870D01*
X118552366Y-133441999D01*
X118471674Y-133531757D01*
X118387871Y-133617922D01*
X118302095Y-133699278D01*
X118129187Y-133842681D01*
X118100513Y-133864102D01*
X118071840Y-133885522D01*
X118043166Y-133906943D01*
X118014492Y-133928364D01*
X118014492Y-134026069D01*
X118014492Y-134123777D01*
X118014492Y-134221483D01*
X118014492Y-134319191D01*
X118014492Y-134416899D01*
X118014492Y-134514604D01*
X118014492Y-134612312D01*
X118014492Y-134710021D01*
X117903798Y-134710021D01*
X117793104Y-134710021D01*
X117682410Y-134710021D01*
X117571716Y-134710021D01*
X117461022Y-134710021D01*
X117350328Y-134710021D01*
X117239633Y-134710021D01*
X117128939Y-134710021D01*
X117128939Y-134635184D01*
X117128939Y-134560350D01*
X117128939Y-134485513D01*
X117128939Y-134410679D01*
X117128206Y-134294454D01*
X117126202Y-134199286D01*
X117123227Y-134134993D01*
X117119595Y-134111399D01*
X117099724Y-134113375D01*
X117052535Y-134118680D01*
X116985088Y-134126526D01*
X116904442Y-134136093D01*
X116673390Y-134156103D01*
X116442463Y-134159744D01*
X116200090Y-134146790D01*
X115934700Y-134117015D01*
X115921447Y-134115322D01*
X115908193Y-134113629D01*
X115894940Y-134111935D01*
X115881687Y-134110242D01*
X115881687Y-134185268D01*
X115881687Y-134260294D01*
X115881687Y-134335323D01*
X115881687Y-134410348D01*
X115881687Y-134485374D01*
X115881687Y-134560403D01*
X115881687Y-134635429D01*
X115881687Y-134710455D01*
X115770993Y-134710455D01*
X115660299Y-134710455D01*
X115549605Y-134710455D01*
X115438911Y-134710455D01*
X115328217Y-134710455D01*
X115217522Y-134710455D01*
X115106828Y-134710455D01*
X114996134Y-134710455D01*
X114996134Y-134612939D01*
X114996134Y-134515420D01*
X114996134Y-134417901D01*
X114996134Y-134320385D01*
X114996134Y-134320382D01*
X114996134Y-134320379D01*
X114996120Y-134319958D01*
X114996120Y-134319958D01*
G37*
X114996120Y-134319958D02*
X114996120Y-134222442D01*
X114996120Y-134124923D01*
X114996120Y-134027407D01*
X114996120Y-133929891D01*
X114970395Y-133910869D01*
X114944671Y-133891847D01*
X114918946Y-133872825D01*
X114906082Y-133863314D01*
X114893222Y-133853803D01*
X114812987Y-133792090D01*
X114735515Y-133727659D01*
X114660844Y-133660614D01*
X114589009Y-133591055D01*
X114520049Y-133519091D01*
X114454000Y-133444818D01*
X114390900Y-133368345D01*
X114330786Y-133289774D01*
X114273694Y-133209205D01*
X114219662Y-133126743D01*
X114168728Y-133042488D01*
X114120928Y-132956548D01*
X114076299Y-132869026D01*
X114034878Y-132780018D01*
X113996704Y-132689637D01*
X113961812Y-132597977D01*
X113902024Y-132411244D01*
X113855813Y-132220648D01*
X113823475Y-132027013D01*
X113805308Y-131831162D01*
X113801608Y-131633920D01*
X113812671Y-131436110D01*
X113838797Y-131238560D01*
X113880279Y-131042088D01*
X113962329Y-130773895D01*
X114068759Y-130520542D01*
X114197921Y-130283007D01*
X114348168Y-130062264D01*
X114517851Y-129859289D01*
X114705322Y-129675060D01*
X114908933Y-129510553D01*
X115127038Y-129366741D01*
X115357986Y-129244604D01*
X115600131Y-129145115D01*
X115851825Y-129069251D01*
X116111419Y-129017991D01*
X116377265Y-128992308D01*
X116647716Y-128993155D01*
X116921124Y-129021555D01*
X117195840Y-129078457D01*
X117364775Y-129128774D01*
X117530474Y-129190869D01*
X117692278Y-129264354D01*
X117849529Y-129348848D01*
X118001569Y-129443968D01*
X118147741Y-129549336D01*
X118287385Y-129664567D01*
X118419845Y-129789281D01*
X118571053Y-129954201D01*
X118706818Y-130129289D01*
X118826948Y-130314150D01*
X118931254Y-130508398D01*
X119019546Y-130711632D01*
X119091632Y-130923465D01*
X119147323Y-131143505D01*
X119186429Y-131371354D01*
X119192547Y-131434826D01*
X119196617Y-131514122D01*
X119198677Y-131604329D01*
X119198781Y-131700524D01*
X119196974Y-131797784D01*
X119193286Y-131891193D01*
X119187765Y-131975829D01*
X119180459Y-132046771D01*
X119156879Y-132192516D01*
X119124488Y-132338346D01*
X119083629Y-132483335D01*
X119034647Y-132626563D01*
X118913690Y-132904033D01*
X118764372Y-133163367D01*
X118699854Y-133256585D01*
X118628806Y-133349870D01*
X118552366Y-133441999D01*
X118471674Y-133531757D01*
X118387871Y-133617922D01*
X118302095Y-133699278D01*
X118129187Y-133842681D01*
X118100513Y-133864102D01*
X118071840Y-133885522D01*
X118043166Y-133906943D01*
X118014492Y-133928364D01*
X118014492Y-134026069D01*
X118014492Y-134123777D01*
X118014492Y-134221483D01*
X118014492Y-134319191D01*
X118014492Y-134416899D01*
X118014492Y-134514604D01*
X118014492Y-134612312D01*
X118014492Y-134710021D01*
X117903798Y-134710021D01*
X117793104Y-134710021D01*
X117682410Y-134710021D01*
X117571716Y-134710021D01*
X117461022Y-134710021D01*
X117350328Y-134710021D01*
X117239633Y-134710021D01*
X117128939Y-134710021D01*
X117128939Y-134635184D01*
X117128939Y-134560350D01*
X117128939Y-134485513D01*
X117128939Y-134410679D01*
X117128206Y-134294454D01*
X117126202Y-134199286D01*
X117123227Y-134134993D01*
X117119595Y-134111399D01*
X117099724Y-134113375D01*
X117052535Y-134118680D01*
X116985088Y-134126526D01*
X116904442Y-134136093D01*
X116673390Y-134156103D01*
X116442463Y-134159744D01*
X116200090Y-134146790D01*
X115934700Y-134117015D01*
X115921447Y-134115322D01*
X115908193Y-134113629D01*
X115894940Y-134111935D01*
X115881687Y-134110242D01*
X115881687Y-134185268D01*
X115881687Y-134260294D01*
X115881687Y-134335323D01*
X115881687Y-134410348D01*
X115881687Y-134485374D01*
X115881687Y-134560403D01*
X115881687Y-134635429D01*
X115881687Y-134710455D01*
X115770993Y-134710455D01*
X115660299Y-134710455D01*
X115549605Y-134710455D01*
X115438911Y-134710455D01*
X115328217Y-134710455D01*
X115217522Y-134710455D01*
X115106828Y-134710455D01*
X114996134Y-134710455D01*
X114996134Y-134612939D01*
X114996134Y-134515420D01*
X114996134Y-134417901D01*
X114996134Y-134320385D01*
X114996134Y-134320382D01*
X114996134Y-134320379D01*
X114996120Y-134319958D01*
D15*
G36*
X166945682Y-122807058D02*
X166899606Y-122805647D01*
X166854880Y-122803954D01*
X166812609Y-122801978D01*
X166773896Y-122799721D01*
X166739843Y-122797463D01*
X166711556Y-122795205D01*
X166690135Y-122792947D01*
X166676673Y-122790689D01*
X166638020Y-122780671D01*
X166600166Y-122769325D01*
X166563127Y-122756682D01*
X166526921Y-122742768D01*
X166491572Y-122727585D01*
X166457093Y-122711159D01*
X166423509Y-122693549D01*
X166390836Y-122674724D01*
X166359092Y-122654743D01*
X166328301Y-122633605D01*
X166298482Y-122611365D01*
X166269653Y-122588026D01*
X166241825Y-122563585D01*
X166215043Y-122538101D01*
X166189304Y-122511572D01*
X166164638Y-122484027D01*
X166141044Y-122455505D01*
X166118551Y-122426019D01*
X166097187Y-122395587D01*
X166076951Y-122364235D01*
X166057901Y-122331982D01*
X166040037Y-122298855D01*
X166023357Y-122264873D01*
X166007920Y-122230061D01*
X165993696Y-122194436D01*
X165980742Y-122158026D01*
X165969058Y-122120855D01*
X165958672Y-122082938D01*
X165949613Y-122044305D01*
X165941908Y-122004974D01*
X165935558Y-121964967D01*
X165930591Y-121924310D01*
X165926865Y-121865791D01*
X165927148Y-121803118D01*
X165931183Y-121738432D01*
X165938634Y-121673883D01*
X165949217Y-121611610D01*
X165962595Y-121553757D01*
X165978484Y-121502472D01*
X165996574Y-121459896D01*
X166013028Y-121430249D01*
X166033884Y-121396986D01*
X166058212Y-121361304D01*
X166085136Y-121324410D01*
X166113733Y-121287503D01*
X166143107Y-121251785D01*
X166172351Y-121218458D01*
X166200573Y-121188723D01*
X166261762Y-121132053D01*
X166325730Y-121082068D01*
X166391911Y-121039038D01*
X166459740Y-121003227D01*
X166528654Y-120974900D01*
X166598086Y-120954326D01*
X166667473Y-120941767D01*
X166736248Y-120937477D01*
X166753604Y-120938042D01*
X166773501Y-120939453D01*
X166795627Y-120941711D01*
X166819701Y-120944730D01*
X166845411Y-120948512D01*
X166872476Y-120953028D01*
X166900586Y-120958249D01*
X166929463Y-120964119D01*
X166954580Y-120969425D01*
X166978090Y-120974392D01*
X166999482Y-120978879D01*
X167018222Y-120982802D01*
X167033800Y-120986048D01*
X167045710Y-120988588D01*
X167053415Y-120989999D01*
X167056378Y-120990563D01*
X167056660Y-120988023D01*
X167056773Y-120980573D01*
X167056694Y-120968804D01*
X167056432Y-120953225D01*
X167055867Y-120934373D01*
X167055303Y-120912755D01*
X167054456Y-120888907D01*
X167053609Y-120863337D01*
X167052198Y-120814888D01*
X167052204Y-120772648D01*
X167053897Y-120734904D01*
X167057256Y-120699959D01*
X167062618Y-120666101D01*
X167070181Y-120631630D01*
X167080200Y-120594840D01*
X167092844Y-120554028D01*
X167102327Y-120525975D01*
X167112487Y-120498486D01*
X167123296Y-120471534D01*
X167134754Y-120445146D01*
X167146861Y-120419351D01*
X167159618Y-120394120D01*
X167172995Y-120369454D01*
X167187021Y-120345381D01*
X167201669Y-120321872D01*
X167216937Y-120298955D01*
X167232826Y-120276631D01*
X167249336Y-120254928D01*
X167266467Y-120233818D01*
X167284191Y-120213301D01*
X167302507Y-120193404D01*
X167321416Y-120174128D01*
X167340917Y-120155473D01*
X167361011Y-120137439D01*
X167381698Y-120120026D01*
X167402950Y-120103262D01*
X167424765Y-120087147D01*
X167447174Y-120071653D01*
X167470147Y-120056808D01*
X167493656Y-120042613D01*
X167517729Y-120029094D01*
X167542367Y-120016225D01*
X167567542Y-120004033D01*
X167593252Y-119992490D01*
X167619499Y-119981624D01*
X167646282Y-119971436D01*
X167673601Y-119961954D01*
X167701428Y-119953148D01*
X167724937Y-119946375D01*
X167746725Y-119940928D01*
X167768258Y-119936610D01*
X167791033Y-119933252D01*
X167816546Y-119930712D01*
X167846287Y-119928736D01*
X167881737Y-119927043D01*
X167924383Y-119925632D01*
X167982087Y-119924785D01*
X168034464Y-119925914D01*
X168083038Y-119929046D01*
X168129330Y-119934493D01*
X168174867Y-119942480D01*
X168221168Y-119953205D01*
X168269761Y-119966892D01*
X168322167Y-119983798D01*
X168331650Y-119987015D01*
X168341133Y-119990232D01*
X168350615Y-119993450D01*
X168360098Y-119996667D01*
X168369581Y-119999884D01*
X168379063Y-120003102D01*
X168388546Y-120006319D01*
X168398029Y-120009536D01*
X168406185Y-120002283D01*
X168414341Y-119995030D01*
X168422497Y-119987777D01*
X168430653Y-119980524D01*
X168432629Y-119978830D01*
X168434605Y-119977137D01*
X168436580Y-119975444D01*
X168438556Y-119973750D01*
X168440531Y-119972057D01*
X168442507Y-119970364D01*
X168444482Y-119968670D01*
X168446458Y-119966977D01*
X168448433Y-119965284D01*
X168450409Y-119963590D01*
X168452385Y-119961897D01*
X168454360Y-119960204D01*
X168456336Y-119958510D01*
X168458311Y-119956817D01*
X168460287Y-119955124D01*
X168462262Y-119953430D01*
X168490973Y-119928454D01*
X168519974Y-119904296D01*
X168549257Y-119880928D01*
X168578814Y-119858378D01*
X168608645Y-119836647D01*
X168638742Y-119815734D01*
X168669097Y-119795640D01*
X168699710Y-119776392D01*
X168730571Y-119757963D01*
X168761680Y-119740353D01*
X168793032Y-119723560D01*
X168824616Y-119707615D01*
X168856431Y-119692488D01*
X168888469Y-119678207D01*
X168920727Y-119664774D01*
X168953199Y-119652158D01*
X168985881Y-119640390D01*
X169018765Y-119629468D01*
X169051850Y-119619392D01*
X169085127Y-119610164D01*
X169118590Y-119601782D01*
X169152239Y-119594246D01*
X169186064Y-119587558D01*
X169220063Y-119581744D01*
X169254229Y-119576777D01*
X169288558Y-119572656D01*
X169323043Y-119569382D01*
X169357680Y-119566842D01*
X169392461Y-119565431D01*
X169427386Y-119564867D01*
X169462447Y-119565093D01*
X169497640Y-119566222D01*
X169541590Y-119568762D01*
X169585081Y-119572628D01*
X169628094Y-119577793D01*
X169670617Y-119584284D01*
X169712634Y-119592045D01*
X169754132Y-119601076D01*
X169795096Y-119611377D01*
X169835513Y-119622948D01*
X169875363Y-119635789D01*
X169914637Y-119649872D01*
X169953319Y-119665169D01*
X169991390Y-119681707D01*
X170028841Y-119699459D01*
X170065657Y-119718424D01*
X170101821Y-119738575D01*
X170137322Y-119759939D01*
X170172142Y-119782460D01*
X170206266Y-119806167D01*
X170239681Y-119831031D01*
X170272374Y-119857052D01*
X170304327Y-119884230D01*
X170335526Y-119912536D01*
X170365958Y-119941967D01*
X170395612Y-119972514D01*
X170424466Y-120004171D01*
X170452519Y-120036926D01*
X170479725Y-120070773D01*
X170506113Y-120105701D01*
X170531626Y-120141698D01*
X170556264Y-120178760D01*
X170580027Y-120216874D01*
X170602887Y-120256035D01*
X170610987Y-120270654D01*
X170619058Y-120285781D01*
X170627073Y-120301331D01*
X170635032Y-120317305D01*
X170642906Y-120333674D01*
X170650695Y-120350382D01*
X170658400Y-120367400D01*
X170665992Y-120384700D01*
X170673471Y-120402226D01*
X170680808Y-120419978D01*
X170688005Y-120437899D01*
X170695061Y-120455961D01*
X170701947Y-120474136D01*
X170708664Y-120492368D01*
X170715183Y-120510656D01*
X170721505Y-120528944D01*
X170727601Y-120547203D01*
X170733471Y-120565379D01*
X170739115Y-120583469D01*
X170744506Y-120601418D01*
X170749642Y-120619198D01*
X170754525Y-120636781D01*
X170759097Y-120654137D01*
X170763387Y-120671212D01*
X170767366Y-120687976D01*
X170771035Y-120704401D01*
X170774393Y-120720460D01*
X170777385Y-120736123D01*
X170785767Y-120793976D01*
X170789041Y-120825356D01*
X170792568Y-120849232D01*
X170797535Y-120867040D01*
X170805099Y-120880220D01*
X170816416Y-120890211D01*
X170832672Y-120898452D01*
X170855052Y-120906382D01*
X170884714Y-120915413D01*
X170928904Y-120930286D01*
X170976868Y-120949364D01*
X171027197Y-120971942D01*
X171078485Y-120997286D01*
X171129322Y-121024661D01*
X171178307Y-121053346D01*
X171224030Y-121082616D01*
X171265085Y-121111744D01*
X171288707Y-121129919D01*
X171311567Y-121148320D01*
X171333665Y-121166947D01*
X171355001Y-121185799D01*
X171375603Y-121204877D01*
X171395443Y-121224209D01*
X171414549Y-121243796D01*
X171432922Y-121263636D01*
X171450561Y-121283730D01*
X171467466Y-121304078D01*
X171483637Y-121324709D01*
X171499075Y-121345621D01*
X171513807Y-121366816D01*
X171527805Y-121388293D01*
X171541098Y-121410053D01*
X171553657Y-121432123D01*
X171565510Y-121454503D01*
X171576658Y-121477193D01*
X171587100Y-121500195D01*
X171596837Y-121523506D01*
X171605896Y-121547156D01*
X171614250Y-121571145D01*
X171621898Y-121595473D01*
X171628869Y-121620139D01*
X171635163Y-121645144D01*
X171640751Y-121670516D01*
X171645661Y-121696226D01*
X171649895Y-121722332D01*
X171653451Y-121748804D01*
X171656357Y-121775643D01*
X171658615Y-121802878D01*
X171660309Y-121830479D01*
X171660591Y-121838212D01*
X171660873Y-121845719D01*
X171661116Y-121853029D01*
X171661333Y-121860113D01*
X171661897Y-121886641D01*
X171661779Y-121910630D01*
X171660932Y-121932672D01*
X171659521Y-121953331D01*
X171657263Y-121973199D01*
X171654300Y-121992870D01*
X171650546Y-122012936D01*
X171641854Y-122052540D01*
X171631976Y-122091278D01*
X171620941Y-122129138D01*
X171608778Y-122166109D01*
X171595457Y-122202180D01*
X171581007Y-122237339D01*
X171565456Y-122271576D01*
X171548805Y-122304881D01*
X171531082Y-122337240D01*
X171512258Y-122368643D01*
X171492389Y-122399084D01*
X171471448Y-122428545D01*
X171449463Y-122457015D01*
X171426434Y-122484476D01*
X171402388Y-122510948D01*
X171377327Y-122536376D01*
X171351278Y-122560788D01*
X171324241Y-122584156D01*
X171296216Y-122606452D01*
X171267238Y-122627703D01*
X171237305Y-122647854D01*
X171206430Y-122666932D01*
X171174627Y-122684910D01*
X171141900Y-122701787D01*
X171108268Y-122717535D01*
X171073738Y-122732154D01*
X171038319Y-122745616D01*
X171002028Y-122757921D01*
X170964876Y-122769068D01*
X170926869Y-122779031D01*
X170888024Y-122787808D01*
X170848350Y-122795372D01*
X170841435Y-122796500D01*
X170833307Y-122797629D01*
X170823740Y-122798758D01*
X170812507Y-122799605D01*
X170799440Y-122800452D01*
X170784285Y-122801298D01*
X170766844Y-122802145D01*
X170746919Y-122802992D01*
X170724285Y-122803556D01*
X170698744Y-122804120D01*
X170670067Y-122804685D01*
X170638049Y-122805249D01*
X170602480Y-122805814D01*
X170563144Y-122806378D01*
X170519832Y-122806943D01*
X170472331Y-122807507D01*
X170420430Y-122807789D01*
X170363915Y-122808072D01*
X170302577Y-122808354D01*
X170236201Y-122808918D01*
X170164579Y-122809200D01*
X170087495Y-122809483D01*
X170004742Y-122809765D01*
X169916105Y-122810047D01*
X169821371Y-122810329D01*
X169720330Y-122810612D01*
X169612769Y-122810851D01*
X169498478Y-122811069D01*
X169377247Y-122811326D01*
X169248858Y-122811608D01*
X169113103Y-122811890D01*
X168969771Y-122812147D01*
X168877180Y-122812311D01*
X168785178Y-122812497D01*
X168693902Y-122812649D01*
X168603475Y-122812711D01*
X168514028Y-122812748D01*
X168425695Y-122812835D01*
X168338598Y-122812931D01*
X168252876Y-122812994D01*
X168168655Y-122813019D01*
X168086063Y-122813025D01*
X168005232Y-122813016D01*
X167926288Y-122812991D01*
X167849366Y-122812948D01*
X167774594Y-122812889D01*
X167702102Y-122812810D01*
X167632018Y-122812717D01*
X167564474Y-122812613D01*
X167499597Y-122812491D01*
X167437519Y-122812342D01*
X167378371Y-122812152D01*
X167322282Y-122811941D01*
X167269380Y-122811729D01*
X167219793Y-122811517D01*
X167173655Y-122811306D01*
X167131096Y-122811089D01*
X167092243Y-122810849D01*
X167057227Y-122810566D01*
X167026180Y-122810284D01*
X166999228Y-122810002D01*
X166976509Y-122809720D01*
X166958136Y-122809477D01*
X166944251Y-122809260D01*
X166944248Y-122809260D01*
X166944243Y-122809260D01*
X166944240Y-122809260D01*
X166944234Y-122809260D01*
X166944231Y-122809260D01*
X166944226Y-122809263D01*
X166944223Y-122809263D01*
X166944217Y-122809263D01*
X166944214Y-122809263D01*
X166944209Y-122809263D01*
X166944206Y-122809263D01*
X166944200Y-122809263D01*
X166944198Y-122809263D01*
X166944192Y-122809263D01*
X166944189Y-122809263D01*
X166944183Y-122809263D01*
X166944181Y-122809263D01*
X166944178Y-122809263D01*
X166944172Y-122809263D01*
X166944169Y-122809263D01*
X166944166Y-122809263D01*
X166944161Y-122809263D01*
X166944158Y-122809263D01*
X166944152Y-122809263D01*
X166944150Y-122809263D01*
X166944144Y-122809265D01*
X166944141Y-122809265D01*
X166944135Y-122809265D01*
X166944195Y-122809138D01*
X166944254Y-122809011D01*
X166944310Y-122808882D01*
X166945682Y-122807058D01*
X166945682Y-122807058D01*
G37*
X166945682Y-122807058D02*
X166899606Y-122805647D01*
X166854880Y-122803954D01*
X166812609Y-122801978D01*
X166773896Y-122799721D01*
X166739843Y-122797463D01*
X166711556Y-122795205D01*
X166690135Y-122792947D01*
X166676673Y-122790689D01*
X166638020Y-122780671D01*
X166600166Y-122769325D01*
X166563127Y-122756682D01*
X166526921Y-122742768D01*
X166491572Y-122727585D01*
X166457093Y-122711159D01*
X166423509Y-122693549D01*
X166390836Y-122674724D01*
X166359092Y-122654743D01*
X166328301Y-122633605D01*
X166298482Y-122611365D01*
X166269653Y-122588026D01*
X166241825Y-122563585D01*
X166215043Y-122538101D01*
X166189304Y-122511572D01*
X166164638Y-122484027D01*
X166141044Y-122455505D01*
X166118551Y-122426019D01*
X166097187Y-122395587D01*
X166076951Y-122364235D01*
X166057901Y-122331982D01*
X166040037Y-122298855D01*
X166023357Y-122264873D01*
X166007920Y-122230061D01*
X165993696Y-122194436D01*
X165980742Y-122158026D01*
X165969058Y-122120855D01*
X165958672Y-122082938D01*
X165949613Y-122044305D01*
X165941908Y-122004974D01*
X165935558Y-121964967D01*
X165930591Y-121924310D01*
X165926865Y-121865791D01*
X165927148Y-121803118D01*
X165931183Y-121738432D01*
X165938634Y-121673883D01*
X165949217Y-121611610D01*
X165962595Y-121553757D01*
X165978484Y-121502472D01*
X165996574Y-121459896D01*
X166013028Y-121430249D01*
X166033884Y-121396986D01*
X166058212Y-121361304D01*
X166085136Y-121324410D01*
X166113733Y-121287503D01*
X166143107Y-121251785D01*
X166172351Y-121218458D01*
X166200573Y-121188723D01*
X166261762Y-121132053D01*
X166325730Y-121082068D01*
X166391911Y-121039038D01*
X166459740Y-121003227D01*
X166528654Y-120974900D01*
X166598086Y-120954326D01*
X166667473Y-120941767D01*
X166736248Y-120937477D01*
X166753604Y-120938042D01*
X166773501Y-120939453D01*
X166795627Y-120941711D01*
X166819701Y-120944730D01*
X166845411Y-120948512D01*
X166872476Y-120953028D01*
X166900586Y-120958249D01*
X166929463Y-120964119D01*
X166954580Y-120969425D01*
X166978090Y-120974392D01*
X166999482Y-120978879D01*
X167018222Y-120982802D01*
X167033800Y-120986048D01*
X167045710Y-120988588D01*
X167053415Y-120989999D01*
X167056378Y-120990563D01*
X167056660Y-120988023D01*
X167056773Y-120980573D01*
X167056694Y-120968804D01*
X167056432Y-120953225D01*
X167055867Y-120934373D01*
X167055303Y-120912755D01*
X167054456Y-120888907D01*
X167053609Y-120863337D01*
X167052198Y-120814888D01*
X167052204Y-120772648D01*
X167053897Y-120734904D01*
X167057256Y-120699959D01*
X167062618Y-120666101D01*
X167070181Y-120631630D01*
X167080200Y-120594840D01*
X167092844Y-120554028D01*
X167102327Y-120525975D01*
X167112487Y-120498486D01*
X167123296Y-120471534D01*
X167134754Y-120445146D01*
X167146861Y-120419351D01*
X167159618Y-120394120D01*
X167172995Y-120369454D01*
X167187021Y-120345381D01*
X167201669Y-120321872D01*
X167216937Y-120298955D01*
X167232826Y-120276631D01*
X167249336Y-120254928D01*
X167266467Y-120233818D01*
X167284191Y-120213301D01*
X167302507Y-120193404D01*
X167321416Y-120174128D01*
X167340917Y-120155473D01*
X167361011Y-120137439D01*
X167381698Y-120120026D01*
X167402950Y-120103262D01*
X167424765Y-120087147D01*
X167447174Y-120071653D01*
X167470147Y-120056808D01*
X167493656Y-120042613D01*
X167517729Y-120029094D01*
X167542367Y-120016225D01*
X167567542Y-120004033D01*
X167593252Y-119992490D01*
X167619499Y-119981624D01*
X167646282Y-119971436D01*
X167673601Y-119961954D01*
X167701428Y-119953148D01*
X167724937Y-119946375D01*
X167746725Y-119940928D01*
X167768258Y-119936610D01*
X167791033Y-119933252D01*
X167816546Y-119930712D01*
X167846287Y-119928736D01*
X167881737Y-119927043D01*
X167924383Y-119925632D01*
X167982087Y-119924785D01*
X168034464Y-119925914D01*
X168083038Y-119929046D01*
X168129330Y-119934493D01*
X168174867Y-119942480D01*
X168221168Y-119953205D01*
X168269761Y-119966892D01*
X168322167Y-119983798D01*
X168331650Y-119987015D01*
X168341133Y-119990232D01*
X168350615Y-119993450D01*
X168360098Y-119996667D01*
X168369581Y-119999884D01*
X168379063Y-120003102D01*
X168388546Y-120006319D01*
X168398029Y-120009536D01*
X168406185Y-120002283D01*
X168414341Y-119995030D01*
X168422497Y-119987777D01*
X168430653Y-119980524D01*
X168432629Y-119978830D01*
X168434605Y-119977137D01*
X168436580Y-119975444D01*
X168438556Y-119973750D01*
X168440531Y-119972057D01*
X168442507Y-119970364D01*
X168444482Y-119968670D01*
X168446458Y-119966977D01*
X168448433Y-119965284D01*
X168450409Y-119963590D01*
X168452385Y-119961897D01*
X168454360Y-119960204D01*
X168456336Y-119958510D01*
X168458311Y-119956817D01*
X168460287Y-119955124D01*
X168462262Y-119953430D01*
X168490973Y-119928454D01*
X168519974Y-119904296D01*
X168549257Y-119880928D01*
X168578814Y-119858378D01*
X168608645Y-119836647D01*
X168638742Y-119815734D01*
X168669097Y-119795640D01*
X168699710Y-119776392D01*
X168730571Y-119757963D01*
X168761680Y-119740353D01*
X168793032Y-119723560D01*
X168824616Y-119707615D01*
X168856431Y-119692488D01*
X168888469Y-119678207D01*
X168920727Y-119664774D01*
X168953199Y-119652158D01*
X168985881Y-119640390D01*
X169018765Y-119629468D01*
X169051850Y-119619392D01*
X169085127Y-119610164D01*
X169118590Y-119601782D01*
X169152239Y-119594246D01*
X169186064Y-119587558D01*
X169220063Y-119581744D01*
X169254229Y-119576777D01*
X169288558Y-119572656D01*
X169323043Y-119569382D01*
X169357680Y-119566842D01*
X169392461Y-119565431D01*
X169427386Y-119564867D01*
X169462447Y-119565093D01*
X169497640Y-119566222D01*
X169541590Y-119568762D01*
X169585081Y-119572628D01*
X169628094Y-119577793D01*
X169670617Y-119584284D01*
X169712634Y-119592045D01*
X169754132Y-119601076D01*
X169795096Y-119611377D01*
X169835513Y-119622948D01*
X169875363Y-119635789D01*
X169914637Y-119649872D01*
X169953319Y-119665169D01*
X169991390Y-119681707D01*
X170028841Y-119699459D01*
X170065657Y-119718424D01*
X170101821Y-119738575D01*
X170137322Y-119759939D01*
X170172142Y-119782460D01*
X170206266Y-119806167D01*
X170239681Y-119831031D01*
X170272374Y-119857052D01*
X170304327Y-119884230D01*
X170335526Y-119912536D01*
X170365958Y-119941967D01*
X170395612Y-119972514D01*
X170424466Y-120004171D01*
X170452519Y-120036926D01*
X170479725Y-120070773D01*
X170506113Y-120105701D01*
X170531626Y-120141698D01*
X170556264Y-120178760D01*
X170580027Y-120216874D01*
X170602887Y-120256035D01*
X170610987Y-120270654D01*
X170619058Y-120285781D01*
X170627073Y-120301331D01*
X170635032Y-120317305D01*
X170642906Y-120333674D01*
X170650695Y-120350382D01*
X170658400Y-120367400D01*
X170665992Y-120384700D01*
X170673471Y-120402226D01*
X170680808Y-120419978D01*
X170688005Y-120437899D01*
X170695061Y-120455961D01*
X170701947Y-120474136D01*
X170708664Y-120492368D01*
X170715183Y-120510656D01*
X170721505Y-120528944D01*
X170727601Y-120547203D01*
X170733471Y-120565379D01*
X170739115Y-120583469D01*
X170744506Y-120601418D01*
X170749642Y-120619198D01*
X170754525Y-120636781D01*
X170759097Y-120654137D01*
X170763387Y-120671212D01*
X170767366Y-120687976D01*
X170771035Y-120704401D01*
X170774393Y-120720460D01*
X170777385Y-120736123D01*
X170785767Y-120793976D01*
X170789041Y-120825356D01*
X170792568Y-120849232D01*
X170797535Y-120867040D01*
X170805099Y-120880220D01*
X170816416Y-120890211D01*
X170832672Y-120898452D01*
X170855052Y-120906382D01*
X170884714Y-120915413D01*
X170928904Y-120930286D01*
X170976868Y-120949364D01*
X171027197Y-120971942D01*
X171078485Y-120997286D01*
X171129322Y-121024661D01*
X171178307Y-121053346D01*
X171224030Y-121082616D01*
X171265085Y-121111744D01*
X171288707Y-121129919D01*
X171311567Y-121148320D01*
X171333665Y-121166947D01*
X171355001Y-121185799D01*
X171375603Y-121204877D01*
X171395443Y-121224209D01*
X171414549Y-121243796D01*
X171432922Y-121263636D01*
X171450561Y-121283730D01*
X171467466Y-121304078D01*
X171483637Y-121324709D01*
X171499075Y-121345621D01*
X171513807Y-121366816D01*
X171527805Y-121388293D01*
X171541098Y-121410053D01*
X171553657Y-121432123D01*
X171565510Y-121454503D01*
X171576658Y-121477193D01*
X171587100Y-121500195D01*
X171596837Y-121523506D01*
X171605896Y-121547156D01*
X171614250Y-121571145D01*
X171621898Y-121595473D01*
X171628869Y-121620139D01*
X171635163Y-121645144D01*
X171640751Y-121670516D01*
X171645661Y-121696226D01*
X171649895Y-121722332D01*
X171653451Y-121748804D01*
X171656357Y-121775643D01*
X171658615Y-121802878D01*
X171660309Y-121830479D01*
X171660591Y-121838212D01*
X171660873Y-121845719D01*
X171661116Y-121853029D01*
X171661333Y-121860113D01*
X171661897Y-121886641D01*
X171661779Y-121910630D01*
X171660932Y-121932672D01*
X171659521Y-121953331D01*
X171657263Y-121973199D01*
X171654300Y-121992870D01*
X171650546Y-122012936D01*
X171641854Y-122052540D01*
X171631976Y-122091278D01*
X171620941Y-122129138D01*
X171608778Y-122166109D01*
X171595457Y-122202180D01*
X171581007Y-122237339D01*
X171565456Y-122271576D01*
X171548805Y-122304881D01*
X171531082Y-122337240D01*
X171512258Y-122368643D01*
X171492389Y-122399084D01*
X171471448Y-122428545D01*
X171449463Y-122457015D01*
X171426434Y-122484476D01*
X171402388Y-122510948D01*
X171377327Y-122536376D01*
X171351278Y-122560788D01*
X171324241Y-122584156D01*
X171296216Y-122606452D01*
X171267238Y-122627703D01*
X171237305Y-122647854D01*
X171206430Y-122666932D01*
X171174627Y-122684910D01*
X171141900Y-122701787D01*
X171108268Y-122717535D01*
X171073738Y-122732154D01*
X171038319Y-122745616D01*
X171002028Y-122757921D01*
X170964876Y-122769068D01*
X170926869Y-122779031D01*
X170888024Y-122787808D01*
X170848350Y-122795372D01*
X170841435Y-122796500D01*
X170833307Y-122797629D01*
X170823740Y-122798758D01*
X170812507Y-122799605D01*
X170799440Y-122800452D01*
X170784285Y-122801298D01*
X170766844Y-122802145D01*
X170746919Y-122802992D01*
X170724285Y-122803556D01*
X170698744Y-122804120D01*
X170670067Y-122804685D01*
X170638049Y-122805249D01*
X170602480Y-122805814D01*
X170563144Y-122806378D01*
X170519832Y-122806943D01*
X170472331Y-122807507D01*
X170420430Y-122807789D01*
X170363915Y-122808072D01*
X170302577Y-122808354D01*
X170236201Y-122808918D01*
X170164579Y-122809200D01*
X170087495Y-122809483D01*
X170004742Y-122809765D01*
X169916105Y-122810047D01*
X169821371Y-122810329D01*
X169720330Y-122810612D01*
X169612769Y-122810851D01*
X169498478Y-122811069D01*
X169377247Y-122811326D01*
X169248858Y-122811608D01*
X169113103Y-122811890D01*
X168969771Y-122812147D01*
X168877180Y-122812311D01*
X168785178Y-122812497D01*
X168693902Y-122812649D01*
X168603475Y-122812711D01*
X168514028Y-122812748D01*
X168425695Y-122812835D01*
X168338598Y-122812931D01*
X168252876Y-122812994D01*
X168168655Y-122813019D01*
X168086063Y-122813025D01*
X168005232Y-122813016D01*
X167926288Y-122812991D01*
X167849366Y-122812948D01*
X167774594Y-122812889D01*
X167702102Y-122812810D01*
X167632018Y-122812717D01*
X167564474Y-122812613D01*
X167499597Y-122812491D01*
X167437519Y-122812342D01*
X167378371Y-122812152D01*
X167322282Y-122811941D01*
X167269380Y-122811729D01*
X167219793Y-122811517D01*
X167173655Y-122811306D01*
X167131096Y-122811089D01*
X167092243Y-122810849D01*
X167057227Y-122810566D01*
X167026180Y-122810284D01*
X166999228Y-122810002D01*
X166976509Y-122809720D01*
X166958136Y-122809477D01*
X166944251Y-122809260D01*
X166944248Y-122809260D01*
X166944243Y-122809260D01*
X166944240Y-122809260D01*
X166944234Y-122809260D01*
X166944231Y-122809260D01*
X166944226Y-122809263D01*
X166944223Y-122809263D01*
X166944217Y-122809263D01*
X166944214Y-122809263D01*
X166944209Y-122809263D01*
X166944206Y-122809263D01*
X166944200Y-122809263D01*
X166944198Y-122809263D01*
X166944192Y-122809263D01*
X166944189Y-122809263D01*
X166944183Y-122809263D01*
X166944181Y-122809263D01*
X166944178Y-122809263D01*
X166944172Y-122809263D01*
X166944169Y-122809263D01*
X166944166Y-122809263D01*
X166944161Y-122809263D01*
X166944158Y-122809263D01*
X166944152Y-122809263D01*
X166944150Y-122809263D01*
X166944144Y-122809265D01*
X166944141Y-122809265D01*
X166944135Y-122809265D01*
X166944195Y-122809138D01*
X166944254Y-122809011D01*
X166944310Y-122808882D01*
X166945682Y-122807058D01*
D12*
G36*
X132897561Y-99051189D02*
X133163660Y-99051189D01*
X133429762Y-99051189D01*
X133695861Y-99051189D01*
X133961959Y-99051189D01*
X134228058Y-99051189D01*
X134494157Y-99051189D01*
X134760256Y-99051189D01*
X135026355Y-99051189D01*
X135292454Y-99051189D01*
X135558553Y-99051189D01*
X135824654Y-99051189D01*
X136090753Y-99051189D01*
X136356852Y-99051189D01*
X136622951Y-99051189D01*
X136889050Y-99051189D01*
X137155149Y-99051189D01*
X137421247Y-99051189D01*
X137687346Y-99051189D01*
X137953448Y-99051189D01*
X138219547Y-99051189D01*
X138485646Y-99051189D01*
X138751745Y-99051189D01*
X139017846Y-99051189D01*
X139283945Y-99051189D01*
X139550044Y-99051189D01*
X139816143Y-99051189D01*
X140082242Y-99051189D01*
X140348341Y-99051189D01*
X140614439Y-99051189D01*
X140880538Y-99051189D01*
X141146640Y-99051189D01*
X141412739Y-99051189D01*
X141678838Y-99051189D01*
X141944937Y-99051189D01*
X142211038Y-99051189D01*
X142477137Y-99051189D01*
X142743236Y-99051189D01*
X143009335Y-99051189D01*
X143275434Y-99051189D01*
X143541533Y-99051189D01*
X143807631Y-99051189D01*
X144073730Y-99051189D01*
X144339832Y-99051189D01*
X144605931Y-99051189D01*
X144872030Y-99051189D01*
X145138129Y-99051189D01*
X145404227Y-99051189D01*
X145670326Y-99051189D01*
X145936425Y-99051189D01*
X146202524Y-99051189D01*
X146468626Y-99051189D01*
X146734725Y-99051189D01*
X147000823Y-99051189D01*
X147266922Y-99051189D01*
X147533024Y-99051189D01*
X147799123Y-99051189D01*
X148065222Y-99051189D01*
X148331321Y-99051189D01*
X148597419Y-99051189D01*
X148863518Y-99051189D01*
X149129617Y-99051189D01*
X149395716Y-99051189D01*
X149661818Y-99051189D01*
X149927917Y-99051189D01*
X149927917Y-99311579D01*
X149927917Y-99571968D01*
X149927917Y-99832355D01*
X149927917Y-100092744D01*
X149927917Y-100353134D01*
X149927917Y-100613523D01*
X149927917Y-100873913D01*
X149927917Y-101134299D01*
X149927917Y-101394689D01*
X149927917Y-101655079D01*
X149927917Y-101915468D01*
X149927917Y-102175858D01*
X149927917Y-102436247D01*
X149927917Y-102696634D01*
X149927917Y-102957023D01*
X149927917Y-103217413D01*
X149661818Y-103217413D01*
X149395716Y-103217413D01*
X149129617Y-103217413D01*
X148863518Y-103217413D01*
X148597419Y-103217413D01*
X148331321Y-103217413D01*
X148065222Y-103217413D01*
X147799123Y-103217413D01*
X147533024Y-103217413D01*
X147266922Y-103217413D01*
X147000823Y-103217413D01*
X146734725Y-103217413D01*
X146468626Y-103217413D01*
X146202524Y-103217413D01*
X145936425Y-103217413D01*
X145670326Y-103217413D01*
X145404227Y-103217413D01*
X145138129Y-103217413D01*
X144872030Y-103217413D01*
X144605931Y-103217413D01*
X144339832Y-103217413D01*
X144073730Y-103217413D01*
X143807631Y-103217413D01*
X143541533Y-103217413D01*
X143275434Y-103217413D01*
X143009335Y-103217413D01*
X142743236Y-103217413D01*
X142477137Y-103217413D01*
X142211038Y-103217413D01*
X141944937Y-103217413D01*
X141678838Y-103217413D01*
X141412739Y-103217413D01*
X141146640Y-103217413D01*
X140880538Y-103217413D01*
X140614439Y-103217413D01*
X140348341Y-103217413D01*
X140082242Y-103217413D01*
X139816143Y-103217413D01*
X139550044Y-103217413D01*
X139283945Y-103217413D01*
X139017846Y-103217413D01*
X138751745Y-103217413D01*
X138485646Y-103217413D01*
X138219547Y-103217413D01*
X137953448Y-103217413D01*
X137687346Y-103217413D01*
X137421247Y-103217413D01*
X137155149Y-103217413D01*
X136889050Y-103217413D01*
X136622951Y-103217413D01*
X136356852Y-103217413D01*
X136090753Y-103217413D01*
X135824654Y-103217413D01*
X135558553Y-103217413D01*
X135292454Y-103217413D01*
X135026355Y-103217413D01*
X134760256Y-103217413D01*
X134494157Y-103217413D01*
X134228058Y-103217413D01*
X133961959Y-103217413D01*
X133695861Y-103217413D01*
X133429762Y-103217413D01*
X133163660Y-103217413D01*
X132897561Y-103217413D01*
X132897561Y-102957023D01*
X132897561Y-102696634D01*
X132897561Y-102436247D01*
X132897561Y-102175858D01*
X132897561Y-101915468D01*
X132897561Y-101655079D01*
X132897561Y-101394689D01*
X132897561Y-101134299D01*
X132897561Y-100873913D01*
X132897561Y-100613523D01*
X132897561Y-100353134D01*
X132897561Y-100092744D01*
X132897561Y-99832355D01*
X132897561Y-99571968D01*
X132897561Y-99311579D01*
X132897561Y-99051189D01*
X132897561Y-99051189D01*
G37*
G36*
X144521600Y-135105600D02*
X142669200Y-135105600D01*
X142669200Y-132153200D01*
X144521600Y-132153200D01*
X144521600Y-135105600D01*
X144521600Y-135105600D01*
G37*
G36*
X139321600Y-135105600D02*
X137469200Y-135105600D01*
X137469200Y-132153200D01*
X139321600Y-132153200D01*
X139321600Y-135105600D01*
X139321600Y-135105600D01*
G37*
G36*
X114861400Y-133099000D02*
X113009000Y-133099000D01*
X113009000Y-130146600D01*
X114861400Y-130146600D01*
X114861400Y-133099000D01*
X114861400Y-133099000D01*
G37*
G36*
X120061400Y-133099000D02*
X118209000Y-133099000D01*
X118209000Y-130146600D01*
X120061400Y-130146600D01*
X120061400Y-133099000D01*
X120061400Y-133099000D01*
G37*
G36*
X119131200Y-126706200D02*
X117583800Y-126706200D01*
X117583800Y-124753800D01*
X119131200Y-124753800D01*
X119131200Y-126706200D01*
X119131200Y-126706200D01*
G37*
G36*
X116096200Y-126706200D02*
X114548800Y-126706200D01*
X114548800Y-124753800D01*
X116096200Y-124753800D01*
X116096200Y-126706200D01*
X116096200Y-126706200D01*
G37*
G36*
X143261200Y-126071200D02*
X141713800Y-126071200D01*
X141713800Y-124118800D01*
X143261200Y-124118800D01*
X143261200Y-126071200D01*
X143261200Y-126071200D01*
G37*
G36*
X140226200Y-126071200D02*
X138678800Y-126071200D01*
X138678800Y-124118800D01*
X140226200Y-124118800D01*
X140226200Y-126071200D01*
X140226200Y-126071200D01*
G37*
G36*
X163784400Y-125995000D02*
X162237000Y-125995000D01*
X162237000Y-124042600D01*
X163784400Y-124042600D01*
X163784400Y-125995000D01*
X163784400Y-125995000D01*
G37*
G36*
X160749400Y-125995000D02*
X159202000Y-125995000D01*
X159202000Y-124042600D01*
X160749400Y-124042600D01*
X160749400Y-125995000D01*
X160749400Y-125995000D01*
G37*
G36*
X170360800Y-124862000D02*
X167408400Y-124862000D01*
X167408400Y-123009600D01*
X170360800Y-123009600D01*
X170360800Y-124862000D01*
X170360800Y-124862000D01*
G37*
G36*
X170360800Y-119662000D02*
X167408400Y-119662000D01*
X167408400Y-117809600D01*
X170360800Y-117809600D01*
X170360800Y-119662000D01*
X170360800Y-119662000D01*
G37*
G36*
X116851200Y-117416200D02*
X114798800Y-117416200D01*
X114798800Y-116263800D01*
X116851200Y-116263800D01*
X116851200Y-117416200D01*
X116851200Y-117416200D01*
G37*
G36*
X161936200Y-117416200D02*
X159883800Y-117416200D01*
X159883800Y-116263800D01*
X161936200Y-116263800D01*
X161936200Y-117416200D01*
X161936200Y-117416200D01*
G37*
G36*
X165236200Y-114876200D02*
X163183800Y-114876200D01*
X163183800Y-113723800D01*
X165236200Y-113723800D01*
X165236200Y-114876200D01*
X165236200Y-114876200D01*
G37*
G36*
X120151200Y-114876200D02*
X118098800Y-114876200D01*
X118098800Y-113723800D01*
X120151200Y-113723800D01*
X120151200Y-114876200D01*
X120151200Y-114876200D01*
G37*
G36*
X116851200Y-112336200D02*
X114798800Y-112336200D01*
X114798800Y-111183800D01*
X116851200Y-111183800D01*
X116851200Y-112336200D01*
X116851200Y-112336200D01*
G37*
G36*
X161936200Y-112336200D02*
X159883800Y-112336200D01*
X159883800Y-111183800D01*
X161936200Y-111183800D01*
X161936200Y-112336200D01*
X161936200Y-112336200D01*
G37*
G36*
X165236200Y-109796200D02*
X163183800Y-109796200D01*
X163183800Y-108643800D01*
X165236200Y-108643800D01*
X165236200Y-109796200D01*
X165236200Y-109796200D01*
G37*
G36*
X120151200Y-109796200D02*
X118098800Y-109796200D01*
X118098800Y-108643800D01*
X120151200Y-108643800D01*
X120151200Y-109796200D01*
X120151200Y-109796200D01*
G37*
G36*
X116851200Y-107256200D02*
X114798800Y-107256200D01*
X114798800Y-106103800D01*
X116851200Y-106103800D01*
X116851200Y-107256200D01*
X116851200Y-107256200D01*
G37*
G36*
X161936200Y-107256200D02*
X159883800Y-107256200D01*
X159883800Y-106103800D01*
X161936200Y-106103800D01*
X161936200Y-107256200D01*
X161936200Y-107256200D01*
G37*
G36*
X147781199Y-104851200D02*
X144828799Y-104851200D01*
X144828799Y-102998800D01*
X147781199Y-102998800D01*
X147781199Y-104851200D01*
X147781199Y-104851200D01*
G37*
G36*
X165236200Y-104716200D02*
X163183800Y-104716200D01*
X163183800Y-103563800D01*
X165236200Y-103563800D01*
X165236200Y-104716200D01*
X165236200Y-104716200D01*
G37*
G36*
X120151200Y-104716200D02*
X118098800Y-104716200D01*
X118098800Y-103563800D01*
X120151200Y-103563800D01*
X120151200Y-104716200D01*
X120151200Y-104716200D01*
G37*
G36*
X137866957Y-104658391D02*
X134914557Y-104658391D01*
X134914557Y-102805991D01*
X137866957Y-102805991D01*
X137866957Y-104658391D01*
X137866957Y-104658391D01*
G37*
G36*
X153376200Y-103256200D02*
X151423800Y-103256200D01*
X151423800Y-101708800D01*
X153376200Y-101708800D01*
X153376200Y-103256200D01*
X153376200Y-103256200D01*
G37*
G36*
X131786200Y-103256200D02*
X129833800Y-103256200D01*
X129833800Y-101708800D01*
X131786200Y-101708800D01*
X131786200Y-103256200D01*
X131786200Y-103256200D01*
G37*
G36*
X116851200Y-102176200D02*
X114798800Y-102176200D01*
X114798800Y-101023800D01*
X116851200Y-101023800D01*
X116851200Y-102176200D01*
X116851200Y-102176200D01*
G37*
G36*
X161936200Y-102176200D02*
X159883800Y-102176200D01*
X159883800Y-101023800D01*
X161936200Y-101023800D01*
X161936200Y-102176200D01*
X161936200Y-102176200D01*
G37*
G36*
X131786200Y-100221200D02*
X129833800Y-100221200D01*
X129833800Y-98673800D01*
X131786200Y-98673800D01*
X131786200Y-100221200D01*
X131786200Y-100221200D01*
G37*
G36*
X153376200Y-100221200D02*
X151423800Y-100221200D01*
X151423800Y-98673800D01*
X153376200Y-98673800D01*
X153376200Y-100221200D01*
X153376200Y-100221200D01*
G37*
G36*
X147781199Y-99651200D02*
X144828799Y-99651200D01*
X144828799Y-97798800D01*
X147781199Y-97798800D01*
X147781199Y-99651200D01*
X147781199Y-99651200D01*
G37*
G36*
X120151200Y-99636200D02*
X118098800Y-99636200D01*
X118098800Y-98483800D01*
X120151200Y-98483800D01*
X120151200Y-99636200D01*
X120151200Y-99636200D01*
G37*
G36*
X165236200Y-99636200D02*
X163183800Y-99636200D01*
X163183800Y-98483800D01*
X165236200Y-98483800D01*
X165236200Y-99636200D01*
X165236200Y-99636200D01*
G37*
G36*
X137866957Y-99458391D02*
X134914557Y-99458391D01*
X134914557Y-97605991D01*
X137866957Y-97605991D01*
X137866957Y-99458391D01*
X137866957Y-99458391D01*
G37*
G36*
X158036200Y-94926200D02*
X156883800Y-94926200D01*
X156883800Y-92873800D01*
X158036200Y-92873800D01*
X158036200Y-94926200D01*
X158036200Y-94926200D01*
G37*
G36*
X147876200Y-94926200D02*
X146723800Y-94926200D01*
X146723800Y-92873800D01*
X147876200Y-92873800D01*
X147876200Y-94926200D01*
X147876200Y-94926200D01*
G37*
G36*
X142796200Y-94926200D02*
X141643800Y-94926200D01*
X141643800Y-92873800D01*
X142796200Y-92873800D01*
X142796200Y-94926200D01*
X142796200Y-94926200D01*
G37*
G36*
X127556200Y-94926200D02*
X126403800Y-94926200D01*
X126403800Y-92873800D01*
X127556200Y-92873800D01*
X127556200Y-94926200D01*
X127556200Y-94926200D01*
G37*
G36*
X137716200Y-94926200D02*
X136563800Y-94926200D01*
X136563800Y-92873800D01*
X137716200Y-92873800D01*
X137716200Y-94926200D01*
X137716200Y-94926200D01*
G37*
G36*
X152956200Y-94926200D02*
X151803800Y-94926200D01*
X151803800Y-92873800D01*
X152956200Y-92873800D01*
X152956200Y-94926200D01*
X152956200Y-94926200D01*
G37*
G36*
X132636200Y-94926200D02*
X131483800Y-94926200D01*
X131483800Y-92873800D01*
X132636200Y-92873800D01*
X132636200Y-94926200D01*
X132636200Y-94926200D01*
G37*
G36*
X155496200Y-91626200D02*
X154343800Y-91626200D01*
X154343800Y-89573800D01*
X155496200Y-89573800D01*
X155496200Y-91626200D01*
X155496200Y-91626200D01*
G37*
G36*
X150416200Y-91626200D02*
X149263800Y-91626200D01*
X149263800Y-89573800D01*
X150416200Y-89573800D01*
X150416200Y-91626200D01*
X150416200Y-91626200D01*
G37*
G36*
X145336200Y-91626200D02*
X144183800Y-91626200D01*
X144183800Y-89573800D01*
X145336200Y-89573800D01*
X145336200Y-91626200D01*
X145336200Y-91626200D01*
G37*
G36*
X135176200Y-91626200D02*
X134023800Y-91626200D01*
X134023800Y-89573800D01*
X135176200Y-89573800D01*
X135176200Y-91626200D01*
X135176200Y-91626200D01*
G37*
G36*
X130096200Y-91626200D02*
X128943800Y-91626200D01*
X128943800Y-89573800D01*
X130096200Y-89573800D01*
X130096200Y-91626200D01*
X130096200Y-91626200D01*
G37*
G36*
X140256200Y-91626200D02*
X139103800Y-91626200D01*
X139103800Y-89573800D01*
X140256200Y-89573800D01*
X140256200Y-91626200D01*
X140256200Y-91626200D01*
G37*
G36*
X125016200Y-91626200D02*
X123863800Y-91626200D01*
X123863800Y-89573800D01*
X125016200Y-89573800D01*
X125016200Y-91626200D01*
X125016200Y-91626200D01*
G37*
G36*
X109111200Y-88606200D02*
X107563800Y-88606200D01*
X107563800Y-86653800D01*
X109111200Y-86653800D01*
X109111200Y-88606200D01*
X109111200Y-88606200D01*
G37*
G36*
X112146200Y-88606200D02*
X110598800Y-88606200D01*
X110598800Y-86653800D01*
X112146200Y-86653800D01*
X112146200Y-88606200D01*
X112146200Y-88606200D01*
G37*
G36*
X130966200Y-84141200D02*
X128013800Y-84141200D01*
X128013800Y-82288800D01*
X130966200Y-82288800D01*
X130966200Y-84141200D01*
X130966200Y-84141200D01*
G37*
G36*
X148967923Y-83934009D02*
X146015523Y-83934009D01*
X146015523Y-82081609D01*
X148967923Y-82081609D01*
X148967923Y-83934009D01*
X148967923Y-83934009D01*
G37*
G36*
X126656200Y-82906200D02*
X124703800Y-82906200D01*
X124703800Y-81358800D01*
X126656200Y-81358800D01*
X126656200Y-82906200D01*
X126656200Y-82906200D01*
G37*
G36*
X152056200Y-82906200D02*
X150103800Y-82906200D01*
X150103800Y-81358800D01*
X152056200Y-81358800D01*
X152056200Y-82906200D01*
X152056200Y-82906200D01*
G37*
G36*
X107546200Y-82324400D02*
X105693800Y-82324400D01*
X105693800Y-79372000D01*
X107546200Y-79372000D01*
X107546200Y-82324400D01*
X107546200Y-82324400D01*
G37*
G36*
X112746200Y-82324400D02*
X110893800Y-82324400D01*
X110893800Y-79372000D01*
X112746200Y-79372000D01*
X112746200Y-82324400D01*
X112746200Y-82324400D01*
G37*
G36*
X126656200Y-79871200D02*
X124703800Y-79871200D01*
X124703800Y-78323800D01*
X126656200Y-78323800D01*
X126656200Y-79871200D01*
X126656200Y-79871200D01*
G37*
G36*
X152056200Y-79871200D02*
X150103800Y-79871200D01*
X150103800Y-78323800D01*
X152056200Y-78323800D01*
X152056200Y-79871200D01*
X152056200Y-79871200D01*
G37*
G36*
X130966200Y-78941200D02*
X128013800Y-78941200D01*
X128013800Y-77088800D01*
X130966200Y-77088800D01*
X130966200Y-78941200D01*
X130966200Y-78941200D01*
G37*
G36*
X148967923Y-78734009D02*
X146015523Y-78734009D01*
X146015523Y-76881609D01*
X148967923Y-76881609D01*
X148967923Y-78734009D01*
X148967923Y-78734009D01*
G37*
G36*
X137716200Y-74606200D02*
X136563800Y-74606200D01*
X136563800Y-72553800D01*
X137716200Y-72553800D01*
X137716200Y-74606200D01*
X137716200Y-74606200D01*
G37*
G36*
X142796200Y-74606200D02*
X141643800Y-74606200D01*
X141643800Y-72553800D01*
X142796200Y-72553800D01*
X142796200Y-74606200D01*
X142796200Y-74606200D01*
G37*
G36*
X147876200Y-74606200D02*
X146723800Y-74606200D01*
X146723800Y-72553800D01*
X147876200Y-72553800D01*
X147876200Y-74606200D01*
X147876200Y-74606200D01*
G37*
G36*
X152956200Y-74606200D02*
X151803800Y-74606200D01*
X151803800Y-72553800D01*
X152956200Y-72553800D01*
X152956200Y-74606200D01*
X152956200Y-74606200D01*
G37*
G36*
X158036200Y-74606200D02*
X156883800Y-74606200D01*
X156883800Y-72553800D01*
X158036200Y-72553800D01*
X158036200Y-74606200D01*
X158036200Y-74606200D01*
G37*
G36*
X132636200Y-74606200D02*
X131483800Y-74606200D01*
X131483800Y-72553800D01*
X132636200Y-72553800D01*
X132636200Y-74606200D01*
X132636200Y-74606200D01*
G37*
G36*
X127556200Y-74606200D02*
X126403800Y-74606200D01*
X126403800Y-72553800D01*
X127556200Y-72553800D01*
X127556200Y-74606200D01*
X127556200Y-74606200D01*
G37*
G36*
X125016200Y-71306200D02*
X123863800Y-71306200D01*
X123863800Y-69253800D01*
X125016200Y-69253800D01*
X125016200Y-71306200D01*
X125016200Y-71306200D01*
G37*
G36*
X150416200Y-71306200D02*
X149263800Y-71306200D01*
X149263800Y-69253800D01*
X150416200Y-69253800D01*
X150416200Y-71306200D01*
X150416200Y-71306200D01*
G37*
G36*
X145336200Y-71306200D02*
X144183800Y-71306200D01*
X144183800Y-69253800D01*
X145336200Y-69253800D01*
X145336200Y-71306200D01*
X145336200Y-71306200D01*
G37*
G36*
X130096200Y-71306200D02*
X128943800Y-71306200D01*
X128943800Y-69253800D01*
X130096200Y-69253800D01*
X130096200Y-71306200D01*
X130096200Y-71306200D01*
G37*
G36*
X135176200Y-71306200D02*
X134023800Y-71306200D01*
X134023800Y-69253800D01*
X135176200Y-69253800D01*
X135176200Y-71306200D01*
X135176200Y-71306200D01*
G37*
G36*
X140256200Y-71306200D02*
X139103800Y-71306200D01*
X139103800Y-69253800D01*
X140256200Y-69253800D01*
X140256200Y-71306200D01*
X140256200Y-71306200D01*
G37*
G36*
X155496200Y-71306200D02*
X154343800Y-71306200D01*
X154343800Y-69253800D01*
X155496200Y-69253800D01*
X155496200Y-71306200D01*
X155496200Y-71306200D01*
G37*
G36*
X121176200Y-63841200D02*
X119628800Y-63841200D01*
X119628800Y-61888800D01*
X121176200Y-61888800D01*
X121176200Y-63841200D01*
X121176200Y-63841200D01*
G37*
G36*
X124211200Y-63841200D02*
X122663800Y-63841200D01*
X122663800Y-61888800D01*
X124211200Y-61888800D01*
X124211200Y-63841200D01*
X124211200Y-63841200D01*
G37*
G36*
X164851200Y-63206200D02*
X163303800Y-63206200D01*
X163303800Y-61253800D01*
X164851200Y-61253800D01*
X164851200Y-63206200D01*
X164851200Y-63206200D01*
G37*
G36*
X161816200Y-63206200D02*
X160268800Y-63206200D01*
X160268800Y-61253800D01*
X161816200Y-61253800D01*
X161816200Y-63206200D01*
X161816200Y-63206200D01*
G37*
G36*
X120525600Y-59159600D02*
X118673200Y-59159600D01*
X118673200Y-56207200D01*
X120525600Y-56207200D01*
X120525600Y-59159600D01*
X120525600Y-59159600D01*
G37*
G36*
X125725600Y-59159600D02*
X123873200Y-59159600D01*
X123873200Y-56207200D01*
X125725600Y-56207200D01*
X125725600Y-59159600D01*
X125725600Y-59159600D01*
G37*
G36*
X166111600Y-56924400D02*
X164259200Y-56924400D01*
X164259200Y-53972000D01*
X166111600Y-53972000D01*
X166111600Y-56924400D01*
X166111600Y-56924400D01*
G37*
G36*
X160911600Y-56924400D02*
X159059200Y-56924400D01*
X159059200Y-53972000D01*
X160911600Y-53972000D01*
X160911600Y-56924400D01*
X160911600Y-56924400D01*
G37*
M02*
