G04 #@! TF.GenerationSoftware,KiCad,Pcbnew,(5.0.0)*
G04 #@! TF.CreationDate,2019-03-05T23:07:52-06:00*
G04 #@! TF.ProjectId,001,3030312E6B696361645F706362000000,rev?*
G04 #@! TF.SameCoordinates,Original*
G04 #@! TF.FileFunction,Profile,NP*
%FSLAX46Y46*%
G04 Gerber Fmt 4.6, Leading zero omitted, Abs format (unit mm)*
G04 Created by KiCad (PCBNEW (5.0.0)) date 03/05/19 23:07:52*
%MOMM*%
%LPD*%
G01*
G04 APERTURE LIST*
G04 #@! TA.AperFunction,NonConductor*
%ADD10C,0.133917*%
G04 #@! TD*
G04 #@! TA.AperFunction,NonConductor*
%ADD11C,0.266250*%
G04 #@! TD*
G04 APERTURE END LIST*
D10*
G04 #@! TO.C,U2*
X175891412Y-134089034D02*
X175796752Y-135304927D01*
X175796752Y-135304927D02*
X175680742Y-136451635D01*
X175680742Y-136451635D02*
X175526369Y-137642026D01*
X175526369Y-137642026D02*
X175338121Y-138798725D01*
X175338121Y-138798725D02*
X175110783Y-139950048D01*
X175110783Y-139950048D02*
X174981217Y-140530308D01*
X174981217Y-140530308D02*
X174840293Y-141117841D01*
X174840293Y-141117841D02*
X174699435Y-141670130D01*
X174699435Y-141670130D02*
X174547941Y-142233815D01*
X174547941Y-142233815D02*
X174385362Y-142811383D01*
X174385362Y-142811383D02*
X174211245Y-143405322D01*
X174211245Y-143405322D02*
X174023330Y-144033233D01*
X174023330Y-144033233D02*
X173848623Y-144613152D01*
X173848623Y-144613152D02*
X173686114Y-145147195D01*
X173686114Y-145147195D02*
X173534778Y-145637474D01*
X173534778Y-145637474D02*
X173318090Y-146321519D01*
X173318090Y-146321519D02*
X173122372Y-146911753D01*
X173122372Y-146911753D02*
X172943734Y-147416245D01*
X172943734Y-147416245D02*
X172778292Y-147843075D01*
X172778292Y-147843075D02*
X172439180Y-148552703D01*
X172439180Y-148552703D02*
X172103482Y-149008402D01*
X172103482Y-149008402D02*
X171728886Y-149298077D01*
X171728886Y-149298077D02*
X171273083Y-149509634D01*
X171273083Y-149509634D02*
X170956619Y-149619579D01*
X170956619Y-149619579D02*
X170564592Y-149695477D01*
X170564592Y-149695477D02*
X169966953Y-149738319D01*
X169966953Y-149738319D02*
X169033644Y-149749099D01*
X169033644Y-149749099D02*
X168578456Y-149745177D01*
X168578456Y-149745177D02*
X168053303Y-149737049D01*
X168053303Y-149737049D02*
X167451639Y-149724800D01*
X167451639Y-149724800D02*
X166766934Y-149708459D01*
X166766934Y-149708459D02*
X166264090Y-149695421D01*
X166264090Y-149695421D02*
X165719980Y-149680604D01*
X165719980Y-149680604D02*
X164500342Y-149645761D01*
X164500342Y-149645761D02*
X163427102Y-149614045D01*
X163427102Y-149614045D02*
X162233999Y-149578265D01*
X162233999Y-149578265D02*
X161017833Y-149541387D01*
X161017833Y-149541387D02*
X159772505Y-149503126D01*
X159772505Y-149503126D02*
X158539106Y-149464786D01*
X158539106Y-149464786D02*
X157311186Y-149426198D01*
X157311186Y-149426198D02*
X156059169Y-149386419D01*
X156059169Y-149386419D02*
X154849649Y-149347551D01*
X154849649Y-149347551D02*
X153567545Y-149305810D01*
X153567545Y-149305810D02*
X152388479Y-149266810D01*
X152388479Y-149266810D02*
X151008255Y-149220060D01*
X151008255Y-149220060D02*
X149927375Y-149181901D01*
X149927375Y-149181901D02*
X148810317Y-149143919D01*
X148810317Y-149143919D02*
X147794966Y-149114624D01*
X147794966Y-149114624D02*
X146301578Y-149086010D01*
X146301578Y-149086010D02*
X145662472Y-149098569D01*
X145662472Y-149098569D02*
X144913085Y-149099133D01*
X144913085Y-149099133D02*
X142983145Y-149057203D01*
X142983145Y-149057203D02*
X141733055Y-149024471D01*
X141733055Y-149024471D02*
X140303891Y-148984430D01*
X140303891Y-148984430D02*
X139008414Y-148946372D01*
X139008414Y-148946372D02*
X137624874Y-148904222D01*
X137624874Y-148904222D02*
X136309521Y-148862877D01*
X136309521Y-148862877D02*
X134946020Y-148818805D01*
X134946020Y-148818805D02*
X133607342Y-148775012D01*
X133607342Y-148775012D02*
X132273382Y-148731508D01*
X132273382Y-148731508D02*
X130920902Y-148687529D01*
X130920902Y-148687529D02*
X129600859Y-148644736D01*
X129600859Y-148644736D02*
X128228923Y-148600407D01*
X128228923Y-148600407D02*
X126928423Y-148558534D01*
X126928423Y-148558534D02*
X125516683Y-148513285D01*
X125516683Y-148513285D02*
X124255691Y-148473102D01*
X124255691Y-148473102D02*
X122640576Y-148422192D01*
X122640576Y-148422192D02*
X121582657Y-148389742D01*
X121582657Y-148389742D02*
X120339161Y-148351185D01*
X120339161Y-148351185D02*
X118976270Y-148306221D01*
X118976270Y-148306221D02*
X117558628Y-148256883D01*
X117558628Y-148256883D02*
X116923851Y-148233713D01*
X116923851Y-148233713D02*
X116369993Y-148212631D01*
X116369993Y-148212631D02*
X115878021Y-148195077D01*
X115878021Y-148195077D02*
X115348439Y-148179216D01*
X115348439Y-148179216D02*
X114796616Y-148165302D01*
X114796616Y-148165302D02*
X114237917Y-148153646D01*
X114237917Y-148153646D02*
X113640108Y-148143853D01*
X113640108Y-148143853D02*
X113072164Y-148137390D01*
X113072164Y-148137390D02*
X112553892Y-148134568D01*
X112553892Y-148134568D02*
X112105091Y-148135979D01*
X112105091Y-148135979D02*
X111601313Y-148136826D01*
X111601313Y-148136826D02*
X111104491Y-148131012D01*
X111104491Y-148131012D02*
X110617319Y-148118848D01*
X110617319Y-148118848D02*
X110142489Y-148100645D01*
X110142489Y-148100645D02*
X109613026Y-148072536D01*
X109613026Y-148072536D02*
X109107752Y-148037283D01*
X109107752Y-148037283D02*
X108630811Y-147995385D01*
X108630811Y-147995385D02*
X108186350Y-147947328D01*
X108186350Y-147947328D02*
X107470545Y-147845008D01*
X107470545Y-147845008D02*
X106902900Y-147726684D01*
X106902900Y-147726684D02*
X106508844Y-147595346D01*
X106508844Y-147595346D02*
X106313803Y-147453989D01*
X106313803Y-147453989D02*
X106252250Y-147207302D01*
X106252250Y-147207302D02*
X106266277Y-146814451D01*
X106266277Y-146814451D02*
X106352191Y-146292470D01*
X106352191Y-146292470D02*
X106506301Y-145658396D01*
X106506301Y-145658396D02*
X106620968Y-145260860D01*
X106620968Y-145260860D02*
X106755199Y-144836528D01*
X106755199Y-144836528D02*
X106908349Y-144388384D01*
X106908349Y-144388384D02*
X107079768Y-143919421D01*
X107079768Y-143919421D02*
X107245046Y-143386501D01*
X107245046Y-143386501D02*
X107410101Y-142691399D01*
X107410101Y-142691399D02*
X107555798Y-141924167D01*
X107555798Y-141924167D02*
X107662995Y-141174867D01*
X107662995Y-141174867D02*
X107716177Y-140869463D01*
X107716177Y-140869463D02*
X107768865Y-140564694D01*
X107768865Y-140564694D02*
X107820994Y-140260534D01*
X107820994Y-140260534D02*
X107872497Y-139956956D01*
X107872497Y-139956956D02*
X107923302Y-139653943D01*
X107923302Y-139653943D02*
X107973352Y-139351463D01*
X107973352Y-139351463D02*
X108022571Y-139049496D01*
X108022571Y-139049496D02*
X108070896Y-138748018D01*
X108070896Y-138748018D02*
X108118259Y-138447003D01*
X108118259Y-138447003D02*
X108164594Y-138146430D01*
X108164594Y-138146430D02*
X108209831Y-137846270D01*
X108209831Y-137846270D02*
X108253909Y-137546502D01*
X108253909Y-137546502D02*
X108296756Y-137247104D01*
X108296756Y-137247104D02*
X108338307Y-136948047D01*
X108338307Y-136948047D02*
X108378496Y-136649309D01*
X108378496Y-136649309D02*
X108417250Y-136350865D01*
X108417250Y-136350865D02*
X108454512Y-136052691D01*
X108454512Y-136052691D02*
X108490208Y-135754766D01*
X108490208Y-135754766D02*
X108524272Y-135457064D01*
X108524272Y-135457064D02*
X108556637Y-135159557D01*
X108556637Y-135159557D02*
X108587239Y-134862227D01*
X108587239Y-134862227D02*
X108616005Y-134565044D01*
X108616005Y-134565044D02*
X108642873Y-134267991D01*
X108642873Y-134267991D02*
X108667765Y-133971037D01*
X108667765Y-133971037D02*
X108690625Y-133674159D01*
X108690625Y-133674159D02*
X108711397Y-133377338D01*
X108711397Y-133377338D02*
X108729995Y-133080541D01*
X108729995Y-133080541D02*
X108746364Y-132783754D01*
X108746364Y-132783754D02*
X108760447Y-132486943D01*
X108760447Y-132486943D02*
X108772159Y-132190094D01*
X108772159Y-132190094D02*
X108781416Y-131893173D01*
X108781416Y-131893173D02*
X108788189Y-131596163D01*
X108788189Y-131596163D02*
X108795894Y-130396303D01*
X108795894Y-130396303D02*
X108795993Y-129084153D01*
X108795993Y-129084153D02*
X108789727Y-127828476D01*
X108789727Y-127828476D02*
X108777676Y-126572435D01*
X108777676Y-126572435D02*
X108758429Y-125261213D01*
X108758429Y-125261213D02*
X108733142Y-124060939D01*
X108733142Y-124060939D02*
X108703226Y-123590049D01*
X108703226Y-123590049D02*
X108671301Y-123128686D01*
X108671301Y-123128686D02*
X108637468Y-122675798D01*
X108637468Y-122675798D02*
X108601824Y-122230333D01*
X108601824Y-122230333D02*
X108564466Y-121791243D01*
X108564466Y-121791243D02*
X108525497Y-121357476D01*
X108525497Y-121357476D02*
X108485015Y-120927979D01*
X108485015Y-120927979D02*
X108443116Y-120501705D01*
X108443116Y-120501705D02*
X108399902Y-120077598D01*
X108399902Y-120077598D02*
X108355469Y-119654612D01*
X108355469Y-119654612D02*
X108309916Y-119231694D01*
X108309916Y-119231694D02*
X108263346Y-118807793D01*
X108263346Y-118807793D02*
X108215851Y-118381858D01*
X108215851Y-118381858D02*
X108167537Y-117952838D01*
X108167537Y-117952838D02*
X108118498Y-117519683D01*
X108118498Y-117519683D02*
X108068836Y-117081341D01*
X108068836Y-117081341D02*
X107951779Y-116327734D01*
X107951779Y-116327734D02*
X107829813Y-115716274D01*
X107829813Y-115716274D02*
X107663350Y-114429423D01*
X107663350Y-114429423D02*
X107556430Y-113598930D01*
X107556430Y-113598930D02*
X107412480Y-112650469D01*
X107412480Y-112650469D02*
X107251842Y-111709382D01*
X107251842Y-111709382D02*
X107091969Y-110883069D01*
X107091969Y-110883069D02*
X106893186Y-109910249D01*
X106893186Y-109910249D02*
X106650136Y-108683012D01*
X106650136Y-108683012D02*
X106430835Y-107551916D01*
X106430835Y-107551916D02*
X106227220Y-106479011D01*
X106227220Y-106479011D02*
X106055152Y-105593336D01*
X106055152Y-105593336D02*
X105878151Y-104740776D01*
X105878151Y-104740776D02*
X105639509Y-103684678D01*
X105639509Y-103684678D02*
X105461100Y-103018174D01*
X105461100Y-103018174D02*
X105267154Y-102240149D01*
X105267154Y-102240149D02*
X105186481Y-101542595D01*
X105186481Y-101542595D02*
X105079019Y-100678004D01*
X105079019Y-100678004D02*
X104820644Y-99498355D01*
X104820644Y-99498355D02*
X104660351Y-98824648D01*
X104660351Y-98824648D02*
X104497658Y-98041078D01*
X104497658Y-98041078D02*
X104354950Y-97264046D01*
X104354950Y-97264046D02*
X104246762Y-96569873D01*
X104246762Y-96569873D02*
X104021941Y-95144905D01*
X104021941Y-95144905D02*
X103773549Y-93859682D01*
X103773549Y-93859682D02*
X103525510Y-92748609D01*
X103525510Y-92748609D02*
X103301538Y-91742343D01*
X103301538Y-91742343D02*
X103095601Y-90711206D01*
X103095601Y-90711206D02*
X102890942Y-89540311D01*
X102890942Y-89540311D02*
X102772304Y-88859206D01*
X102772304Y-88859206D02*
X102611113Y-88012573D01*
X102611113Y-88012573D02*
X102453133Y-87228295D01*
X102453133Y-87228295D02*
X102296460Y-86491350D01*
X102296460Y-86491350D02*
X102137276Y-85697818D01*
X102137276Y-85697818D02*
X101984788Y-84815439D01*
X101984788Y-84815439D02*
X101849519Y-83903465D01*
X101849519Y-83903465D02*
X101758756Y-83125398D01*
X101758756Y-83125398D02*
X101598948Y-81773999D01*
X101598948Y-81773999D02*
X101421114Y-80753981D01*
X101421114Y-80753981D02*
X101277562Y-79895038D01*
X101277562Y-79895038D02*
X101154428Y-78622625D01*
X101154428Y-78622625D02*
X101087350Y-77610025D01*
X101087350Y-77610025D02*
X101031890Y-76476510D01*
X101031890Y-76476510D02*
X100994702Y-75431620D01*
X100994702Y-75431620D02*
X100967524Y-74327546D01*
X100967524Y-74327546D02*
X100951945Y-73267306D01*
X100951945Y-73267306D02*
X100946103Y-72178149D01*
X100946103Y-72178149D02*
X100950534Y-71070701D01*
X100950534Y-71070701D02*
X100964843Y-69940679D01*
X100964843Y-69940679D02*
X100988070Y-68805783D01*
X100988070Y-68805783D02*
X101018950Y-67703390D01*
X101018950Y-67703390D02*
X101061775Y-66526305D01*
X101061775Y-66526305D02*
X101111166Y-65467812D01*
X101111166Y-65467812D02*
X101136482Y-65017582D01*
X101136482Y-65017582D02*
X101162672Y-64607832D01*
X101162672Y-64607832D02*
X101189596Y-64242955D01*
X101189596Y-64242955D02*
X101217028Y-63927346D01*
X101217028Y-63927346D02*
X101312495Y-63293483D01*
X101312495Y-63293483D02*
X101416759Y-62660504D01*
X101416759Y-62660504D02*
X101529228Y-62029857D01*
X101529228Y-62029857D02*
X101649296Y-61402987D01*
X101649296Y-61402987D02*
X101774860Y-60831900D01*
X101774860Y-60831900D02*
X101878348Y-60337573D01*
X101878348Y-60337573D02*
X101979564Y-59862629D01*
X101979564Y-59862629D02*
X102098315Y-59349686D01*
X102098315Y-59349686D02*
X102243710Y-58812922D01*
X102243710Y-58812922D02*
X102421211Y-58256532D01*
X102421211Y-58256532D02*
X102524987Y-57955200D01*
X102524987Y-57955200D02*
X102641615Y-57614921D01*
X102641615Y-57614921D02*
X102766998Y-57247741D01*
X102766998Y-57247741D02*
X102897040Y-56865706D01*
X102897040Y-56865706D02*
X103023050Y-56494435D01*
X103023050Y-56494435D02*
X103145907Y-56131361D01*
X103145907Y-56131361D02*
X103261937Y-55787292D01*
X103261937Y-55787292D02*
X103367468Y-55473039D01*
X103367468Y-55473039D02*
X103578449Y-54890422D01*
X103578449Y-54890422D02*
X103791318Y-54383576D01*
X103791318Y-54383576D02*
X103981265Y-54006910D01*
X103981265Y-54006910D02*
X104123488Y-53814835D01*
X104123488Y-53814835D02*
X104409119Y-53686415D01*
X104409119Y-53686415D02*
X104908449Y-53569520D01*
X104908449Y-53569520D02*
X105628649Y-53463597D01*
X105628649Y-53463597D02*
X106576891Y-53368095D01*
X106576891Y-53368095D02*
X107118489Y-53325549D01*
X107118489Y-53325549D02*
X107715731Y-53285243D01*
X107715731Y-53285243D02*
X108369422Y-53247112D01*
X108369422Y-53247112D02*
X109080368Y-53211095D01*
X109080368Y-53211095D02*
X109656497Y-53185227D01*
X109656497Y-53185227D02*
X110266181Y-53160504D01*
X110266181Y-53160504D02*
X111587599Y-53114389D01*
X111587599Y-53114389D02*
X112792750Y-53079269D01*
X112792750Y-53079269D02*
X114095372Y-53046979D01*
X114095372Y-53046979D02*
X115016932Y-53017023D01*
X115016932Y-53017023D02*
X116427959Y-52960440D01*
X116427959Y-52960440D02*
X117542356Y-52912399D01*
X117542356Y-52912399D02*
X118759509Y-52857882D01*
X118759509Y-52857882D02*
X119915796Y-52804522D01*
X119915796Y-52804522D02*
X121090786Y-52748871D01*
X121090786Y-52748871D02*
X122279695Y-52691067D01*
X122279695Y-52691067D02*
X123422120Y-52633912D01*
X123422120Y-52633912D02*
X124671642Y-52569038D01*
X124671642Y-52569038D02*
X125752773Y-52509819D01*
X125752773Y-52509819D02*
X127020803Y-52444266D01*
X127020803Y-52444266D02*
X128468518Y-52382034D01*
X128468518Y-52382034D02*
X129746324Y-52334901D01*
X129746324Y-52334901D02*
X131185869Y-52287781D01*
X131185869Y-52287781D02*
X132478495Y-52249263D01*
X132478495Y-52249263D02*
X133903475Y-52209741D01*
X133903475Y-52209741D02*
X134783847Y-52181315D01*
X134783847Y-52181315D02*
X135957460Y-52136527D01*
X135957460Y-52136527D02*
X136955174Y-52095322D01*
X136955174Y-52095322D02*
X138010894Y-52049405D01*
X138010894Y-52049405D02*
X139051230Y-52001978D01*
X139051230Y-52001978D02*
X140063894Y-51953528D01*
X140063894Y-51953528D02*
X141167541Y-51900783D01*
X141167541Y-51900783D02*
X142338095Y-51847440D01*
X142338095Y-51847440D02*
X143495274Y-51796910D01*
X143495274Y-51796910D02*
X144612622Y-51750205D01*
X144612622Y-51750205D02*
X145870413Y-51700691D01*
X145870413Y-51700691D02*
X146887737Y-51664673D01*
X146887737Y-51664673D02*
X148024999Y-51627989D01*
X148024999Y-51627989D02*
X149162259Y-51591304D01*
X149162259Y-51591304D02*
X150299617Y-51554618D01*
X150299617Y-51554618D02*
X151436973Y-51517930D01*
X151436973Y-51517930D02*
X152502190Y-51482584D01*
X152502190Y-51482584D02*
X153749601Y-51438886D01*
X153749601Y-51438886D02*
X154797650Y-51400875D01*
X154797650Y-51400875D02*
X156062228Y-51354108D01*
X156062228Y-51354108D02*
X157138384Y-51313850D01*
X157138384Y-51313850D02*
X158374689Y-51267287D01*
X158374689Y-51267287D02*
X159470586Y-51225831D01*
X159470586Y-51225831D02*
X160687139Y-51179679D01*
X160687139Y-51179679D02*
X161795705Y-51137542D01*
X161795705Y-51137542D02*
X162385392Y-51115105D01*
X162385392Y-51115105D02*
X162999597Y-51091720D01*
X162999597Y-51091720D02*
X163674749Y-51066630D01*
X163674749Y-51066630D02*
X164305315Y-51044580D01*
X164305315Y-51044580D02*
X164892970Y-51025652D01*
X164892970Y-51025652D02*
X165439377Y-51009929D01*
X165439377Y-51009929D02*
X166161626Y-50993004D01*
X166161626Y-50993004D02*
X166805804Y-50983248D01*
X166805804Y-50983248D02*
X167377002Y-50980905D01*
X167377002Y-50980905D02*
X167880306Y-50986259D01*
X167880306Y-50986259D02*
X168821342Y-51030243D01*
X168821342Y-51030243D02*
X169483749Y-51120957D01*
X169483749Y-51120957D02*
X169932674Y-51261680D01*
X169932674Y-51261680D02*
X170233269Y-51455690D01*
X170233269Y-51455690D02*
X170400838Y-51673493D01*
X170400838Y-51673493D02*
X170492338Y-51970630D01*
X170492338Y-51970630D02*
X170506844Y-52363055D01*
X170506844Y-52363055D02*
X170443437Y-52866720D01*
X170443437Y-52866720D02*
X170380713Y-53171942D01*
X170380713Y-53171942D02*
X170297314Y-53512450D01*
X170297314Y-53512450D02*
X170193114Y-53890366D01*
X170193114Y-53890366D02*
X170067991Y-54307815D01*
X170067991Y-54307815D02*
X169904737Y-54847351D01*
X169904737Y-54847351D02*
X169740334Y-55414182D01*
X169740334Y-55414182D02*
X169577907Y-55996360D01*
X169577907Y-55996360D02*
X169420585Y-56581938D01*
X169420585Y-56581938D02*
X169258386Y-57210868D01*
X169258386Y-57210868D02*
X169110053Y-57814086D01*
X169110053Y-57814086D02*
X168979652Y-58376062D01*
X168979652Y-58376062D02*
X168871245Y-58881264D01*
X168871245Y-58881264D02*
X168813663Y-59164279D01*
X168813663Y-59164279D02*
X168743669Y-59508745D01*
X168743669Y-59508745D02*
X168664359Y-59899425D01*
X168664359Y-59899425D02*
X168578820Y-60321082D01*
X168578820Y-60321082D02*
X168504666Y-60686826D01*
X168504666Y-60686826D02*
X168430129Y-61054661D01*
X168430129Y-61054661D02*
X168287149Y-61760840D01*
X168287149Y-61760840D02*
X168070764Y-63047292D01*
X168070764Y-63047292D02*
X167894234Y-64548695D01*
X167894234Y-64548695D02*
X167780504Y-65904391D01*
X167780504Y-65904391D02*
X167694231Y-67357755D01*
X167694231Y-67357755D02*
X167640194Y-68741033D01*
X167640194Y-68741033D02*
X167609387Y-70172897D01*
X167609387Y-70172897D02*
X167601964Y-71572524D01*
X167601964Y-71572524D02*
X167616358Y-72989801D01*
X167616358Y-72989801D02*
X167652525Y-74401444D01*
X167652525Y-74401444D02*
X167710781Y-75804865D01*
X167710781Y-75804865D02*
X167794158Y-77227949D01*
X167794158Y-77227949D02*
X167901586Y-78614845D01*
X167901586Y-78614845D02*
X168002494Y-79592601D01*
X168002494Y-79592601D02*
X168147887Y-80764253D01*
X168147887Y-80764253D02*
X168291806Y-81812916D01*
X168291806Y-81812916D02*
X168452523Y-82905935D01*
X168452523Y-82905935D02*
X168621659Y-83988808D01*
X168621659Y-83988808D02*
X168796126Y-85041991D01*
X168796126Y-85041991D02*
X168997779Y-86177625D01*
X168997779Y-86177625D02*
X169190836Y-87168888D01*
X169190836Y-87168888D02*
X169454784Y-88534042D01*
X169454784Y-88534042D02*
X169671858Y-89794386D01*
X169671858Y-89794386D02*
X169806349Y-90556499D01*
X169806349Y-90556499D02*
X170015117Y-91619529D01*
X170015117Y-91619529D02*
X170203712Y-92529486D01*
X170203712Y-92529486D02*
X170399941Y-93436207D01*
X170399941Y-93436207D02*
X170618725Y-94443052D01*
X170618725Y-94443052D02*
X170842733Y-95507921D01*
X170842733Y-95507921D02*
X171077994Y-96664657D01*
X171077994Y-96664657D02*
X171255788Y-97586183D01*
X171255788Y-97586183D02*
X171413294Y-98394524D01*
X171413294Y-98394524D02*
X171608879Y-99327065D01*
X171608879Y-99327065D02*
X171812336Y-100244872D01*
X171812336Y-100244872D02*
X172004168Y-101058620D01*
X172004168Y-101058620D02*
X172193370Y-101857447D01*
X172193370Y-101857447D02*
X172393005Y-102748287D01*
X172393005Y-102748287D02*
X172587829Y-103663167D01*
X172587829Y-103663167D02*
X172743415Y-104446356D01*
X172743415Y-104446356D02*
X172874011Y-105122634D01*
X172874011Y-105122634D02*
X173019649Y-105846300D01*
X173019649Y-105846300D02*
X173180713Y-106616360D01*
X173180713Y-106616360D02*
X173318517Y-107241245D01*
X173318517Y-107241245D02*
X173472274Y-107947933D01*
X173472274Y-107947933D02*
X173665320Y-108890222D01*
X173665320Y-108890222D02*
X173830380Y-109726729D01*
X173830380Y-109726729D02*
X173986133Y-110544284D01*
X173986133Y-110544284D02*
X174140511Y-111346049D01*
X174140511Y-111346049D02*
X174305326Y-112157986D01*
X174305326Y-112157986D02*
X174504287Y-113083672D01*
X174504287Y-113083672D02*
X174664437Y-113762642D01*
X174664437Y-113762642D02*
X174802238Y-114410525D01*
X174802238Y-114410525D02*
X174945169Y-115269003D01*
X174945169Y-115269003D02*
X175096985Y-116390060D01*
X175096985Y-116390060D02*
X175273238Y-117519988D01*
X175273238Y-117519988D02*
X175449526Y-118627140D01*
X175449526Y-118627140D02*
X175601443Y-119679874D01*
X175601443Y-119679874D02*
X175742351Y-121399920D01*
X175742351Y-121399920D02*
X175807920Y-122598483D01*
X175807920Y-122598483D02*
X175865109Y-123935889D01*
X175865109Y-123935889D02*
X175907189Y-125183171D01*
X175907189Y-125183171D02*
X175941050Y-126474106D01*
X175941050Y-126474106D02*
X175965377Y-127749891D01*
X175965377Y-127749891D02*
X175980250Y-129012602D01*
X175980250Y-129012602D02*
X175984766Y-130322065D01*
X175984766Y-130322065D02*
X175976497Y-131551896D01*
X175976497Y-131551896D02*
X175946042Y-132945727D01*
X175946042Y-132945727D02*
X175891387Y-134089077D01*
X175891387Y-134089077D02*
X175891412Y-134089034D01*
D11*
X133256745Y-54314945D02*
X133888545Y-54314945D01*
X133888545Y-54314945D02*
X134520347Y-54314945D01*
X134520347Y-54314945D02*
X135152147Y-54314945D01*
X135152147Y-54314945D02*
X135783949Y-54314945D01*
X135783949Y-54314945D02*
X136415681Y-54314945D01*
X136415681Y-54314945D02*
X137047416Y-54314945D01*
X137047416Y-54314945D02*
X137679151Y-54314945D01*
X137679151Y-54314945D02*
X138310885Y-54314945D01*
X138310885Y-54314945D02*
X138942685Y-54314945D01*
X138942685Y-54314945D02*
X139574484Y-54314945D01*
X139574484Y-54314945D02*
X140206281Y-54314945D01*
X140206281Y-54314945D02*
X140838081Y-54314945D01*
X140838081Y-54314945D02*
X141469909Y-54314945D01*
X141469909Y-54314945D02*
X142101736Y-54314945D01*
X142101736Y-54314945D02*
X142733561Y-54314945D01*
X142733561Y-54314945D02*
X143365389Y-54314945D01*
X143365389Y-54314945D02*
X143769692Y-54355462D01*
X143769692Y-54355462D02*
X144145807Y-54471729D01*
X144145807Y-54471729D02*
X144485806Y-54655819D01*
X144485806Y-54655819D02*
X144781761Y-54899805D01*
X144781761Y-54899805D02*
X145025748Y-55195762D01*
X145025748Y-55195762D02*
X145209838Y-55535760D01*
X145209838Y-55535760D02*
X145326106Y-55911875D01*
X145326106Y-55911875D02*
X145366621Y-56316179D01*
X145366621Y-56316179D02*
X145366621Y-56726673D01*
X145366621Y-56726673D02*
X145366621Y-57137167D01*
X145366621Y-57137167D02*
X145366621Y-57547661D01*
X145366621Y-57547661D02*
X145366621Y-57958155D01*
X145366621Y-57958155D02*
X145326106Y-58362459D01*
X145326106Y-58362459D02*
X145209838Y-58738573D01*
X145209838Y-58738573D02*
X145025748Y-59078572D01*
X145025748Y-59078572D02*
X144781761Y-59374528D01*
X144781761Y-59374528D02*
X144485806Y-59618515D01*
X144485806Y-59618515D02*
X144145807Y-59802605D01*
X144145807Y-59802605D02*
X143769692Y-59918872D01*
X143769692Y-59918872D02*
X143365389Y-59959389D01*
X143365389Y-59959389D02*
X142733590Y-59959389D01*
X142733590Y-59959389D02*
X142101787Y-59959389D01*
X142101787Y-59959389D02*
X141469988Y-59959389D01*
X141469988Y-59959389D02*
X140838185Y-59959389D01*
X140838185Y-59959389D02*
X140206453Y-59959389D01*
X140206453Y-59959389D02*
X139574719Y-59959389D01*
X139574719Y-59959389D02*
X138942984Y-59959389D01*
X138942984Y-59959389D02*
X138311249Y-59959389D01*
X138311249Y-59959389D02*
X137679450Y-59959389D01*
X137679450Y-59959389D02*
X137047650Y-59959389D01*
X137047650Y-59959389D02*
X136415853Y-59959389D01*
X136415853Y-59959389D02*
X135784054Y-59959389D01*
X135784054Y-59959389D02*
X135152226Y-59959389D01*
X135152226Y-59959389D02*
X134520398Y-59959389D01*
X134520398Y-59959389D02*
X133888573Y-59959389D01*
X133888573Y-59959389D02*
X133256745Y-59959389D01*
X133256745Y-59959389D02*
X132852442Y-59918872D01*
X132852442Y-59918872D02*
X132476328Y-59802605D01*
X132476328Y-59802605D02*
X132136329Y-59618515D01*
X132136329Y-59618515D02*
X131840371Y-59374528D01*
X131840371Y-59374528D02*
X131596384Y-59078572D01*
X131596384Y-59078572D02*
X131412296Y-58738573D01*
X131412296Y-58738573D02*
X131296029Y-58362459D01*
X131296029Y-58362459D02*
X131255510Y-57958155D01*
X131255510Y-57958155D02*
X131255510Y-57547661D01*
X131255510Y-57547661D02*
X131255510Y-57137167D01*
X131255510Y-57137167D02*
X131255510Y-56726673D01*
X131255510Y-56726673D02*
X131255510Y-56316179D01*
X131255510Y-56316179D02*
X131296029Y-55911875D01*
X131296029Y-55911875D02*
X131412296Y-55535760D01*
X131412296Y-55535760D02*
X131596384Y-55195762D01*
X131596384Y-55195762D02*
X131840371Y-54899805D01*
X131840371Y-54899805D02*
X132136329Y-54655819D01*
X132136329Y-54655819D02*
X132476328Y-54471729D01*
X132476328Y-54471729D02*
X132852442Y-54355462D01*
X132852442Y-54355462D02*
X133256745Y-54314945D01*
G04 #@! TD*
M02*
