G04 #@! TF.GenerationSoftware,KiCad,Pcbnew,6.0.0-rc1-unknown-73a0cbf~66~ubuntu16.04.1*
G04 #@! TF.CreationDate,2019-02-06T09:24:36-07:00
G04 #@! TF.ProjectId,001,3030312e-6b69-4636-9164-5f7063625858,rev?*
G04 #@! TF.SameCoordinates,Original*
G04 #@! TF.FileFunction,Profile,NP*
%FSLAX46Y46*%
G04 Gerber Fmt 4.6, Leading zero omitted, Abs format (unit mm)*
G04 Created by KiCad (PCBNEW 6.0.0-rc1-unknown-73a0cbf~66~ubuntu16.04.1) date 2019-02-06 09:24:36*
%MOMM*%
%LPD*%
G04 APERTURE LIST*
%ADD10C,0.266250*%
%ADD11C,0.133917*%
G04 APERTURE END LIST*
D10*
X134757442Y-52450462D02*
X135161745Y-52409945D01*
X134381328Y-52566729D02*
X134757442Y-52450462D01*
X134041329Y-52750819D02*
X134381328Y-52566729D01*
X133745371Y-52994805D02*
X134041329Y-52750819D01*
X133501384Y-53290762D02*
X133745371Y-52994805D01*
X133317296Y-53630760D02*
X133501384Y-53290762D01*
X133201029Y-54006875D02*
X133317296Y-53630760D01*
X133160510Y-54411179D02*
X133201029Y-54006875D01*
X133160510Y-54821673D02*
X133160510Y-54411179D01*
X133160510Y-55232167D02*
X133160510Y-54821673D01*
X133160510Y-55642661D02*
X133160510Y-55232167D01*
X133160510Y-56053155D02*
X133160510Y-55642661D01*
X133201029Y-56457459D02*
X133160510Y-56053155D01*
X133317296Y-56833573D02*
X133201029Y-56457459D01*
X133501384Y-57173572D02*
X133317296Y-56833573D01*
X133745371Y-57469528D02*
X133501384Y-57173572D01*
X134041329Y-57713515D02*
X133745371Y-57469528D01*
X134381328Y-57897605D02*
X134041329Y-57713515D01*
X134757442Y-58013872D02*
X134381328Y-57897605D01*
X135161745Y-58054389D02*
X134757442Y-58013872D01*
X135793573Y-58054389D02*
X135161745Y-58054389D01*
X136425398Y-58054389D02*
X135793573Y-58054389D01*
X137057226Y-58054389D02*
X136425398Y-58054389D01*
X137689054Y-58054389D02*
X137057226Y-58054389D01*
X138320853Y-58054389D02*
X137689054Y-58054389D01*
X138952650Y-58054389D02*
X138320853Y-58054389D01*
X139584450Y-58054389D02*
X138952650Y-58054389D01*
X140216249Y-58054389D02*
X139584450Y-58054389D01*
X140847984Y-58054389D02*
X140216249Y-58054389D01*
X141479719Y-58054389D02*
X140847984Y-58054389D01*
X142111453Y-58054389D02*
X141479719Y-58054389D01*
X142743185Y-58054389D02*
X142111453Y-58054389D01*
X143374988Y-58054389D02*
X142743185Y-58054389D01*
X144006787Y-58054389D02*
X143374988Y-58054389D01*
X144638590Y-58054389D02*
X144006787Y-58054389D01*
X145270389Y-58054389D02*
X144638590Y-58054389D01*
X145674692Y-58013872D02*
X145270389Y-58054389D01*
X146050807Y-57897605D02*
X145674692Y-58013872D01*
X146390806Y-57713515D02*
X146050807Y-57897605D01*
X146686761Y-57469528D02*
X146390806Y-57713515D01*
X146930748Y-57173572D02*
X146686761Y-57469528D01*
X147114838Y-56833573D02*
X146930748Y-57173572D01*
X147231106Y-56457459D02*
X147114838Y-56833573D01*
X147271621Y-56053155D02*
X147231106Y-56457459D01*
X147271621Y-55642661D02*
X147271621Y-56053155D01*
X147271621Y-55232167D02*
X147271621Y-55642661D01*
X147271621Y-54821673D02*
X147271621Y-55232167D01*
X147271621Y-54411179D02*
X147271621Y-54821673D01*
X147231106Y-54006875D02*
X147271621Y-54411179D01*
X147114838Y-53630760D02*
X147231106Y-54006875D01*
X146930748Y-53290762D02*
X147114838Y-53630760D01*
X146686761Y-52994805D02*
X146930748Y-53290762D01*
X146390806Y-52750819D02*
X146686761Y-52994805D01*
X146050807Y-52566729D02*
X146390806Y-52750819D01*
X145674692Y-52450462D02*
X146050807Y-52566729D01*
X145270389Y-52409945D02*
X145674692Y-52450462D01*
X144638561Y-52409945D02*
X145270389Y-52409945D01*
X144006736Y-52409945D02*
X144638561Y-52409945D01*
X143374909Y-52409945D02*
X144006736Y-52409945D01*
X142743081Y-52409945D02*
X143374909Y-52409945D01*
X142111281Y-52409945D02*
X142743081Y-52409945D01*
X141479484Y-52409945D02*
X142111281Y-52409945D01*
X140847685Y-52409945D02*
X141479484Y-52409945D01*
X140215885Y-52409945D02*
X140847685Y-52409945D01*
X139584151Y-52409945D02*
X140215885Y-52409945D01*
X138952416Y-52409945D02*
X139584151Y-52409945D01*
X138320681Y-52409945D02*
X138952416Y-52409945D01*
X137688949Y-52409945D02*
X138320681Y-52409945D01*
X137057147Y-52409945D02*
X137688949Y-52409945D01*
X136425347Y-52409945D02*
X137057147Y-52409945D01*
X135793545Y-52409945D02*
X136425347Y-52409945D01*
X135161745Y-52409945D02*
X135793545Y-52409945D01*
D11*
X177796387Y-132184077D02*
X177796412Y-132184034D01*
X177851042Y-131040727D02*
X177796387Y-132184077D01*
X177881497Y-129646896D02*
X177851042Y-131040727D01*
X177889766Y-128417065D02*
X177881497Y-129646896D01*
X177885250Y-127107602D02*
X177889766Y-128417065D01*
X177870377Y-125844891D02*
X177885250Y-127107602D01*
X177846050Y-124569106D02*
X177870377Y-125844891D01*
X177812189Y-123278171D02*
X177846050Y-124569106D01*
X177770109Y-122030889D02*
X177812189Y-123278171D01*
X177712920Y-120693483D02*
X177770109Y-122030889D01*
X177647351Y-119494920D02*
X177712920Y-120693483D01*
X177506443Y-117774874D02*
X177647351Y-119494920D01*
X177354526Y-116722140D02*
X177506443Y-117774874D01*
X177178238Y-115614988D02*
X177354526Y-116722140D01*
X177001985Y-114485060D02*
X177178238Y-115614988D01*
X176850169Y-113364003D02*
X177001985Y-114485060D01*
X176707238Y-112505525D02*
X176850169Y-113364003D01*
X176569437Y-111857642D02*
X176707238Y-112505525D01*
X176409287Y-111178672D02*
X176569437Y-111857642D01*
X176210326Y-110252986D02*
X176409287Y-111178672D01*
X176045511Y-109441049D02*
X176210326Y-110252986D01*
X175891133Y-108639284D02*
X176045511Y-109441049D01*
X175735380Y-107821729D02*
X175891133Y-108639284D01*
X175570320Y-106985222D02*
X175735380Y-107821729D01*
X175377274Y-106042933D02*
X175570320Y-106985222D01*
X175223517Y-105336245D02*
X175377274Y-106042933D01*
X175085713Y-104711360D02*
X175223517Y-105336245D01*
X174924649Y-103941300D02*
X175085713Y-104711360D01*
X174779011Y-103217634D02*
X174924649Y-103941300D01*
X174648415Y-102541356D02*
X174779011Y-103217634D01*
X174492829Y-101758167D02*
X174648415Y-102541356D01*
X174298005Y-100843287D02*
X174492829Y-101758167D01*
X174098370Y-99952447D02*
X174298005Y-100843287D01*
X173909168Y-99153620D02*
X174098370Y-99952447D01*
X173717336Y-98339872D02*
X173909168Y-99153620D01*
X173513879Y-97422065D02*
X173717336Y-98339872D01*
X173318294Y-96489524D02*
X173513879Y-97422065D01*
X173160788Y-95681183D02*
X173318294Y-96489524D01*
X172982994Y-94759657D02*
X173160788Y-95681183D01*
X172747733Y-93602921D02*
X172982994Y-94759657D01*
X172523725Y-92538052D02*
X172747733Y-93602921D01*
X172304941Y-91531207D02*
X172523725Y-92538052D01*
X172108712Y-90624486D02*
X172304941Y-91531207D01*
X171920117Y-89714529D02*
X172108712Y-90624486D01*
X171711349Y-88651499D02*
X171920117Y-89714529D01*
X171576858Y-87889386D02*
X171711349Y-88651499D01*
X171359784Y-86629042D02*
X171576858Y-87889386D01*
X171095836Y-85263888D02*
X171359784Y-86629042D01*
X170902779Y-84272625D02*
X171095836Y-85263888D01*
X170701126Y-83136991D02*
X170902779Y-84272625D01*
X170526659Y-82083808D02*
X170701126Y-83136991D01*
X170357523Y-81000935D02*
X170526659Y-82083808D01*
X170196806Y-79907916D02*
X170357523Y-81000935D01*
X170052887Y-78859253D02*
X170196806Y-79907916D01*
X169907494Y-77687601D02*
X170052887Y-78859253D01*
X169806586Y-76709845D02*
X169907494Y-77687601D01*
X169699158Y-75322949D02*
X169806586Y-76709845D01*
X169615781Y-73899865D02*
X169699158Y-75322949D01*
X169557525Y-72496444D02*
X169615781Y-73899865D01*
X169521358Y-71084801D02*
X169557525Y-72496444D01*
X169506964Y-69667524D02*
X169521358Y-71084801D01*
X169514387Y-68267897D02*
X169506964Y-69667524D01*
X169545194Y-66836033D02*
X169514387Y-68267897D01*
X169599231Y-65452755D02*
X169545194Y-66836033D01*
X169685504Y-63999391D02*
X169599231Y-65452755D01*
X169799234Y-62643695D02*
X169685504Y-63999391D01*
X169975764Y-61142292D02*
X169799234Y-62643695D01*
X170192149Y-59855840D02*
X169975764Y-61142292D01*
X170335129Y-59149661D02*
X170192149Y-59855840D01*
X170409666Y-58781826D02*
X170335129Y-59149661D01*
X170483820Y-58416082D02*
X170409666Y-58781826D01*
X170569359Y-57994425D02*
X170483820Y-58416082D01*
X170648669Y-57603745D02*
X170569359Y-57994425D01*
X170718663Y-57259279D02*
X170648669Y-57603745D01*
X170776245Y-56976264D02*
X170718663Y-57259279D01*
X170884652Y-56471062D02*
X170776245Y-56976264D01*
X171015053Y-55909086D02*
X170884652Y-56471062D01*
X171163386Y-55305868D02*
X171015053Y-55909086D01*
X171325585Y-54676938D02*
X171163386Y-55305868D01*
X171482907Y-54091360D02*
X171325585Y-54676938D01*
X171645334Y-53509182D02*
X171482907Y-54091360D01*
X171809737Y-52942351D02*
X171645334Y-53509182D01*
X171972991Y-52402815D02*
X171809737Y-52942351D01*
X172098114Y-51985366D02*
X171972991Y-52402815D01*
X172202314Y-51607450D02*
X172098114Y-51985366D01*
X172285713Y-51266942D02*
X172202314Y-51607450D01*
X172348437Y-50961720D02*
X172285713Y-51266942D01*
X172411844Y-50458055D02*
X172348437Y-50961720D01*
X172397338Y-50065630D02*
X172411844Y-50458055D01*
X172305838Y-49768493D02*
X172397338Y-50065630D01*
X172138269Y-49550690D02*
X172305838Y-49768493D01*
X171837674Y-49356680D02*
X172138269Y-49550690D01*
X171388749Y-49215957D02*
X171837674Y-49356680D01*
X170726342Y-49125243D02*
X171388749Y-49215957D01*
X169785306Y-49081259D02*
X170726342Y-49125243D01*
X169282002Y-49075905D02*
X169785306Y-49081259D01*
X168710804Y-49078248D02*
X169282002Y-49075905D01*
X168066626Y-49088004D02*
X168710804Y-49078248D01*
X167344377Y-49104929D02*
X168066626Y-49088004D01*
X166797970Y-49120652D02*
X167344377Y-49104929D01*
X166210315Y-49139580D02*
X166797970Y-49120652D01*
X165579749Y-49161630D02*
X166210315Y-49139580D01*
X164904597Y-49186720D02*
X165579749Y-49161630D01*
X164290392Y-49210105D02*
X164904597Y-49186720D01*
X163700705Y-49232542D02*
X164290392Y-49210105D01*
X162592139Y-49274679D02*
X163700705Y-49232542D01*
X161375586Y-49320831D02*
X162592139Y-49274679D01*
X160279689Y-49362287D02*
X161375586Y-49320831D01*
X159043384Y-49408850D02*
X160279689Y-49362287D01*
X157967228Y-49449108D02*
X159043384Y-49408850D01*
X156702650Y-49495875D02*
X157967228Y-49449108D01*
X155654601Y-49533886D02*
X156702650Y-49495875D01*
X154407190Y-49577584D02*
X155654601Y-49533886D01*
X153341973Y-49612930D02*
X154407190Y-49577584D01*
X152204617Y-49649618D02*
X153341973Y-49612930D01*
X151067259Y-49686304D02*
X152204617Y-49649618D01*
X149929999Y-49722989D02*
X151067259Y-49686304D01*
X148792737Y-49759673D02*
X149929999Y-49722989D01*
X147775413Y-49795691D02*
X148792737Y-49759673D01*
X146517622Y-49845205D02*
X147775413Y-49795691D01*
X145400274Y-49891910D02*
X146517622Y-49845205D01*
X144243095Y-49942440D02*
X145400274Y-49891910D01*
X143072541Y-49995783D02*
X144243095Y-49942440D01*
X141968894Y-50048528D02*
X143072541Y-49995783D01*
X140956230Y-50096978D02*
X141968894Y-50048528D01*
X139915894Y-50144405D02*
X140956230Y-50096978D01*
X138860174Y-50190322D02*
X139915894Y-50144405D01*
X137862460Y-50231527D02*
X138860174Y-50190322D01*
X136688847Y-50276315D02*
X137862460Y-50231527D01*
X135808475Y-50304741D02*
X136688847Y-50276315D01*
X134383495Y-50344263D02*
X135808475Y-50304741D01*
X133090869Y-50382781D02*
X134383495Y-50344263D01*
X131651324Y-50429901D02*
X133090869Y-50382781D01*
X130373518Y-50477034D02*
X131651324Y-50429901D01*
X128925803Y-50539266D02*
X130373518Y-50477034D01*
X127657773Y-50604819D02*
X128925803Y-50539266D01*
X126576642Y-50664038D02*
X127657773Y-50604819D01*
X125327120Y-50728912D02*
X126576642Y-50664038D01*
X124184695Y-50786067D02*
X125327120Y-50728912D01*
X122995786Y-50843871D02*
X124184695Y-50786067D01*
X121820796Y-50899522D02*
X122995786Y-50843871D01*
X120664509Y-50952882D02*
X121820796Y-50899522D01*
X119447356Y-51007399D02*
X120664509Y-50952882D01*
X118332959Y-51055440D02*
X119447356Y-51007399D01*
X116921932Y-51112023D02*
X118332959Y-51055440D01*
X116000372Y-51141979D02*
X116921932Y-51112023D01*
X114697750Y-51174269D02*
X116000372Y-51141979D01*
X113492599Y-51209389D02*
X114697750Y-51174269D01*
X112171181Y-51255504D02*
X113492599Y-51209389D01*
X111561497Y-51280227D02*
X112171181Y-51255504D01*
X110985368Y-51306095D02*
X111561497Y-51280227D01*
X110274422Y-51342112D02*
X110985368Y-51306095D01*
X109620731Y-51380243D02*
X110274422Y-51342112D01*
X109023489Y-51420549D02*
X109620731Y-51380243D01*
X108481891Y-51463095D02*
X109023489Y-51420549D01*
X107533649Y-51558597D02*
X108481891Y-51463095D01*
X106813449Y-51664520D02*
X107533649Y-51558597D01*
X106314119Y-51781415D02*
X106813449Y-51664520D01*
X106028488Y-51909835D02*
X106314119Y-51781415D01*
X105886265Y-52101910D02*
X106028488Y-51909835D01*
X105696318Y-52478576D02*
X105886265Y-52101910D01*
X105483449Y-52985422D02*
X105696318Y-52478576D01*
X105272468Y-53568039D02*
X105483449Y-52985422D01*
X105166937Y-53882292D02*
X105272468Y-53568039D01*
X105050907Y-54226361D02*
X105166937Y-53882292D01*
X104928050Y-54589435D02*
X105050907Y-54226361D01*
X104802040Y-54960706D02*
X104928050Y-54589435D01*
X104671998Y-55342741D02*
X104802040Y-54960706D01*
X104546615Y-55709921D02*
X104671998Y-55342741D01*
X104429987Y-56050200D02*
X104546615Y-55709921D01*
X104326211Y-56351532D02*
X104429987Y-56050200D01*
X104148710Y-56907922D02*
X104326211Y-56351532D01*
X104003315Y-57444686D02*
X104148710Y-56907922D01*
X103884564Y-57957629D02*
X104003315Y-57444686D01*
X103783348Y-58432573D02*
X103884564Y-57957629D01*
X103679860Y-58926900D02*
X103783348Y-58432573D01*
X103554296Y-59497987D02*
X103679860Y-58926900D01*
X103434228Y-60124857D02*
X103554296Y-59497987D01*
X103321759Y-60755504D02*
X103434228Y-60124857D01*
X103217495Y-61388483D02*
X103321759Y-60755504D01*
X103122028Y-62022346D02*
X103217495Y-61388483D01*
X103094596Y-62337955D02*
X103122028Y-62022346D01*
X103067672Y-62702832D02*
X103094596Y-62337955D01*
X103041482Y-63112582D02*
X103067672Y-62702832D01*
X103016166Y-63562812D02*
X103041482Y-63112582D01*
X102966775Y-64621305D02*
X103016166Y-63562812D01*
X102923950Y-65798390D02*
X102966775Y-64621305D01*
X102893070Y-66900783D02*
X102923950Y-65798390D01*
X102869843Y-68035679D02*
X102893070Y-66900783D01*
X102855534Y-69165701D02*
X102869843Y-68035679D01*
X102851103Y-70273149D02*
X102855534Y-69165701D01*
X102856945Y-71362306D02*
X102851103Y-70273149D01*
X102872524Y-72422546D02*
X102856945Y-71362306D01*
X102899702Y-73526620D02*
X102872524Y-72422546D01*
X102936890Y-74571510D02*
X102899702Y-73526620D01*
X102992350Y-75705025D02*
X102936890Y-74571510D01*
X103059428Y-76717625D02*
X102992350Y-75705025D01*
X103182562Y-77990038D02*
X103059428Y-76717625D01*
X103326114Y-78848981D02*
X103182562Y-77990038D01*
X103503948Y-79868999D02*
X103326114Y-78848981D01*
X103663756Y-81220398D02*
X103503948Y-79868999D01*
X103754519Y-81998465D02*
X103663756Y-81220398D01*
X103889788Y-82910439D02*
X103754519Y-81998465D01*
X104042276Y-83792818D02*
X103889788Y-82910439D01*
X104201460Y-84586350D02*
X104042276Y-83792818D01*
X104358133Y-85323295D02*
X104201460Y-84586350D01*
X104516113Y-86107573D02*
X104358133Y-85323295D01*
X104677304Y-86954206D02*
X104516113Y-86107573D01*
X104795942Y-87635311D02*
X104677304Y-86954206D01*
X105000601Y-88806206D02*
X104795942Y-87635311D01*
X105206538Y-89837343D02*
X105000601Y-88806206D01*
X105430510Y-90843609D02*
X105206538Y-89837343D01*
X105678549Y-91954682D02*
X105430510Y-90843609D01*
X105926941Y-93239905D02*
X105678549Y-91954682D01*
X106151762Y-94664873D02*
X105926941Y-93239905D01*
X106259950Y-95359046D02*
X106151762Y-94664873D01*
X106402658Y-96136078D02*
X106259950Y-95359046D01*
X106565351Y-96919648D02*
X106402658Y-96136078D01*
X106725644Y-97593355D02*
X106565351Y-96919648D01*
X106984019Y-98773004D02*
X106725644Y-97593355D01*
X107091481Y-99637595D02*
X106984019Y-98773004D01*
X107172154Y-100335149D02*
X107091481Y-99637595D01*
X107366100Y-101113174D02*
X107172154Y-100335149D01*
X107544509Y-101779678D02*
X107366100Y-101113174D01*
X107783151Y-102835776D02*
X107544509Y-101779678D01*
X107960152Y-103688336D02*
X107783151Y-102835776D01*
X108132220Y-104574011D02*
X107960152Y-103688336D01*
X108335835Y-105646916D02*
X108132220Y-104574011D01*
X108555136Y-106778012D02*
X108335835Y-105646916D01*
X108798186Y-108005249D02*
X108555136Y-106778012D01*
X108996969Y-108978069D02*
X108798186Y-108005249D01*
X109156842Y-109804382D02*
X108996969Y-108978069D01*
X109317480Y-110745469D02*
X109156842Y-109804382D01*
X109461430Y-111693930D02*
X109317480Y-110745469D01*
X109568350Y-112524423D02*
X109461430Y-111693930D01*
X109734813Y-113811274D02*
X109568350Y-112524423D01*
X109856779Y-114422734D02*
X109734813Y-113811274D01*
X109973836Y-115176341D02*
X109856779Y-114422734D01*
X110023498Y-115614683D02*
X109973836Y-115176341D01*
X110072537Y-116047838D02*
X110023498Y-115614683D01*
X110120851Y-116476858D02*
X110072537Y-116047838D01*
X110168346Y-116902793D02*
X110120851Y-116476858D01*
X110214916Y-117326694D02*
X110168346Y-116902793D01*
X110260469Y-117749612D02*
X110214916Y-117326694D01*
X110304902Y-118172598D02*
X110260469Y-117749612D01*
X110348116Y-118596705D02*
X110304902Y-118172598D01*
X110390015Y-119022979D02*
X110348116Y-118596705D01*
X110430497Y-119452476D02*
X110390015Y-119022979D01*
X110469466Y-119886243D02*
X110430497Y-119452476D01*
X110506824Y-120325333D02*
X110469466Y-119886243D01*
X110542468Y-120770798D02*
X110506824Y-120325333D01*
X110576301Y-121223686D02*
X110542468Y-120770798D01*
X110608226Y-121685049D02*
X110576301Y-121223686D01*
X110638142Y-122155939D02*
X110608226Y-121685049D01*
X110663429Y-123356213D02*
X110638142Y-122155939D01*
X110682676Y-124667435D02*
X110663429Y-123356213D01*
X110694727Y-125923476D02*
X110682676Y-124667435D01*
X110700993Y-127179153D02*
X110694727Y-125923476D01*
X110700894Y-128491303D02*
X110700993Y-127179153D01*
X110693189Y-129691163D02*
X110700894Y-128491303D01*
X110686416Y-129988173D02*
X110693189Y-129691163D01*
X110677159Y-130285094D02*
X110686416Y-129988173D01*
X110665447Y-130581943D02*
X110677159Y-130285094D01*
X110651364Y-130878754D02*
X110665447Y-130581943D01*
X110634995Y-131175541D02*
X110651364Y-130878754D01*
X110616397Y-131472338D02*
X110634995Y-131175541D01*
X110595625Y-131769159D02*
X110616397Y-131472338D01*
X110572765Y-132066037D02*
X110595625Y-131769159D01*
X110547873Y-132362991D02*
X110572765Y-132066037D01*
X110521005Y-132660044D02*
X110547873Y-132362991D01*
X110492239Y-132957227D02*
X110521005Y-132660044D01*
X110461637Y-133254557D02*
X110492239Y-132957227D01*
X110429272Y-133552064D02*
X110461637Y-133254557D01*
X110395208Y-133849766D02*
X110429272Y-133552064D01*
X110359512Y-134147691D02*
X110395208Y-133849766D01*
X110322250Y-134445865D02*
X110359512Y-134147691D01*
X110283496Y-134744309D02*
X110322250Y-134445865D01*
X110243307Y-135043047D02*
X110283496Y-134744309D01*
X110201756Y-135342104D02*
X110243307Y-135043047D01*
X110158909Y-135641502D02*
X110201756Y-135342104D01*
X110114831Y-135941270D02*
X110158909Y-135641502D01*
X110069594Y-136241430D02*
X110114831Y-135941270D01*
X110023259Y-136542003D02*
X110069594Y-136241430D01*
X109975896Y-136843018D02*
X110023259Y-136542003D01*
X109927571Y-137144496D02*
X109975896Y-136843018D01*
X109878352Y-137446463D02*
X109927571Y-137144496D01*
X109828302Y-137748943D02*
X109878352Y-137446463D01*
X109777497Y-138051956D02*
X109828302Y-137748943D01*
X109725994Y-138355534D02*
X109777497Y-138051956D01*
X109673865Y-138659694D02*
X109725994Y-138355534D01*
X109621177Y-138964463D02*
X109673865Y-138659694D01*
X109567995Y-139269867D02*
X109621177Y-138964463D01*
X109460798Y-140019167D02*
X109567995Y-139269867D01*
X109315101Y-140786399D02*
X109460798Y-140019167D01*
X109150046Y-141481501D02*
X109315101Y-140786399D01*
X108984768Y-142014421D02*
X109150046Y-141481501D01*
X108813349Y-142483384D02*
X108984768Y-142014421D01*
X108660199Y-142931528D02*
X108813349Y-142483384D01*
X108525968Y-143355860D02*
X108660199Y-142931528D01*
X108411301Y-143753396D02*
X108525968Y-143355860D01*
X108257191Y-144387470D02*
X108411301Y-143753396D01*
X108171277Y-144909451D02*
X108257191Y-144387470D01*
X108157250Y-145302302D02*
X108171277Y-144909451D01*
X108218803Y-145548989D02*
X108157250Y-145302302D01*
X108413844Y-145690346D02*
X108218803Y-145548989D01*
X108807900Y-145821684D02*
X108413844Y-145690346D01*
X109375545Y-145940008D02*
X108807900Y-145821684D01*
X110091350Y-146042328D02*
X109375545Y-145940008D01*
X110535811Y-146090385D02*
X110091350Y-146042328D01*
X111012752Y-146132283D02*
X110535811Y-146090385D01*
X111518026Y-146167536D02*
X111012752Y-146132283D01*
X112047489Y-146195645D02*
X111518026Y-146167536D01*
X112522319Y-146213848D02*
X112047489Y-146195645D01*
X113009491Y-146226012D02*
X112522319Y-146213848D01*
X113506313Y-146231826D02*
X113009491Y-146226012D01*
X114010091Y-146230979D02*
X113506313Y-146231826D01*
X114458892Y-146229568D02*
X114010091Y-146230979D01*
X114977164Y-146232390D02*
X114458892Y-146229568D01*
X115545108Y-146238853D02*
X114977164Y-146232390D01*
X116142917Y-146248646D02*
X115545108Y-146238853D01*
X116701616Y-146260302D02*
X116142917Y-146248646D01*
X117253439Y-146274216D02*
X116701616Y-146260302D01*
X117783021Y-146290077D02*
X117253439Y-146274216D01*
X118274993Y-146307631D02*
X117783021Y-146290077D01*
X118828851Y-146328713D02*
X118274993Y-146307631D01*
X119463628Y-146351883D02*
X118828851Y-146328713D01*
X120881270Y-146401221D02*
X119463628Y-146351883D01*
X122244161Y-146446185D02*
X120881270Y-146401221D01*
X123487657Y-146484742D02*
X122244161Y-146446185D01*
X124545576Y-146517192D02*
X123487657Y-146484742D01*
X126160691Y-146568102D02*
X124545576Y-146517192D01*
X127421683Y-146608285D02*
X126160691Y-146568102D01*
X128833423Y-146653534D02*
X127421683Y-146608285D01*
X130133923Y-146695407D02*
X128833423Y-146653534D01*
X131505859Y-146739736D02*
X130133923Y-146695407D01*
X132825902Y-146782529D02*
X131505859Y-146739736D01*
X134178382Y-146826508D02*
X132825902Y-146782529D01*
X135512342Y-146870012D02*
X134178382Y-146826508D01*
X136851020Y-146913805D02*
X135512342Y-146870012D01*
X138214521Y-146957877D02*
X136851020Y-146913805D01*
X139529874Y-146999222D02*
X138214521Y-146957877D01*
X140913414Y-147041372D02*
X139529874Y-146999222D01*
X142208891Y-147079430D02*
X140913414Y-147041372D01*
X143638055Y-147119471D02*
X142208891Y-147079430D01*
X144888145Y-147152203D02*
X143638055Y-147119471D01*
X146818085Y-147194133D02*
X144888145Y-147152203D01*
X147567472Y-147193569D02*
X146818085Y-147194133D01*
X148206578Y-147181010D02*
X147567472Y-147193569D01*
X149699966Y-147209624D02*
X148206578Y-147181010D01*
X150715317Y-147238919D02*
X149699966Y-147209624D01*
X151832375Y-147276901D02*
X150715317Y-147238919D01*
X152913255Y-147315060D02*
X151832375Y-147276901D01*
X154293479Y-147361810D02*
X152913255Y-147315060D01*
X155472545Y-147400810D02*
X154293479Y-147361810D01*
X156754649Y-147442551D02*
X155472545Y-147400810D01*
X157964169Y-147481419D02*
X156754649Y-147442551D01*
X159216186Y-147521198D02*
X157964169Y-147481419D01*
X160444106Y-147559786D02*
X159216186Y-147521198D01*
X161677505Y-147598126D02*
X160444106Y-147559786D01*
X162922833Y-147636387D02*
X161677505Y-147598126D01*
X164138999Y-147673265D02*
X162922833Y-147636387D01*
X165332102Y-147709045D02*
X164138999Y-147673265D01*
X166405342Y-147740761D02*
X165332102Y-147709045D01*
X167624980Y-147775604D02*
X166405342Y-147740761D01*
X168169090Y-147790421D02*
X167624980Y-147775604D01*
X168671934Y-147803459D02*
X168169090Y-147790421D01*
X169356639Y-147819800D02*
X168671934Y-147803459D01*
X169958303Y-147832049D02*
X169356639Y-147819800D01*
X170483456Y-147840177D02*
X169958303Y-147832049D01*
X170938644Y-147844099D02*
X170483456Y-147840177D01*
X171871953Y-147833319D02*
X170938644Y-147844099D01*
X172469592Y-147790477D02*
X171871953Y-147833319D01*
X172861619Y-147714579D02*
X172469592Y-147790477D01*
X173178083Y-147604634D02*
X172861619Y-147714579D01*
X173633886Y-147393077D02*
X173178083Y-147604634D01*
X174008482Y-147103402D02*
X173633886Y-147393077D01*
X174344180Y-146647703D02*
X174008482Y-147103402D01*
X174683292Y-145938075D02*
X174344180Y-146647703D01*
X174848734Y-145511245D02*
X174683292Y-145938075D01*
X175027372Y-145006753D02*
X174848734Y-145511245D01*
X175223090Y-144416519D02*
X175027372Y-145006753D01*
X175439778Y-143732474D02*
X175223090Y-144416519D01*
X175591114Y-143242195D02*
X175439778Y-143732474D01*
X175753623Y-142708152D02*
X175591114Y-143242195D01*
X175928330Y-142128233D02*
X175753623Y-142708152D01*
X176116245Y-141500322D02*
X175928330Y-142128233D01*
X176290362Y-140906383D02*
X176116245Y-141500322D01*
X176452941Y-140328815D02*
X176290362Y-140906383D01*
X176604435Y-139765130D02*
X176452941Y-140328815D01*
X176745293Y-139212841D02*
X176604435Y-139765130D01*
X176886217Y-138625308D02*
X176745293Y-139212841D01*
X177015783Y-138045048D02*
X176886217Y-138625308D01*
X177243121Y-136893725D02*
X177015783Y-138045048D01*
X177431369Y-135737026D02*
X177243121Y-136893725D01*
X177585742Y-134546635D02*
X177431369Y-135737026D01*
X177701752Y-133399927D02*
X177585742Y-134546635D01*
X177796412Y-132184034D02*
X177701752Y-133399927D01*
M02*
