G04 #@! TF.GenerationSoftware,KiCad,Pcbnew,6.0.0-rc1-unknown-59b0f55~66~ubuntu16.04.1*
G04 #@! TF.CreationDate,2018-11-29T09:25:19-07:00
G04 #@! TF.ProjectId,001,3030312e-6b69-4636-9164-5f7063625858,rev?*
G04 #@! TF.SameCoordinates,Original*
G04 #@! TF.FileFunction,Legend,Bot*
G04 #@! TF.FilePolarity,Positive*
%FSLAX46Y46*%
G04 Gerber Fmt 4.6, Leading zero omitted, Abs format (unit mm)*
G04 Created by KiCad (PCBNEW 6.0.0-rc1-unknown-59b0f55~66~ubuntu16.04.1) date Thu 29 Nov 2018 09:25:19 AM MST*
%MOMM*%
%LPD*%
G01*
G04 APERTURE LIST*
%ADD10C,0.120000*%
%ADD11C,0.150000*%
G04 APERTURE END LIST*
D10*
G04 #@! TO.C,REF\002A\002A*
X115445000Y-75598496D02*
X115445000Y-76808496D01*
X149985000Y-72938496D02*
X150655000Y-72938496D01*
X144905000Y-72938496D02*
X148465000Y-72938496D01*
X139825000Y-72938496D02*
X143385000Y-72938496D01*
X134745000Y-72938496D02*
X138305000Y-72938496D01*
X129665000Y-72938496D02*
X133225000Y-72938496D01*
X124585000Y-72938496D02*
X128145000Y-72938496D01*
X119505000Y-72938496D02*
X123065000Y-72938496D01*
X114775000Y-72938496D02*
X117985000Y-72938496D01*
X150655000Y-72938496D02*
X150655000Y-75598496D01*
X147445000Y-75598496D02*
X150655000Y-75598496D01*
X142365000Y-75598496D02*
X145925000Y-75598496D01*
X137285000Y-75598496D02*
X140845000Y-75598496D01*
X132205000Y-75598496D02*
X135765000Y-75598496D01*
X127125000Y-75598496D02*
X130685000Y-75598496D01*
X122045000Y-75598496D02*
X125605000Y-75598496D01*
X116965000Y-75598496D02*
X120525000Y-75598496D01*
X114775000Y-75598496D02*
X115445000Y-75598496D01*
X114775000Y-72938496D02*
X114775000Y-75598496D01*
X114775000Y-93258496D02*
X114775000Y-95918496D01*
X114775000Y-95918496D02*
X115445000Y-95918496D01*
X116965000Y-95918496D02*
X120525000Y-95918496D01*
X122045000Y-95918496D02*
X125605000Y-95918496D01*
X127125000Y-95918496D02*
X130685000Y-95918496D01*
X132205000Y-95918496D02*
X135765000Y-95918496D01*
X137285000Y-95918496D02*
X140845000Y-95918496D01*
X142365000Y-95918496D02*
X145925000Y-95918496D01*
X147445000Y-95918496D02*
X150655000Y-95918496D01*
X150655000Y-93258496D02*
X150655000Y-95918496D01*
X114775000Y-93258496D02*
X117985000Y-93258496D01*
X119505000Y-93258496D02*
X123065000Y-93258496D01*
X124585000Y-93258496D02*
X128145000Y-93258496D01*
X129665000Y-93258496D02*
X133225000Y-93258496D01*
X134745000Y-93258496D02*
X138305000Y-93258496D01*
X139825000Y-93258496D02*
X143385000Y-93258496D01*
X144905000Y-93258496D02*
X148465000Y-93258496D01*
X149985000Y-93258496D02*
X150655000Y-93258496D01*
X115445000Y-95918496D02*
X115445000Y-97128496D01*
D11*
X113787380Y-72935162D02*
X113311190Y-72601829D01*
X113787380Y-72363734D02*
X112787380Y-72363734D01*
X112787380Y-72744686D01*
X112835000Y-72839924D01*
X112882619Y-72887543D01*
X112977857Y-72935162D01*
X113120714Y-72935162D01*
X113215952Y-72887543D01*
X113263571Y-72839924D01*
X113311190Y-72744686D01*
X113311190Y-72363734D01*
X113263571Y-73363734D02*
X113263571Y-73697067D01*
X113787380Y-73839924D02*
X113787380Y-73363734D01*
X112787380Y-73363734D01*
X112787380Y-73839924D01*
X113263571Y-74601829D02*
X113263571Y-74268496D01*
X113787380Y-74268496D02*
X112787380Y-74268496D01*
X112787380Y-74744686D01*
X112787380Y-75268496D02*
X113025476Y-75268496D01*
X112930238Y-75030400D02*
X113025476Y-75268496D01*
X112930238Y-75506591D01*
X113215952Y-75125638D02*
X113025476Y-75268496D01*
X113215952Y-75411353D01*
X112787380Y-76030400D02*
X113025476Y-76030400D01*
X112930238Y-75792305D02*
X113025476Y-76030400D01*
X112930238Y-76268496D01*
X113215952Y-75887543D02*
X113025476Y-76030400D01*
X113215952Y-76173257D01*
X113787380Y-93255162D02*
X113311190Y-92921829D01*
X113787380Y-92683734D02*
X112787380Y-92683734D01*
X112787380Y-93064686D01*
X112835000Y-93159924D01*
X112882619Y-93207543D01*
X112977857Y-93255162D01*
X113120714Y-93255162D01*
X113215952Y-93207543D01*
X113263571Y-93159924D01*
X113311190Y-93064686D01*
X113311190Y-92683734D01*
X113263571Y-93683734D02*
X113263571Y-94017067D01*
X113787380Y-94159924D02*
X113787380Y-93683734D01*
X112787380Y-93683734D01*
X112787380Y-94159924D01*
X113263571Y-94921829D02*
X113263571Y-94588496D01*
X113787380Y-94588496D02*
X112787380Y-94588496D01*
X112787380Y-95064686D01*
X112787380Y-95588496D02*
X113025476Y-95588496D01*
X112930238Y-95350400D02*
X113025476Y-95588496D01*
X112930238Y-95826591D01*
X113215952Y-95445638D02*
X113025476Y-95588496D01*
X113215952Y-95731353D01*
X112787380Y-96350400D02*
X113025476Y-96350400D01*
X112930238Y-96112305D02*
X113025476Y-96350400D01*
X112930238Y-96588496D01*
X113215952Y-96207543D02*
X113025476Y-96350400D01*
X113215952Y-96493257D01*
G04 #@! TD*
M02*
