<svg xmlns="http://www.w3.org/2000/svg" width="480.9" height="197.586" viewBox="0 0 480.9 197.586">
  <title>Arduino_DAY2018_Logotype</title>
  <g id="LOGO">
    <path d="M360.621,181.691l7.414-23.627h6.579l7.524,23.627h-6.214l-1.31-4.834h-6.8l-1.2,4.834Zm10.468-18.029-2.144,8.651h4.47Z" transform="translate(-42.279 -28.62)" fill="#00878f"/>
    <path d="M385.884,158.064h9.523c6.542,0,9.014,3.345,9.014,7.889,0,3.234-1.308,5.706-3.889,7.087l4.616,8.651h-6.906L394.68,174.2h-2.944v7.487h-5.852Zm12.322,7.924c0-2.108-.764-3.161-3.49-3.161h-2.98v6.687h3.09C396.861,169.514,398.206,168.606,398.206,165.988Z" transform="translate(-42.279 -28.62)" fill="#00878f"/>
    <path d="M409.15,158.064h7.741c8.832,0,11.777,4.181,11.777,11.6,0,5.6-1.708,12.031-11.74,12.031H409.15ZM415,162.827v14.03h2.216c4.835,0,5.2-2.945,5.2-6.943,0-4.616-.473-7.087-5.706-7.087Z" transform="translate(-42.279 -28.62)" fill="#00878f"/>
    <path d="M445.971,158.064H451.6v15.521c0,6.979-5.342,8.47-9.522,8.47-4.035,0-9.2-1.345-9.2-8.507V158.064h5.852v14.4c0,3.925,1.381,4.833,3.6,4.833,2.654,0,3.635-1.2,3.635-4.8Z" transform="translate(-42.279 -28.62)" fill="#00878f"/>
    <path d="M456.84,176.857h6.107V162.9H456.84v-4.835h18.1V162.9H468.8v13.958h6.143v4.834h-18.1Z" transform="translate(-42.279 -28.62)" fill="#00878f"/>
    <path d="M485.3,181.691h-5.525V158.064h6.362l7.668,14.176V158.064h5.452v23.627h-5.923l-8.07-15.12Z" transform="translate(-42.279 -28.62)" fill="#00878f"/>
    <path d="M523.179,169.878c0,6.833-2.508,12.177-10.1,12.177-6.8,0-9.924-4.109-9.924-11.923,0-7.124,2.726-12.4,9.888-12.4C519.762,157.737,523.179,160.863,523.179,169.878Zm-6.215,0c0-5.779-.472-7.378-3.925-7.378-3.126,0-3.672,1.853-3.672,7.632,0,4.761.327,7.16,3.708,7.16C516.492,177.292,516.964,175.33,516.964,169.878Z" transform="translate(-42.279 -28.62)" fill="#00878f"/>
    <g>
      <path d="M174.248,76.52l.872-1.613a75.477,75.477,0,0,0-24.769-8.328,74.225,74.225,0,0,0-10.377-.74c-27.6,0-52.288,16.6-61.44,41.308l8.882,3.289c7.782-21.009,28.9-35.124,52.558-35.124a64.539,64.539,0,0,1,9.042.645c16.037,2.291,31.447,11.039,45.8,26l5.229-5.018A103.03,103.03,0,0,0,174.248,76.52Z" transform="translate(-42.279 -28.62)" fill="#62aeb2"/>
      <path d="M109.489,187.137c-23.789-11.059-39.16-34.447-39.16-59.582A63.909,63.909,0,0,1,81.105,91.967a67.022,67.022,0,0,1,9.416-11.21l4.367,4.562a60.666,60.666,0,0,0-8.53,10.151,57.619,57.619,0,0,0-9.715,32.085c0,23.038,13.605,43.675,35.508,53.855Z" transform="translate(-42.279 -28.62)" fill="#62aeb2"/>
      <path d="M225.371,135.311l-2.739-6.389c-.25-.493-.594-1.154-1.012-1.933-4.8,9.08-30.022,53.416-71.5,59.339-3.387.485-6.88,1.592-10.183,1.592a64.857,64.857,0,0,1-27.538-6.044l-3.162,5.795a72.3,72.3,0,0,0,30.7,6.743,78.853,78.853,0,0,0,11.134-.8c40.019-5.715,65.279-42.317,74.582-58.422Z" transform="translate(-42.279 -28.62)" fill="#62aeb2"/>
      <path d="M234.145,166.17a153.811,153.811,0,0,1-26.674,28.371l2.318,2.854a156.632,156.632,0,0,0,26.442-27.847c16.509,22.525,43.976,49.245,83.794,54.929l.943-6.6c-40.7-5.81-67.953-34.586-84.16-59.075C236.044,157.644,234.145,166.17,234.145,166.17Z" transform="translate(-42.279 -28.62)" fill="#e47128"/>
      <path d="M340.5,193.62a77.194,77.194,0,0,1-15.97-.622c-12.228-1.748-24.078-6.63-35.223-14.511l-3.465,4.9c11.929,8.435,24.659,13.668,37.838,15.552a84.32,84.32,0,0,0,11.891.854c1.651,0,3.293-.063,4.929-.163Z" transform="translate(-42.279 -28.62)" fill="#e5ad24"/>
      <path d="M228.54,133.952l-3.169,1.359-2.739-6.389a147.169,147.169,0,0,0-22.584-31.983l-5.229,5.018a131.865,131.865,0,0,1,20.425,27.84l9.612,16.774,8.217-4.711Z" transform="translate(-42.279 -28.62)" fill="#e47128"/>
      <path d="M335.57,188.282a72.279,72.279,0,0,1-10.263-.738c-42.807-6.113-67.851-49.576-72.436-58.228l6.623-3.509c2.628,4.957,26.83,48.6,66.878,54.318a64.875,64.875,0,0,0,9.2.663Z" transform="translate(-42.279 -28.62)" fill="#62aeb2"/>
      <path d="M395.216,110.855a58.032,58.032,0,0,0-15.392-24.72,62.705,62.705,0,0,0-34.739-16.726l1.213-8.492a71.216,71.216,0,0,1,39.456,19.02,66.623,66.623,0,0,1,17.661,28.393Z" transform="translate(-42.279 -28.62)" fill="#00878f"/>
      <path d="M280.624,83.566l-4.043-4.6c14.56-12.787,30.4-20.478,47.089-22.858a84.063,84.063,0,0,1,11.868-.849,77.018,77.018,0,0,1,53.6,21.139l-4.236,4.427a70.924,70.924,0,0,0-49.367-19.439,77.931,77.931,0,0,0-11,.788C309.048,64.38,294.274,71.579,280.624,83.566Z" transform="translate(-42.279 -28.62)" fill="#00878f"/>
      <path d="M249.5,143.243l-21.253-10.11,5.054-10.627c3.283-6.9,15.692-30.9,37.54-50.085l8.844-7.764L295.21,82.345l-8.843,7.763c-18.945,16.63-29.826,38.329-31.814,42.509Z" transform="translate(-42.279 -28.62)" fill="#e5ad24"/>
      <path d="M69.6,155.932A70.986,70.986,0,0,1,85.931,75.953,75.906,75.906,0,0,1,102.744,63.8l3.455,6.49A68.6,68.6,0,0,0,91.013,81.268,63.639,63.639,0,0,0,76.332,152.98Z" transform="translate(-42.279 -28.62)" fill="#00878f"/>
      <path d="M94.924,85.359l-4.439-4.642a71.121,71.121,0,0,1,49.489-19.481A76.925,76.925,0,0,1,177.3,70.869l-3.055,5.651a70.529,70.529,0,0,0-34.274-8.86A64.736,64.736,0,0,0,94.924,85.359Z" transform="translate(-42.279 -28.62)" fill="#e5ad24"/>
      <path d="M50.936,127.555H47.014a87.4,87.4,0,0,1,27.4-63.645l2.711,2.834A83.513,83.513,0,0,0,50.936,127.555Z" transform="translate(-42.279 -28.62)" fill="#e5ad24"/>
      <path d="M206.135,60.513c-15.846-12.668-33.217-20.424-51.628-23.053a103.249,103.249,0,0,0-14.533-1.036A96.644,96.644,0,0,0,87.021,51.935l-2.856-4.381a101.861,101.861,0,0,1,55.809-16.361,108.65,108.65,0,0,1,15.273,1.089C174.6,35.045,192.815,43.169,209.4,56.427Z" transform="translate(-42.279 -28.62)" fill="#00878f"/>
      <path d="M242.918,94.461,232.6,87.18c16.506-23.4,45.024-52.546,87.146-58.56l1.785,12.5C283.868,46.5,257.993,73.1,242.918,94.461Z" transform="translate(-42.279 -28.62)" fill="#00878f"/>
      <path d="M254.732,95.968l-7.3-5.52c14.446-19.11,39.063-42.947,74.293-47.973a97.821,97.821,0,0,1,13.814-.988,92.6,92.6,0,0,1,34.186,6.438l-3.363,8.512a83.5,83.5,0,0,0-30.823-5.8,88.791,88.791,0,0,0-12.52.895C290.873,56.122,268.141,78.23,254.732,95.968Z" transform="translate(-42.279 -28.62)" fill="#62aeb2"/>
      <path d="M240.013,110.87,229.8,106.712l3.037-7.463.262-.413c13.188-20.874,42.109-56.862,87.627-63.356a104.984,104.984,0,0,1,14.814-1.058V45.451a94.288,94.288,0,0,0-13.254.947c-38.844,5.542-64.694,34.458-79.6,57.918Z" transform="translate(-42.279 -28.62)" fill="#62aeb2"/>
      <path d="M239.839,99.566l-5.285-6.484a153.446,153.446,0,0,0-29.235-31.549l4.9-6.128a161.149,161.149,0,0,1,30.667,33.04l5.031,6.159Z" transform="translate(-42.279 -28.62)" fill="#62aeb2"/>
      <path d="M402.163,62.79a95.766,95.766,0,0,0-66.625-26.366,103.274,103.274,0,0,0-14.531,1.036l-.738-5.178a108.626,108.626,0,0,1,15.269-1.089,100.97,100.97,0,0,1,70.24,27.818Z" transform="translate(-42.279 -28.62)" fill="#e47128"/>
      <path d="M153.232,208.705l-1.906-13.346c53.362-7.618,79.951-69.773,80.213-70.4,1.181-2.841,29.705-69.851,90.745-78.562l1.9,13.346c-53.525,7.638-79.944,69.773-80.2,70.4C242.8,132.992,214.256,199.992,153.232,208.705Z" transform="translate(-42.279 -28.62)" fill="#00878f"/>
      <path d="M97.163,195.213l5.852-10.072a73.969,73.969,0,0,0,48.135,9.006l1.65,11.526a90.668,90.668,0,0,0,32.4-11.353l-9.766-17a69.763,69.763,0,0,1-35.5,9.671,64.2,64.2,0,0,1-44.7-17.576,58.643,58.643,0,0,1-13.3-18.889L65.113,157.9a77.16,77.16,0,0,0,17.419,24.8l-.848.886A81.958,81.958,0,0,0,97.163,195.213Z" transform="translate(-42.279 -28.62)" fill="#00878f"/>
      <path d="M139.944,211.724a88.84,88.84,0,0,1-61.8-24.442l3.7-3.868a83.5,83.5,0,0,0,58.1,22.956,90.771,90.771,0,0,0,12.827-.921c44.007-6.285,70.608-43.525,82.582-65.257L238.384,133l4.932,2.084-3.211,7.564c-12.424,22.588-40.193,61.472-86.582,68.1A96.1,96.1,0,0,1,139.944,211.724Z" transform="translate(-42.279 -28.62)" fill="#00878f"/>
      <path d="M139.944,226.206a103.253,103.253,0,0,1-71.816-28.463l6.78-7.084A93.482,93.482,0,0,0,139.939,216.4a100.634,100.634,0,0,0,14.243-1.022c18.344-2.621,35.622-10.432,51.357-23.216l6.182,7.609c-17.134,13.92-36.025,22.437-56.15,25.312A110.523,110.523,0,0,1,139.944,226.206Z" transform="translate(-42.279 -28.62)" fill="#00878f"/>
      <path d="M154.618,218.41l-1.213-8.492c39.533-5.645,65.689-35.059,80.682-58.772.459-.8,4.5-7.8,6.042-10.742l7.594,3.993c-1.712,3.254-6.065,10.793-6.25,11.113l-.087.145C225.434,180.909,197.432,212.3,154.618,218.41Z" transform="translate(-42.279 -28.62)" fill="#e5ad24"/>
      <path d="M97.475,194.678c-24.613-14.292-39.307-39.385-39.307-67.123a76.869,76.869,0,0,1,.945-12.028l6.051.961a70.8,70.8,0,0,0-.869,11.067c0,25.529,13.554,48.641,36.256,61.824Z" transform="translate(-42.279 -28.62)" fill="#62aeb2"/>
      <path d="M67.95,116.93l-11.623-1.844A80.012,80.012,0,0,1,89.318,62.351c18.191-13.013,40.842-18.38,63.8-15.106a89.945,89.945,0,0,1,15.306,3.584l-3.673,11.18a78.223,78.223,0,0,0-13.3-3.114C110.723,53.1,74.037,78.578,67.95,116.93Z" transform="translate(-42.279 -28.62)" fill="#e47128"/>
      <path d="M66.435,199.514a99.691,99.691,0,0,1-24.156-35.843L55.97,158.3A85.118,85.118,0,0,0,76.6,188.888Z" transform="translate(-42.279 -28.62)" fill="#e5ad24"/>
      <path d="M139.944,219.463a96.542,96.542,0,0,1-67.157-26.591A90.28,90.28,0,0,1,44.94,134.365l-.009-.159-.242-6.491,8.572-.32.239,6.41a81.724,81.724,0,0,0,25.218,52.87,88.006,88.006,0,0,0,61.221,24.21,95.3,95.3,0,0,0,13.465-.967l1.215,8.492A104.1,104.1,0,0,1,139.944,219.463Z" transform="translate(-42.279 -28.62)" fill="#62aeb2"/>
      <path d="M179.33,189.473l-2.666-4.644,2.322-1.332c30.274-17.379,47.185-50.6,50.268-57.085L230.4,124l4.834,2.3-1.15,2.417c-3.2,6.735-20.781,41.258-52.436,59.429Z" transform="translate(-42.279 -28.62)" fill="#e5ad24"/>
      <path d="M246.211,124.039a127.9,127.9,0,0,0-5.807-11.728l1.363-.751C229.14,88.646,200.92,49.2,153.794,42.475a97.9,97.9,0,0,0-13.82-.988V50.64a88.876,88.876,0,0,1,12.526.895,86.626,86.626,0,0,1,14.572,3.4l-3.348,10.178c43.5,14.308,65.375,65.454,65.586,65.956,1.206,2.9,30.249,71.12,92.633,80.024l2.586-18.121C272.55,185.552,246.465,124.644,246.211,124.039Z" transform="translate(-42.279 -28.62)" fill="#00878f"/>
      <path d="M417.934,127.555h-7.353a70.439,70.439,0,0,0-24.514-53.13c-16.736-14.519-39.445-20.973-62.313-17.715l-1.037-7.279c24.973-3.565,49.822,3.523,68.168,19.439A77.789,77.789,0,0,1,417.934,127.555Z" transform="translate(-42.279 -28.62)" fill="#e5ad24"/>
      <rect x="88.387" y="68.092" width="19.887" height="61.699" fill="#e5ad24"/>
      <rect x="67.481" y="88.999" width="61.695" height="19.89" fill="#00878f"/>
      <path d="M436.173,136.543l-7.859-.729c.251-2.713.379-5.492.379-8.259a87.63,87.63,0,0,0-27.451-63.8l5.457-5.7a95.456,95.456,0,0,1,29.886,69.506C436.585,130.564,436.447,133.588,436.173,136.543Z" transform="translate(-42.279 -28.62)" fill="#62aeb2"/>
      <path d="M409.132,141.136,404,140.116a64.779,64.779,0,0,0-19.058-59.725l3.615-3.78a70.023,70.023,0,0,1,20.574,64.525Z" transform="translate(-42.279 -28.62)" fill="#00878f"/>
      <path d="M400.147,142.4l-11.875-3.028a47.92,47.92,0,0,0,1.474-11.814c0-28.039-24.318-50.851-54.208-50.851a63.309,63.309,0,0,0-8.845.632q-1.174.168-2.342.384L322.14,65.664c.938-.172,1.877-.326,2.827-.462a75.525,75.525,0,0,1,10.571-.755c36.648,0,66.463,28.311,66.463,63.108A60.187,60.187,0,0,1,400.147,142.4Z" transform="translate(-42.279 -28.62)" fill="#e47128"/>
      <path d="M301.957,79.468l-1.413-2.549c-28.135,15.6-44.606,46.13-47.623,52.093l-2.979,6.064-3.152-1.549-1.3,2.885,11.179,5.02,5.012-11.162c2.948-5.463,25.839-45.765,62.673-52.552L323.248,71.7A70.294,70.294,0,0,0,301.957,79.468Z" transform="translate(-42.279 -28.62)" fill="#00878f"/>
      <path d="M335.57,214.562a99.216,99.216,0,0,1-13.985-1c-20.8-2.971-40.108-12.638-57.375-28.732l7.52-8.068c15.586,14.527,32.885,23.235,51.415,25.882a90.19,90.19,0,0,0,14.811.861l.258,11.027C337.333,214.549,336.453,214.562,335.57,214.562Z" transform="translate(-42.279 -28.62)" fill="#62aeb2"/>
    </g>
  </g>
  <g id="TITLE">
    <g>
      <path d="M361.988,192.426h7.881c8.992,0,11.989,4.256,11.989,11.8,0,5.7-1.739,12.249-11.952,12.249h-7.918Zm5.957,4.847v14.284H370.2c4.921,0,5.292-3,5.292-7.069,0-4.7-.482-7.215-5.81-7.215Z" transform="translate(-42.279 -28.62)" fill="#8c7965"/>
      <path d="M383.854,216.478l7.548-24.052h6.7l7.66,24.052h-6.327l-1.333-4.921H391.18l-1.221,4.921Zm10.656-18.354-2.182,8.807h4.55Z" transform="translate(-42.279 -28.62)" fill="#8c7965"/>
      <path d="M417.783,202.269l4.255-9.843H428l-7.512,14.542v9.51h-5.957v-9.325l-7.771-14.727H413.2Z" transform="translate(-42.279 -28.62)" fill="#8c7965"/>
    </g>
    <g>
      <path d="M450.654,199.377a4,4,0,0,0-4.292-4.218,7.347,7.347,0,0,0-5.107,2.553l-1.553-1.924a10.246,10.246,0,0,1,7.252-3.145c3.737,0,6.735,2.22,6.735,6.4,0,4.922-6.513,11.8-11.36,15.431h12.506v2.552H438.554v-2.072C443.032,211.736,450.654,204.113,450.654,199.377Z" transform="translate(-42.279 -28.62)" fill="#e47128"/>
      <path d="M478.441,204.372c0,5.884-1.591,13.025-9.361,13.025-6.106,0-9.03-4.255-9.03-11.915,0-6.845,2.035-12.839,9.288-12.839C475.888,192.643,478.441,197.194,478.441,204.372Zm-13.617,8.585,7.141-17.206a6.494,6.494,0,0,0-2.848-.592c-4.922,0-6.069,4.81-6.069,9.51C463.048,207.851,463.307,211,464.824,212.957Zm10.62-8.178c0-2.848-.259-5.883-1.851-7.77l-7.178,17.28a6.217,6.217,0,0,0,2.923.629C474.482,214.918,475.444,209.59,475.444,204.779Z" transform="translate(-42.279 -28.62)" fill="#e47128"/>
      <path d="M483.8,214.475h6.772V196.121l-6.143,1.221v-2.405l9.065-2.257v21.795H500.6v2.552H483.8Z" transform="translate(-42.279 -28.62)" fill="#e47128"/>
      <path d="M516.29,204.15c2.849,1.518,6.4,3.442,6.4,6.735,0,3.886-3.923,6.512-8.363,6.512-4.107,0-8.214-2.072-8.214-5.994,0-3.478,3-5.476,5.994-6.957-2.96-1.776-5.218-2.96-5.218-6.1,0-3.442,3.59-5.7,7.623-5.7,4.366,0,7.252,2.22,7.252,5.55C521.766,200.709,518.917,202.781,516.29,204.15Zm-2.22,1.554c-2.368,1.185-4.958,2.85-4.958,5.44,0,2.627,2.4,3.96,5.513,3.96,3,0,5.07-1.629,5.07-4.034C519.7,208.628,516.364,206.963,514.07,205.7Zm.37-2.7c2.738-1.738,4.292-3.107,4.292-4.7,0-2.406-2.109-3.33-4.292-3.33-2.849,0-4.625,1.3-4.625,3.182C509.815,200.117,510.851,200.783,514.44,203Z" transform="translate(-42.279 -28.62)" fill="#e47128"/>
    </g>
  </g>
</svg>
