<svg xmlns="http://www.w3.org/2000/svg" width="481" height="198" style=""><rect id="backgroundrect" width="100%" height="100%" x="0" y="0" fill="none" stroke="none"/>
  <title>Arduino_DAY2018_Logotype</title>
  
  
<g class="currentLayer" style=""><title>Layer 1</title><g id="LOGO" class="">
    <path d="M318.34199472933994,153.07100297546387 l7.414,-23.627 h6.579 l7.524,23.627 h-6.214 l-1.31,-4.834 h-6.8 l-1.2,4.834 zm10.468,-18.029 l-2.144,8.651 h4.47 z" fill="#00878f" id="svg_1"/>
    <path d="M343.60499472934,129.44400297546386 h9.523 c6.542,0 9.014,3.345 9.014,7.889 c0,3.234 -1.308,5.706 -3.8890000000000002,7.087 l4.616,8.651 h-6.906 L352.40099472933997,145.58000297546386 h-2.944 v7.487 h-5.852 zm12.322,7.924 c0,-2.108 -0.7640000000000002,-3.161 -3.49,-3.161 h-2.98 v6.687 h3.09 C354.58199472933995,140.89400297546388 355.92699472934,139.98600297546386 355.92699472934,137.36800297546387 z" fill="#00878f" id="svg_2"/>
    <path d="M366.87099472933994,129.44400297546386 h7.741 c8.832,0 11.777,4.181 11.777,11.6 c0,5.6 -1.7080000000000002,12.031 -11.74,12.031 H366.87099472933994 zM372.72099472933996,134.20700297546387 v14.03 h2.216 c4.835,0 5.2,-2.9450000000000003 5.2,-6.943 c0,-4.616 -0.4730000000000001,-7.087 -5.706,-7.087 z" fill="#00878f" id="svg_3"/>
    <path d="M403.69199472933997,129.44400297546386 H409.32099472934 v15.521 c0,6.979 -5.3420000000000005,8.47 -9.522,8.47 c-4.035,0 -9.2,-1.3450000000000002 -9.2,-8.507 V129.44400297546386 h5.852 v14.4 c0,3.925 1.381,4.833 3.6,4.833 c2.654,0 3.6350000000000002,-1.2 3.6350000000000002,-4.8 z" fill="#00878f" id="svg_4"/>
    <path d="M414.56099472933994,148.23700297546387 h6.107 V134.28000297546387 H414.56099472933994 v-4.835 h18.1 V134.28000297546387 H426.52099472934 v13.958 h6.143 v4.834 h-18.1 z" fill="#00878f" id="svg_5"/>
    <path d="M443.02099472934,153.07100297546387 h-5.525 V129.44400297546386 h6.362 l7.668,14.176 V129.44400297546386 h5.452 v23.627 h-5.923 l-8.07,-15.12 z" fill="#00878f" id="svg_6"/>
    <path d="M480.89999472933994,141.25800297546385 c0,6.833 -2.508,12.177 -10.1,12.177 c-6.8,0 -9.924,-4.109 -9.924,-11.923 c0,-7.124 2.726,-12.4 9.888,-12.4 C477.4829947293399,129.11700297546386 480.89999472933994,132.24300297546387 480.89999472933994,141.25800297546385 zm-6.215,0 c0,-5.779 -0.4720000000000001,-7.378 -3.925,-7.378 c-3.126,0 -3.672,1.8530000000000002 -3.672,7.632 c0,4.761 0.3270000000000001,7.16 3.708,7.16 C474.2129947293399,148.67200297546387 474.68499472934,146.71000297546388 474.68499472934,141.25800297546385 z" fill="#00878f" id="svg_7"/>
    <g id="svg_8">
      <path d="M131.96899472933995,47.90000297546386 l0.8720000000000002,-1.613 a75.477,75.477 0 0 0 -24.769,-8.328 a74.225,74.225 0 0 0 -10.377,-0.7400000000000002 c-27.6,0 -52.288,16.6 -61.44,41.308 l8.882,3.289 c7.782,-21.009 28.9,-35.124 52.558,-35.124 a64.539,64.539 0 0 1 9.042,0.6450000000000002 c16.037,2.291 31.447,11.039 45.8,26 l5.229,-5.018 A103.03,103.03 0 0 0 131.96899472933995,47.90000297546386 z" fill="#62aeb2" id="svg_9"/>
      <path d="M67.20999472933997,158.51700297546387 c-23.789,-11.059 -39.16,-34.447 -39.16,-59.582 A63.909,63.909 0 0 1 38.82599472933997,63.347002975463866 a67.022,67.022 0 0 1 9.416,-11.21 l4.367,4.562 a60.666,60.666 0 0 0 -8.53,10.151 a57.619,57.619 0 0 0 -9.715,32.085 c0,23.038 13.605,43.675 35.508,53.855 z" fill="#62aeb2" id="svg_10"/>
      <path d="M183.09199472933997,106.69100297546387 l-2.739,-6.389 c-0.25,-0.4930000000000001 -0.5940000000000002,-1.154 -1.012,-1.933 c-4.8,9.08 -30.022,53.416 -71.5,59.339 c-3.387,0.4850000000000001 -6.88,1.592 -10.183,1.592 a64.857,64.857 0 0 1 -27.538,-6.044 l-3.162,5.795 a72.3,72.3 0 0 0 30.7,6.743 a78.853,78.853 0 0 0 11.134,-0.8 c40.019,-5.715 65.279,-42.317 74.582,-58.422 z" fill="#62aeb2" id="svg_11"/>
      <path d="M191.86599472933997,137.55000297546385 a153.811,153.811 0 0 1 -26.674,28.371 l2.318,2.854 a156.632,156.632 0 0 0 26.442,-27.847 c16.509,22.525 43.976,49.245 83.794,54.929 l0.9430000000000002,-6.6 c-40.7,-5.8100000000000005 -67.953,-34.586 -84.16,-59.075 C193.76499472933997,129.02400297546387 191.86599472933997,137.55000297546385 191.86599472933997,137.55000297546385 z" fill="#e47128" id="svg_12"/>
      <path d="M298.22099472933996,165.00000297546387 a77.194,77.194 0 0 1 -15.97,-0.6220000000000002 c-12.228,-1.7480000000000002 -24.078,-6.63 -35.223,-14.511 l-3.465,4.9 c11.929,8.435 24.659,13.668 37.838,15.552 a84.32,84.32 0 0 0 11.891,0.8540000000000002 c1.6510000000000002,0 3.293,-0.06300000000000003 4.929,-0.16300000000000006 z" fill="#e5ad24" id="svg_13"/>
      <path d="M186.26099472933996,105.33200297546387 l-3.169,1.359 l-2.739,-6.389 a147.169,147.169 0 0 0 -22.584,-31.983 l-5.229,5.018 a131.865,131.865 0 0 1 20.425,27.84 l9.612,16.774 l8.217,-4.711 z" fill="#e47128" id="svg_14"/>
      <path d="M293.29099472933996,159.66200297546388 a72.279,72.279 0 0 1 -10.263,-0.7380000000000002 c-42.807,-6.113 -67.851,-49.576 -72.436,-58.228 l6.623,-3.509 c2.628,4.957 26.83,48.6 66.878,54.318 a64.875,64.875 0 0 0 9.2,0.6630000000000003 z" fill="#62aeb2" id="svg_15"/>
      <path d="M352.93699472934,82.23500297546387 a58.032,58.032 0 0 0 -15.392,-24.72 a62.705,62.705 0 0 0 -34.739,-16.726 l1.213,-8.492 a71.216,71.216 0 0 1 39.456,19.02 a66.623,66.623 0 0 1 17.661,28.393 z" fill="#00878f" id="svg_16"/>
      <path d="M238.34499472934,54.94600297546387 l-4.043,-4.6 c14.56,-12.787 30.4,-20.478 47.089,-22.858 a84.063,84.063 0 0 1 11.868,-0.8490000000000002 a77.018,77.018 0 0 1 53.6,21.139 l-4.236,4.427 a70.924,70.924 0 0 0 -49.367,-19.439 a77.931,77.931 0 0 0 -11,0.788 C266.76899472933997,35.76000297546386 251.99499472933996,42.95900297546386 238.34499472934,54.94600297546387 z" fill="#00878f" id="svg_17"/>
      <path d="M207.22099472933996,114.62300297546386 l-21.253,-10.11 l5.054,-10.627 c3.283,-6.9 15.692,-30.9 37.54,-50.085 l8.844,-7.764 L252.93099472933994,53.725002975463866 l-8.843,7.763 c-18.945,16.63 -29.826,38.329 -31.814,42.509 z" fill="#e5ad24" id="svg_18"/>
      <path d="M27.320994729339958,127.31200297546386 A70.986,70.986 0 0 1 43.65199472933996,47.33300297546387 A75.906,75.906 0 0 1 60.46499472933996,35.180002975463864 l3.455,6.49 A68.6,68.6 0 0 0 48.73399472933997,52.64800297546387 A63.639,63.639 0 0 0 34.05299472933996,124.36000297546386 z" fill="#00878f" id="svg_19"/>
      <path d="M52.64499472933997,56.73900297546386 l-4.439,-4.642 a71.121,71.121 0 0 1 49.489,-19.481 A76.925,76.925 0 0 1 135.02099472933998,42.24900297546387 l-3.055,5.651 a70.529,70.529 0 0 0 -34.274,-8.86 A64.736,64.736 0 0 0 52.64499472933997,56.73900297546386 z" fill="#e5ad24" id="svg_20"/>
      <path d="M8.656994729339964,98.93500297546387 H4.734994729339967 a87.4,87.4 0 0 1 27.4,-63.645 l2.7110000000000003,2.834 A83.513,83.513 0 0 0 8.656994729339964,98.93500297546387 z" fill="#e5ad24" id="svg_21"/>
      <path d="M163.85599472933995,31.893002975463865 c-15.846,-12.668 -33.217,-20.424 -51.628,-23.053 a103.249,103.249 0 0 0 -14.533,-1.036 A96.644,96.644 0 0 0 44.741994729339964,23.31500297546387 l-2.856,-4.381 a101.861,101.861 0 0 1 55.809,-16.361 a108.65,108.65 0 0 1 15.273,1.089 C132.32099472933996,6.425002975463869 150.53599472933996,14.549002975463864 167.12099472933997,27.807002975463867 z" fill="#00878f" id="svg_22"/>
      <path d="M200.63899472933997,65.84100297546387 L190.32099472933996,58.560002975463874 c16.506,-23.4 45.024,-52.546 87.146,-58.56 l1.7850000000000001,12.5 C241.58899472933996,17.880002975463867 215.71399472933996,44.48000297546386 200.63899472933997,65.84100297546387 z" fill="#00878f" id="svg_23"/>
      <path d="M212.45299472933996,67.34800297546387 l-7.3,-5.52 c14.446,-19.11 39.063,-42.947 74.293,-47.973 a97.821,97.821 0 0 1 13.814,-0.988 a92.6,92.6 0 0 1 34.186,6.438 l-3.363,8.512 a83.5,83.5 0 0 0 -30.823,-5.8 a88.791,88.791 0 0 0 -12.52,0.8950000000000002 C248.59399472933995,27.502002975463867 225.86199472933998,49.61000297546387 212.45299472933996,67.34800297546387 z" fill="#62aeb2" id="svg_24"/>
      <path d="M197.73399472933997,82.25000297546387 L187.52099472933998,78.09200297546387 l3.037,-7.463 l0.262,-0.4130000000000001 c13.188,-20.874 42.109,-56.862 87.627,-63.356 a104.984,104.984 0 0 1 14.814,-1.058 V16.831002975463868 a94.288,94.288 0 0 0 -13.254,0.9470000000000002 c-38.844,5.542 -64.694,34.458 -79.6,57.918 z" fill="#62aeb2" id="svg_25"/>
      <path d="M197.55999472933996,70.94600297546387 l-5.285,-6.484 a153.446,153.446 0 0 0 -29.235,-31.549 l4.9,-6.128 a161.149,161.149 0 0 1 30.667,33.04 l5.031,6.159 z" fill="#62aeb2" id="svg_26"/>
      <path d="M359.88399472934,34.170002975463866 a95.766,95.766 0 0 0 -66.625,-26.366 a103.274,103.274 0 0 0 -14.531,1.036 l-0.7380000000000002,-5.178 a108.626,108.626 0 0 1 15.269,-1.089 a100.97,100.97 0 0 1 70.24,27.818 z" fill="#e47128" id="svg_27"/>
      <path d="M110.95299472933996,180.08500297546388 l-1.9060000000000001,-13.346 c53.362,-7.618 79.951,-69.773 80.213,-70.4 c1.181,-2.841 29.705,-69.851 90.745,-78.562 l1.9,13.346 c-53.525,7.638 -79.944,69.773 -80.2,70.4 C200.52099472933998,104.37200297546386 171.97699472933996,171.37200297546386 110.95299472933996,180.08500297546388 z" fill="#00878f" id="svg_28"/>
      <path d="M54.88399472933996,166.59300297546386 l5.852,-10.072 a73.969,73.969 0 0 0 48.135,9.006 l1.6500000000000004,11.526 a90.668,90.668 0 0 0 32.4,-11.353 l-9.766,-17 a69.763,69.763 0 0 1 -35.5,9.671 a64.2,64.2 0 0 1 -44.7,-17.576 a58.643,58.643 0 0 1 -13.3,-18.889 L22.833994729339963,129.28000297546387 a77.16,77.16 0 0 0 17.419,24.8 l-0.8480000000000002,0.8860000000000002 A81.958,81.958 0 0 0 54.88399472933996,166.59300297546386 z" fill="#00878f" id="svg_29"/>
      <path d="M97.66499472933995,183.10400297546386 a88.84,88.84 0 0 1 -61.8,-24.442 l3.7,-3.8680000000000003 a83.5,83.5 0 0 0 58.1,22.956 a90.771,90.771 0 0 0 12.827,-0.921 c44.007,-6.285 70.608,-43.525 82.582,-65.257 L196.10499472933995,104.38000297546387 l4.932,2.084 l-3.211,7.564 c-12.424,22.588 -40.193,61.472 -86.582,68.1 A96.1,96.1 0 0 1 97.66499472933995,183.10400297546386 z" fill="#00878f" id="svg_30"/>
      <path d="M97.66499472933995,197.58600297546386 a103.253,103.253 0 0 1 -71.816,-28.463 l6.78,-7.084 A93.482,93.482 0 0 0 97.65999472933996,187.78000297546387 a100.634,100.634 0 0 0 14.243,-1.022 c18.344,-2.621 35.622,-10.432 51.357,-23.216 l6.182,7.609 c-17.134,13.92 -36.025,22.437 -56.15,25.312 A110.523,110.523 0 0 1 97.66499472933995,197.58600297546386 z" fill="#00878f" id="svg_31"/>
      <path d="M112.33899472933996,189.79000297546386 l-1.213,-8.492 c39.533,-5.6450000000000005 65.68900000000001,-35.059 80.682,-58.772 c0.459,-0.8 4.5,-7.8 6.042,-10.742 l7.594,3.993 c-1.7120000000000002,3.254 -6.065,10.793 -6.25,11.113 l-0.08700000000000004,0.14500000000000005 C183.15499472933996,152.28900297546386 155.15299472933995,183.68000297546388 112.33899472933996,189.79000297546386 z" fill="#e5ad24" id="svg_32"/>
      <path d="M55.19599472933996,166.05800297546386 c-24.613,-14.292 -39.307,-39.385 -39.307,-67.123 a76.869,76.869 0 0 1 0.9450000000000002,-12.028 l6.051,0.9610000000000002 a70.8,70.8 0 0 0 -0.8690000000000002,11.067 c0,25.529 13.554,48.641 36.256,61.824 z" fill="#62aeb2" id="svg_33"/>
      <path d="M25.670994729339967,88.31000297546387 l-11.623,-1.844 A80.012,80.012 0 0 1 47.03899472933996,33.731002975463866 c18.191,-13.013 40.842,-18.38 63.8,-15.106 a89.945,89.945 0 0 1 15.306000000000001,3.584 l-3.673,11.18 a78.223,78.223 0 0 0 -13.3,-3.114 C68.44399472933996,24.48000297546387 31.75799472933997,49.95800297546387 25.670994729339967,88.31000297546387 z" fill="#e47128" id="svg_34"/>
      <path d="M24.155994729339966,170.89400297546388 a99.691,99.691 0 0 1 -24.156,-35.843 L13.690994729339963,129.68000297546388 A85.118,85.118 0 0 0 34.32099472933996,160.26800297546387 z" fill="#e5ad24" id="svg_35"/>
      <path d="M97.66499472933995,190.84300297546386 a96.542,96.542 0 0 1 -67.157,-26.591 A90.28,90.28 0 0 1 2.6609947293399614,105.74500297546388 l-0.009000000000000006,-0.15900000000000006 l-0.24200000000000005,-6.491 l8.572,-0.3200000000000001 l0.23900000000000005,6.41 a81.724,81.724 0 0 0 25.218,52.87 a88.006,88.006 0 0 0 61.221,24.21 a95.3,95.3 0 0 0 13.465,-0.9670000000000002 l1.215,8.492 A104.1,104.1 0 0 1 97.66499472933995,190.84300297546386 z" fill="#62aeb2" id="svg_36"/>
      <path d="M137.05099472933998,160.85300297546388 l-2.6660000000000004,-4.644 l2.322,-1.332 c30.274,-17.379 47.185,-50.6 50.268,-57.085 L188.12099472933997,95.38000297546387 l4.834,2.3 l-1.15,2.417 c-3.2,6.735 -20.781,41.258 -52.436,59.429 z" fill="#e5ad24" id="svg_37"/>
      <path d="M203.93199472933998,95.41900297546387 a127.9,127.9 0 0 0 -5.807,-11.728 l1.363,-0.7510000000000002 C186.86099472933995,60.02600297546387 158.64099472933995,20.58000297546387 111.51499472933997,13.855002975463869 a97.9,97.9 0 0 0 -13.82,-0.988 V22.020002975463868 a88.876,88.876 0 0 1 12.526,0.8950000000000002 a86.626,86.626 0 0 1 14.572,3.4 l-3.348,10.178 c43.5,14.308 65.375,65.454 65.586,65.956 c1.206,2.9 30.249,71.12 92.633,80.024 l2.5860000000000003,-18.121 C230.27099472933998,156.93200297546386 204.18599472933997,96.02400297546387 203.93199472933998,95.41900297546387 z" fill="#00878f" id="svg_38"/>
      <path d="M375.65499472934,98.93500297546387 h-7.353 a70.439,70.439 0 0 0 -24.514,-53.13 c-16.736,-14.519 -39.445,-20.973 -62.313,-17.715 l-1.037,-7.279 c24.973,-3.565 49.822,3.523 68.168,19.439 A77.789,77.789 0 0 1 375.65499472934,98.93500297546387 z" fill="#e5ad24" id="svg_39"/>
      <rect x="88.3869950955509" y="68.09200668334961" width="19.886999130249023" height="61.69900131225586" fill="#e5ad24" id="svg_40"/>
      <rect x="67.48099686557043" y="88.99900436401367" width="61.69499969482422" height="19.889999389648438" fill="#00878f" id="svg_41"/>
      <path d="M393.89399472933997,107.92300297546387 l-7.859,-0.7290000000000002 c0.251,-2.713 0.3790000000000001,-5.492 0.3790000000000001,-8.259 a87.63,87.63 0 0 0 -27.451,-63.8 l5.457,-5.7 a95.456,95.456 0 0 1 29.886,69.506 C394.30599472933994,101.94400297546386 394.16799472933997,104.96800297546386 393.89399472933997,107.92300297546387 z" fill="#62aeb2" id="svg_42"/>
      <path d="M366.85299472933997,112.51600297546386 L361.72099472933996,111.49600297546388 a64.779,64.779 0 0 0 -19.058,-59.725 l3.615,-3.7800000000000002 a70.023,70.023 0 0 1 20.574,64.525 z" fill="#00878f" id="svg_43"/>
      <path d="M357.86799472933996,113.78000297546387 l-11.875,-3.028 a47.92,47.92 0 0 0 1.474,-11.814 c0,-28.039 -24.318,-50.851 -54.208,-50.851 a63.309,63.309 0 0 0 -8.845,0.6320000000000002 q-1.174,0.16800000000000007 -2.342,0.3840000000000001 L279.86099472933995,37.04400297546387 c0.9380000000000002,-0.17200000000000001 1.8770000000000002,-0.3260000000000001 2.827,-0.462 a75.525,75.525 0 0 1 10.571,-0.7550000000000002 c36.648,0 66.463,28.311 66.463,63.108 A60.187,60.187 0 0 1 357.86799472933996,113.78000297546387 z" fill="#e47128" id="svg_44"/>
      <path d="M259.67799472933996,50.84800297546387 l-1.413,-2.549 c-28.135,15.6 -44.606,46.13 -47.623,52.093 l-2.979,6.064 l-3.152,-1.549 l-1.3,2.8850000000000002 l11.179,5.02 l5.012,-11.162 c2.948,-5.463 25.839,-45.765 62.673,-52.552 L280.96899472933995,43.08000297546387 A70.294,70.294 0 0 0 259.67799472933996,50.84800297546387 z" fill="#00878f" id="svg_45"/>
      <path d="M293.29099472933996,185.94200297546388 a99.216,99.216 0 0 1 -13.985,-1 c-20.8,-2.971 -40.108,-12.638 -57.375,-28.732 l7.52,-8.068 c15.586,14.527 32.885,23.235 51.415,25.882 a90.19,90.19 0 0 0 14.811,0.8610000000000002 l0.258,11.027 C295.05399472934,185.92900297546387 294.17399472933994,185.94200297546388 293.29099472933996,185.94200297546388 z" fill="#62aeb2" id="svg_46"/>
    </g>
  </g><g id="TITLE" class="">
    <g id="svg_47">
      <path d="M319.70899472933996,163.80600297546385 h7.881 c8.992,0 11.989,4.256 11.989,11.8 c0,5.7 -1.739,12.249 -11.952,12.249 h-7.918 zm5.957,4.847 v14.284 H327.92099472933995 c4.921,0 5.292,-3 5.292,-7.069 c0,-4.7 -0.4820000000000001,-7.215 -5.8100000000000005,-7.215 z" fill="#8c7965" id="svg_48"/>
      <path d="M341.57499472933995,187.85800297546388 l7.548,-24.052 h6.7 l7.66,24.052 h-6.327 l-1.3330000000000002,-4.921 H348.90099472933997 l-1.221,4.921 zm10.656,-18.354 l-2.182,8.807 h4.55 z" fill="#8c7965" id="svg_49"/>
      <path d="M375.50399472934,173.64900297546387 l4.255,-9.843 H385.72099472933996 l-7.5120000000000005,14.542 v9.51 h-5.957 v-9.325 l-7.771,-14.727 H370.92099472933995 z" fill="#8c7965" id="svg_50"/>
    </g>
    <g id="svg_51">
      <path d="M408.37499472933996,170.75700297546388 a4,4 0 0 0 -4.292,-4.218 a7.347,7.347 0 0 0 -5.107,2.553 l-1.553,-1.924 a10.246,10.246 0 0 1 7.252,-3.145 c3.737,0 6.735,2.22 6.735,6.4 c0,4.922 -6.513,11.8 -11.36,15.431000000000001 h12.506 v2.552 H396.27499472933994 v-2.072 C400.75299472933995,183.11600297546386 408.37499472933996,175.49300297546387 408.37499472933996,170.75700297546388 z" fill="#e47128" id="svg_52"/>
      <path d="M436.16199472933994,175.75200297546388 c0,5.884 -1.5910000000000002,13.025 -9.361,13.025 c-6.106,0 -9.03,-4.255 -9.03,-11.915 c0,-6.845 2.035,-12.839 9.288,-12.839 C433.60899472933994,164.02300297546387 436.16199472933994,168.57400297546386 436.16199472933994,175.75200297546388 zm-13.617,8.585 l7.141,-17.206 a6.494,6.494 0 0 0 -2.848,-0.5920000000000002 c-4.922,0 -6.069,4.8100000000000005 -6.069,9.51 C420.76899472933997,179.23100297546387 421.02799472934,182.38000297546387 422.54499472934,184.33700297546386 zm10.620000000000001,-8.178 c0,-2.848 -0.259,-5.883 -1.851,-7.77 l-7.178,17.28 a6.217,6.217 0 0 0 2.923,0.6290000000000002 C432.20299472934,186.29800297546387 433.16499472934,180.97000297546387 433.16499472934,176.15900297546386 z" fill="#e47128" id="svg_53"/>
      <path d="M441.52099472934,185.85500297546386 h6.772 V167.50100297546388 l-6.143,1.221 v-2.4050000000000002 l9.065,-2.257 v21.795 H458.32099472934 v2.552 H441.52099472934 z" fill="#e47128" id="svg_54"/>
      <path d="M474.0109947293399,175.53000297546387 c2.849,1.518 6.4,3.442 6.4,6.735 c0,3.886 -3.923,6.5120000000000005 -8.363,6.5120000000000005 c-4.107,0 -8.214,-2.072 -8.214,-5.994 c0,-3.478 3,-5.476 5.994,-6.957 c-2.96,-1.776 -5.218,-2.96 -5.218,-6.1 c0,-3.442 3.59,-5.7 7.623,-5.7 c4.366,0 7.252,2.22 7.252,5.55 C479.4869947293399,172.08900297546387 476.63799472934,174.16100297546387 474.0109947293399,175.53000297546387 zm-2.22,1.554 c-2.368,1.185 -4.958,2.85 -4.958,5.44 c0,2.6270000000000002 2.4,3.96 5.513,3.96 c3,0 5.07,-1.629 5.07,-4.034 C477.42099472934,180.00800297546385 474.08499472934,178.34300297546386 471.79099472934,177.08000297546386 zm0.3700000000000001,-2.7 c2.738,-1.738 4.292,-3.107 4.292,-4.7 c0,-2.406 -2.109,-3.33 -4.292,-3.33 c-2.849,0 -4.625,1.3 -4.625,3.182 C467.53599472933996,171.49700297546386 468.57199472933996,172.16300297546385 472.16099472934,174.38000297546387 z" fill="#e47128" id="svg_55"/>
    </g>
  </g></g></svg>